<svg xmlns="http://www.w3.org/2000/svg" xmlns:xlink="http://www.w3.org/1999/xlink" width="500" zoomAndPan="magnify" viewBox="0 0 375 374.999991" height="500" preserveAspectRatio="xMidYMid meet" version="1.0"><defs><clipPath id="31e06d854e"><path d="M 21.257812 293 L 60 293 L 60 345 L 21.257812 345 Z M 21.257812 293 " clip-rule="nonzero"/></clipPath><clipPath id="d7f57cc4c0"><path d="M 288.40625 338.480469 L 353.5 338.480469 L 353.5 346.523438 L 288.40625 346.523438 Z M 288.40625 338.480469 " clip-rule="nonzero"/></clipPath><clipPath id="596bfa85d3"><path d="M 287.613281 313.503906 L 353.5 313.503906 L 353.5 343.238281 L 287.613281 343.238281 Z M 287.613281 313.503906 " clip-rule="nonzero"/></clipPath><clipPath id="f668842ef0"><path d="M 231 28.53125 L 272 28.53125 L 272 63 L 231 63 Z M 231 28.53125 " clip-rule="nonzero"/></clipPath></defs><rect x="-37.5" width="450" fill="#ffffff" y="-37.499999" height="449.999989" fill-opacity="1"/><rect x="-37.5" width="450" fill="#ffffff" y="-37.499999" height="449.999989" fill-opacity="1"/><path fill="#8c514f" d="M 275.707031 164.65625 C 271.902344 171.367188 268.09375 178.082031 264.289062 184.785156 C 261.886719 189.027344 259.480469 193.265625 257.078125 197.507812 C 252.449219 202.542969 247.808594 207.574219 243.179688 212.601562 C 232.046875 211.03125 220.90625 209.449219 209.773438 207.871094 C 209.179688 193.070312 208.582031 178.277344 208 163.476562 C 215.679688 157.757812 223.371094 152.03125 231.0625 146.3125 C 231.613281 148.976562 232.171875 151.640625 232.722656 154.304688 C 234.140625 161.105469 235.550781 167.914062 236.96875 174.726562 C 243.375 164.957031 249.785156 155.191406 256.191406 145.425781 C 257.65625 145.070312 262.949219 143.96875 268.015625 146.898438 C 273.71875 150.203125 276.804688 157.261719 275.707031 164.65625 " fill-opacity="1" fill-rule="nonzero"/><path fill="#703e3b" d="M 264.289062 184.785156 C 261.886719 189.027344 259.480469 193.265625 257.078125 197.507812 C 252.449219 202.542969 247.808594 207.574219 243.179688 212.601562 C 232.046875 211.03125 220.90625 209.449219 209.773438 207.871094 C 209.179688 193.070312 208.582031 178.277344 208 163.476562 C 215.679688 157.757812 223.371094 152.03125 231.0625 146.3125 C 231.613281 148.976562 232.171875 151.640625 232.722656 154.304688 C 230.085938 155.164062 227.203125 155.394531 224.808594 158.574219 C 222.925781 161.0625 221.304688 165.421875 222.367188 169.453125 C 223.273438 172.878906 225.550781 173.898438 225.25 177 C 224.976562 179.8125 222.847656 181.605469 223.476562 182.324219 C 224.203125 183.160156 227.140625 180.878906 228.355469 181.882812 C 229.625 182.929688 227.300781 186.179688 228.355469 187.429688 C 229.925781 189.277344 237.171875 184.6875 248.3125 180.769531 C 256.15625 178.019531 260.113281 176.675781 262.285156 178.328125 C 263.828125 179.511719 264.394531 181.871094 264.289062 184.785156 " fill-opacity="1" fill-rule="nonzero"/><path fill="#9c7f7e" d="M 266.390625 168.40625 C 267.417969 168.726562 267.914062 169.996094 267.648438 171.023438 C 267.394531 172.023438 266.382812 172.929688 265.285156 172.714844 C 264.164062 172.488281 263.554688 171.203125 263.769531 170.148438 C 264.007812 168.984375 265.269531 168.054688 266.390625 168.40625 " fill-opacity="1" fill-rule="nonzero"/><path fill="#9c7f7e" d="M 263.316406 175.226562 C 264.34375 175.550781 264.839844 176.816406 264.578125 177.84375 C 264.320312 178.847656 263.308594 179.753906 262.210938 179.535156 C 261.085938 179.308594 260.480469 178.023438 260.695312 176.96875 C 260.933594 175.804688 262.191406 174.875 263.316406 175.226562 " fill-opacity="1" fill-rule="nonzero"/><path fill="#9c7f7e" d="M 259.734375 181.5625 C 260.761719 181.886719 261.257812 183.152344 260.996094 184.179688 C 260.738281 185.183594 259.726562 186.085938 258.628906 185.867188 C 257.507812 185.644531 256.902344 184.359375 257.117188 183.304688 C 257.355469 182.140625 258.613281 181.207031 259.734375 181.5625 " fill-opacity="1" fill-rule="nonzero"/><path fill="#464a61" d="M 25.816406 294.289062 C 25.335938 297.851562 25.015625 301.992188 25.085938 306.589844 C 25.140625 310.164062 25.429688 313.4375 25.824219 316.355469 C 25.78125 319.210938 25.863281 322.28125 26.121094 325.53125 C 26.640625 332.078125 27.765625 337.886719 29.070312 342.824219 C 39.027344 342.824219 48.980469 342.824219 58.933594 342.824219 C 58.84375 341.222656 58.597656 339.308594 58.046875 337.203125 C 57.699219 335.875 57.289062 334.6875 56.863281 333.648438 C 54.992188 332.859375 53.121094 332.070312 51.246094 331.28125 C 50.359375 328.058594 49.550781 324.601562 48.882812 320.921875 C 46.984375 310.503906 46.699219 301.058594 47.105469 293.101562 C 45.082031 292.308594 41.90625 291.355469 37.941406 291.328125 C 32.277344 291.289062 27.980469 293.15625 25.816406 294.289062 " fill-opacity="1" fill-rule="nonzero"/><path fill="#242633" d="M 69.839844 302.574219 C 62.742188 300.578125 55.644531 298.578125 48.546875 296.582031 C 40.054688 295.359375 37.527344 296.242188 37.015625 297.46875 C 36.40625 298.941406 38.773438 300.746094 39.898438 305.683594 C 40.320312 307.523438 40.410156 309.105469 40.410156 310.210938 C 48.910156 312.4375 57.40625 314.664062 65.902344 316.890625 C 67.214844 312.117188 68.527344 307.347656 69.839844 302.574219 " fill-opacity="1" fill-rule="nonzero"/><path fill="#5b5f78" d="M 39.457031 308.347656 C 38.394531 310.175781 37.269531 312.59375 36.542969 315.554688 C 34.71875 323.019531 36.570312 329.34375 37.652344 332.261719 C 40.050781 331.824219 42.925781 331.460938 46.1875 331.367188 C 47.316406 331.335938 48.390625 331.339844 49.40625 331.367188 C 48.867188 329.539062 48.234375 326.535156 48.585938 322.851562 C 49.003906 318.449219 50.621094 315.191406 51.652344 313.453125 C 50.097656 312.703125 48.46875 311.960938 46.777344 311.230469 C 44.253906 310.148438 41.808594 309.191406 39.457031 308.347656 " fill-opacity="1" fill-rule="nonzero"/><g clip-path="url(#31e06d854e)"><path fill="#242633" d="M 27.597656 293.566406 C 27.238281 293.464844 26.394531 293.28125 25.382812 293.566406 C 24.464844 293.824219 23.871094 294.339844 23.605469 294.601562 C 22.832031 296.984375 22.066406 300.035156 21.6875 303.628906 C 21.300781 307.265625 21.417969 310.441406 21.6875 312.953125 C 22.425781 313.542969 23.164062 314.136719 23.902344 314.726562 C 23.832031 316.230469 23.820312 317.863281 23.902344 319.609375 C 23.964844 320.863281 24.066406 322.046875 24.199219 323.164062 C 23.605469 324.496094 23.015625 325.828125 22.425781 327.15625 C 22.652344 328.863281 22.941406 330.644531 23.3125 332.484375 C 24.246094 337.136719 25.507812 341.292969 26.859375 344.914062 C 37.652344 344.914062 48.445312 344.914062 59.238281 344.914062 C 59.289062 343.878906 59.335938 342.84375 59.382812 341.808594 C 56.351562 341.953125 53.246094 342.054688 50.070312 342.101562 C 42.78125 342.214844 35.824219 342.042969 29.226562 341.660156 C 28.269531 336.507812 27.480469 330.867188 27.007812 324.789062 C 26.089844 313.015625 26.570312 302.46875 27.597656 293.566406 " fill-opacity="1" fill-rule="nonzero"/></g><path fill="#5b5f78" d="M 164.828125 318.558594 C 164.597656 320.921875 164.25 323.167969 163.816406 325.304688 C 162.601562 331.324219 160.726562 336.433594 158.910156 340.453125 C 146.101562 341.625 135.945312 340.921875 129.34375 340.160156 C 110.433594 337.964844 100.90625 332.898438 78.1875 330.6875 C 71.011719 329.996094 65.167969 329.835938 61.636719 329.800781 C 61.023438 326.992188 60.589844 323.59375 60.75 319.738281 C 61.203125 308.132812 66.675781 299.664062 69.621094 295.765625 C 76.132812 297.054688 82.835938 298.246094 89.71875 299.316406 C 96.667969 300.402344 103.488281 301.324219 110.164062 302.105469 C 121.929688 303.472656 133.265625 304.386719 144.128906 304.9375 C 151.121094 306.421875 158.121094 307.902344 165.117188 309.378906 C 165.214844 312.183594 165.15625 315.253906 164.828125 318.558594 " fill-opacity="1" fill-rule="nonzero"/><path fill="#464a61" d="M 164.828125 318.558594 C 164.597656 320.921875 164.25 323.167969 163.816406 325.304688 C 162.609375 325.316406 161.296875 325.269531 159.902344 325.117188 C 148.886719 323.964844 146.144531 318.035156 138.027344 317.722656 C 128.464844 317.359375 120.882812 325.136719 120.289062 324.230469 C 119.738281 323.414062 127.597656 319.332031 127.382812 314.769531 C 127.152344 309.882812 117.785156 306.171875 107.867188 303.519531 C 108.632812 303.046875 109.402344 302.578125 110.164062 302.105469 C 121.929688 303.472656 133.265625 304.386719 144.128906 304.9375 C 151.121094 306.421875 158.121094 307.902344 165.117188 309.378906 C 165.214844 312.183594 165.15625 315.253906 164.828125 318.558594 " fill-opacity="1" fill-rule="nonzero"/><g clip-path="url(#d7f57cc4c0)"><path fill="#242633" d="M 289.035156 338.558594 C 288.84375 338.921875 288.601562 339.492188 288.5 340.230469 C 288.382812 341.101562 288.511719 341.8125 288.625 342.238281 C 290.839844 343.015625 293.804688 343.816406 297.363281 344.164062 C 300.867188 344.507812 303.886719 344.300781 306.1875 343.976562 C 307.023438 343.328125 307.863281 342.683594 308.699219 342.035156 C 309.667969 341.980469 310.847656 341.992188 312.175781 342.179688 C 313.835938 342.414062 315.222656 342.851562 316.269531 343.269531 C 316.859375 344.066406 317.445312 344.863281 318.035156 345.660156 C 321.632812 346.207031 325.769531 346.574219 330.339844 346.515625 C 339.558594 346.40625 347.289062 344.628906 352.992188 342.789062 C 353.136719 342.503906 353.414062 341.867188 353.359375 341.03125 C 353.28125 339.890625 352.632812 339.152344 352.433594 338.941406 C 331.300781 338.8125 310.167969 338.6875 289.035156 338.558594 " fill-opacity="1" fill-rule="nonzero"/></g><g clip-path="url(#596bfa85d3)"><path fill="#464a61" d="M 294.226562 314.96875 C 291.421875 315.929688 289.21875 317.234375 287.617188 318.378906 C 288.226562 320.425781 288.832031 322.472656 289.4375 324.519531 C 288.902344 325.878906 288.351562 327.6875 288.117188 329.859375 C 287.707031 333.625 288.433594 336.710938 289.035156 338.558594 C 291.230469 339.132812 293.671875 339.636719 296.335938 339.988281 C 302 340.734375 307.019531 340.578125 311.066406 340.121094 C 313.496094 340.871094 316.113281 341.535156 318.90625 342.054688 C 332.109375 344.511719 343.703125 342.730469 351.949219 340.488281 C 352.277344 340.117188 353.472656 338.664062 353.5 336.464844 C 353.527344 334.445312 352.550781 333.050781 352.230469 332.628906 C 347.800781 332.453125 343.367188 332.273438 338.933594 332.097656 C 334.222656 330.617188 329.511719 329.136719 324.800781 327.65625 C 322.394531 326.109375 319.867188 324.355469 317.277344 322.359375 C 313.644531 319.570312 310.472656 316.773438 307.734375 314.113281 C 305.082031 313.597656 299.996094 313 294.226562 314.96875 " fill-opacity="1" fill-rule="nonzero"/></g><path fill="#242633" d="M 282.597656 301.609375 C 283.871094 303.566406 285.144531 305.613281 286.410156 307.746094 C 288.875 311.914062 291.03125 315.964844 292.921875 319.847656 C 293.242188 321.074219 294.414062 325.140625 296.367188 325.28125 C 297.523438 325.363281 298.34375 324.027344 300.898438 320.824219 C 302.832031 318.398438 304.503906 316.476562 305.652344 315.1875 C 301.9375 308.425781 298.222656 301.667969 294.507812 294.90625 C 290.535156 297.140625 286.566406 299.375 282.597656 301.609375 " fill-opacity="1" fill-rule="nonzero"/><path fill="#5b5f78" d="M 309.539062 311.546875 C 308.535156 312.136719 307.097656 313.144531 305.746094 314.761719 C 304.542969 316.199219 303.832031 317.609375 303.417969 318.625 C 304.246094 319.878906 305.214844 321.175781 306.339844 322.46875 C 311.261719 328.132812 317.007812 331.226562 321.222656 332.9375 C 322.402344 332.992188 324.457031 332.921875 326.753906 331.972656 C 328.421875 331.285156 329.628906 330.371094 330.40625 329.679688 C 327.722656 328.046875 325.035156 326.414062 322.347656 324.78125 C 318.078125 320.371094 313.808594 315.957031 309.539062 311.546875 " fill-opacity="1" fill-rule="nonzero"/><path fill="#543130" d="M 214.492188 310.863281 L 208.21875 305.238281 L 165.164062 298.726562 C 161.339844 250.902344 157.519531 203.074219 153.695312 155.246094 C 175.578125 150.707031 197.457031 146.167969 219.339844 141.632812 C 218.15625 149.523438 216.972656 157.414062 215.789062 165.308594 C 215 181.089844 214.210938 196.875 213.421875 212.660156 C 214.449219 239.574219 215.472656 266.488281 216.5 293.402344 C 215.828125 299.21875 215.160156 305.042969 214.492188 310.863281 " fill-opacity="1" fill-rule="nonzero"/><path fill="#402523" d="M 216.378906 175.371094 C 211.847656 176.160156 207.3125 176.949219 202.777344 177.738281 C 203.960938 186.222656 205.144531 194.707031 206.328125 203.1875 C 209.480469 214.4375 212.636719 225.683594 215.789062 236.929688 C 215.199219 242.453125 214.605469 247.976562 214.015625 253.503906 C 206.917969 255.082031 199.824219 256.660156 192.726562 258.238281 C 187.402344 271.457031 182.082031 284.675781 176.761719 297.894531 C 174 255.671875 171.238281 213.449219 168.480469 171.226562 C 181.886719 160.769531 195.289062 150.3125 208.695312 139.855469 C 213.226562 141.234375 217.761719 142.617188 222.292969 144 C 220.398438 150.1875 218.5 156.378906 216.601562 162.570312 C 216.527344 166.835938 216.453125 171.105469 216.378906 175.371094 " fill-opacity="1" fill-rule="nonzero"/><path fill="#9c7f7e" d="M 212.652344 167.175781 L 214.492188 310.863281 L 218.667969 308.492188 L 214.90625 209.351562 L 220.117188 183.011719 L 218.507812 156.671875 L 212.652344 167.175781 " fill-opacity="1" fill-rule="nonzero"/><path fill="#5b5f78" d="M 304.976562 295.765625 C 302.566406 299.328125 297.09375 306.289062 287.53125 310.265625 C 286.367188 310.753906 285.230469 311.152344 284.132812 311.492188 C 281.570312 312.28125 279.210938 312.707031 277.1875 312.929688 C 272.921875 303.570312 268.210938 293.875 262.996094 283.933594 C 255.402344 269.46875 247.621094 256.152344 239.933594 243.976562 C 240.515625 242.59375 241.113281 241.214844 241.707031 239.832031 C 240.226562 240.230469 238.742188 240.621094 237.269531 241.011719 C 225.835938 240.019531 214.402344 239.03125 202.96875 238.054688 C 192.421875 237.160156 181.875 236.273438 171.328125 235.390625 C 170.308594 233.28125 168.933594 229.957031 168.132812 225.707031 C 167.746094 223.628906 167.488281 221.320312 167.488281 218.816406 C 167.46875 208.765625 171.488281 201.449219 173.40625 198.394531 C 190.738281 199.929688 208.796875 201.972656 227.511719 204.609375 C 240.835938 206.5 253.753906 208.585938 266.242188 210.824219 C 272.265625 223.742188 278.277344 236.757812 284.285156 249.890625 C 291.308594 265.269531 298.203125 280.566406 304.976562 295.765625 " fill-opacity="1" fill-rule="nonzero"/><path fill="#464a61" d="M 265.613281 213.84375 C 266.136719 216.359375 261.042969 221.121094 258.183594 220.503906 C 257.382812 220.328125 256.917969 219.769531 255.632812 219.726562 C 254.339844 219.683594 253.347656 220.199219 251.75 221.058594 C 250.15625 221.914062 249.359375 222.34375 248.980469 223.054688 C 248.125 224.65625 249.613281 225.820312 249.3125 227.496094 C 248.785156 230.40625 243.558594 230.792969 237.671875 234.152344 C 234.667969 235.871094 232.527344 237.769531 231.238281 239.035156 C 213.757812 237.222656 196.273438 235.414062 178.792969 233.597656 C 176.066406 222.683594 174.253906 209.574219 180.457031 204.964844 C 185.308594 201.355469 192.125 205.140625 203.074219 208.296875 C 237.132812 218.101562 264.460938 208.320312 265.613281 213.84375 " fill-opacity="1" fill-rule="nonzero"/><path fill="#464a61" d="M 284.132812 311.492188 C 281.570312 312.28125 279.210938 312.707031 277.1875 312.929688 C 272.921875 303.570312 268.210938 293.875 262.996094 283.933594 C 255.402344 269.46875 247.621094 256.152344 239.933594 243.976562 C 240.515625 242.59375 241.113281 241.214844 241.707031 239.832031 C 240.226562 240.230469 238.742188 240.621094 237.269531 241.011719 C 225.835938 240.019531 214.402344 239.03125 202.96875 238.054688 C 192.421875 237.160156 181.875 236.273438 171.328125 235.390625 C 170.308594 233.28125 168.933594 229.957031 168.132812 225.707031 C 171.621094 225.503906 178.148438 227.382812 192.03125 229.175781 C 212.714844 231.851562 217.1875 230.117188 224.851562 234.503906 C 227.230469 235.871094 229.632812 237.664062 233.128906 237.460938 C 238.929688 237.132812 243.070312 231.546875 246.433594 233.324219 C 247.507812 233.890625 247.898438 234.886719 249.386719 235.097656 C 250.84375 235.304688 251.84375 234.566406 253.238281 233.910156 C 256.28125 232.488281 260.191406 231.949219 260.625 232.726562 C 261.316406 233.972656 252.527344 237.257812 251.164062 244.269531 C 250.984375 245.1875 251.640625 248.132812 252.933594 254.039062 C 254.320312 260.316406 255.074219 262.417969 256.785156 264.398438 C 258.320312 266.183594 259.402344 266.441406 260.917969 267.648438 C 265.007812 270.898438 265.566406 275.640625 267.128906 282.15625 C 270.207031 294.933594 271.980469 302.347656 277.773438 307.308594 C 280.550781 309.6875 282.96875 310.40625 284.132812 311.492188 " fill-opacity="1" fill-rule="nonzero"/><path fill="#34374a" d="M 179.71875 235.152344 C 203.917969 237.773438 216.140625 238.363281 216.378906 236.929688 C 216.625 235.46875 204.503906 231.917969 180.011719 226.273438 C 179.914062 229.234375 179.816406 232.191406 179.71875 235.152344 " fill-opacity="1" fill-rule="nonzero"/><path fill="#b3cfe6" d="M 216.863281 154.300781 C 214.597656 153.90625 212.332031 153.511719 210.066406 153.121094 C 199.023438 165.351562 187.988281 177.582031 176.949219 189.816406 C 171.527344 176.992188 166.105469 164.167969 160.6875 151.34375 C 168.667969 140.785156 176.652344 130.230469 184.636719 119.675781 C 198.433594 123.226562 212.230469 126.777344 226.03125 130.332031 C 222.976562 138.320312 219.921875 146.3125 216.863281 154.300781 " fill-opacity="1" fill-rule="nonzero"/><path fill="#8c514f" d="M 182.273438 160.074219 L 179.5 316.484375 C 177.234375 317.402344 174.277344 318.347656 170.738281 318.851562 C 165.339844 319.625 160.785156 319.0625 157.730469 318.421875 C 146.097656 314.324219 134.46875 310.226562 122.839844 306.125 C 113.082031 302.773438 103.324219 299.417969 93.566406 296.0625 C 95.042969 293.597656 96.523438 291.132812 98 288.664062 C 98.296875 284.324219 98.59375 279.984375 98.886719 275.644531 C 96.121094 264.132812 93.523438 251.988281 91.203125 239.242188 C 88.234375 222.972656 86.023438 207.441406 84.398438 192.777344 C 91.546875 178.957031 101.625 162.355469 115.742188 145.128906 C 131.230469 126.226562 147.003906 112.15625 160.09375 102.054688 L 182.273438 122.636719 L 182.273438 160.074219 " fill-opacity="1" fill-rule="nonzero"/><path fill="#703e3b" d="M 167.59375 217.097656 C 170.261719 230.375 172.75 244.195312 174.984375 258.53125 C 176.554688 268.617188 177.929688 278.488281 179.125 288.128906 C 179.324219 278.265625 179.519531 268.398438 179.71875 258.53125 C 178.828125 246.597656 177.941406 234.660156 177.054688 222.722656 C 173.902344 220.847656 170.746094 218.972656 167.59375 217.097656 " fill-opacity="1" fill-rule="nonzero"/><path fill="#703e3b" d="M 176.90625 228.050781 C 165.558594 220.023438 157.1875 212.550781 151.628906 207.183594 C 141.054688 196.992188 138.570312 191.796875 130.335938 188.984375 C 117.804688 184.703125 105.226562 190.101562 104.910156 188.6875 C 104.847656 188.417969 105.191406 187.734375 115.257812 183.65625 C 122.871094 180.574219 125.167969 179.957031 126.789062 179.21875 C 136.363281 174.851562 136.980469 159.597656 141.425781 141.039062 C 143.4375 132.644531 146.878906 120.863281 153.105469 107.003906 C 160.890625 109.472656 168.675781 111.9375 176.464844 114.402344 C 178.335938 123.085938 180.210938 131.765625 182.082031 140.449219 C 180.359375 169.648438 178.632812 198.847656 176.90625 228.050781 " fill-opacity="1" fill-rule="nonzero"/><path fill="#9c7f7e" d="M 185.332031 144.925781 L 179.5 316.484375 L 175.695312 317.792969 C 176.644531 304.945312 177.589844 292.097656 178.535156 279.25 C 176.464844 248.46875 174.394531 217.691406 172.324219 186.914062 C 175.183594 173.101562 178.042969 159.289062 180.898438 145.476562 C 182.375 145.292969 183.855469 145.109375 185.332031 144.925781 " fill-opacity="1" fill-rule="nonzero"/><path fill="#ffffff" d="M 218.933594 112.277344 C 220.117188 113.855469 221.300781 115.433594 222.484375 117.011719 C 222.1875 124.113281 221.890625 131.21875 221.597656 138.320312 C 218.441406 138.8125 215.289062 139.304688 212.136719 139.800781 C 207.699219 140.195312 203.265625 140.589844 198.828125 140.984375 C 195.972656 143.449219 193.113281 145.917969 190.253906 148.382812 C 189.285156 140.488281 188.84375 130.488281 190.253906 119.085938 C 192.671875 99.496094 199.484375 84.414062 204.742188 74.988281 C 208.785156 77.453125 212.824219 79.917969 216.863281 82.386719 C 217.554688 92.347656 218.246094 102.3125 218.933594 112.277344 " fill-opacity="1" fill-rule="nonzero"/><path fill="#402523" d="M 215.886719 78.015625 L 198.050781 96.136719 L 200.414062 74.109375 Z M 215.886719 78.015625 " fill-opacity="1" fill-rule="nonzero"/><path fill="#8c514f" d="M 202.96875 191.296875 C 203.023438 193.691406 202.878906 196.386719 202.375 199.289062 C 200.546875 209.839844 194.972656 217.261719 191.4375 221.1875 C 185.925781 219.308594 180.066406 216.980469 173.992188 214.085938 C 157.089844 206.023438 144.003906 196.179688 134.371094 187.449219 C 134.792969 178.921875 135.835938 169.355469 137.917969 159.039062 C 142.21875 137.738281 149.503906 120.402344 156.25 107.542969 C 163.347656 112.671875 170.441406 117.800781 177.539062 122.929688 C 172.90625 138.417969 168.273438 153.90625 163.644531 169.394531 C 170.46875 175.320312 179.757812 181.957031 191.734375 187.152344 C 195.640625 188.847656 199.40625 190.207031 202.96875 191.296875 " fill-opacity="1" fill-rule="nonzero"/><path fill="#703e3b" d="M 171.363281 132.160156 C 166.582031 125.625 162.207031 123.71875 158.945312 123.28125 C 156.417969 122.945312 154.691406 123.507812 153.621094 122.394531 C 151.398438 120.074219 154.675781 113.265625 158.058594 107.523438 C 159.800781 108.117188 165.074219 110.167969 168.703125 115.734375 C 173.488281 123.078125 171.695312 130.832031 171.363281 132.160156 " fill-opacity="1" fill-rule="nonzero"/><path fill="#9c7f7e" d="M 220.636719 110.796875 C 220.316406 118.21875 219.691406 126.164062 218.640625 134.546875 C 217.144531 146.484375 215.023438 157.402344 212.652344 167.175781 C 216.421875 162.8125 220.191406 158.445312 223.960938 154.082031 C 230.171875 150.75 236.378906 147.421875 242.589844 144.09375 C 241.480469 135.289062 240.371094 126.480469 239.261719 117.679688 C 233.054688 115.382812 226.84375 113.089844 220.636719 110.796875 " fill-opacity="1" fill-rule="nonzero"/><path fill="#ed846b" d="M 223.296875 113.683594 C 216.273438 118.714844 209.25 123.746094 202.230469 128.777344 C 199.566406 132.179688 196.90625 135.582031 194.246094 138.984375 C 194.039062 133.128906 194.121094 126.65625 194.691406 119.675781 C 195.578125 108.761719 197.449219 99.136719 199.566406 91.042969 C 203.855469 87.269531 208.144531 83.496094 212.429688 79.722656 C 216.050781 91.042969 219.675781 102.363281 223.296875 113.683594 " fill-opacity="1" fill-rule="nonzero"/><path fill="#d46e55" d="M 221.480469 113.960938 C 220.566406 115.035156 216.320312 119.855469 212.613281 118.84375 C 209.210938 117.914062 208.105469 112.625 206.84375 106.191406 C 205.910156 101.417969 205.03125 94.375 205.738281 85.546875 C 208.472656 82.957031 211.207031 80.367188 213.941406 77.78125 C 216.453125 89.839844 218.96875 101.898438 221.480469 113.960938 " fill-opacity="1" fill-rule="nonzero"/><path fill="#9c7f7e" d="M 206.664062 79.054688 C 205.398438 82.964844 204.140625 86.882812 202.894531 90.820312 C 195.496094 114.148438 188.632812 137.242188 182.273438 160.074219 C 175.839844 145.347656 169.40625 130.625 162.976562 115.902344 C 158.910156 113.089844 154.847656 110.28125 150.78125 107.46875 C 153.148438 103.398438 155.511719 99.328125 157.878906 95.257812 C 160.933594 92.539062 164.042969 89.65625 167.191406 86.601562 C 171.066406 82.847656 174.683594 79.132812 178.058594 75.503906 C 188.109375 71.066406 198.164062 66.625 208.21875 62.1875 C 207.699219 67.808594 207.183594 73.433594 206.664062 79.054688 " fill-opacity="1" fill-rule="nonzero"/><path fill="#ed846b" d="M 256.199219 85.066406 C 256.574219 84.628906 257.316406 83.894531 258.472656 83.363281 C 259.625 82.839844 260.65625 82.761719 261.230469 82.761719 C 261.566406 83.195312 261.902344 83.632812 262.238281 84.066406 C 262.558594 85.613281 262.425781 86.777344 262.269531 87.515625 C 261.574219 90.785156 259.070312 91.96875 256.070312 96.984375 C 255.648438 97.6875 255.332031 98.277344 255.144531 98.632812 C 255.027344 98.730469 254.464844 99.175781 253.648438 99.121094 C 252.699219 99.050781 252.167969 98.359375 252.09375 98.253906 C 253.460938 93.859375 254.828125 89.460938 256.199219 85.066406 " fill-opacity="1" fill-rule="nonzero"/><path fill="#d46e55" d="M 255.828125 88.175781 C 257.6875 87.402344 258.792969 87.230469 259.140625 87.667969 C 259.777344 88.460938 257.929688 91.257812 253.589844 96.058594 C 254.335938 93.433594 255.082031 90.804688 255.828125 88.175781 " fill-opacity="1" fill-rule="nonzero"/><path fill="#f2997b" d="M 263.375 72.839844 C 260.914062 76.734375 257.695312 82.796875 255.734375 90.792969 C 253.777344 98.761719 253.816406 105.609375 254.191406 110.191406 C 253.472656 112.125 252.347656 114.34375 250.53125 116.457031 C 243.644531 124.46875 232.679688 124.199219 230.695312 124.113281 C 227.066406 122.074219 221.882812 118.597656 216.921875 112.988281 C 211.480469 106.835938 208.578125 100.675781 207.035156 96.621094 C 207.472656 92.625 208.183594 88.332031 209.269531 83.816406 C 212.953125 68.527344 219.5625 56.617188 225.375 48.269531 C 238.15625 43.703125 251.460938 46.863281 258.363281 55.667969 C 263.503906 62.21875 263.527344 69.890625 263.375 72.839844 " fill-opacity="1" fill-rule="nonzero"/><path fill="#d46e55" d="M 227.753906 52.550781 C 225.179688 54.453125 221.578125 57.671875 218.796875 62.625 C 217.734375 64.519531 216.980469 66.335938 216.433594 67.960938 C 216.980469 68.269531 217.53125 68.578125 218.078125 68.886719 C 218.792969 67.171875 219.464844 66.328125 220.09375 66.355469 C 221.15625 66.40625 222.101562 68.902344 222.933594 73.847656 C 224.140625 75.410156 225.476562 77.027344 226.957031 78.671875 C 229.191406 81.160156 231.410156 83.324219 233.511719 85.199219 C 234.152344 85.105469 235.070312 84.988281 236.183594 84.9375 C 239.5625 84.777344 243.320312 84.597656 245.1875 86.816406 C 245.617188 87.324219 246.261719 88.335938 246.324219 90.183594 C 247.378906 90.507812 249.046875 90.878906 251.101562 90.742188 C 252.707031 90.636719 254.015625 90.253906 254.929688 89.90625 C 255.652344 87.496094 256.636719 84.761719 257.984375 81.847656 C 259.214844 79.199219 260.519531 76.890625 261.769531 74.914062 C 250.433594 67.460938 239.09375 60.007812 227.753906 52.550781 " fill-opacity="1" fill-rule="nonzero"/><path fill="#ed846b" d="M 217.777344 85.324219 C 219.292969 85.960938 218.207031 93.960938 216.703125 94.125 C 215.75 94.230469 213.835938 91.265625 214.71875 88.453125 C 215.28125 86.65625 216.972656 84.984375 217.777344 85.324219 " fill-opacity="1" fill-rule="nonzero"/><path fill="#231f20" d="M 252.457031 90.011719 C 252.9375 89.84375 253.6875 89.511719 254.425781 88.859375 C 255.324219 88.070312 255.773438 87.195312 255.988281 86.695312 C 255.277344 86.398438 254.378906 86.105469 253.308594 85.945312 C 251.011719 85.597656 249.109375 86.046875 248.007812 86.40625 C 247.785156 86.640625 247.472656 87.035156 247.246094 87.59375 C 246.964844 88.289062 246.949219 88.910156 246.96875 89.257812 C 248.800781 89.511719 250.628906 89.761719 252.457031 90.011719 " fill-opacity="1" fill-rule="nonzero"/><path fill="#a85440" d="M 237.679688 112.734375 C 237.679688 112.734375 237.355469 113.074219 236.71875 113.371094 C 236.40625 113.519531 236.015625 113.652344 235.582031 113.726562 C 235.363281 113.761719 235.136719 113.796875 234.90625 113.796875 C 234.636719 113.800781 234.472656 113.800781 234.210938 113.773438 C 233.25 113.675781 232.378906 113.265625 231.828125 112.839844 C 231.269531 112.421875 231.023438 112.019531 231.023438 112.019531 C 231.023438 112.019531 231.457031 112.1875 232.066406 112.390625 C 232.375 112.492188 232.730469 112.597656 233.109375 112.6875 C 233.484375 112.773438 233.898438 112.855469 234.292969 112.890625 C 234.464844 112.921875 234.742188 112.9375 234.90625 112.941406 C 235.109375 112.945312 235.308594 112.960938 235.503906 112.953125 C 235.894531 112.945312 236.257812 112.914062 236.582031 112.882812 C 237.21875 112.808594 237.679688 112.734375 237.679688 112.734375 " fill-opacity="1" fill-rule="nonzero"/><path fill="#4f2b2b" d="M 238.652344 80.792969 C 237.191406 79.710938 235.699219 78.535156 234.191406 77.269531 C 230.703125 74.335938 227.707031 71.378906 225.148438 68.5625 C 225.523438 68.03125 226.117188 67.335938 226.992188 66.710938 C 228.554688 65.601562 230.140625 65.355469 230.933594 65.289062 C 232.007812 65.65625 234.195312 66.578125 236.101562 68.738281 C 237.613281 70.453125 238.296875 72.210938 238.609375 73.25 C 239.0625 73.230469 239.511719 73.210938 239.964844 73.195312 C 240.164062 73.972656 240.382812 75.230469 240.179688 76.761719 C 239.925781 78.6875 239.132812 80.078125 238.652344 80.792969 " fill-opacity="1" fill-rule="nonzero"/><path fill="#4f2b2b" d="M 247.222656 85.503906 C 247.453125 84.667969 247.976562 83.203125 249.253906 81.925781 C 251.984375 79.195312 257.238281 78.28125 259.164062 80.644531 C 259.367188 80.890625 260.410156 82.25 259.675781 85.191406 C 257.066406 85.402344 254.308594 85.53125 251.410156 85.550781 C 249.976562 85.5625 248.582031 85.542969 247.222656 85.503906 " fill-opacity="1" fill-rule="nonzero"/><path fill="#f2997b" d="M 215.875 67.617188 C 215.914062 66.613281 215.863281 65.375 215.5625 63.988281 C 214.902344 60.929688 213.382812 58.777344 212.40625 57.613281 C 211.625 57.59375 210.847656 57.578125 210.066406 57.5625 C 209.210938 58.226562 208.265625 59.082031 207.34375 60.164062 C 205.0625 62.859375 204.050781 65.667969 203.570312 67.496094 C 203.898438 69.203125 204.171875 71.171875 204.289062 73.363281 C 204.410156 75.648438 204.339844 77.710938 204.179688 79.492188 C 204.453125 79.898438 204.992188 80.585938 205.902344 81.125 C 207.078125 81.824219 208.207031 81.878906 208.714844 81.875 C 209.410156 81.75 210.101562 81.625 210.796875 81.5 C 212.492188 76.871094 214.183594 72.246094 215.875 67.617188 " fill-opacity="1" fill-rule="nonzero"/><path fill="#d46e55" d="M 212.398438 71.191406 C 212.292969 70.214844 211.980469 68.582031 210.96875 66.84375 C 210.183594 65.492188 209.253906 64.566406 208.582031 63.992188 C 207.960938 64.269531 206.957031 64.824219 206.1875 65.882812 C 204.628906 68.011719 205.09375 70.726562 205.445312 72.789062 C 205.613281 73.777344 205.960938 75.238281 206.75 76.921875 C 207.03125 76.820312 207.601562 76.652344 208.316406 76.742188 C 208.976562 76.824219 209.457031 77.082031 209.707031 77.242188 C 209.695312 76.578125 209.761719 75.59375 210.152344 74.492188 C 210.757812 72.773438 211.824219 71.695312 212.398438 71.191406 " fill-opacity="1" fill-rule="nonzero"/><path fill="#231f20" d="M 234.589844 83.632812 C 234.835938 83.375 235.121094 83.015625 235.371094 82.550781 C 235.832031 81.691406 235.945312 80.878906 235.96875 80.386719 C 235.351562 79.527344 234.613281 78.621094 233.726562 77.71875 C 230.949219 74.882812 227.933594 73.296875 225.71875 72.398438 C 225.53125 72.574219 225.097656 73.027344 224.941406 73.75 C 224.695312 74.90625 225.367188 75.800781 225.472656 75.933594 C 228.511719 78.5 231.550781 81.066406 234.589844 83.632812 " fill-opacity="1" fill-rule="nonzero"/><path fill="#ffdcd4" d="M 234.167969 84.152344 C 233.753906 83.8125 233.339844 83.472656 232.921875 83.121094 C 232.101562 82.457031 231.300781 81.773438 230.484375 81.070312 C 229.9375 80.625 229.402344 80.164062 228.863281 79.6875 C 228.6875 79.535156 228.507812 79.386719 228.339844 79.238281 C 227.550781 78.5625 226.773438 77.886719 226.007812 77.203125 C 225.945312 77.152344 225.878906 77.089844 225.816406 77.039062 C 225.679688 76.824219 225.378906 76.273438 225.382812 75.527344 C 225.386719 74.703125 225.746094 74.125 225.886719 73.921875 C 226.28125 74.046875 226.722656 74.214844 227.195312 74.410156 C 228.5625 74.972656 230.210938 75.851562 231.847656 77.21875 C 231.886719 77.253906 231.933594 77.292969 231.972656 77.332031 C 232.035156 77.382812 232.097656 77.433594 232.15625 77.492188 C 232.75 78.011719 233.265625 78.519531 233.703125 79.023438 C 234.058594 79.410156 234.359375 79.792969 234.628906 80.144531 C 234.777344 80.40625 235.167969 81.195312 235.039062 82.253906 C 234.914062 83.269531 234.371094 83.933594 234.167969 84.152344 " fill-opacity="1" fill-rule="nonzero"/><path fill="#ffdcd4" d="M 253.980469 88.875 C 253.484375 89.433594 252.984375 89.816406 252.582031 90.085938 C 252.355469 90.109375 252.109375 90.132812 251.859375 90.140625 C 251.363281 90.179688 250.820312 90.1875 250.25 90.171875 C 250.003906 90.160156 249.761719 90.144531 249.53125 90.125 C 248.796875 90.074219 248.121094 89.976562 247.519531 89.84375 C 247.144531 89.769531 246.800781 89.6875 246.484375 89.601562 C 246.546875 89.238281 246.722656 88.570312 247.234375 87.886719 C 247.710938 87.246094 248.269531 86.898438 248.585938 86.730469 C 249.097656 86.59375 249.644531 86.480469 250.269531 86.421875 C 250.269531 86.421875 250.269531 86.421875 250.285156 86.417969 C 250.617188 86.378906 250.941406 86.367188 251.253906 86.367188 C 251.320312 86.367188 251.371094 86.367188 251.433594 86.367188 C 252.972656 86.363281 254.261719 86.691406 255.175781 87.007812 C 254.953125 87.503906 254.585938 88.191406 253.980469 88.875 " fill-opacity="1" fill-rule="nonzero"/><path fill="#4f2b2b" d="M 228.679688 56.0625 C 227.367188 56.785156 225.9375 57.714844 224.484375 58.90625 C 220.453125 62.222656 218.167969 66.035156 216.90625 68.679688 C 216.796875 68.6875 216.011719 68.730469 215.421875 68.117188 C 214.9375 67.617188 214.910156 67.011719 214.90625 66.867188 C 215.390625 64.515625 216.011719 62.007812 216.804688 59.382812 C 218.160156 54.894531 219.757812 50.941406 221.363281 47.539062 C 223.800781 50.378906 226.242188 53.222656 228.679688 56.0625 " fill-opacity="1" fill-rule="nonzero"/><path fill="#ed846b" d="M 237.703125 109.445312 C 237.941406 109.816406 237.601562 110.519531 237.203125 110.839844 C 235.6875 112.0625 230.636719 109.9375 230.308594 107.207031 C 230.210938 106.367188 230.539062 105.335938 231.074219 105.191406 C 231.742188 105.011719 232.367188 106.320312 234.320312 107.9375 C 235.097656 108.578125 235.789062 109.027344 236.222656 109.289062 C 236.898438 109.070312 237.5 109.136719 237.703125 109.445312 " fill-opacity="1" fill-rule="nonzero"/><path fill="#9c7f7e" d="M 233.972656 67.65625 C 232.320312 71.734375 231.691406 73.878906 232.085938 74.089844 C 232.453125 74.285156 233.6875 72.835938 235.792969 69.746094 C 235.183594 69.046875 234.578125 68.351562 233.972656 67.65625 " fill-opacity="1" fill-rule="nonzero"/><path fill="#231f20" d="M 251.859375 90.140625 C 251.363281 90.179688 250.820312 90.1875 250.25 90.171875 C 250.003906 90.160156 249.761719 90.144531 249.53125 90.125 C 248.796875 90.074219 248.121094 89.976562 247.519531 89.84375 C 247.613281 89.1875 247.902344 88.242188 248.671875 87.472656 C 248.808594 87.335938 249.488281 86.6875 250.269531 86.421875 C 250.269531 86.421875 250.269531 86.421875 250.285156 86.417969 C 250.59375 86.3125 250.933594 86.277344 251.253906 86.367188 C 251.316406 86.386719 251.378906 86.402344 251.441406 86.433594 C 252.246094 86.8125 252.410156 87.867188 252.4375 88.042969 C 252.566406 88.90625 252.21875 89.644531 251.859375 90.140625 " fill-opacity="1" fill-rule="nonzero"/><path fill="#231f20" d="M 232.921875 83.121094 C 232.101562 82.457031 231.300781 81.773438 230.484375 81.070312 C 229.9375 80.625 229.402344 80.164062 228.863281 79.6875 C 228.6875 79.535156 228.507812 79.386719 228.339844 79.238281 C 228.550781 78.675781 228.984375 77.964844 229.847656 77.558594 C 229.96875 77.5 231.007812 77.027344 232.15625 77.492188 C 232.199219 77.507812 232.246094 77.527344 232.289062 77.546875 C 233.03125 77.886719 233.464844 78.476562 233.703125 79.023438 C 233.953125 79.574219 234.015625 80.066406 234.027344 80.179688 C 234.140625 81.253906 233.726562 82.328125 232.921875 83.121094 " fill-opacity="1" fill-rule="nonzero"/><path fill="#ffdcd4" d="M 231.269531 78.933594 C 231.609375 78.671875 231.113281 76.78125 230.089844 76.664062 C 229.726562 76.621094 229.230469 76.792969 229.144531 77.109375 C 228.945312 77.832031 230.882812 79.234375 231.269531 78.933594 " fill-opacity="1" fill-rule="nonzero"/><path fill="#ffdcd4" d="M 253.070312 88.183594 C 253.25 87.953125 253.082031 87.476562 252.820312 87.234375 C 252.1875 86.648438 250.828125 87.304688 250.828125 87.671875 C 250.832031 88.097656 252.695312 88.664062 253.070312 88.183594 " fill-opacity="1" fill-rule="nonzero"/><path fill="#6e4342" d="M 280.6875 82.976562 C 277.683594 82.722656 274.515625 82.332031 271.210938 81.757812 C 261.332031 80.042969 252.875 77.15625 246.003906 74.140625 C 243.003906 72.28125 239.925781 70.191406 236.820312 67.835938 C 223.898438 58.046875 214.820312 47.019531 208.523438 37.492188 C 208.484375 37.324219 208.335938 36.554688 208.796875 35.78125 C 209.210938 35.089844 209.851562 34.84375 210.03125 34.777344 C 220.921875 39.140625 233.78125 45.269531 247.433594 53.933594 C 261.472656 62.847656 272.746094 72.160156 281.464844 80.359375 C 281.496094 80.398438 282.054688 81.054688 281.792969 81.898438 C 281.539062 82.722656 280.742188 82.960938 280.6875 82.976562 " fill-opacity="1" fill-rule="nonzero"/><path fill="#9c7f7e" d="M 265.621094 72.035156 C 265.941406 71.4375 266.316406 70.578125 266.527344 69.492188 C 266.6875 68.671875 266.710938 67.949219 266.6875 67.378906 C 267.613281 65.917969 268.539062 64.460938 269.464844 63 C 268.515625 61.933594 267.527344 60.871094 266.496094 59.820312 C 255.476562 48.578125 242.816406 41.585938 231.039062 37.171875 C 229.808594 38.972656 228.582031 40.773438 227.355469 42.574219 C 226.640625 43.25 225.929688 43.921875 225.214844 44.597656 C 227.710938 48.027344 230.894531 51.765625 234.925781 55.429688 C 246.03125 65.53125 257.992188 69.972656 265.621094 72.035156 " fill-opacity="1" fill-rule="nonzero"/><g clip-path="url(#f668842ef0)"><path fill="#6e4342" d="M 267.8125 62.925781 C 264.9375 62.019531 261.902344 60.871094 258.769531 59.410156 C 246.074219 53.476562 237.390625 44.980469 231.914062 38.339844 C 232.929688 36.828125 234.21875 35.136719 235.839844 33.414062 C 237.03125 32.136719 238.226562 31.035156 239.363281 30.089844 C 240.855469 28.847656 242.90625 28.515625 244.730469 29.183594 C 246.027344 29.660156 247.410156 30.257812 248.851562 31.011719 C 253.070312 33.222656 256.066406 35.917969 258.003906 37.980469 C 259.855469 38.59375 261.949219 39.429688 264.175781 40.574219 C 266.0625 41.542969 267.722656 42.570312 269.167969 43.582031 C 270.699219 44.652344 271.570312 46.449219 271.480469 48.316406 C 271.453125 48.8125 271.421875 49.320312 271.375 49.835938 C 270.894531 55.222656 269.339844 59.660156 267.8125 62.925781 " fill-opacity="1" fill-rule="nonzero"/></g><path fill="#593232" d="M 264.015625 44.207031 C 263.863281 44.582031 262.976562 44.652344 261.355469 44.421875 C 260.230469 43.132812 258.527344 41.28125 256.292969 39.226562 C 250.820312 34.191406 246.253906 31.699219 246.378906 31.496094 C 246.5 31.308594 250.644531 33.398438 255.019531 36.652344 C 256.886719 38.042969 258.371094 39.328125 259.421875 40.292969 C 262.71875 42.324219 264.25 43.628906 264.015625 44.207031 " fill-opacity="1" fill-rule="nonzero"/><path fill="#ad9493" d="M 233.460938 41.707031 C 233.96875 41.199219 234.476562 40.691406 234.984375 40.1875 C 235.898438 40.746094 236.933594 41.460938 238 42.375 C 239.207031 43.40625 240.167969 44.441406 240.910156 45.351562 C 240.332031 45.988281 239.75 46.625 239.171875 47.261719 C 238.238281 46.730469 237.042969 45.921875 235.839844 44.726562 C 234.753906 43.644531 233.988281 42.570312 233.460938 41.707031 " fill-opacity="1" fill-rule="nonzero"/><path fill="#ed846b" d="M 243.949219 100.550781 C 243.605469 100.878906 242.617188 101.734375 241.050781 101.984375 C 239.527344 102.230469 238.34375 101.75 237.910156 101.546875 C 237.328125 100.5 236.53125 99.265625 235.445312 97.988281 C 234.175781 96.5 232.886719 95.394531 231.820312 94.605469 C 234.492188 91.117188 238.070312 89.503906 240.234375 90.515625 C 242.324219 91.496094 243.054688 94.914062 243.554688 97.261719 C 243.835938 98.582031 243.925781 99.71875 243.949219 100.550781 " fill-opacity="1" fill-rule="nonzero"/><path fill="#4f2b2b" d="M 244.082031 99.792969 C 244.773438 99.902344 245.632812 100.105469 246.566406 100.507812 C 248.125 101.175781 249.210938 102.101562 249.867188 102.757812 C 250.097656 103.613281 250.3125 104.785156 250.265625 106.179688 C 250.179688 108.601562 249.339844 110.4375 248.789062 111.425781 C 247.007812 111.421875 245.125 111.289062 243.152344 110.972656 C 231.09375 109.054688 222.820312 101.507812 218.667969 96.96875 C 219.351562 96.164062 220.398438 95.167969 221.882812 94.417969 C 226.171875 92.261719 230.5625 93.984375 231.417969 94.34375 C 232.230469 94.867188 233.128906 95.546875 234.039062 96.417969 C 235.996094 98.300781 237.148438 100.296875 237.824219 101.75 C 238.332031 101.972656 239.085938 102.214844 240.015625 102.234375 C 242.160156 102.277344 243.667969 101.082031 244.121094 100.695312 C 244.109375 100.394531 244.097656 100.09375 244.082031 99.792969 " fill-opacity="1" fill-rule="nonzero"/><path fill="#a85440" d="M 244.097656 94.703125 C 244.046875 95.683594 244.023438 96.65625 244.105469 97.628906 C 244.167969 98.59375 244.285156 99.554688 244.488281 100.496094 L 244.523438 100.660156 L 244.386719 100.792969 C 243.953125 101.203125 243.46875 101.570312 242.929688 101.839844 C 242.660156 101.972656 242.382812 102.09375 242.097656 102.191406 C 241.949219 102.238281 241.820312 102.277344 241.652344 102.324219 C 241.507812 102.355469 241.386719 102.390625 241.226562 102.414062 C 240.613281 102.535156 240.011719 102.539062 239.40625 102.472656 C 238.804688 102.402344 238.214844 102.257812 237.652344 102.027344 L 237.5 101.964844 L 237.425781 101.820312 C 236.953125 100.878906 236.398438 99.984375 235.792969 99.117188 L 235.566406 98.796875 C 235.519531 98.730469 235.402344 98.601562 235.328125 98.503906 L 234.808594 97.886719 C 234.460938 97.476562 234.132812 97.050781 233.792969 96.632812 L 233.832031 96.671875 C 233.109375 96.027344 232.378906 95.390625 231.660156 94.742188 L 231.546875 94.636719 L 231.59375 94.515625 C 231.976562 93.5625 232.660156 92.742188 233.535156 92.273438 C 232.773438 92.894531 232.214844 93.730469 231.988281 94.644531 L 231.921875 94.421875 C 232.703125 94.996094 233.46875 95.585938 234.242188 96.167969 L 234.257812 96.175781 L 234.285156 96.207031 C 234.648438 96.597656 235.027344 96.984375 235.386719 97.382812 L 235.925781 97.980469 C 236.023438 98.09375 236.09375 98.160156 236.210938 98.304688 L 236.464844 98.628906 C 237.125 99.503906 237.703125 100.445312 238.214844 101.414062 L 237.992188 101.207031 C 238.472656 101.40625 238.988281 101.546875 239.511719 101.613281 C 240.03125 101.683594 240.570312 101.667969 241.074219 101.59375 C 241.195312 101.585938 241.347656 101.546875 241.480469 101.523438 C 241.589844 101.496094 241.730469 101.464844 241.855469 101.425781 C 242.105469 101.351562 242.355469 101.257812 242.59375 101.148438 C 243.074219 100.921875 243.539062 100.652344 243.953125 100.308594 L 243.847656 100.605469 C 243.71875 99.617188 243.65625 98.621094 243.695312 97.628906 C 243.75 96.640625 243.859375 95.65625 244.097656 94.703125 " fill-opacity="1" fill-rule="nonzero"/><path fill="#703e3b" d="M 147.675781 218.523438 C 147.769531 219.363281 147.824219 220.75 147.378906 222.371094 C 146.921875 224.050781 146.128906 225.246094 145.605469 225.921875 C 142.464844 225.535156 138.851562 224.824219 134.960938 223.554688 C 126.074219 220.660156 119.582031 216.109375 115.445312 212.605469 C 115.34375 212.117188 115.027344 210.324219 116.039062 208.460938 C 117.265625 206.207031 119.5 205.597656 119.882812 205.5 C 122.730469 207.558594 126.078125 209.699219 129.933594 211.71875 C 136.484375 215.140625 142.613281 217.222656 147.675781 218.523438 " fill-opacity="1" fill-rule="nonzero"/><path fill="#543130" d="M 274.523438 160.664062 C 274.605469 162.46875 274.308594 163.941406 274.078125 164.808594 C 272.085938 164.8125 269.277344 164.503906 266.390625 163.03125 C 257.753906 158.628906 256.585938 147.957031 256.488281 146.902344 C 259.230469 145.871094 261.371094 145.992188 262.546875 146.164062 C 269.253906 147.148438 274.226562 154.253906 274.523438 160.664062 " fill-opacity="1" fill-rule="nonzero"/><path fill="#703e3b" d="M 113.78125 181.585938 C 114.089844 182.953125 108.414062 185.277344 102.25 187.800781 C 98.394531 189.375 90.261719 192.707031 89.238281 191.054688 C 88.554688 189.949219 91.238281 186.902344 93.378906 185.136719 C 101.179688 178.691406 113.347656 179.6875 113.78125 181.585938 " fill-opacity="1" fill-rule="nonzero"/><path fill="#464a61" d="M 68.023438 316.171875 C 86.957031 325.671875 90.617188 328.851562 90.199219 329.933594 C 90.003906 330.433594 88.875 330.585938 76.894531 329.488281 C 72.253906 329.0625 68.375 328.671875 65.582031 328.378906 C 65.277344 327.238281 64.996094 325.628906 65.140625 323.71875 C 65.417969 319.988281 67.140625 317.34375 68.023438 316.171875 " fill-opacity="1" fill-rule="nonzero"/><path fill="#464a61" d="M 301.09375 295.304688 C 300.765625 295.445312 297.964844 289.542969 294.664062 282.429688 C 286.195312 264.203125 265.1875 218.125 266.277344 217.617188 C 267.074219 217.246094 279.71875 241.359375 290.671875 267.558594 C 295.824219 279.890625 301.609375 295.085938 301.09375 295.304688 " fill-opacity="1" fill-rule="nonzero"/><path fill="#464a61" d="M 267.828125 232.785156 C 268.214844 233.621094 264.25 236.195312 262.210938 237.519531 C 261.644531 237.886719 254.71875 242.355469 253.933594 241.367188 C 253.398438 240.695312 255.722656 237.515625 258.664062 235.449219 C 262.53125 232.726562 267.4375 231.941406 267.828125 232.785156 " fill-opacity="1" fill-rule="nonzero"/><path fill="#543130" d="M 201.859375 195.5625 C 201.621094 199.929688 200.609375 205.878906 197.28125 211.945312 C 197.105469 212.28125 196.910156 212.617188 196.714844 212.957031 C 194.984375 215.894531 193.035156 218.238281 191.25 220.058594 C 191.039062 218.300781 190.726562 214.8125 191.242188 210.683594 C 191.816406 206.109375 193.425781 200.757812 197.308594 196.085938 C 197.691406 195.625 198.082031 195.199219 198.472656 194.78125 C 199.589844 193.617188 200.75 192.632812 201.894531 191.796875 C 201.929688 192.835938 201.941406 194.117188 201.859375 195.5625 " fill-opacity="1" fill-rule="nonzero"/><path fill="#242633" d="M 282.507812 198.398438 C 281.71875 194.75 280.929688 191.097656 280.140625 187.449219 C 275.3125 185.96875 270.484375 184.488281 265.652344 183.011719 C 262.398438 183.796875 259.148438 184.589844 255.894531 185.378906 C 252.9375 185.871094 249.980469 186.363281 247.023438 186.855469 C 241.601562 190.308594 236.183594 193.761719 230.761719 197.214844 C 230.367188 199.878906 229.972656 202.542969 229.578125 205.207031 C 239.335938 207.671875 249.09375 210.140625 258.851562 212.605469 C 262.695312 211.914062 266.539062 211.222656 270.382812 210.53125 C 271.960938 208.164062 273.535156 205.796875 275.113281 203.429688 C 277.578125 201.753906 280.042969 200.078125 282.507812 198.398438 " fill-opacity="1" fill-rule="nonzero"/><path fill="#ed846b" d="M 265.0625 213.792969 C 263.773438 214.875 262.496094 215.957031 261.222656 217.039062 C 258.65625 217.519531 255.792969 218.050781 253.238281 218.523438 C 248.945312 219.3125 244.652344 220.105469 240.375 220.894531 C 230.273438 218.796875 220.167969 216.710938 210.066406 214.625 C 205.800781 213.726562 201.539062 212.839844 197.28125 211.945312 C 195.269531 211.527344 193.253906 211.101562 191.242188 210.683594 C 191.816406 206.109375 193.425781 200.757812 197.308594 196.085938 C 197.691406 195.625 198.082031 195.199219 198.472656 194.78125 C 199.597656 195.039062 200.722656 195.296875 201.859375 195.5625 C 205.703125 196.433594 209.542969 197.320312 213.382812 198.199219 C 214.492188 196.984375 216.203125 195.339844 218.640625 193.957031 C 222.324219 191.859375 224.230469 192.242188 229.289062 191 C 238.007812 188.859375 240.828125 185.191406 244.144531 186.933594 C 245.757812 187.785156 246.585938 189.445312 247.027344 190.707031 C 245.8125 191.605469 243.894531 192.917969 241.402344 194.257812 C 236.878906 196.683594 234.09375 197.214844 233.5 199.363281 C 233.28125 200.144531 233.269531 201.421875 234.609375 203.359375 C 240.324219 204.167969 246.035156 204.984375 251.757812 205.800781 C 254.25 205.160156 256.308594 205.132812 257.671875 205.207031 C 259.941406 205.328125 261.609375 205.425781 262.695312 206.6875 C 263.828125 208.003906 263.679688 209.828125 263.582031 210.53125 C 264.078125 211.617188 264.5625 212.707031 265.0625 213.792969 " fill-opacity="1" fill-rule="nonzero"/><path fill="#9c7f7e" d="M 185.292969 212.296875 C 185.082031 213.355469 183.875 213.988281 182.828125 213.835938 C 181.804688 213.6875 180.796875 212.78125 180.894531 211.667969 C 180.996094 210.523438 182.207031 209.78125 183.277344 209.882812 C 184.460938 209.992188 185.519531 211.144531 185.292969 212.296875 " fill-opacity="1" fill-rule="nonzero"/><path fill="#9c7f7e" d="M 178.183594 209.976562 C 177.972656 211.03125 176.769531 211.664062 175.71875 211.511719 C 174.695312 211.367188 173.6875 210.457031 173.785156 209.34375 C 173.886719 208.199219 175.097656 207.457031 176.167969 207.558594 C 177.351562 207.667969 178.414062 208.820312 178.183594 209.976562 " fill-opacity="1" fill-rule="nonzero"/><path fill="#9c7f7e" d="M 171.503906 207.097656 C 171.296875 208.152344 170.089844 208.785156 169.039062 208.632812 C 168.015625 208.488281 167.007812 207.578125 167.105469 206.464844 C 167.210938 205.324219 168.421875 204.578125 169.488281 204.679688 C 170.671875 204.789062 171.734375 205.941406 171.503906 207.097656 " fill-opacity="1" fill-rule="nonzero"/><path fill="#703e3b" d="M 161.828125 170.785156 C 161.851562 171.1875 158.785156 170.851562 154.289062 172.78125 C 148.203125 175.386719 145.496094 179.5625 144.753906 178.996094 C 144.128906 178.515625 145.195312 174.914062 147.855469 172.558594 C 152.988281 168.015625 161.789062 170.097656 161.828125 170.785156 " fill-opacity="1" fill-rule="nonzero"/><path fill="#703e3b" d="M 166.925781 174.554688 C 167.210938 173.519531 165.511719 172.207031 164.488281 171.671875 C 160.082031 169.355469 153.738281 173.761719 154.066406 175.222656 C 154.480469 177.074219 166.253906 177.039062 166.925781 174.554688 " fill-opacity="1" fill-rule="nonzero"/><path fill="#703e3b" d="M 143.347656 305.589844 C 143.542969 305.09375 140.566406 304.4375 138.617188 301.445312 C 135.414062 296.535156 137.871094 289.773438 137.140625 289.609375 C 136.40625 289.445312 135.824219 296.582031 131.226562 299.078125 C 127.46875 301.121094 123.058594 298.957031 122.945312 299.375 C 122.703125 300.246094 142.835938 306.90625 143.347656 305.589844 " fill-opacity="1" fill-rule="nonzero"/><path fill="#703e3b" d="M 114.667969 297.007812 C 114.511719 297.507812 110.3125 296.957031 106.683594 295.230469 C 104.261719 294.078125 101.441406 292.09375 101.65625 291.679688 C 102.085938 290.851562 114.945312 296.097656 114.667969 297.007812 " fill-opacity="1" fill-rule="nonzero"/><path fill="#703e3b" d="M 235.453125 176.332031 C 235.011719 175.792969 232.097656 177.402344 230.351562 178.773438 C 226.371094 181.910156 224.539062 186.921875 225.25 187.429688 C 226.449219 188.28125 236.382812 177.46875 235.453125 176.332031 " fill-opacity="1" fill-rule="nonzero"/><path fill="#5b5f78" d="M 284.355469 151.492188 C 283.796875 152.867188 282.976562 154.453125 281.378906 155.011719 C 280.226562 155.414062 279.09375 155.128906 278.402344 154.875 C 277.859375 155.425781 276.957031 156.167969 275.699219 156.5 C 272.3125 157.394531 268.480469 154.769531 266.640625 151.898438 C 265.101562 149.503906 266.054688 148.660156 264.207031 144.859375 C 262.855469 142.089844 261.914062 141.652344 260.6875 139.445312 C 259.609375 137.507812 258.453125 134.453125 258.527344 129.835938 C 262.582031 129.023438 266.640625 128.210938 270.695312 127.402344 C 272.722656 124.875 274.753906 122.347656 276.78125 119.820312 C 278.796875 120.804688 284.125 123.742188 286.921875 129.972656 C 290.164062 137.179688 287.617188 143.449219 284.355469 151.492188 " fill-opacity="1" fill-rule="nonzero"/><path fill="#464a61" d="M 280.839844 122.6875 C 283.503906 122.78125 285.308594 127.378906 286.605469 130.679688 C 288.957031 136.675781 290.242188 145.199219 287.195312 146.957031 C 285.769531 147.78125 284.070312 146.734375 281.726562 148.289062 C 280.617188 149.023438 280.3125 149.714844 279.359375 149.769531 C 278.039062 149.84375 277.742188 148.554688 275.960938 147.847656 C 273.679688 146.9375 272.371094 148.339844 271.230469 147.402344 C 270.066406 146.449219 271.273438 144.878906 270.34375 142.371094 C 269.6875 140.609375 268.785156 140.546875 265.90625 137.339844 C 263.523438 134.683594 262.332031 133.351562 262.65625 132.457031 C 263.261719 130.769531 267.660156 132.679688 272.265625 130.535156 C 277.589844 128.046875 277.910156 122.589844 280.839844 122.6875 " fill-opacity="1" fill-rule="nonzero"/><path fill="#5b5f78" d="M 261.5 136.738281 C 260.820312 136.417969 259.800781 136.066406 258.929688 136.46875 C 255.53125 138.046875 255.324219 150.757812 262.039062 157.175781 C 262.558594 157.671875 267.632812 162.519531 271.640625 160.558594 C 274.191406 159.316406 274.867188 156.027344 275.023438 155.144531 C 270.515625 149.011719 266.007812 142.875 261.5 136.738281 " fill-opacity="1" fill-rule="nonzero"/><path fill="#242633" d="M 259.269531 83.222656 C 257.261719 83.222656 255.328125 83.65625 253.523438 84.503906 C 246.277344 87.921875 243.40625 97.148438 247.136719 105.070312 C 249.835938 110.8125 255.394531 114.527344 261.292969 114.527344 C 263.300781 114.527344 265.234375 114.097656 267.039062 113.246094 C 274.289062 109.828125 277.15625 100.605469 273.429688 92.679688 C 270.730469 86.9375 265.171875 83.222656 259.269531 83.222656 Z M 261.292969 116.300781 C 254.710938 116.300781 248.519531 112.191406 245.527344 105.824219 C 241.386719 97.015625 244.632812 86.730469 252.769531 82.898438 C 254.8125 81.9375 257 81.449219 259.269531 81.449219 C 265.855469 81.449219 272.042969 85.558594 275.035156 91.925781 C 279.175781 100.734375 275.929688 111.019531 267.796875 114.851562 C 265.75 115.816406 263.566406 116.300781 261.292969 116.300781 " fill-opacity="1" fill-rule="nonzero"/><path fill="#242633" d="M 271.789062 114.507812 C 272.5 116.023438 271.554688 117.96875 269.675781 118.855469 C 267.796875 119.738281 265.695312 119.230469 264.984375 117.714844 C 264.273438 116.199219 265.21875 114.253906 267.097656 113.367188 C 268.976562 112.480469 271.078125 112.992188 271.789062 114.507812 " fill-opacity="1" fill-rule="nonzero"/><path fill="#242633" d="M 284.511719 140.835938 C 285.597656 143.144531 287.527344 151.527344 285.492188 152.484375 C 283.460938 153.441406 278.234375 146.613281 277.148438 144.304688 C 276.0625 141.996094 266.039062 116.402344 268.074219 115.445312 C 270.105469 114.484375 283.425781 138.527344 284.511719 140.835938 " fill-opacity="1" fill-rule="nonzero"/><path fill="#34374a" d="M 252.304688 217.839844 C 252.257812 218.992188 246.6875 218.308594 242.324219 222.945312 C 240.070312 225.34375 239.296875 227.933594 237.671875 227.828125 C 236.257812 227.738281 236.140625 225.75 234.121094 223.832031 C 231.816406 221.640625 230.3125 222.664062 224.363281 220.726562 C 218.679688 218.871094 217.875 217.226562 214.605469 217.617188 C 212.765625 217.839844 211.929688 218.488281 210.394531 218.0625 C 207.972656 217.386719 205.796875 214.585938 206.179688 213.179688 C 207.710938 207.5625 252.441406 214.570312 252.304688 217.839844 " fill-opacity="1" fill-rule="nonzero"/><path fill="#5b5f78" d="M 266.277344 213.621094 C 264.726562 215.105469 263.171875 216.578125 261.621094 218.0625 C 258.152344 218.53125 254.523438 219.117188 250.753906 219.835938 C 247.1875 220.519531 243.78125 221.265625 240.554688 222.054688 C 237.867188 221.390625 235.140625 220.734375 232.375 220.09375 C 228.105469 219.109375 223.734375 218.175781 219.261719 217.289062 C 219.066406 217.253906 218.875 217.210938 218.679688 217.171875 C 215.882812 216.621094 213.117188 216.097656 210.394531 215.621094 C 209.585938 216 208.371094 216.542969 206.84375 217.058594 C 205.054688 217.679688 204.15625 217.980469 203.742188 217.839844 C 201.40625 217.03125 201.832031 209.121094 203.296875 203.1875 C 204.308594 199.078125 206.074219 194.894531 207.730469 194.976562 C 208.28125 195.003906 208.503906 195.484375 209.949219 196.195312 C 211.085938 196.761719 212.105469 197.046875 212.832031 197.195312 C 214.367188 195.828125 216.878906 193.847656 220.371094 192.3125 C 225.234375 190.171875 226.679688 191.222656 232.789062 189.207031 C 239.035156 187.152344 240.863281 184.96875 243.65625 185.984375 C 245.964844 186.824219 247.195312 189.222656 247.871094 190.980469 C 243.507812 193.644531 239.152344 196.308594 234.785156 198.972656 C 234.859375 200.152344 234.9375 201.34375 235.007812 202.523438 C 238.351562 202.984375 241.714844 203.464844 245.101562 203.972656 C 247.328125 204.289062 249.546875 204.628906 251.757812 204.964844 C 253.015625 204.714844 254.894531 204.449219 257.183594 204.519531 C 259.855469 204.601562 261.378906 204.652344 262.613281 205.746094 C 264.414062 207.328125 264.332031 210.015625 264.28125 210.84375 C 264.945312 211.773438 265.613281 212.699219 266.277344 213.621094 " fill-opacity="1" fill-rule="nonzero"/><path fill="#464a61" d="M 261.730469 211.070312 C 261.742188 211.160156 261.464844 211.308594 256.1875 212.734375 C 254.839844 213.097656 253.699219 213.402344 252.859375 213.621094 C 251.5 213.359375 249.300781 213.074219 246.652344 213.398438 C 242.730469 213.882812 240.417969 215.382812 239.554688 214.398438 C 238.996094 213.761719 239.191406 212.234375 240.109375 211.625 C 240.894531 211.105469 242.019531 211.734375 242.882812 212.066406 C 245.386719 213.042969 246.84375 212.121094 252.195312 211.402344 C 256.972656 210.757812 261.679688 210.703125 261.730469 211.070312 " fill-opacity="1" fill-rule="nonzero"/><path fill="#464a61" d="M 243.769531 219.394531 C 243.816406 219.777344 242.546875 220.621094 241.441406 220.171875 C 240.882812 219.941406 240.3125 219.363281 240.441406 219.058594 C 240.695312 218.457031 243.699219 218.832031 243.769531 219.394531 " fill-opacity="1" fill-rule="nonzero"/><path fill="#464a61" d="M 233.085938 199.195312 C 234.050781 200.0625 234.183594 201.976562 233.382812 202.746094 C 232.019531 204.054688 227.886719 202.148438 227.910156 200.820312 C 227.9375 199.609375 231.464844 197.734375 233.085938 199.195312 " fill-opacity="1" fill-rule="nonzero"/><path fill="#ed846b" d="M 232.898438 213.355469 C 232.730469 214.289062 232.585938 215.289062 232.496094 216.355469 C 232.375 217.695312 232.347656 218.949219 232.375 220.09375 C 228.105469 219.109375 223.734375 218.175781 219.261719 217.289062 C 219.066406 217.253906 218.875 217.210938 218.679688 217.171875 C 218.722656 215.746094 218.917969 214.109375 219.335938 212.363281 C 219.503906 211.6875 219.691406 211.054688 219.886719 210.460938 C 220.46875 208.703125 222.136719 207.574219 223.984375 207.585938 C 225.074219 207.59375 226.296875 207.691406 227.621094 207.921875 C 228.488281 208.082031 229.296875 208.285156 230.039062 208.507812 C 232.089844 209.136719 233.28125 211.242188 232.898438 213.355469 " fill-opacity="1" fill-rule="nonzero"/><path fill="#34374a" d="M 278.03125 188.316406 C 274.039062 189.351562 270.046875 190.390625 266.054688 191.425781 C 265.316406 192.757812 264.578125 194.089844 263.835938 195.421875 C 262.433594 193.941406 261.027344 192.460938 259.625 190.980469 C 256.519531 190.910156 253.414062 190.832031 250.308594 190.757812 C 249.71875 189.796875 249.128906 188.835938 248.535156 187.875 C 254.300781 186.691406 260.066406 185.507812 265.832031 184.324219 C 269.898438 185.65625 273.964844 186.984375 278.03125 188.316406 " fill-opacity="1" fill-rule="nonzero"/><path fill="#34374a" d="M 278.695312 188.984375 C 275.441406 190.019531 272.191406 191.054688 268.9375 192.089844 C 272.632812 192.535156 276.328125 192.980469 280.027344 193.421875 C 279.582031 191.941406 279.140625 190.464844 278.695312 188.984375 " fill-opacity="1" fill-rule="nonzero"/><path fill="#d4eafc" d="M 201.078125 143.039062 C 202.613281 142.757812 204.046875 143.144531 206.84375 143.925781 C 210.917969 145.0625 212.953125 145.628906 213.054688 146.589844 C 213.207031 148.042969 209.519531 148.304688 205.957031 151.695312 C 201.265625 156.15625 201.097656 162.011719 198.34375 162.050781 C 196.964844 162.070312 196.199219 160.613281 195.3125 161.015625 C 194.226562 161.507812 194.363281 164.171875 194.648438 166.34375 C 188.539062 175.957031 186.636719 176.871094 185.925781 176.554688 C 184.921875 176.105469 185.941406 173.03125 186.8125 162.050781 C 187.210938 157.054688 187.101562 156.402344 187.773438 154.800781 C 188.976562 151.9375 191.585938 150.164062 196.203125 145.921875 C 197.675781 144.566406 199.039062 143.40625 201.078125 143.039062 " fill-opacity="1" fill-rule="nonzero"/><path fill="#ad9493" d="M 177.941406 93.6875 C 178.929688 111.835938 179.914062 129.988281 180.898438 148.140625 C 176.019531 136.007812 171.140625 123.875 166.261719 111.738281 C 162.371094 109.863281 158.476562 107.992188 154.582031 106.117188 C 156.457031 102.960938 158.328125 99.804688 160.203125 96.644531 C 166.117188 95.660156 172.027344 94.671875 177.941406 93.6875 " fill-opacity="1" fill-rule="nonzero"/><path fill="#ad9493" d="M 237.671875 143.257812 C 233.085938 145.773438 228.503906 148.289062 223.921875 150.804688 C 224.957031 147.402344 225.992188 144 227.027344 140.59375 C 230.574219 141.484375 234.121094 142.371094 237.671875 143.257812 " fill-opacity="1" fill-rule="nonzero"/><path fill="#ffdcd4" d="M 252.859375 96.867188 C 252.867188 97.210938 251.363281 97.089844 250.089844 97.976562 C 247.933594 99.476562 248.167969 102.65625 247.539062 102.640625 C 247.046875 102.625 246.632812 100.675781 246.539062 98.976562 C 246.382812 96.070312 247.113281 93 247.871094 92.984375 C 248.390625 92.972656 248.296875 94.421875 249.644531 95.535156 C 251.066406 96.714844 252.851562 96.492188 252.859375 96.867188 " fill-opacity="1" fill-rule="nonzero"/><path fill="#ffdcd4" d="M 252.195312 109.296875 C 251.914062 109.570312 250.625 108.761719 249.867188 107.964844 C 248.375 106.40625 248.109375 104.058594 248.535156 103.859375 C 249.242188 103.527344 252.769531 108.738281 252.195312 109.296875 " fill-opacity="1" fill-rule="nonzero"/><path fill="#d4eafc" d="M 270.636719 91.464844 C 271.507812 91.253906 275.0625 96.785156 274.039062 102.714844 C 273.136719 107.9375 268.960938 111.832031 268.273438 111.445312 C 267.796875 111.175781 269.144531 108.9375 270.046875 104.636719 C 271.695312 96.769531 269.828125 91.667969 270.636719 91.464844 " fill-opacity="1" fill-rule="nonzero"/><path fill="#d4eafc" d="M 268.863281 89.839844 C 268.609375 90.386719 266.882812 90.503906 265.757812 89.542969 C 264.597656 88.546875 264.503906 86.757812 265.019531 86.433594 C 265.878906 85.894531 269.292969 88.910156 268.863281 89.839844 " fill-opacity="1" fill-rule="nonzero"/><path fill="#5b5f78" d="M 273.152344 129.199219 C 273.730469 130.292969 273.425781 131.609375 273.296875 132.160156 C 272.925781 133.773438 271.933594 134.757812 271.527344 135.121094 C 270.054688 135.476562 267.78125 135.84375 265.019531 135.5625 C 262.21875 135.28125 260.039062 134.441406 258.664062 133.789062 C 257.40625 131.457031 257.371094 128.828125 258.660156 126.996094 C 259.339844 126.023438 260.238281 125.492188 260.878906 125.207031 C 263.453125 126.007812 265.578125 126.527344 267.042969 126.859375 C 270.660156 127.671875 272.402344 127.789062 273.152344 129.199219 " fill-opacity="1" fill-rule="nonzero"/><path fill="#5b5f78" d="M 285.117188 119.054688 C 285.035156 118.753906 284.496094 116.722656 282.71875 115.933594 C 280.820312 115.09375 278.816406 116.246094 278.523438 116.414062 C 275.289062 118.273438 274.296875 123.363281 275.765625 126.972656 C 276.210938 128.066406 276.675781 129.214844 277.683594 129.496094 C 280.523438 130.28125 286.378906 123.804688 285.117188 119.054688 " fill-opacity="1" fill-rule="nonzero"/><path fill="#5b5f78" d="M 284.996094 122.535156 C 286.273438 121.953125 287.8125 122.265625 288.832031 122.894531 C 291.269531 124.398438 291.546875 128.203125 290.871094 130.695312 C 289.6875 135.058594 284.746094 138.484375 282 137.292969 C 280.824219 136.785156 280.320312 135.542969 280.199219 135.253906 C 279.605469 133.792969 280.132812 132.703125 282.121094 127.695312 C 283.632812 123.875 283.917969 123.027344 284.996094 122.535156 " fill-opacity="1" fill-rule="nonzero"/><path fill="#5b5f78" d="M 290.75 131.054688 C 292.054688 131.09375 292.914062 133.390625 293.027344 133.695312 C 293.742188 135.601562 293.617188 138.128906 292.191406 140.171875 C 290.445312 142.671875 287.722656 143.074219 287.035156 143.171875 C 286.089844 143.3125 283.929688 143.628906 283.078125 142.453125 C 282.125 141.136719 283.421875 138.808594 283.796875 138.132812 C 284.867188 136.214844 285.722656 136.425781 287.996094 133.8125 C 289.582031 131.988281 289.902344 131.03125 290.75 131.054688 " fill-opacity="1" fill-rule="nonzero"/><path fill="#5b5f78" d="M 290.273438 142.335938 C 291.160156 142.910156 291.289062 144.226562 291.351562 144.855469 C 291.539062 146.746094 290.59375 148.804688 288.832031 149.773438 C 285.984375 151.339844 282.199219 149.386719 281.878906 147.613281 C 281.414062 145.03125 287.949219 140.820312 290.273438 142.335938 " fill-opacity="1" fill-rule="nonzero"/><path fill="#464a61" d="M 272.265625 156.464844 C 272.078125 157.007812 269.292969 157.101562 267.273438 155.6875 C 264.28125 153.589844 264.058594 148.921875 264.613281 148.699219 C 265.027344 148.53125 265.660156 150.871094 268.496094 153.46875 C 270.6875 155.480469 272.417969 156.015625 272.265625 156.464844 " fill-opacity="1" fill-rule="nonzero"/><path fill="#d46e55" d="M 202.039062 124.316406 C 202.179688 124.816406 201.121094 125.515625 199.082031 126.832031 C 197.546875 127.828125 196.773438 128.320312 196.421875 128.164062 C 195.410156 127.710938 195.832031 124.746094 196.421875 120.617188 C 196.464844 120.308594 197.046875 116.296875 197.457031 116.328125 C 197.945312 116.363281 196.96875 122.074219 199.527344 123.578125 C 200.632812 124.226562 201.894531 123.796875 202.039062 124.316406 " fill-opacity="1" fill-rule="nonzero"/><path fill="#d46e55" d="M 208.101562 105.082031 C 207.605469 105.375 206.738281 103.722656 205.292969 103.75 C 203.109375 103.789062 201.910156 107.613281 201.449219 107.449219 C 200.558594 107.132812 204.273438 92.6875 205.738281 92.945312 C 206.230469 93.035156 205.878906 94.695312 206.769531 98.71875 C 207.574219 102.339844 208.691406 104.730469 208.101562 105.082031 " fill-opacity="1" fill-rule="nonzero"/></svg>