<svg xmlns="http://www.w3.org/2000/svg" xmlns:xlink="http://www.w3.org/1999/xlink" width="500" zoomAndPan="magnify" viewBox="0 0 375 374.999991" height="500" preserveAspectRatio="xMidYMid meet" version="1.0"><path fill="#e2e2e2" d="M 174.570312 338.539062 C 174.570312 338.808594 174.429688 339.074219 174.148438 339.34375 C 173.867188 339.609375 173.449219 339.875 172.890625 340.136719 C 172.335938 340.398438 171.640625 340.660156 170.8125 340.914062 C 169.980469 341.171875 169.019531 341.421875 167.925781 341.671875 C 166.832031 341.917969 165.613281 342.160156 164.265625 342.394531 C 162.917969 342.632812 161.453125 342.863281 159.863281 343.085938 C 158.277344 343.308594 156.574219 343.523438 154.761719 343.730469 C 152.949219 343.9375 151.03125 344.132812 149.011719 344.324219 C 146.992188 344.511719 144.875 344.691406 142.667969 344.863281 C 140.457031 345.03125 138.167969 345.191406 135.789062 345.339844 C 133.414062 345.488281 130.964844 345.628906 128.445312 345.753906 C 125.925781 345.878906 123.34375 345.992188 120.707031 346.097656 C 118.066406 346.199219 115.378906 346.289062 112.644531 346.367188 C 109.910156 346.445312 107.140625 346.507812 104.335938 346.5625 C 101.535156 346.613281 98.710938 346.652344 95.867188 346.679688 C 93.023438 346.707031 90.171875 346.71875 87.3125 346.71875 C 84.457031 346.71875 81.605469 346.707031 78.761719 346.679688 C 75.917969 346.652344 73.09375 346.613281 70.292969 346.5625 C 67.488281 346.507812 64.71875 346.445312 61.984375 346.367188 C 59.25 346.289062 56.5625 346.199219 53.921875 346.097656 C 51.285156 345.992188 48.703125 345.878906 46.183594 345.753906 C 43.664062 345.628906 41.214844 345.488281 38.839844 345.339844 C 36.460938 345.191406 34.167969 345.03125 31.960938 344.863281 C 29.75 344.691406 27.636719 344.511719 25.617188 344.324219 C 23.59375 344.132812 21.679688 343.9375 19.867188 343.730469 C 18.054688 343.523438 16.351562 343.308594 14.765625 343.085938 C 13.175781 342.863281 11.710938 342.632812 10.363281 342.394531 C 9.015625 342.160156 7.796875 341.917969 6.703125 341.671875 C 5.609375 341.421875 4.648438 341.171875 3.816406 340.914062 C 2.988281 340.660156 2.292969 340.398438 1.738281 340.136719 C 1.179688 339.875 0.761719 339.609375 0.480469 339.34375 C 0.199219 339.074219 0.0585938 338.808594 0.0585938 338.539062 C 0.0585938 338.273438 0.199219 338.003906 0.480469 337.738281 C 0.761719 337.472656 1.179688 337.207031 1.738281 336.945312 C 2.292969 336.683594 2.988281 336.421875 3.816406 336.167969 C 4.648438 335.910156 5.609375 335.660156 6.703125 335.410156 C 7.796875 335.164062 9.015625 334.921875 10.363281 334.6875 C 11.710938 334.449219 13.175781 334.21875 14.765625 333.996094 C 16.351562 333.773438 18.054688 333.558594 19.867188 333.351562 C 21.679688 333.144531 23.59375 332.949219 25.617188 332.757812 C 27.636719 332.570312 29.75 332.390625 31.960938 332.21875 C 34.167969 332.050781 36.460938 331.890625 38.839844 331.742188 C 41.214844 331.59375 43.664062 331.453125 46.183594 331.328125 C 48.703125 331.203125 51.285156 331.085938 53.921875 330.984375 C 56.5625 330.882812 59.25 330.792969 61.984375 330.714844 C 64.71875 330.636719 67.488281 330.570312 70.292969 330.519531 C 73.09375 330.46875 75.917969 330.429688 78.761719 330.402344 C 81.605469 330.375 84.457031 330.363281 87.3125 330.363281 C 90.171875 330.363281 93.023438 330.375 95.867188 330.402344 C 98.710938 330.429688 101.535156 330.46875 104.335938 330.519531 C 107.140625 330.570312 109.910156 330.636719 112.644531 330.714844 C 115.378906 330.792969 118.066406 330.882812 120.707031 330.984375 C 123.34375 331.085938 125.925781 331.203125 128.445312 331.328125 C 130.964844 331.453125 133.414062 331.59375 135.789062 331.742188 C 138.167969 331.890625 140.457031 332.050781 142.667969 332.21875 C 144.875 332.390625 146.992188 332.570312 149.011719 332.757812 C 151.03125 332.949219 152.949219 333.144531 154.761719 333.351562 C 156.574219 333.558594 158.277344 333.773438 159.863281 333.996094 C 161.453125 334.21875 162.917969 334.449219 164.265625 334.6875 C 165.613281 334.921875 166.832031 335.164062 167.925781 335.410156 C 169.019531 335.660156 169.980469 335.910156 170.8125 336.167969 C 171.640625 336.421875 172.335938 336.683594 172.890625 336.945312 C 173.449219 337.207031 173.867188 337.472656 174.148438 337.738281 C 174.429688 338.003906 174.570312 338.273438 174.570312 338.539062 Z M 174.570312 338.539062 " fill-opacity="1" fill-rule="nonzero"/><path fill="#ba4607" d="M 22.078125 287.625 C 22.570312 288.191406 23.296875 288.800781 23.90625 289.222656 C 25.851562 290.5625 28.324219 291.191406 31.308594 290.859375 C 32.492188 290.730469 33.996094 290.527344 35.316406 290.101562 L 35.738281 291.324219 C 34.363281 291.769531 32.632812 292.128906 31.386719 292.265625 C 27.792969 292.664062 24.113281 291.722656 21.742188 289.269531 L 22.003906 288.027344 Z M 20.78125 294.707031 C 21.214844 295.171875 21.75 295.53125 22.269531 295.890625 C 27.097656 297.789062 29.132812 297.921875 33.976562 296.355469 L 34.644531 297.972656 C 29.898438 300.199219 23.785156 299.414062 20.570312 296.371094 C 20.625 295.875 20.78125 294.707031 20.78125 294.707031 Z M 20.78125 294.707031 " fill-opacity="1" fill-rule="evenodd"/><path fill="#ba4607" d="M 124.015625 336.707031 C 124.070312 336.332031 124.074219 336.03125 124.078125 335.660156 C 124.128906 330.277344 120.503906 326.808594 116.574219 323.515625 L 118.332031 321.855469 C 119.679688 322.984375 120.925781 324.242188 121.886719 325.476562 C 124.25 328.496094 125.691406 332.226562 125.539062 336.015625 L 124.355469 336.546875 Z M 130.207031 333.785156 L 130.65625 333.550781 L 131.808594 332.921875 C 131.84375 329.539062 130.589844 326.152344 128.132812 323.007812 C 127.171875 321.777344 125.785156 320.394531 124.433594 319.265625 L 122.992188 321.148438 C 127.269531 324.730469 130.269531 325.964844 130.203125 333.132812 C 130.199219 333.359375 130.21875 333.558594 130.207031 333.785156 Z M 130.207031 333.785156 " fill-opacity="1" fill-rule="evenodd"/><path fill="#802b16" d="M 235.980469 171.222656 C 236.804688 169.660156 237.6875 166.75 238.515625 165.1875 C 198.238281 58.878906 168.257812 117.398438 171.355469 149.417969 C 172.96875 166.097656 190.433594 176.160156 197.84375 157.59375 C 199.132812 154.367188 200.179688 150.667969 201.535156 147.117188 C 210.296875 124.164062 221.800781 145.289062 235.980469 171.222656 Z M 235.980469 171.222656 " fill-opacity="1" fill-rule="evenodd"/><path fill="#ffa100" d="M 206.613281 300.671875 C 240.058594 304.503906 273.914062 294.070312 287.46875 282.339844 C 296.921875 284.027344 303.699219 274.699219 307.476562 270.78125 C 321.996094 255.730469 325.058594 246.855469 319.257812 239.738281 C 311.183594 238.921875 300.917969 228.664062 295.507812 223.015625 C 304.230469 214.5625 313.90625 198.398438 310.132812 185.855469 C 303.261719 163.035156 265.617188 142.402344 239.648438 141.160156 C 231.476562 140.769531 224.269531 143.28125 219.542969 148.101562 L 187.21875 211.226562 C 183.820312 217.863281 180.824219 224.980469 177.804688 232.097656 C 173.925781 241.25 170.113281 248.566406 166.332031 254.53125 L 191.101562 277.015625 L 206.613281 300.671875 " fill-opacity="1" fill-rule="evenodd"/><path fill="#ffffff" d="M 300.835938 198.828125 C 300.019531 201.226562 298.777344 203.523438 297.089844 205.605469 C 289.417969 215.082031 275.511719 216.546875 266.03125 208.882812 C 256.546875 201.214844 255.082031 187.324219 262.753906 177.847656 C 267.023438 172.574219 273.234375 169.78125 279.53125 169.667969 Z M 300.835938 198.828125 " fill-opacity="1" fill-rule="evenodd"/><path fill="#611200" d="M 280.945312 199.902344 C 284.804688 197.648438 289.765625 198.953125 292.019531 202.8125 C 293.3125 205.027344 293.433594 207.601562 292.574219 209.820312 C 289.058594 212.273438 284.945312 213.613281 280.773438 213.777344 C 279.675781 213.101562 278.726562 212.15625 278.03125 210.96875 C 275.777344 207.109375 277.082031 202.15625 280.945312 199.902344 Z M 280.945312 199.902344 " fill-opacity="1" fill-rule="evenodd"/><path fill="#ffffff" d="M 287.269531 196.0625 C 288.785156 197.148438 289.128906 199.257812 288.042969 200.773438 C 286.953125 202.285156 284.84375 202.632812 283.328125 201.542969 C 281.8125 200.457031 281.464844 198.347656 282.554688 196.832031 C 283.644531 195.320312 285.753906 194.972656 287.269531 196.0625 Z M 287.269531 196.0625 " fill-opacity="1" fill-rule="evenodd"/><path fill="#d95e00" d="M 315.925781 239.042969 C 312.375 233.9375 300.578125 222.546875 291.019531 218.5625 C 268.179688 209.035156 261.921875 237.242188 265.703125 254.492188 C 271.582031 281.316406 299.035156 292.976562 308.398438 270.761719 C 310.90625 260.1875 313.417969 249.617188 315.925781 239.042969 " fill-opacity="1" fill-rule="evenodd"/><path fill="#611200" d="M 315.925781 239.042969 C 308.203125 243.460938 302.363281 267.546875 307.695312 270.640625 C 309.097656 271.339844 310.988281 271.492188 313.460938 270.914062 C 331.769531 266.609375 350.207031 245.324219 315.925781 239.042969 Z M 315.925781 239.042969 " fill-opacity="1" fill-rule="evenodd"/><path fill="#8f2c15" d="M 331.347656 244.820312 C 333.75 246.792969 334.601562 249.820312 333.25 251.582031 C 331.902344 253.34375 328.863281 253.171875 326.464844 251.199219 C 324.066406 249.226562 323.210938 246.199219 324.5625 244.4375 C 325.910156 242.675781 328.949219 242.847656 331.347656 244.820312 Z M 331.347656 244.820312 " fill-opacity="1" fill-rule="evenodd"/><path fill="#611200" d="M 289.925781 170.15625 C 294.792969 178.121094 297.996094 185.839844 302.867188 193.800781 C 304.414062 196.335938 307.167969 210.53125 299.265625 199.042969 C 291.75 188.125 284.238281 177.199219 276.722656 166.28125 C 280.570312 167.488281 286.078125 168.949219 289.925781 170.15625 Z M 289.925781 170.15625 " fill-opacity="1" fill-rule="evenodd"/><path fill="#ceebeb" d="M 269.519531 211.195312 C 255.75 197.8125 262.324219 177.222656 276.703125 173.472656 C 278.769531 172.933594 278.550781 171.382812 280.167969 170.535156 L 279.53125 169.667969 C 273.234375 169.78125 267.023438 172.574219 262.753906 177.847656 C 255.082031 187.324219 256.546875 201.214844 266.03125 208.882812 C 267.136719 209.777344 268.308594 210.546875 269.519531 211.195312 Z M 269.519531 211.195312 " fill-opacity="1" fill-rule="evenodd"/><path fill="#bf703b" d="M 270.328125 157.066406 C 312.523438 173.3125 337.816406 192.632812 336.070312 197.15625 C 334.328125 201.675781 307.101562 186.6875 264.90625 170.441406 C 222.714844 154.195312 196.855469 146.824219 198.597656 142.300781 C 200.339844 137.78125 228.132812 140.824219 270.328125 157.066406 Z M 270.328125 157.066406 " fill-opacity="1" fill-rule="evenodd"/><path fill="#bf703b" d="M 234.03125 151.546875 C 248.269531 159.273438 272.59375 168.417969 289.972656 172.929688 C 305.734375 177.023438 304.441406 175.515625 302.277344 164.792969 C 295.507812 131.28125 294.28125 103.175781 269.007812 125.46875 C 261.234375 92.082031 248.132812 94.738281 229.191406 139.792969 C 226.566406 146.035156 225.101562 146.703125 234.03125 151.546875 Z M 234.03125 151.546875 " fill-opacity="1" fill-rule="evenodd"/><path fill="#ad5c26" d="M 234.882812 145.410156 C 238.476562 147.753906 257.804688 163.097656 254.40625 161.886719 C 215.140625 147.875 213.160156 140.464844 228.128906 143.730469 C 230.03125 144.144531 232.484375 144.640625 234.882812 145.410156 Z M 234.882812 145.410156 " fill-opacity="1" fill-rule="evenodd"/><path fill="#db8044" d="M 301.765625 162.226562 C 294.398438 161.097656 286.332031 158.992188 277.960938 156.21875 C 275.441406 155.382812 272.894531 154.484375 270.332031 153.539062 C 264.238281 151.289062 258.046875 148.742188 251.898438 146.015625 C 250.28125 145.296875 248.664062 144.566406 247.054688 143.824219 C 241.546875 141.292969 236.109375 138.636719 230.84375 135.941406 C 230.296875 137.1875 229.746094 138.472656 229.191406 139.792969 C 228.53125 141.363281 227.945312 142.582031 227.578125 143.601562 C 226.65625 146.164062 227.128906 147.480469 231.332031 150.015625 C 232.101562 150.480469 232.996094 150.984375 234.03125 151.546875 C 243.609375 156.746094 257.753906 162.585938 271.273438 167.222656 C 274.496094 168.328125 277.679688 169.363281 280.757812 170.308594 C 283.96875 171.292969 287.070312 172.175781 289.972656 172.929688 C 292.484375 173.582031 294.566406 174.09375 296.277344 174.445312 C 302.058594 175.640625 303.640625 175.039062 303.554688 172.082031 C 303.503906 170.425781 302.929688 168.03125 302.277344 164.792969 C 302.101562 163.933594 301.933594 163.078125 301.765625 162.226562 Z M 301.765625 162.226562 " fill-opacity="1" fill-rule="evenodd"/><path fill="#ad5c26" d="M 237.445312 139.253906 C 240.710938 128.503906 252.230469 101.625 261.472656 106.355469 C 253.988281 97.054688 243.839844 106.191406 230.84375 135.941406 C 235.589844 138.371094 232.496094 136.949219 237.445312 139.253906 Z M 237.445312 139.253906 " fill-opacity="1" fill-rule="evenodd"/><path fill="#db8044" d="M 279.6875 120.332031 C 285.441406 117.707031 288.855469 120.792969 291.300781 126.144531 C 292.71875 129.242188 293.761719 133.125 294.796875 136.96875 L 294.90625 137.375 L 291.175781 138.378906 L 291.070312 137.972656 C 290.078125 134.292969 289.078125 130.570312 287.785156 127.746094 C 286.273438 124.441406 284.316406 122.464844 281.292969 123.84375 Z M 279.6875 120.332031 " fill-opacity="1" fill-rule="evenodd"/><path fill="#802b16" d="M 259.898438 160.421875 C 324.085938 26.480469 213.011719 99.414062 222.109375 123.253906 C 227.867188 138.351562 237.964844 129.144531 248.960938 123.152344 C 269.960938 111.714844 262.792969 131.308594 253.691406 158.289062 C 251.347656 165.230469 257.136719 165.730469 259.898438 160.421875 Z M 259.898438 160.421875 " fill-opacity="1" fill-rule="evenodd"/><path fill="#a8472f" d="M 264.050781 84.082031 C 258.355469 84.5625 253.960938 87.558594 254.234375 90.769531 C 254.507812 93.980469 259 92.164062 264.695312 91.679688 C 270.386719 91.199219 275.121094 92.234375 274.851562 89.023438 C 274.578125 85.8125 269.742188 83.597656 264.050781 84.082031 Z M 264.050781 84.082031 " fill-opacity="1" fill-rule="evenodd"/><path fill="#802b16" d="M 89.058594 139.484375 C 71.046875 160.117188 80.53125 185.453125 90.566406 197.648438 C 98.257812 203.964844 82.765625 173.730469 105.363281 150.441406 C 110.109375 145.550781 119.308594 142.011719 115.828125 134.046875 C 111.292969 123.679688 94.320312 133.453125 89.058594 139.484375 Z M 89.058594 139.484375 " fill-opacity="1" fill-rule="evenodd"/><path fill="#ff8000" d="M 96.578125 232.875 C 91.292969 242.417969 90.523438 253.191406 88.449219 262.242188 C 83.367188 284.40625 80.160156 300.695312 51.042969 294.117188 C 44.617188 293.210938 40.875 297.757812 38.925781 299.78125 C 35.117188 303.742188 30.746094 305.28125 25.1875 303.898438 C 22.769531 303.296875 20.933594 301.914062 20.511719 299.632812 C 20.375 298.894531 20.425781 297.59375 20.617188 295.953125 C 21.015625 296.296875 21.4375 296.609375 21.878906 296.890625 C 24.15625 298.351562 26.972656 298.992188 30.144531 298.664062 C 31.390625 298.539062 32.6875 298.261719 34.023438 297.828125 L 33.726562 296.960938 C 32.441406 297.375 31.203125 297.640625 30.023438 297.761719 C 27.054688 298.066406 24.4375 297.476562 22.332031 296.128906 C 21.769531 295.765625 21.242188 295.351562 20.753906 294.882812 C 20.992188 293.160156 21.351562 291.148438 21.789062 289.050781 C 22.28125 289.503906 22.808594 289.914062 23.371094 290.273438 C 25.648438 291.734375 28.464844 292.375 31.640625 292.046875 C 32.882812 291.921875 34.179688 291.644531 35.515625 291.210938 L 35.21875 290.34375 C 33.933594 290.757812 32.695312 291.023438 31.515625 291.144531 C 28.546875 291.449219 25.929688 290.855469 23.824219 289.511719 C 23.167969 289.089844 22.558594 288.59375 22.003906 288.027344 C 26.050781 266.183594 32.941406 257.761719 48.632812 268.363281 L 48.632812 268.359375 C 48.679688 268.394531 48.722656 268.421875 48.769531 268.457031 C 48.996094 268.609375 49.226562 268.769531 49.460938 268.933594 C 64.40625 278.765625 67.675781 247.980469 63.566406 237.015625 C 70.886719 221.453125 71.246094 217.289062 73.820312 214 Z M 96.578125 232.875 " fill-opacity="1" fill-rule="evenodd"/><path fill="#ffa100" d="M 123.625 307.058594 C 139.183594 311.070312 156.414062 303.152344 172.710938 302.609375 C 186.089844 302.167969 195.929688 302.6875 206.613281 300.671875 C 214.449219 299.191406 224.082031 296.589844 229.125 290.019531 C 244.339844 270.40625 215.101562 276.824219 206.574219 261.238281 C 176.964844 236.277344 118.714844 173.664062 88.105469 191.816406 C 79.066406 197.179688 72.304688 203.9375 67.675781 211.554688 C 60.585938 223.214844 60.148438 234.433594 60.574219 244.632812 C 61.871094 275.644531 90.839844 298.597656 123.625 307.058594 Z M 123.625 307.058594 " fill-opacity="1" fill-rule="evenodd"/><path fill="#ff8000" d="M 119.433594 193.117188 C 112.488281 190.109375 105.863281 188.414062 99.828125 188.574219 C 97.519531 188.636719 95.296875 188.96875 93.175781 189.601562 C 92.371094 189.839844 91.585938 190.125 90.8125 190.449219 C 90.5625 191.925781 90.433594 193.441406 90.433594 194.988281 C 90.433594 206.632812 97.742188 216.570312 108.023438 220.476562 C 111.652344 211.324219 115.449219 202.195312 119.433594 193.117188 Z M 119.433594 193.117188 " fill-opacity="1" fill-rule="evenodd"/><path fill="#bf703b" d="M 206.613281 300.671875 C 168.949219 323.589844 113.726562 313.203125 88.214844 298.492188 C 82.382812 295.125 79.140625 278.003906 80.808594 272.964844 C 91.625 240.234375 104.25 206.996094 119.355469 174.679688 L 181.695312 223.179688 C 189.226562 244.765625 199.082031 279.085938 206.613281 300.671875 Z M 206.613281 300.671875 " fill-opacity="1" fill-rule="evenodd"/><path fill="#ffa100" d="M 98.957031 260.738281 C 100.492188 267.457031 102.09375 274.242188 103.136719 278.433594 C 105.691406 288.707031 108.917969 298.921875 113.519531 308.75 L 113.570312 308.855469 C 114.621094 311.074219 115.492188 312.71875 116.925781 313.703125 C 119.449219 315.4375 122.203125 315.699219 124.011719 315.957031 C 129.457031 316.730469 133.257812 319.375 135.386719 324.691406 C 136.3125 327 136.257812 329.296875 134.652344 330.972656 C 134.132812 331.515625 133.050781 332.230469 131.605469 333.035156 C 131.648438 332.511719 131.660156 331.988281 131.628906 331.46875 C 131.484375 328.765625 130.359375 326.109375 128.238281 323.726562 C 127.410156 322.792969 126.425781 321.902344 125.292969 321.070312 L 124.761719 321.820312 C 125.847656 322.621094 126.789062 323.46875 127.574219 324.355469 C 129.558594 326.582031 130.609375 329.050781 130.746094 331.542969 C 130.78125 332.210938 130.75 332.882812 130.65625 333.550781 C 129.117188 334.367188 127.273438 335.25 125.3125 336.125 C 125.394531 335.457031 125.417969 334.789062 125.382812 334.125 C 125.238281 331.425781 124.113281 328.765625 121.992188 326.382812 C 121.164062 325.453125 120.179688 324.5625 119.046875 323.730469 L 118.515625 324.480469 C 119.601562 325.277344 120.539062 326.125 121.328125 327.011719 C 123.3125 329.238281 124.363281 331.707031 124.496094 334.203125 C 124.539062 334.980469 124.492188 335.765625 124.355469 336.546875 C 113.875 341.488281 104.390625 343.46875 101.140625 341.386719 C 98.695312 339.820312 96.605469 332.941406 93.949219 324.558594 C 87.789062 306.1875 80.679688 288.132812 76.277344 269.136719 C 73.101562 255.429688 85.015625 215.476562 92.871094 228.328125 C 94.21875 230.535156 97.992188 256.503906 98.957031 260.738281 Z M 98.957031 260.738281 " fill-opacity="1" fill-rule="evenodd"/><path fill="#ff8000" d="M 212.40625 162.039062 C 242.042969 185.734375 215.332031 226.929688 183.148438 219.738281 C 184.457031 216.84375 185.800781 213.992188 187.21875 211.226562 Z M 212.40625 162.039062 " fill-opacity="1" fill-rule="evenodd"/><path fill="#ad5c26" d="M 189.464844 205.175781 L 206.613281 300.671875 L 148.925781 226.988281 L 166.589844 225.597656 L 153.335938 176.101562 Z M 189.464844 205.175781 " fill-opacity="1" fill-rule="evenodd"/><path fill="#ff8000" d="M 194.3125 306.785156 C 197.496094 308.832031 210.636719 311.078125 214.4375 307.769531 C 216.480469 312.710938 216.40625 315.101562 218.453125 320.042969 C 211.152344 324.546875 202.78125 323.980469 195.707031 322.132812 C 196.273438 317.761719 193.746094 311.160156 194.3125 306.785156 Z M 194.3125 306.785156 " fill-opacity="1" fill-rule="evenodd"/><path fill="#e6e6e6" d="M 203.648438 308.105469 L 210.726562 307.523438 L 211.570312 331.089844 L 204.597656 331.644531 Z M 203.648438 308.105469 " fill-opacity="1" fill-rule="evenodd"/><path fill="#ad5c26" d="M 179.953125 277.714844 C 180.804688 283.164062 182.914062 292.023438 185.46875 296.414062 C 188.15625 301.023438 201.394531 307.316406 206.921875 306.070312 L 208.082031 335.390625 C 174.945312 337.066406 155.226562 316.945312 156.835938 284.378906 C 157.664062 267.554688 176.808594 257.617188 179.953125 277.714844 Z M 179.953125 277.714844 " fill-opacity="1" fill-rule="evenodd"/><path fill="#283747" d="M 276.910156 265.742188 L 256.097656 289.636719 C 255.761719 288.839844 255.242188 288.105469 254.539062 287.511719 C 253.835938 286.910156 253.023438 286.511719 252.179688 286.304688 L 272.742188 262.203125 C 274.058594 263.445312 275.449219 264.625 276.910156 265.742188 Z M 276.910156 265.742188 " fill-opacity="1" fill-rule="evenodd"/><path fill="#91380b" d="M 255.222656 286.8125 C 257.601562 288.894531 257.84375 292.542969 255.761719 294.917969 L 221.140625 334.417969 C 219.058594 336.796875 215.40625 337.039062 213.027344 334.957031 L 213.023438 334.957031 C 210.644531 332.875 210.402344 329.226562 212.488281 326.847656 L 247.109375 287.351562 C 249.191406 284.972656 252.84375 284.730469 255.222656 286.8125 Z M 255.222656 286.8125 " fill-opacity="1" fill-rule="evenodd"/><path fill="#ff8000" d="M 235.21875 299.347656 C 235.304688 299.398438 239.855469 302.480469 241.136719 306.324219 C 243.132812 312.308594 236.371094 319.5625 227.417969 309.585938 C 230.289062 313.472656 233.8125 316.910156 230.472656 321.207031 C 226.113281 326.417969 212.308594 319.941406 213.117188 308.070312 C 213.628906 300.542969 222.0625 289.9375 230.5625 287.414062 C 232.949219 286.703125 234.839844 286.6875 236.519531 287.1875 C 240.605469 288.402344 245.199219 291.757812 246.304688 295.835938 C 247.453125 300.074219 244.859375 304.914062 235.21875 299.347656 Z M 235.21875 299.347656 " fill-opacity="1" fill-rule="evenodd"/><path fill="#34485c" d="M 333.292969 192.679688 C 336.785156 195.527344 325.890625 214.617188 308.960938 235.3125 C 292.03125 256.011719 275.480469 270.480469 271.988281 267.628906 C 268.5 264.78125 279.394531 245.691406 296.320312 224.996094 C 313.25 204.296875 329.804688 189.828125 333.292969 192.679688 M 331.085938 198.5 C 329.589844 197.4375 317.28125 210.265625 303.601562 227.15625 C 289.917969 244.046875 280.042969 258.601562 281.539062 259.664062 C 283.039062 260.730469 295.34375 247.898438 309.027344 231.007812 C 322.710938 214.117188 332.585938 199.5625 331.085938 198.5 " fill-opacity="1" fill-rule="evenodd"/><path fill="#ffffff" d="M 330.863281 198.4375 C 328.648438 198.4375 316.917969 210.75 303.875 226.820312 C 305.636719 228.265625 307.316406 229.761719 308.851562 231.222656 C 308.910156 231.152344 308.96875 231.078125 309.027344 231.007812 C 312.085938 227.230469 314.957031 223.570312 317.550781 220.152344 C 326.558594 208.285156 332.25 199.324219 331.085938 198.5 C 331.085938 198.5 331.085938 198.496094 331.085938 198.496094 C 331.027344 198.457031 330.953125 198.4375 330.863281 198.4375 " fill-opacity="1" fill-rule="nonzero"/><path fill="#e48b47" d="M 303.875 226.820312 C 303.785156 226.929688 303.691406 227.042969 303.601562 227.15625 C 296.917969 235.40625 291.140625 243.101562 287.15625 248.933594 C 282.984375 255.046875 280.773438 259.121094 281.539062 259.664062 C 281.597656 259.707031 281.671875 259.726562 281.761719 259.726562 C 282.121094 259.726562 282.734375 259.402344 283.558594 258.792969 C 285.589844 257.289062 288.917969 254.046875 293.03125 249.609375 C 297.582031 244.699219 303.09375 238.324219 308.851562 231.222656 C 307.316406 229.761719 305.636719 228.265625 303.875 226.820312 " fill-opacity="1" fill-rule="nonzero"/><path fill="#6d7b89" d="M 293.03125 249.609375 C 288.917969 254.046875 285.589844 257.289062 283.558594 258.789062 C 285.589844 257.289062 288.917969 254.046875 293.03125 249.609375 M 317.550781 220.152344 C 314.957031 223.570312 312.085938 227.230469 309.027344 231.007812 C 312.085938 227.230469 314.957031 223.570312 317.550781 220.152344 M 330.863281 198.4375 C 330.953125 198.4375 331.027344 198.457031 331.085938 198.496094 C 331.027344 198.457031 330.953125 198.4375 330.863281 198.4375 M 330.863281 198.4375 C 328.632812 198.4375 316.75 210.921875 303.601562 227.15625 C 296.917969 235.40625 291.140625 243.101562 287.15625 248.933594 C 291.140625 243.101562 296.917969 235.40625 303.601562 227.15625 C 303.691406 227.042969 303.785156 226.929688 303.875 226.820312 C 316.917969 210.75 328.648438 198.4375 330.863281 198.4375 " fill-opacity="1" fill-rule="nonzero"/><path fill="#4d4d4d" d="M 300.050781 346.351562 C 298.320312 346.128906 297.914062 344.457031 298.335938 343.527344 C 299.570312 340.792969 298.554688 341.855469 298.382812 339.800781 C 298.121094 336.625 304.394531 338.910156 306.203125 339.859375 C 311.851562 342.828125 302.960938 346.730469 300.050781 346.351562 Z M 300.050781 346.351562 " fill-opacity="1" fill-rule="evenodd"/><path fill="#4d4d4d" d="M 327.863281 339.925781 C 327.78125 340.96875 324.304688 341.585938 322.125 341.753906 C 316.058594 342.226562 312.847656 340.320312 317.703125 339.082031 L 317.921875 339.035156 C 317.957031 339.027344 318 339.019531 318.039062 339.011719 L 319.09375 338.835938 C 319.832031 338.714844 320.324219 338.671875 321.179688 338.617188 C 323.710938 338.464844 327.953125 338.707031 327.863281 339.925781 Z M 327.863281 339.925781 " fill-opacity="1" fill-rule="evenodd"/><path fill="#4d4d4d" d="M 327.828125 344.847656 C 326.46875 346.179688 320.285156 345.828125 317.644531 345.117188 C 316.523438 344.8125 314.929688 344.175781 315.585938 343.417969 C 316.421875 342.453125 320.582031 342.402344 323.121094 342.671875 C 324.566406 342.824219 325.757812 343.082031 326.589844 343.386719 C 326.652344 343.410156 326.78125 343.460938 326.851562 343.488281 C 326.886719 343.503906 327.003906 343.546875 327.042969 343.5625 L 327.765625 343.972656 C 328.285156 344.382812 327.953125 344.726562 327.828125 344.847656 Z M 327.828125 344.847656 " fill-opacity="1" fill-rule="evenodd"/><path fill="#4d4d4d" d="M 316.1875 337.636719 C 315.851562 338.058594 315.429688 338.269531 314.40625 338.558594 C 312.128906 339.203125 308.015625 339.214844 307.050781 338.304688 C 306.953125 338.210938 306.886719 338.125 306.855469 337.972656 C 306.558594 336.46875 314.242188 335.484375 316.140625 336.886719 C 316.304688 337.007812 316.34375 337.058594 316.367188 337.203125 C 316.371094 337.226562 316.359375 337.433594 316.351562 337.453125 C 316.292969 337.605469 316.191406 337.632812 316.1875 337.636719 Z M 316.1875 337.636719 " fill-opacity="1" fill-rule="evenodd"/><path fill="#4d4d4d" d="M 316.8125 347.175781 C 316.558594 347.476562 316.578125 347.496094 315.976562 347.675781 C 314.121094 348.226562 310.839844 347.875 309.28125 347.328125 C 308.285156 346.976562 306.914062 346.351562 307.523438 345.71875 C 308.109375 345.105469 309.515625 345.042969 310.851562 345.023438 C 312.46875 344.996094 314.71875 345.398438 315.851562 345.9375 C 317.25 346.601562 316.964844 347.019531 316.917969 347.082031 Z M 316.8125 347.175781 " fill-opacity="1" fill-rule="evenodd"/><path fill="#4d4d4d" d="M 252.980469 336.925781 C 251.25 336.699219 250.84375 335.027344 251.261719 334.101562 C 252.5 331.367188 251.480469 332.425781 251.3125 330.375 C 251.046875 327.195312 257.324219 329.484375 259.132812 330.433594 C 264.78125 333.398438 255.886719 337.304688 252.980469 336.925781 Z M 252.980469 336.925781 " fill-opacity="1" fill-rule="evenodd"/><path fill="#4d4d4d" d="M 280.789062 330.5 C 280.710938 331.542969 277.234375 332.160156 275.050781 332.328125 C 268.988281 332.800781 265.773438 330.894531 270.628906 329.65625 L 270.847656 329.605469 C 270.886719 329.601562 270.929688 329.589844 270.964844 329.585938 L 272.023438 329.410156 C 272.761719 329.285156 273.253906 329.246094 274.109375 329.191406 C 276.636719 329.035156 280.882812 329.28125 280.789062 330.5 Z M 280.789062 330.5 " fill-opacity="1" fill-rule="evenodd"/><path fill="#4d4d4d" d="M 280.757812 335.421875 C 279.394531 336.753906 273.214844 336.398438 270.574219 335.6875 C 269.453125 335.386719 267.855469 334.746094 268.511719 333.992188 C 269.351562 333.027344 273.511719 332.972656 276.050781 333.246094 C 277.492188 333.398438 278.6875 333.65625 279.515625 333.960938 C 279.578125 333.984375 279.707031 334.035156 279.777344 334.0625 C 279.816406 334.078125 279.933594 334.121094 279.96875 334.136719 L 280.695312 334.542969 C 281.214844 334.957031 280.882812 335.300781 280.757812 335.421875 Z M 280.757812 335.421875 " fill-opacity="1" fill-rule="evenodd"/><path fill="#4d4d4d" d="M 269.117188 328.210938 C 268.777344 328.632812 268.355469 328.84375 267.332031 329.132812 C 265.054688 329.777344 260.941406 329.785156 259.980469 328.875 C 259.878906 328.78125 259.8125 328.699219 259.785156 328.546875 C 259.488281 327.039062 267.167969 326.054688 269.070312 327.460938 C 269.234375 327.582031 269.273438 327.628906 269.296875 327.777344 C 269.296875 327.800781 269.285156 328.007812 269.277344 328.027344 C 269.21875 328.179688 269.117188 328.207031 269.117188 328.210938 Z M 269.117188 328.210938 " fill-opacity="1" fill-rule="evenodd"/><path fill="#4d4d4d" d="M 269.738281 337.746094 C 269.488281 338.050781 269.507812 338.070312 268.90625 338.25 C 267.050781 338.800781 263.769531 338.449219 262.210938 337.902344 C 261.214844 337.546875 259.84375 336.925781 260.453125 336.292969 C 261.039062 335.679688 262.445312 335.613281 263.78125 335.59375 C 265.394531 335.570312 267.648438 335.972656 268.777344 336.507812 C 270.179688 337.171875 269.890625 337.589844 269.847656 337.65625 Z M 269.738281 337.746094 " fill-opacity="1" fill-rule="evenodd"/><path fill="#4d4d4d" d="M 346.707031 334.929688 C 344.972656 334.703125 344.570312 333.03125 344.988281 332.101562 C 346.222656 329.371094 345.207031 330.429688 345.039062 328.378906 C 344.773438 325.199219 351.050781 327.484375 352.855469 328.433594 C 358.503906 331.402344 349.613281 335.308594 346.707031 334.929688 Z M 346.707031 334.929688 " fill-opacity="1" fill-rule="evenodd"/><path fill="#4d4d4d" d="M 374.515625 328.503906 C 374.4375 329.542969 370.960938 330.160156 368.777344 330.328125 C 362.710938 330.800781 359.5 328.894531 364.355469 327.660156 L 364.574219 327.609375 C 364.609375 327.601562 364.65625 327.59375 364.691406 327.585938 L 365.746094 327.410156 C 366.488281 327.289062 366.980469 327.246094 367.832031 327.195312 C 370.363281 327.039062 374.609375 327.28125 374.515625 328.503906 Z M 374.515625 328.503906 " fill-opacity="1" fill-rule="evenodd"/><path fill="#4d4d4d" d="M 374.484375 333.425781 C 373.121094 334.753906 366.941406 334.402344 364.296875 333.691406 C 363.179688 333.390625 361.582031 332.75 362.238281 331.996094 C 363.078125 331.027344 367.238281 330.976562 369.777344 331.246094 C 371.21875 331.398438 372.414062 331.65625 373.242188 331.960938 C 373.304688 331.984375 373.433594 332.035156 373.503906 332.066406 C 373.539062 332.078125 373.660156 332.125 373.695312 332.140625 L 374.421875 332.546875 C 374.941406 332.957031 374.609375 333.300781 374.484375 333.425781 Z M 374.484375 333.425781 " fill-opacity="1" fill-rule="evenodd"/><path fill="#4d4d4d" d="M 362.839844 326.210938 C 362.503906 326.636719 362.082031 326.847656 361.058594 327.136719 C 358.78125 327.777344 354.667969 327.789062 353.703125 326.878906 C 353.605469 326.785156 353.539062 326.703125 353.511719 326.550781 C 353.210938 325.042969 360.894531 324.058594 362.796875 325.460938 C 362.960938 325.582031 363 325.632812 363.019531 325.78125 C 363.023438 325.800781 363.011719 326.007812 363.003906 326.027344 C 362.945312 326.183594 362.84375 326.207031 362.839844 326.210938 Z M 362.839844 326.210938 " fill-opacity="1" fill-rule="evenodd"/><path fill="#4d4d4d" d="M 363.464844 335.75 C 363.210938 336.050781 363.230469 336.070312 362.632812 336.25 C 360.777344 336.804688 357.492188 336.453125 355.9375 335.902344 C 354.941406 335.550781 353.570312 334.925781 354.175781 334.292969 C 354.765625 333.683594 356.171875 333.617188 357.507812 333.597656 C 359.121094 333.574219 361.371094 333.976562 362.503906 334.511719 C 363.90625 335.175781 363.617188 335.59375 363.570312 335.65625 Z M 363.464844 335.75 " fill-opacity="1" fill-rule="evenodd"/><path fill="#808080" d="M 72.261719 300.328125 C 70.652344 301.542969 68.386719 302.371094 65.914062 302.625 C 63.644531 302.859375 61.175781 302.613281 58.867188 301.75 L 59.539062 299.945312 C 61.558594 300.703125 63.71875 300.914062 65.714844 300.707031 C 67.839844 300.488281 69.761719 299.796875 71.101562 298.789062 Z M 72.261719 300.328125 " fill-opacity="1" fill-rule="evenodd"/><path fill="#808080" d="M 73.738281 146.078125 C 73.738281 144.0625 74.441406 141.757812 75.726562 139.632812 C 76.910156 137.679688 78.589844 135.859375 80.671875 134.539062 L 81.707031 136.160156 C 79.886719 137.316406 78.414062 138.914062 77.378906 140.628906 C 76.273438 142.457031 75.667969 144.402344 75.667969 146.078125 Z M 73.738281 146.078125 " fill-opacity="1" fill-rule="evenodd"/><path fill="#ad5c26" d="M 150.304688 307.246094 C 149.722656 309.378906 147.519531 310.632812 145.382812 310.050781 C 143.246094 309.46875 141.988281 307.265625 142.574219 305.132812 C 143.15625 303 145.359375 301.742188 147.496094 302.328125 C 149.628906 302.910156 150.886719 305.109375 150.304688 307.246094 Z M 150.304688 307.246094 " fill-opacity="1" fill-rule="evenodd"/><path fill="#ad5c26" d="M 121.632812 302.226562 C 121.050781 304.359375 118.847656 305.617188 116.710938 305.03125 C 114.578125 304.449219 113.320312 302.25 113.902344 300.113281 C 114.484375 297.980469 116.6875 296.726562 118.824219 297.308594 C 120.957031 297.890625 122.214844 300.09375 121.632812 302.226562 Z M 121.632812 302.226562 " fill-opacity="1" fill-rule="evenodd"/><path fill="#cccccc" d="M 207.789062 327.929688 L 207.925781 331.382812 L 211.09375 331.128906 C 211.015625 330.242188 211.140625 329.335938 211.480469 328.492188 L 211.449219 327.648438 C 210.199219 327.765625 208.980469 327.859375 207.789062 327.929688 Z M 207.789062 327.929688 " fill-opacity="1" fill-rule="evenodd"/><path fill="#9c5322" d="M 207.925781 331.382812 L 207.789062 327.929688 C 206.652344 327.992188 205.539062 328.035156 204.453125 328.054688 C 186.121094 328.371094 174.84375 322.257812 167.992188 313.238281 C 165.777344 310.324219 164.023438 307.101562 162.644531 303.699219 C 159.425781 295.761719 158.238281 286.824219 157.953125 278.390625 C 157.335938 280.246094 156.941406 282.257812 156.835938 284.378906 C 156.472656 291.707031 157.191406 298.40625 158.902344 304.367188 C 159.863281 307.730469 161.140625 310.859375 162.71875 313.734375 C 170.769531 328.410156 186.609375 336.476562 208.082031 335.390625 Z M 207.925781 331.382812 " fill-opacity="1" fill-rule="evenodd"/></svg>