<svg xmlns="http://www.w3.org/2000/svg" xmlns:xlink="http://www.w3.org/1999/xlink" width="500" zoomAndPan="magnify" viewBox="0 0 375 374.999991" height="500" preserveAspectRatio="xMidYMid meet" version="1.0"><defs><clipPath id="511e1410d6"><path d="M 18.75 18.75 L 356.25 18.75 L 356.25 356.25 L 18.75 356.25 Z M 18.75 18.75 " clip-rule="nonzero"/></clipPath></defs><g clip-path="url(#511e1410d6)"><path fill="#33d9b2" d="M 356.25 187.5 C 356.25 190.261719 356.183594 193.023438 356.046875 195.78125 C 355.910156 198.539062 355.707031 201.292969 355.4375 204.039062 C 355.167969 206.789062 354.828125 209.527344 354.421875 212.261719 C 354.019531 214.992188 353.546875 217.710938 353.007812 220.421875 C 352.46875 223.128906 351.863281 225.824219 351.191406 228.503906 C 350.523438 231.183594 349.785156 233.84375 348.984375 236.484375 C 348.183594 239.128906 347.316406 241.75 346.386719 244.351562 C 345.457031 246.949219 344.460938 249.527344 343.40625 252.078125 C 342.347656 254.628906 341.230469 257.152344 340.046875 259.648438 C 338.867188 262.144531 337.625 264.613281 336.324219 267.046875 C 335.023438 269.484375 333.660156 271.886719 332.242188 274.253906 C 330.820312 276.625 329.34375 278.957031 327.808594 281.253906 C 326.277344 283.546875 324.6875 285.804688 323.042969 288.023438 C 321.394531 290.242188 319.699219 292.417969 317.945312 294.554688 C 316.195312 296.6875 314.390625 298.777344 312.535156 300.824219 C 310.679688 302.871094 308.777344 304.871094 306.824219 306.824219 C 304.871094 308.777344 302.871094 310.679688 300.824219 312.535156 C 298.777344 314.390625 296.6875 316.195312 294.554688 317.945312 C 292.417969 319.699219 290.242188 321.394531 288.023438 323.042969 C 285.804688 324.6875 283.546875 326.277344 281.253906 327.808594 C 278.957031 329.34375 276.625 330.820312 274.253906 332.242188 C 271.886719 333.660156 269.484375 335.023438 267.046875 336.324219 C 264.613281 337.625 262.144531 338.867188 259.648438 340.046875 C 257.152344 341.230469 254.628906 342.347656 252.078125 343.40625 C 249.527344 344.460938 246.949219 345.457031 244.351562 346.386719 C 241.75 347.316406 239.128906 348.183594 236.484375 348.984375 C 233.84375 349.785156 231.183594 350.523438 228.503906 351.191406 C 225.824219 351.863281 223.128906 352.46875 220.421875 353.007812 C 217.710938 353.546875 214.992188 354.019531 212.261719 354.421875 C 209.527344 354.828125 206.789062 355.167969 204.039062 355.4375 C 201.292969 355.707031 198.539062 355.910156 195.78125 356.046875 C 193.023438 356.183594 190.261719 356.25 187.5 356.25 C 184.738281 356.25 181.976562 356.183594 179.21875 356.046875 C 176.460938 355.910156 173.707031 355.707031 170.960938 355.4375 C 168.210938 355.167969 165.472656 354.828125 162.738281 354.421875 C 160.007812 354.019531 157.289062 353.546875 154.578125 353.007812 C 151.871094 352.46875 149.175781 351.863281 146.496094 351.191406 C 143.816406 350.523438 141.15625 349.785156 138.515625 348.984375 C 135.871094 348.183594 133.25 347.316406 130.648438 346.386719 C 128.050781 345.457031 125.472656 344.460938 122.921875 343.40625 C 120.371094 342.347656 117.847656 341.230469 115.351562 340.046875 C 112.851562 338.867188 110.386719 337.625 107.953125 336.324219 C 105.515625 335.023438 103.113281 333.660156 100.746094 332.242188 C 98.375 330.820312 96.042969 329.34375 93.746094 327.808594 C 91.453125 326.277344 89.195312 324.6875 86.976562 323.042969 C 84.757812 321.394531 82.582031 319.699219 80.445312 317.945312 C 78.3125 316.195312 76.222656 314.390625 74.175781 312.535156 C 72.128906 310.679688 70.128906 308.777344 68.175781 306.824219 C 66.222656 304.871094 64.320312 302.871094 62.464844 300.824219 C 60.609375 298.777344 58.804688 296.6875 57.054688 294.554688 C 55.300781 292.417969 53.605469 290.242188 51.957031 288.023438 C 50.3125 285.804688 48.722656 283.546875 47.191406 281.253906 C 45.65625 278.957031 44.179688 276.625 42.757812 274.253906 C 41.339844 271.886719 39.976562 269.484375 38.675781 267.046875 C 37.375 264.613281 36.132812 262.144531 34.953125 259.648438 C 33.769531 257.152344 32.652344 254.628906 31.59375 252.078125 C 30.539062 249.527344 29.542969 246.949219 28.613281 244.351562 C 27.683594 241.75 26.816406 239.128906 26.015625 236.484375 C 25.214844 233.84375 24.476562 231.183594 23.808594 228.503906 C 23.136719 225.824219 22.53125 223.128906 21.992188 220.421875 C 21.453125 217.710938 20.980469 214.992188 20.578125 212.261719 C 20.171875 209.527344 19.832031 206.789062 19.5625 204.039062 C 19.292969 201.292969 19.089844 198.539062 18.953125 195.78125 C 18.816406 193.023438 18.75 190.261719 18.75 187.5 C 18.75 184.738281 18.816406 181.976562 18.953125 179.21875 C 19.089844 176.460938 19.292969 173.707031 19.5625 170.960938 C 19.832031 168.210938 20.171875 165.472656 20.578125 162.738281 C 20.980469 160.007812 21.453125 157.289062 21.992188 154.578125 C 22.53125 151.871094 23.136719 149.175781 23.808594 146.496094 C 24.476562 143.816406 25.214844 141.15625 26.015625 138.515625 C 26.816406 135.871094 27.683594 133.25 28.613281 130.648438 C 29.542969 128.050781 30.539062 125.472656 31.59375 122.921875 C 32.652344 120.371094 33.769531 117.847656 34.953125 115.351562 C 36.132812 112.851562 37.375 110.386719 38.675781 107.953125 C 39.976562 105.515625 41.339844 103.113281 42.757812 100.746094 C 44.179688 98.375 45.65625 96.042969 47.191406 93.746094 C 48.722656 91.453125 50.3125 89.195312 51.957031 86.976562 C 53.605469 84.757812 55.300781 82.582031 57.054688 80.445312 C 58.804688 78.3125 60.609375 76.222656 62.464844 74.175781 C 64.320312 72.128906 66.222656 70.128906 68.175781 68.175781 C 70.128906 66.222656 72.128906 64.320312 74.175781 62.464844 C 76.222656 60.609375 78.3125 58.804688 80.445312 57.054688 C 82.582031 55.300781 84.757812 53.605469 86.976562 51.957031 C 89.195312 50.3125 91.453125 48.722656 93.746094 47.191406 C 96.042969 45.65625 98.375 44.179688 100.746094 42.757812 C 103.113281 41.339844 105.515625 39.976562 107.953125 38.675781 C 110.386719 37.375 112.851562 36.132812 115.351562 34.953125 C 117.847656 33.769531 120.371094 32.652344 122.921875 31.59375 C 125.472656 30.539062 128.050781 29.542969 130.648438 28.613281 C 133.25 27.683594 135.871094 26.816406 138.515625 26.015625 C 141.15625 25.214844 143.816406 24.476562 146.496094 23.808594 C 149.175781 23.136719 151.871094 22.53125 154.578125 21.992188 C 157.289062 21.453125 160.007812 20.980469 162.738281 20.578125 C 165.472656 20.171875 168.210938 19.832031 170.960938 19.5625 C 173.707031 19.292969 176.460938 19.089844 179.21875 18.953125 C 181.976562 18.816406 184.738281 18.75 187.5 18.75 C 190.261719 18.75 193.023438 18.816406 195.78125 18.953125 C 198.539062 19.089844 201.292969 19.292969 204.039062 19.5625 C 206.789062 19.832031 209.527344 20.171875 212.261719 20.578125 C 214.992188 20.980469 217.710938 21.453125 220.421875 21.992188 C 223.128906 22.53125 225.824219 23.136719 228.503906 23.808594 C 231.183594 24.476562 233.84375 25.214844 236.484375 26.015625 C 239.128906 26.816406 241.75 27.683594 244.351562 28.613281 C 246.949219 29.542969 249.527344 30.539062 252.078125 31.59375 C 254.628906 32.652344 257.152344 33.769531 259.648438 34.953125 C 262.144531 36.132812 264.613281 37.375 267.046875 38.675781 C 269.484375 39.976562 271.886719 41.339844 274.253906 42.757812 C 276.625 44.179688 278.957031 45.65625 281.253906 47.191406 C 283.546875 48.722656 285.804688 50.3125 288.023438 51.957031 C 290.242188 53.605469 292.417969 55.300781 294.554688 57.054688 C 296.6875 58.804688 298.777344 60.609375 300.824219 62.464844 C 302.871094 64.320312 304.871094 66.222656 306.824219 68.175781 C 308.777344 70.128906 310.679688 72.128906 312.535156 74.175781 C 314.390625 76.222656 316.195312 78.3125 317.945312 80.445312 C 319.699219 82.582031 321.394531 84.757812 323.042969 86.976562 C 324.6875 89.195312 326.277344 91.453125 327.808594 93.746094 C 329.34375 96.042969 330.820312 98.375 332.242188 100.746094 C 333.660156 103.113281 335.023438 105.515625 336.324219 107.953125 C 337.625 110.386719 338.867188 112.851562 340.046875 115.351562 C 341.230469 117.847656 342.347656 120.371094 343.40625 122.921875 C 344.460938 125.472656 345.457031 128.050781 346.386719 130.648438 C 347.316406 133.25 348.183594 135.871094 348.984375 138.515625 C 349.785156 141.15625 350.523438 143.816406 351.191406 146.496094 C 351.863281 149.175781 352.46875 151.871094 353.007812 154.578125 C 353.546875 157.289062 354.019531 160.007812 354.421875 162.738281 C 354.828125 165.472656 355.167969 168.210938 355.4375 170.960938 C 355.707031 173.707031 355.910156 176.460938 356.046875 179.21875 C 356.183594 181.976562 356.25 184.738281 356.25 187.5 Z M 356.25 187.5 " fill-opacity="1" fill-rule="nonzero"/></g><path fill="#ffffff" d="M 257.699219 205.328125 C 257.699219 205.023438 257.671875 204.722656 257.609375 204.421875 C 257.550781 204.121094 257.460938 203.832031 257.34375 203.546875 C 257.230469 203.265625 257.085938 202.996094 256.914062 202.742188 C 256.746094 202.488281 256.550781 202.253906 256.335938 202.039062 C 256.121094 201.820312 255.886719 201.628906 255.632812 201.457031 C 255.375 201.289062 255.109375 201.144531 254.828125 201.027344 C 254.542969 200.910156 254.253906 200.824219 253.953125 200.761719 C 253.652344 200.703125 253.351562 200.675781 253.042969 200.675781 L 238.707031 200.675781 L 238.707031 176.570312 C 238.707031 176.265625 238.675781 175.964844 238.617188 175.664062 C 238.558594 175.363281 238.46875 175.074219 238.351562 174.789062 C 238.234375 174.507812 238.09375 174.238281 237.921875 173.984375 C 237.753906 173.730469 237.558594 173.496094 237.34375 173.28125 C 237.128906 173.0625 236.890625 172.871094 236.636719 172.703125 C 236.382812 172.53125 236.117188 172.386719 235.832031 172.269531 C 235.550781 172.152344 235.257812 172.066406 234.960938 172.007812 C 234.660156 171.945312 234.355469 171.917969 234.050781 171.917969 L 196.195312 171.917969 C 195.886719 171.917969 195.585938 171.945312 195.285156 172.007812 C 194.984375 172.066406 194.695312 172.152344 194.410156 172.269531 C 194.128906 172.386719 193.863281 172.53125 193.605469 172.703125 C 193.351562 172.871094 193.117188 173.0625 192.902344 173.28125 C 192.6875 173.496094 192.492188 173.730469 192.324219 173.984375 C 192.152344 174.238281 192.007812 174.507812 191.894531 174.789062 C 191.777344 175.074219 191.6875 175.363281 191.628906 175.664062 C 191.566406 175.964844 191.539062 176.265625 191.539062 176.570312 L 191.539062 200.675781 L 173.859375 200.675781 L 219.527344 109.664062 C 219.617188 109.488281 219.691406 109.308594 219.757812 109.121094 C 219.824219 108.933594 219.875 108.742188 219.917969 108.550781 C 219.960938 108.355469 219.988281 108.160156 220.003906 107.964844 C 220.019531 107.769531 220.023438 107.570312 220.015625 107.375 C 220.007812 107.175781 219.984375 106.980469 219.949219 106.785156 C 219.917969 106.589844 219.871094 106.398438 219.8125 106.210938 C 219.753906 106.019531 219.683594 105.835938 219.601562 105.65625 C 219.519531 105.476562 219.429688 105.300781 219.324219 105.132812 C 219.21875 104.964844 219.105469 104.804688 218.980469 104.652344 C 218.855469 104.496094 218.722656 104.351562 218.582031 104.214844 C 218.4375 104.078125 218.285156 103.953125 218.128906 103.835938 C 217.96875 103.71875 217.800781 103.613281 217.628906 103.515625 C 217.457031 103.417969 217.277344 103.335938 217.09375 103.261719 C 216.910156 103.1875 216.722656 103.125 216.53125 103.074219 C 216.339844 103.027344 216.148438 102.988281 215.953125 102.964844 C 215.753906 102.9375 215.558594 102.925781 215.359375 102.925781 L 174.792969 102.925781 C 173.917969 102.925781 173.109375 103.15625 172.363281 103.613281 C 171.617188 104.070312 171.046875 104.6875 170.648438 105.464844 L 117.8125 209.125 C 117.472656 209.789062 117.300781 210.496094 117.300781 211.242188 L 117.300781 238.707031 C 117.300781 239.011719 117.328125 239.316406 117.390625 239.613281 C 117.449219 239.914062 117.539062 240.207031 117.65625 240.488281 C 117.769531 240.769531 117.914062 241.039062 118.085938 241.292969 C 118.253906 241.546875 118.449219 241.78125 118.664062 242 C 118.878906 242.214844 119.113281 242.40625 119.367188 242.578125 C 119.621094 242.746094 119.890625 242.890625 120.171875 243.007812 C 120.457031 243.125 120.746094 243.214844 121.046875 243.273438 C 121.347656 243.332031 121.648438 243.363281 121.957031 243.363281 L 191.539062 243.363281 L 191.539062 267.464844 C 191.539062 267.769531 191.566406 268.074219 191.628906 268.371094 C 191.6875 268.671875 191.777344 268.964844 191.894531 269.246094 C 192.007812 269.527344 192.152344 269.796875 192.324219 270.050781 C 192.492188 270.304688 192.6875 270.539062 192.902344 270.757812 C 193.117188 270.972656 193.351562 271.164062 193.605469 271.335938 C 193.863281 271.503906 194.128906 271.648438 194.410156 271.765625 C 194.695312 271.882812 194.984375 271.96875 195.285156 272.03125 C 195.585938 272.089844 195.886719 272.121094 196.195312 272.121094 L 234.050781 272.121094 C 234.355469 272.121094 234.660156 272.089844 234.960938 272.03125 C 235.257812 271.96875 235.550781 271.882812 235.832031 271.765625 C 236.117188 271.648438 236.382812 271.503906 236.636719 271.335938 C 236.890625 271.164062 237.128906 270.972656 237.34375 270.757812 C 237.558594 270.539062 237.753906 270.304688 237.921875 270.050781 C 238.09375 269.796875 238.234375 269.527344 238.351562 269.246094 C 238.46875 268.964844 238.558594 268.671875 238.617188 268.371094 C 238.675781 268.074219 238.707031 267.769531 238.707031 267.464844 L 238.707031 243.363281 L 253.011719 243.363281 C 253.316406 243.363281 253.617188 243.332031 253.917969 243.273438 C 254.21875 243.214844 254.507812 243.125 254.792969 243.007812 C 255.074219 242.890625 255.34375 242.746094 255.597656 242.578125 C 255.851562 242.40625 256.085938 242.214844 256.300781 242 C 256.519531 241.78125 256.710938 241.546875 256.878906 241.292969 C 257.050781 241.039062 257.195312 240.769531 257.3125 240.488281 C 257.425781 240.207031 257.515625 239.914062 257.574219 239.613281 C 257.636719 239.316406 257.664062 239.011719 257.664062 238.707031 Z M 257.699219 205.328125 " fill-opacity="1" fill-rule="nonzero"/></svg>