<svg xmlns="http://www.w3.org/2000/svg" xmlns:xlink="http://www.w3.org/1999/xlink" width="500" zoomAndPan="magnify" viewBox="0 0 375 374.999991" height="500" preserveAspectRatio="xMidYMid meet" version="1.0"><defs><clipPath id="95033e7b63"><path d="M 23.523438 208 L 117 208 L 117 302 L 23.523438 302 Z M 23.523438 208 " clip-rule="nonzero"/></clipPath><clipPath id="d5027fc47a"><path d="M 23.523438 239 L 59 239 L 59 275 L 23.523438 275 Z M 23.523438 239 " clip-rule="nonzero"/></clipPath><clipPath id="40d5589db8"><path d="M 205 35 L 351.273438 35 L 351.273438 182 L 205 182 Z M 205 35 " clip-rule="nonzero"/></clipPath></defs><rect x="-37.5" width="450" fill="#ffffff" y="-37.499999" height="449.999989" fill-opacity="1"/><rect x="-37.5" width="450" fill="#ffffff" y="-37.499999" height="449.999989" fill-opacity="1"/><g clip-path="url(#95033e7b63)"><path fill="#c98d09" d="M 116.535156 256.992188 L 67.816406 208.214844 L 58.957031 217.082031 L 72.242188 230.386719 L 67.816406 234.820312 L 63.386719 230.386719 L 54.527344 239.253906 L 67.816406 252.558594 L 58.957031 261.425781 L 36.8125 239.253906 L 32.382812 243.6875 L 41.242188 252.558594 L 36.8125 256.992188 L 27.953125 248.125 L 23.523438 252.558594 L 72.242188 301.335938 Z M 116.535156 256.992188 " fill-opacity="1" fill-rule="nonzero"/></g><g clip-path="url(#d5027fc47a)"><path fill="#a67508" d="M 36.8125 239.253906 L 32.382812 243.6875 L 41.242188 252.558594 L 36.8125 256.992188 L 27.953125 248.125 L 23.523438 252.558594 L 45.667969 274.730469 L 58.957031 261.425781 Z M 36.8125 239.253906 " fill-opacity="1" fill-rule="nonzero"/></g><g clip-path="url(#40d5589db8)"><path fill="#ffc107" d="M 278.195312 181.605469 C 237.890625 181.605469 205.117188 148.792969 205.117188 108.4375 C 205.117188 68.085938 237.890625 35.269531 278.195312 35.269531 C 318.5 35.269531 351.273438 68.085938 351.273438 108.4375 C 351.273438 148.792969 318.5 181.605469 278.195312 181.605469 Z M 278.195312 61.875 C 252.507812 61.875 231.691406 82.71875 231.691406 108.4375 C 231.691406 134.15625 252.507812 155 278.195312 155 C 303.882812 155 324.699219 134.15625 324.699219 108.4375 C 324.699219 82.71875 303.882812 61.875 278.195312 61.875 Z M 278.195312 61.875 " fill-opacity="1" fill-rule="nonzero"/></g><path fill="#ffc107" d="M 64.714844 338.144531 L 48.769531 322.179688 C 47 320.40625 47 317.746094 48.769531 315.96875 L 207.332031 157.214844 L 229.476562 179.390625 L 70.914062 338.144531 C 69.144531 339.917969 66.484375 339.917969 64.714844 338.144531 Z M 64.714844 338.144531 " fill-opacity="1" fill-rule="nonzero"/><path fill="#c98d09" d="M 194.042969 156.773438 L 206.886719 143.914062 C 209.988281 140.808594 215.300781 140.808594 218.402344 143.914062 L 242.761719 168.304688 C 245.863281 171.40625 245.863281 176.726562 242.761719 179.832031 L 229.917969 192.691406 C 226.816406 195.796875 221.503906 195.796875 218.402344 192.691406 L 194.042969 168.304688 C 190.941406 165.199219 190.941406 159.878906 194.042969 156.773438 Z M 194.042969 156.773438 " fill-opacity="1" fill-rule="nonzero"/></svg>