<svg xmlns="http://www.w3.org/2000/svg" xmlns:xlink="http://www.w3.org/1999/xlink" width="500" zoomAndPan="magnify" viewBox="0 0 375 374.999991" height="500" preserveAspectRatio="xMidYMid meet" version="1.0"><defs><clipPath id="2e8585e05c"><path d="M 48.683594 32.15625 L 326.132812 32.15625 L 326.132812 342.65625 L 48.683594 342.65625 Z M 48.683594 32.15625 " clip-rule="nonzero"/></clipPath><clipPath id="5d5596da18"><path d="M 84 259 L 89 259 L 89 342.65625 L 84 342.65625 Z M 84 259 " clip-rule="nonzero"/></clipPath></defs><rect x="-37.5" width="450" fill="#ffffff" y="-37.499999" height="449.999989" fill-opacity="1"/><rect x="-37.5" width="450" fill="#ffffff" y="-37.499999" height="449.999989" fill-opacity="1"/><g clip-path="url(#2e8585e05c)"><path fill="#963d41" d="M 317.011719 245.292969 C 311.679688 231.589844 303.308594 220.933594 292.269531 211.417969 C 285.152344 205.28125 277.875 199.78125 270.4375 194.503906 C 267.121094 184.25 259.71875 176.921875 251.890625 169.199219 C 250.484375 167.808594 249.066406 166.40625 247.640625 164.953125 C 246.351562 163.597656 244.972656 162.238281 243.535156 160.921875 L 242.355469 159.839844 L 243.65625 158.90625 C 248.945312 155.085938 251.425781 150.226562 250.457031 145.582031 L 250.445312 145.535156 C 254.46875 145.082031 259.207031 141.902344 261.949219 139.167969 C 276.359375 124.808594 273.140625 103.171875 266.925781 85.785156 C 258.996094 63.617188 238.558594 52.121094 216.828125 46.4375 C 221.109375 46.1875 227.664062 43.902344 225.847656 40.054688 C 223.027344 33.871094 212.984375 39.023438 210.488281 42.570312 L 209.957031 43.199219 L 209.773438 42.960938 C 209.40625 42.476562 208.851562 42.160156 208.359375 42.160156 C 208.21875 42.160156 208.089844 42.183594 207.960938 42.230469 L 207.765625 42.300781 C 207.457031 38.46875 202.914062 33.445312 199.457031 32.394531 C 197.070312 31.707031 194.527344 32.445312 195.046875 35.351562 C 195.847656 39.171875 200.054688 41.160156 202.867188 43.113281 C 202.761719 43.085938 202.691406 43.070312 202.691406 43.070312 C 182.175781 38.253906 160.453125 41.792969 141.5 50.605469 C 127.398438 57.164062 113.023438 69.09375 109.503906 84.972656 C 108.003906 91.757812 109.125 98.597656 112.511719 104.640625 C 112.699219 104.96875 112.910156 105.28125 113.101562 105.605469 C 110.453125 108.628906 109.601562 112.386719 113.28125 116.347656 C 115.320312 118.558594 121.230469 120.265625 126.859375 121.257812 C 126.941406 121.28125 127.027344 121.308594 127.101562 121.316406 C 127.101562 121.316406 127.195312 121.328125 127.332031 121.335938 C 128.808594 121.589844 130.257812 121.789062 131.609375 121.9375 L 131.199219 122.511719 C 127.300781 128.039062 132.746094 135.175781 138.597656 139.605469 L 139.199219 140.0625 L 139.101562 140.816406 C 138.773438 143.289062 138.328125 145.847656 137.8125 148.210938 L 137.617188 149.09375 L 136.722656 149.222656 C 131.152344 150.015625 124.792969 152.390625 117.792969 156.285156 C 108.0625 161.460938 99.859375 167.757812 93.40625 175.003906 C 91.457031 177.199219 89.671875 179.46875 88.109375 181.75 C 87.457031 182.695312 87.507812 182.832031 88.367188 184.316406 C 89.265625 185.863281 90.304688 187.46875 91.535156 189.214844 C 92.292969 190.285156 93.066406 191.335938 93.84375 192.390625 C 95.261719 194.308594 96.722656 196.292969 98.042969 198.355469 L 98.074219 198.402344 C 83.429688 206.753906 70.640625 217.257812 60.414062 241.867188 C 49.617188 267.855469 46.980469 337.1875 49.652344 340.644531 C 52.007812 343.6875 80.5 342.375 90.414062 342.382812 C 110.410156 342.394531 130.40625 342.464844 150.402344 342.425781 C 172.210938 342.386719 194.019531 342.246094 215.828125 342.160156 C 233.785156 342.09375 251.746094 341.964844 269.703125 341.84375 C 278.074219 341.785156 286.449219 341.792969 294.820312 341.683594 C 294.9375 341.683594 295.253906 341.726562 295.445312 341.710938 C 295.449219 341.710938 295.449219 341.710938 295.453125 341.710938 C 295.953125 341.753906 297.460938 341.710938 297.984375 341.714844 C 309.28125 341.84375 319.464844 332.980469 323.175781 322.292969 C 330.152344 306.351562 323.433594 260.40625 317.011719 245.292969 " fill-opacity="1" fill-rule="nonzero"/></g><path fill="#783035" d="M 322.105469 282.429688 C 308.53125 260.695312 292.214844 240.042969 272.125 224.042969 C 266.707031 219.726562 261.324219 215.273438 255.753906 211.101562 C 260.871094 206.636719 268.039062 200.253906 272.179688 195.75 C 272.179688 195.746094 272.179688 195.746094 272.179688 195.746094 C 268.523438 182.378906 258.320312 173.949219 248.585938 164.058594 C 247.304688 162.707031 245.898438 161.320312 244.417969 159.960938 C 240.875 162.519531 236.550781 164.28125 232.488281 164.851562 C 228.261719 173.410156 224.277344 182.015625 216.859375 187.746094 C 215.230469 189 213.523438 190.171875 211.785156 191.296875 C 211.691406 191.414062 211.597656 191.542969 211.503906 191.660156 C 214.433594 191.988281 217.683594 192.6875 220.214844 193.539062 C 220.628906 192.492188 221.050781 191.828125 221.5 191.625 C 221.488281 191.835938 221.5625 192.046875 221.785156 192.1875 C 228.679688 196.644531 236.359375 199.992188 243.398438 204.234375 C 253.289062 210.199219 262.167969 217.804688 271.203125 224.964844 C 291.246094 240.84375 307.472656 261.457031 320.980469 283.085938 C 321.421875 283.796875 322.554688 283.144531 322.105469 282.429688 " fill-opacity="1" fill-rule="nonzero"/><path fill="#783035" d="M 155.851562 301.808594 C 155.804688 289.628906 155.066406 277.160156 156.558594 265.042969 C 153.65625 256.773438 150.808594 248.472656 148.097656 240.128906 C 147.664062 238.800781 147.21875 237.472656 146.792969 236.140625 C 145.695312 232.703125 144.628906 229.257812 143.59375 225.808594 C 142.132812 220.917969 140.957031 216.054688 140.085938 211.152344 C 139.800781 209.546875 139.554688 207.933594 139.339844 206.320312 C 139.253906 205.644531 139.15625 204.972656 139.078125 204.296875 C 138.574219 199.765625 138.355469 195.183594 138.484375 190.5 C 138.527344 188.796875 138.609375 187.09375 138.695312 185.394531 C 138.714844 185.058594 138.722656 184.71875 138.738281 184.378906 C 138.84375 182.410156 138.964844 180.441406 139.070312 178.472656 C 139.070312 178.464844 139.066406 178.464844 139.066406 178.460938 C 138.976562 178.316406 138.898438 178.167969 138.8125 178.023438 C 138.710938 177.851562 138.609375 177.679688 138.507812 177.503906 C 138.191406 176.941406 137.886719 176.378906 137.605469 175.8125 C 137.605469 175.808594 137.601562 175.804688 137.601562 175.796875 C 137.546875 175.691406 137.5 175.582031 137.449219 175.472656 C 137.402344 175.378906 137.363281 175.289062 137.320312 175.195312 C 137.105469 174.734375 136.898438 174.265625 136.703125 173.792969 C 136.589844 173.511719 136.46875 173.234375 136.359375 172.949219 C 136.351562 172.929688 136.34375 172.90625 136.339844 172.882812 C 136.054688 172.136719 135.804688 171.382812 135.578125 170.621094 C 135.550781 170.527344 135.519531 170.4375 135.492188 170.34375 C 135.277344 169.601562 135.09375 168.851562 134.929688 168.097656 C 134.902344 167.960938 134.875 167.820312 134.84375 167.683594 C 134.695312 166.933594 134.570312 166.179688 134.472656 165.421875 C 134.457031 165.296875 134.445312 165.171875 134.429688 165.042969 C 134.335938 164.253906 134.265625 163.457031 134.234375 162.65625 C 134.234375 162.628906 134.234375 162.601562 134.234375 162.574219 C 134.203125 161.785156 134.207031 160.988281 134.234375 160.191406 C 134.234375 160.078125 134.238281 159.960938 134.242188 159.847656 C 134.277344 159.066406 134.34375 158.285156 134.433594 157.496094 C 134.449219 157.347656 134.46875 157.195312 134.488281 157.046875 C 134.589844 156.261719 134.714844 155.480469 134.871094 154.695312 C 134.898438 154.566406 134.925781 154.441406 134.953125 154.316406 C 135.128906 153.492188 135.328125 152.664062 135.566406 151.839844 C 135.710938 151.332031 135.855469 150.789062 136 150.234375 C 136.039062 150.066406 136.082031 149.898438 136.125 149.726562 C 136.265625 149.152344 136.40625 148.554688 136.542969 147.929688 C 129.78125 148.894531 122.796875 152.007812 117.183594 155.132812 C 107.984375 160.027344 99.382812 166.335938 92.433594 174.136719 C 90.496094 176.316406 88.683594 178.605469 87.03125 181.007812 C 85.9375 182.601562 86.308594 183.363281 87.242188 184.96875 C 88.242188 186.691406 89.324219 188.339844 90.472656 189.964844 C 92.621094 193.003906 94.941406 195.917969 96.945312 199.054688 C 97.089844 199.285156 97.246094 199.503906 97.386719 199.734375 C 97.464844 199.867188 97.558594 200.007812 97.636719 200.140625 C 102.167969 207.449219 105.53125 215.152344 109.285156 223.046875 C 110.664062 226.199219 112.242188 229.355469 113.425781 232.714844 C 113.816406 233.898438 114.015625 236.273438 114.808594 237.261719 C 116.984375 239.621094 122.3125 235.671875 125.273438 234.488281 C 125.273438 234.488281 117.570312 244.753906 120.136719 249.695312 C 123.445312 256.054688 128.8125 261.714844 132.871094 267.601562 C 139.550781 277.304688 151.75 309.023438 156.011719 315.773438 C 155.925781 311.121094 155.867188 306.464844 155.851562 301.808594 " fill-opacity="1" fill-rule="nonzero"/><path fill="#783035" d="M 293.980469 340.414062 C 285.195312 338.109375 279.871094 330.296875 274.355469 323.648438 C 268.273438 316.308594 262.1875 308.972656 256.101562 301.636719 C 241.539062 284.078125 226.96875 266.519531 212.421875 248.949219 C 212.25 248.742188 212.042969 248.703125 211.851562 248.757812 C 211.710938 247.757812 211.460938 245.601562 211.390625 242.476562 L 207.617188 242.96875 C 206.195312 243.148438 204.882812 242.136719 204.699219 240.714844 L 204.324219 237.828125 L 203.230469 237.484375 C 199.667969 237.234375 198.652344 231.519531 201.382812 229.777344 C 197.984375 229.089844 196.113281 225.125 198.03125 221.597656 C 198.5625 220.707031 199.546875 220.191406 199.546875 220.191406 C 196.730469 219.984375 195.097656 218.175781 194.65625 216.089844 C 179.890625 237.074219 160.171875 263.597656 157.652344 266.972656 C 156.457031 278.480469 157.101562 290.277344 157.152344 301.808594 C 157.171875 306.179688 157.226562 310.550781 157.300781 314.921875 C 158.375 313.242188 160.152344 311.941406 161.351562 310.390625 C 163.339844 307.828125 164.941406 304.941406 166.925781 302.351562 C 171.308594 296.648438 176.25 291.402344 181.300781 286.292969 C 190.382812 277.101562 199.917969 268.398438 209.753906 260.03125 C 211.726562 258.355469 213.800781 256.730469 215.738281 254.980469 C 229.203125 271.238281 242.683594 287.484375 256.160156 303.734375 C 262.09375 310.890625 268.027344 318.042969 273.960938 325.199219 C 279.480469 331.859375 284.835938 339.363281 293.632812 341.671875 C 294.445312 341.882812 294.792969 340.625 293.980469 340.414062 " fill-opacity="1" fill-rule="nonzero"/><path fill="#783035" d="M 130.136719 121.761719 C 125.640625 128.132812 131.515625 135.875 137.8125 140.644531 C 138.394531 136.234375 138.664062 131.707031 138.308594 128.234375 C 138.046875 125.675781 137.9375 123.253906 137.933594 120.941406 C 136.824219 121.628906 137.035156 122.191406 137.035156 122.191406 C 135.4375 122.28125 132.933594 122.125 130.136719 121.761719 " fill-opacity="1" fill-rule="nonzero"/><path fill="#783035" d="M 239.070312 134.5 C 239.070312 134.5 238.679688 134.132812 237.945312 133.441406 C 237.667969 133.191406 237.34375 132.863281 236.996094 132.503906 C 233.71875 131.039062 227.058594 128.296875 217.746094 125.640625 C 221.191406 129.273438 223.746094 133.761719 225.03125 138.757812 C 226.175781 139.359375 227.316406 139.875 228.441406 140.28125 C 231.171875 136.554688 236.082031 134.640625 240.742188 135.160156 L 239.3125 133.589844 C 239.3125 133.589844 238.816406 133.339844 237.894531 132.914062 C 237.992188 133.007812 238.09375 133.117188 238.179688 133.203125 C 238.886719 133.90625 239.261719 134.285156 239.261719 134.285156 L 239.269531 134.296875 C 239.328125 134.351562 239.328125 134.441406 239.269531 134.5 C 239.214844 134.554688 239.128906 134.554688 239.070312 134.5 " fill-opacity="1" fill-rule="nonzero"/><path fill="#783035" d="M 126.21875 81.746094 C 129.445312 81.285156 132.640625 80.972656 135.675781 80.710938 C 136.160156 80.667969 136.640625 80.628906 137.113281 80.589844 C 137.253906 80.578125 137.402344 80.5625 137.542969 80.550781 C 150.238281 79.488281 162.742188 78.984375 175.433594 80.515625 C 176.816406 80.683594 178.203125 80.882812 179.585938 81.085938 C 179.988281 81.144531 180.390625 81.199219 180.796875 81.261719 C 184.097656 81.773438 187.394531 82.390625 190.679688 83.117188 C 191.070312 83.207031 191.460938 83.308594 191.851562 83.398438 C 213.332031 88.34375 234.113281 97.945312 250.304688 112.746094 C 251.265625 113.621094 252.199219 114.523438 253.113281 115.441406 C 253.492188 115.816406 253.855469 116.207031 254.222656 116.59375 C 256.648438 119.121094 258.898438 121.78125 260.960938 124.574219 C 261.257812 124.972656 261.5625 125.367188 261.847656 125.769531 C 263.585938 128.214844 265.167969 130.757812 266.605469 133.375 C 266.757812 133.132812 266.898438 132.886719 267.046875 132.644531 C 267.175781 132.429688 267.3125 132.214844 267.4375 131.992188 C 265.921875 129.308594 264.25 126.730469 262.433594 124.253906 C 262.132812 123.847656 261.832031 123.445312 261.523438 123.042969 C 259.375 120.222656 257.042969 117.53125 254.542969 114.984375 C 254.164062 114.597656 253.777344 114.21875 253.390625 113.839844 C 237.324219 98.019531 214.925781 87.550781 192.21875 82.234375 C 191.820312 82.140625 191.425781 82.054688 191.027344 81.964844 C 187.753906 81.222656 184.480469 80.589844 181.214844 80.066406 C 180.808594 80 180.402344 79.929688 179.996094 79.867188 C 173.6875 78.898438 167.4375 78.328125 161.382812 78.148438 C 153.546875 77.914062 145.554688 78.332031 137.664062 79.125 C 137.175781 79.171875 136.6875 79.214844 136.199219 79.269531 C 133.226562 79.585938 130.269531 79.945312 127.34375 80.351562 C 127.097656 80.382812 126.851562 80.425781 126.605469 80.460938 C 126.148438 80.523438 125.691406 80.589844 125.230469 80.660156 C 119.964844 81.484375 114.503906 82.730469 109.527344 84.875 C 109.523438 84.910156 109.511719 84.941406 109.503906 84.972656 C 109.40625 85.414062 109.351562 85.855469 109.273438 86.296875 C 114.082031 84.085938 119.472656 82.785156 124.84375 81.949219 C 125.304688 81.878906 125.761719 81.8125 126.21875 81.746094 " fill-opacity="1" fill-rule="nonzero"/><path fill="#783035" d="M 139.507812 58.035156 C 140.273438 57.929688 141.042969 57.835938 141.808594 57.746094 C 143.296875 57.574219 144.78125 57.417969 146.253906 57.300781 C 148.046875 57.15625 149.84375 57.050781 151.644531 56.972656 C 152.332031 56.945312 153.023438 56.941406 153.714844 56.925781 C 165.78125 56.59375 177.957031 57.761719 189.738281 60.167969 C 190.03125 60.230469 190.328125 60.277344 190.621094 60.339844 C 190.75 60.367188 190.878906 60.402344 191.007812 60.429688 C 194.015625 61.066406 197.003906 61.8125 199.972656 62.640625 C 200.378906 62.757812 200.785156 62.859375 201.191406 62.976562 C 220.972656 68.699219 239.628906 78.707031 254.464844 92.957031 C 254.914062 93.390625 255.378906 93.8125 255.820312 94.253906 C 258.457031 96.875 260.96875 99.625 263.332031 102.519531 C 263.863281 103.171875 264.359375 103.835938 264.871094 104.5 C 265.28125 105.03125 265.703125 105.550781 266.101562 106.089844 C 268.300781 109.078125 270.285156 112.183594 272.097656 115.375 C 272.140625 114.667969 272.160156 113.957031 272.171875 113.246094 C 272.171875 113.246094 272.171875 113.242188 272.171875 113.242188 C 270.335938 110.140625 268.339844 107.121094 266.164062 104.207031 C 265.75 103.65625 265.316406 103.117188 264.890625 102.570312 C 262.089844 98.976562 259.035156 95.535156 255.710938 92.28125 C 255.585938 92.160156 255.46875 92.03125 255.34375 91.90625 C 255.015625 91.589844 254.664062 91.289062 254.332031 90.972656 C 239.617188 77.089844 221.269531 67.503906 201.847656 61.851562 C 201.445312 61.734375 201.042969 61.613281 200.640625 61.503906 C 197.695312 60.671875 194.726562 59.933594 191.746094 59.28125 C 191.320312 59.1875 190.898438 59.089844 190.472656 59.003906 C 187.21875 58.320312 183.945312 57.734375 180.671875 57.253906 C 172.359375 56.046875 163.832031 55.414062 155.347656 55.539062 C 154.625 55.546875 153.90625 55.582031 153.183594 55.601562 C 149.957031 55.699219 146.742188 55.90625 143.550781 56.238281 C 142.761719 56.320312 141.972656 56.414062 141.1875 56.515625 C 140.660156 56.578125 140.128906 56.625 139.605469 56.695312 C 135.519531 57.257812 131.417969 58.054688 127.410156 59.160156 C 126.535156 59.839844 125.675781 60.539062 124.835938 61.261719 C 124.832031 61.265625 124.832031 61.265625 124.832031 61.265625 C 129.59375 59.738281 134.550781 58.710938 139.507812 58.035156 " fill-opacity="1" fill-rule="nonzero"/><path fill="#783035" d="M 153.070312 46.761719 C 154.417969 46.550781 155.777344 46.375 157.136719 46.203125 C 158.457031 46.03125 159.78125 45.886719 161.109375 45.757812 C 163.753906 45.496094 166.402344 45.296875 169.0625 45.1875 C 170.085938 45.144531 171.109375 45.128906 172.132812 45.109375 C 180.664062 44.941406 189.214844 45.515625 197.589844 46.851562 C 198.710938 47.03125 199.828125 47.25 200.945312 47.460938 C 201.554688 47.574219 202.164062 47.667969 202.773438 47.789062 C 205.222656 48.285156 207.65625 48.878906 210.078125 49.519531 C 210.574219 49.652344 211.070312 49.785156 211.566406 49.921875 C 224.890625 53.628906 237.605469 59.5625 248.644531 67.75 C 249.351562 68.273438 250.058594 68.792969 250.753906 69.335938 C 254.445312 72.230469 257.921875 75.40625 261.160156 78.828125 C 261.875 79.585938 262.597656 80.332031 263.289062 81.113281 C 264.46875 82.449219 265.609375 83.820312 266.714844 85.234375 C 266.261719 84.007812 265.777344 82.816406 265.25 81.660156 C 264.351562 80.582031 263.417969 79.53125 262.46875 78.492188 C 261.722656 77.675781 260.960938 76.871094 260.183594 76.078125 C 256.925781 72.761719 253.414062 69.636719 249.621094 66.777344 C 248.902344 66.234375 248.148438 65.722656 247.410156 65.195312 C 246.722656 64.703125 246.046875 64.199219 245.34375 63.722656 C 235.375 57.003906 224.363281 52.144531 212.859375 48.90625 C 212.347656 48.761719 211.835938 48.617188 211.320312 48.476562 C 209.050781 47.867188 206.757812 47.335938 204.453125 46.851562 C 203.800781 46.710938 203.148438 46.566406 202.496094 46.4375 C 193.484375 44.683594 184.28125 43.84375 175.121094 43.835938 C 174.015625 43.835938 172.914062 43.855469 171.816406 43.882812 C 169.664062 43.925781 167.519531 44 165.382812 44.132812 C 165.285156 44.140625 165.191406 44.140625 165.097656 44.148438 C 163.769531 44.234375 162.417969 44.339844 161.0625 44.460938 C 159.550781 44.59375 158.023438 44.757812 156.492188 44.945312 C 155.207031 45.324219 153.925781 45.726562 152.65625 46.152344 C 152.652344 46.152344 152.640625 46.15625 152.636719 46.160156 C 151.359375 46.585938 150.09375 47.039062 148.839844 47.515625 C 148.835938 47.515625 148.832031 47.515625 148.832031 47.515625 C 150.25 47.242188 151.667969 46.988281 153.070312 46.761719 " fill-opacity="1" fill-rule="nonzero"/><path fill="#783035" d="M 214.875 206.109375 C 214.347656 205.859375 213.652344 205.40625 212.789062 204.945312 C 212.339844 204.714844 211.855469 204.464844 211.339844 204.203125 C 210.824219 203.949219 210.226562 203.738281 209.621094 203.511719 C 208.910156 203.308594 208.402344 203.1875 207.578125 203.195312 C 206.832031 203.195312 206.132812 203.332031 205.441406 203.550781 C 204.078125 204.007812 202.898438 204.789062 201.921875 205.605469 C 201.414062 206.023438 201.003906 206.429688 200.582031 206.820312 C 200.171875 207.21875 199.777344 207.5625 199.390625 207.882812 C 198.636719 208.515625 198.035156 209.113281 197.605469 209.507812 C 197.191406 209.917969 196.953125 210.148438 196.953125 210.148438 C 196.914062 210.1875 196.921875 210.242188 196.9375 210.296875 C 196.941406 210.308594 196.925781 210.316406 196.933594 210.328125 C 196.933594 210.332031 196.941406 210.332031 196.945312 210.335938 C 196.988281 210.390625 197.070312 210.410156 197.128906 210.371094 L 197.160156 210.351562 C 197.160156 210.351562 197.441406 210.179688 197.933594 209.867188 C 198.40625 209.542969 199.109375 209.117188 199.929688 208.550781 C 200.757812 208.011719 201.691406 207.261719 202.644531 206.539062 C 203.125 206.179688 203.648438 205.851562 204.175781 205.535156 C 204.710938 205.234375 205.269531 204.96875 205.84375 204.785156 C 206.414062 204.597656 207.019531 204.472656 207.574219 204.464844 C 207.855469 204.480469 208.09375 204.417969 208.429688 204.496094 C 208.71875 204.550781 209.125 204.566406 209.300781 204.652344 C 209.863281 204.847656 210.421875 204.964844 210.945312 205.160156 C 211.46875 205.359375 211.960938 205.550781 212.417969 205.730469 C 214.273438 206.515625 215.554688 206.84375 215.554688 206.84375 C 215.621094 206.859375 215.699219 206.832031 215.738281 206.769531 C 215.777344 206.691406 215.75 206.59375 215.675781 206.554688 C 215.675781 206.554688 215.382812 206.394531 214.875 206.109375 " fill-opacity="1" fill-rule="nonzero"/><path fill="#783035" d="M 217.804688 217.261719 C 217.320312 217.03125 216.621094 216.714844 215.753906 216.414062 C 214.890625 216.105469 213.863281 215.8125 212.738281 215.550781 C 212.179688 215.410156 211.605469 215.332031 211.023438 215.214844 C 210.429688 215.089844 209.742188 215.03125 209.101562 215.0625 C 206.460938 215.179688 204.195312 216.515625 202.753906 217.636719 C 201.300781 218.792969 200.550781 219.777344 200.550781 219.777344 C 200.507812 219.832031 200.507812 219.914062 200.546875 219.96875 C 200.601562 220.035156 200.699219 220.046875 200.765625 219.992188 C 200.765625 219.992188 201.003906 219.8125 201.421875 219.503906 C 201.839844 219.191406 202.460938 218.777344 203.226562 218.332031 C 204.738281 217.445312 206.90625 216.410156 209.144531 216.347656 C 209.710938 216.332031 210.226562 216.386719 210.796875 216.484375 C 211.382812 216.578125 211.957031 216.671875 212.511719 216.757812 C 213.609375 216.960938 214.632812 217.144531 215.507812 217.304688 C 217.269531 217.640625 218.4375 217.925781 218.4375 217.925781 C 218.496094 217.9375 218.5625 217.917969 218.59375 217.863281 C 218.636719 217.796875 218.617188 217.703125 218.554688 217.660156 C 218.550781 217.660156 218.289062 217.488281 217.804688 217.261719 " fill-opacity="1" fill-rule="nonzero"/><path fill="#783035" d="M 214.527344 226.496094 C 213.992188 226.425781 213.445312 226.347656 212.871094 226.335938 C 212.277344 226.304688 211.765625 226.316406 211.171875 226.328125 C 210.023438 226.386719 208.882812 226.566406 207.84375 226.847656 C 206.804688 227.121094 205.867188 227.488281 205.101562 227.871094 C 203.5625 228.636719 202.71875 229.425781 202.71875 229.425781 C 202.667969 229.472656 202.648438 229.546875 202.683594 229.613281 C 202.722656 229.691406 202.820312 229.71875 202.894531 229.683594 C 202.894531 229.683594 203.875 229.167969 205.425781 228.679688 C 206.976562 228.171875 209.089844 227.714844 211.230469 227.628906 C 211.746094 227.613281 212.339844 227.582031 212.84375 227.605469 C 213.359375 227.613281 213.886719 227.632812 214.386719 227.675781 C 215.390625 227.753906 216.320312 227.898438 217.109375 228.074219 C 217.890625 228.261719 218.542969 228.453125 218.980469 228.636719 C 219.421875 228.808594 219.65625 228.933594 219.65625 228.933594 C 219.710938 228.960938 219.785156 228.957031 219.832031 228.914062 C 219.890625 228.855469 219.890625 228.761719 219.835938 228.703125 C 219.835938 228.703125 219.628906 228.488281 219.214844 228.203125 C 218.792969 227.929688 218.171875 227.550781 217.367188 227.242188 C 216.566406 226.921875 215.589844 226.652344 214.527344 226.496094 " fill-opacity="1" fill-rule="nonzero"/><g clip-path="url(#5d5596da18)"><path fill="#783035" d="M 86.914062 260.054688 C 86.949219 259.214844 85.644531 259.21875 85.613281 260.054688 C 84.46875 287.210938 83.761719 314.460938 86.753906 341.53125 C 86.847656 342.355469 88.148438 342.363281 88.058594 341.53125 C 85.066406 314.460938 85.773438 287.210938 86.914062 260.054688 " fill-opacity="1" fill-rule="nonzero"/></g><path fill="#783035" d="M 156.851562 319.988281 C 158.304688 319.988281 159.480469 321.164062 159.480469 322.617188 C 159.480469 324.066406 158.304688 325.246094 156.851562 325.246094 C 155.398438 325.246094 154.222656 324.066406 154.222656 322.617188 C 154.222656 321.164062 155.398438 319.988281 156.851562 319.988281 " fill-opacity="1" fill-rule="nonzero"/><path fill="#783035" d="M 156.851562 334.320312 C 158.304688 334.320312 159.480469 335.496094 159.480469 336.949219 C 159.480469 338.402344 158.304688 339.578125 156.851562 339.578125 C 155.398438 339.578125 154.222656 338.402344 154.222656 336.949219 C 154.222656 335.496094 155.398438 334.320312 156.851562 334.320312 " fill-opacity="1" fill-rule="nonzero"/><path fill="#fffdef" d="M 137.601562 175.800781 C 137.601562 175.804688 137.605469 175.808594 137.605469 175.8125 C 137.609375 175.808594 137.617188 175.808594 137.621094 175.804688 C 137.566406 175.695312 137.5 175.585938 137.445312 175.476562 C 137.5 175.585938 137.546875 175.695312 137.601562 175.800781 " fill-opacity="1" fill-rule="nonzero"/><path fill="#fffdef" d="M 136.703125 173.792969 C 136.898438 174.265625 137.101562 174.734375 137.320312 175.199219 C 137.101562 174.730469 136.910156 174.253906 136.714844 173.777344 C 136.710938 173.785156 136.707031 173.789062 136.703125 173.792969 " fill-opacity="1" fill-rule="nonzero"/><path fill="#fffdef" d="M 168.636719 212.285156 C 167.195312 208.324219 165.804688 204.34375 164.441406 200.355469 C 161.25 203.671875 158.273438 207.191406 154.992188 210.417969 C 154.996094 210.4375 155.003906 210.453125 155.003906 210.476562 C 154.976562 214.441406 154.515625 218.949219 159.585938 219.664062 C 165.027344 220.433594 167.027344 216.828125 168.628906 212.296875 C 168.632812 212.292969 168.632812 212.289062 168.636719 212.285156 " fill-opacity="1" fill-rule="nonzero"/><path fill="#fffdef" d="M 151.71875 213.414062 C 151.476562 213.617188 151.214844 213.652344 150.929688 213.515625 C 147.007812 211.664062 142.972656 209.242188 139.339844 206.320312 C 139.554688 207.933594 139.800781 209.546875 140.085938 211.152344 C 140.957031 216.050781 142.132812 220.917969 143.597656 225.804688 C 144.628906 229.257812 145.695312 232.703125 146.792969 236.140625 C 147.21875 237.472656 147.664062 238.800781 148.097656 240.128906 C 150.023438 231.980469 152.328125 223.070312 154.449219 217.425781 C 153.773438 215.832031 153.691406 213.84375 153.695312 211.660156 C 153.050781 212.257812 152.394531 212.847656 151.71875 213.414062 " fill-opacity="1" fill-rule="nonzero"/><path fill="#fffdef" d="M 211.25 191.632812 C 211.335938 191.640625 211.417969 191.648438 211.5 191.65625 C 211.589844 191.542969 211.6875 191.417969 211.777344 191.304688 C 211.605469 191.414062 211.425781 191.523438 211.25 191.632812 " fill-opacity="1" fill-rule="nonzero"/><path fill="#fffdef" d="M 190.074219 202.273438 C 190.609375 201.585938 191.222656 200.871094 191.890625 200.148438 C 185.097656 202.101562 175.984375 202.722656 165.484375 199.382812 C 166.289062 201.730469 167.097656 204.082031 167.921875 206.425781 C 168.609375 208.390625 169.300781 210.351562 170.007812 212.3125 C 170.308594 213.136719 170.605469 213.964844 170.917969 214.785156 C 171.003906 215.011719 173.554688 214.800781 173.800781 214.792969 C 181.554688 214.582031 188.796875 213.367188 195.710938 210.726562 C 195.285156 210.839844 194.855469 210.925781 194.417969 210.964844 C 187.800781 211.585938 186.351562 207.242188 190.074219 202.273438 " fill-opacity="1" fill-rule="nonzero"/><path fill="#fffdef" d="M 150.585938 211.90625 C 151.839844 212.527344 154.113281 209.53125 154.984375 208.636719 C 158.066406 205.449219 160.9375 202.066406 164.039062 198.894531 C 158.214844 196.824219 153.871094 193.707031 150.644531 190.367188 C 150.402344 190.207031 150.148438 190.0625 149.910156 189.902344 C 145.347656 186.703125 141.703125 182.789062 139.066406 178.433594 C 139.066406 178.441406 139.066406 178.453125 139.066406 178.460938 C 139.066406 178.464844 139.070312 178.46875 139.070312 178.472656 C 138.964844 180.441406 138.84375 182.410156 138.738281 184.378906 C 138.722656 184.71875 138.714844 185.058594 138.695312 185.398438 C 138.609375 187.09375 138.527344 188.796875 138.484375 190.5 C 138.355469 195.183594 138.574219 199.765625 139.078125 204.296875 C 141.40625 206.261719 143.902344 208.011719 146.378906 209.53125 C 147.75 210.371094 149.140625 211.199219 150.585938 211.90625 " fill-opacity="1" fill-rule="nonzero"/><path fill="#fffdef" d="M 170.488281 216.132812 C 170.175781 216.132812 169.964844 215.925781 169.859375 215.652344 C 169.671875 215.152344 169.496094 214.648438 169.3125 214.144531 C 168.835938 215.3125 168.296875 216.410156 167.660156 217.378906 L 171.566406 248.121094 C 178.664062 238.441406 187.277344 226.574219 194.652344 216.085938 C 194.386719 214.820312 194.566406 213.457031 195.1875 212.28125 C 187.378906 215.070312 179.195312 216.101562 170.488281 216.132812 " fill-opacity="1" fill-rule="nonzero"/><path fill="#fffdef" d="M 153.714844 56.921875 C 153.023438 56.941406 152.332031 56.945312 151.644531 56.972656 C 144.671875 63.277344 139.457031 70.804688 136.199219 79.269531 C 136.6875 79.21875 137.175781 79.175781 137.664062 79.125 C 141.070312 70.648438 146.519531 63.207031 153.714844 56.921875 " fill-opacity="1" fill-rule="nonzero"/><path fill="#fffdef" d="M 184.339844 40.925781 C 183.648438 40.921875 182.964844 40.925781 182.273438 40.933594 C 181.292969 40.945312 180.3125 40.964844 179.332031 41.015625 C 179.328125 41.015625 179.324219 41.015625 179.320312 41.015625 C 176.773438 41.820312 174.261719 42.777344 171.8125 43.882812 C 172.914062 43.855469 174.015625 43.835938 175.121094 43.835938 C 178.125 42.640625 181.210938 41.648438 184.339844 40.925781 " fill-opacity="1" fill-rule="nonzero"/><path fill="#fffdef" d="M 157.242188 54.027344 C 161.742188 50.59375 166.785156 47.53125 172.132812 45.109375 C 171.109375 45.128906 170.085938 45.144531 169.0625 45.1875 C 164.351562 47.542969 159.890625 50.378906 155.808594 53.492188 C 154.910156 54.179688 154.035156 54.882812 153.183594 55.601562 C 153.90625 55.582031 154.628906 55.550781 155.351562 55.539062 C 155.972656 55.027344 156.59375 54.519531 157.242188 54.027344 " fill-opacity="1" fill-rule="nonzero"/><path fill="#fffdef" d="M 135.675781 80.710938 C 133.820312 85.949219 132.6875 91.519531 132.34375 97.375 C 132.78125 97.328125 133.210938 97.28125 133.65625 97.238281 C 134.015625 91.339844 135.195312 85.78125 137.113281 80.589844 C 136.640625 80.628906 136.160156 80.667969 135.675781 80.710938 " fill-opacity="1" fill-rule="nonzero"/><path fill="#fffdef" d="M 250.371094 141.722656 C 250.605469 142.144531 250.808594 142.5625 250.988281 142.980469 C 255.707031 137.808594 259.335938 132.039062 261.851562 125.769531 C 261.5625 125.367188 261.261719 124.972656 260.964844 124.574219 C 258.535156 130.820312 254.984375 136.578125 250.371094 141.722656 " fill-opacity="1" fill-rule="nonzero"/><path fill="#fffdef" d="M 261.523438 123.042969 C 261.832031 123.445312 262.132812 123.851562 262.433594 124.257812 C 264.535156 118.558594 265.761719 112.476562 266.101562 106.089844 C 265.703125 105.550781 265.28125 105.03125 264.871094 104.5 C 264.726562 111.003906 263.597656 117.21875 261.523438 123.042969 " fill-opacity="1" fill-rule="nonzero"/><path fill="#fffdef" d="M 263.285156 81.113281 C 262.597656 80.332031 261.875 79.585938 261.160156 78.828125 C 263.636719 86.367188 264.789062 94.410156 264.898438 102.136719 C 264.898438 102.28125 264.890625 102.425781 264.890625 102.570312 C 265.316406 103.117188 265.75 103.65625 266.164062 104.207031 C 266.171875 103.820312 266.195312 103.4375 266.203125 103.042969 C 266.269531 95.839844 265.351562 88.300781 263.285156 81.113281 " fill-opacity="1" fill-rule="nonzero"/><path fill="#fffdef" d="M 262.464844 78.492188 C 261.898438 76.777344 261.253906 75.09375 260.546875 73.441406 L 260.546875 73.4375 C 260.542969 73.4375 260.542969 73.433594 260.539062 73.433594 C 259.964844 72.613281 259.367188 71.8125 258.753906 71.027344 C 258.71875 70.988281 258.6875 70.945312 258.65625 70.90625 C 258.027344 70.113281 257.378906 69.339844 256.710938 68.589844 C 258.042969 70.988281 259.199219 73.496094 260.183594 76.082031 C 260.960938 76.871094 261.722656 77.675781 262.464844 78.492188 " fill-opacity="1" fill-rule="nonzero"/><path fill="#fffdef" d="M 211.566406 49.921875 C 211.070312 49.785156 210.574219 49.652344 210.074219 49.519531 C 206.328125 52.84375 203.269531 57.117188 200.640625 61.503906 C 201.046875 61.617188 201.445312 61.734375 201.851562 61.851562 C 204.535156 57.390625 207.691406 53.121094 211.566406 49.921875 " fill-opacity="1" fill-rule="nonzero"/><path fill="#fffdef" d="M 216.984375 46.476562 C 216.347656 46.308594 215.707031 46.144531 215.066406 45.988281 C 213.746094 46.707031 212.5 47.542969 211.320312 48.476562 C 211.835938 48.617188 212.347656 48.761719 212.859375 48.90625 C 214.152344 47.960938 215.527344 47.148438 216.984375 46.476562 " fill-opacity="1" fill-rule="nonzero"/><path fill="#fffdef" d="M 196.46875 71.804688 C 197.894531 69 199.449219 65.964844 201.191406 62.976562 C 200.789062 62.859375 200.378906 62.753906 199.972656 62.640625 C 198.710938 64.804688 197.539062 66.976562 196.4375 69.050781 C 194.1875 73.265625 192.410156 77.574219 191.027344 81.964844 C 191.425781 82.054688 191.820312 82.144531 192.21875 82.234375 C 193.339844 78.6875 194.734375 75.207031 196.46875 71.804688 " fill-opacity="1" fill-rule="nonzero"/><path fill="#fffdef" d="M 191.851562 83.398438 C 191.460938 83.308594 191.074219 83.207031 190.679688 83.121094 C 188.859375 89.242188 187.785156 95.53125 187.28125 101.976562 C 187.710938 102.101562 188.125 102.234375 188.542969 102.363281 C 189.003906 95.90625 190.015625 89.554688 191.851562 83.398438 " fill-opacity="1" fill-rule="nonzero"/><path fill="#fffdef" d="M 196.042969 169.632812 C 183.132812 169.632812 172.628906 159.128906 172.628906 146.21875 C 172.628906 133.308594 183.132812 122.804688 196.042969 122.804688 C 208.953125 122.804688 219.457031 133.308594 219.457031 146.21875 C 219.457031 159.128906 208.953125 169.632812 196.042969 169.632812 Z M 217.746094 125.640625 C 212.289062 119.886719 204.582031 116.289062 196.042969 116.289062 C 191.339844 116.289062 186.894531 117.378906 182.929688 119.320312 C 172.980469 124.1875 166.113281 134.414062 166.113281 146.21875 C 166.113281 147.574219 166.214844 148.90625 166.386719 150.214844 C 166.421875 150.464844 166.453125 150.71875 166.496094 150.96875 C 167.769531 158.925781 172.191406 165.835938 178.433594 170.398438 C 178.859375 170.707031 179.296875 171.007812 179.738281 171.296875 C 184.429688 174.359375 190.03125 176.148438 196.046875 176.148438 C 196.792969 176.148438 197.53125 176.109375 198.269531 176.058594 L 199.261719 182.703125 C 198.140625 183.105469 197.402344 184.25 197.5625 185.480469 L 198.71875 194.433594 C 201.269531 192.835938 204 191.691406 206.628906 191.515625 C 207.644531 191.414062 208.894531 191.429688 210.253906 191.539062 L 209.277344 183.96875 C 209.09375 182.546875 207.78125 181.53125 206.359375 181.71875 L 205.714844 181.800781 L 204.679688 174.875 C 216.984375 171.15625 225.972656 159.71875 225.972656 146.21875 C 225.972656 143.644531 225.644531 141.144531 225.03125 138.757812 C 223.746094 133.765625 221.191406 129.273438 217.746094 125.640625 " fill-opacity="1" fill-rule="nonzero"/><path fill="#fffdef" d="M 204.324219 237.828125 L 204.699219 240.714844 C 204.882812 242.136719 206.195312 243.148438 207.617188 242.96875 L 211.390625 242.476562 L 214.164062 242.117188 C 215.054688 242.003906 215.785156 241.445312 216.160156 240.691406 C 212.890625 239.933594 209.601562 239 206.539062 238.519531 L 204.324219 237.828125 " fill-opacity="1" fill-rule="nonzero"/><path fill="#fffdef" d="M 205.3125 148.242188 C 205.3125 148.242188 205.0625 147.84375 204.601562 147.179688 C 204.378906 146.847656 204.070312 146.464844 203.714844 146.039062 C 203.34375 145.628906 202.9375 145.15625 202.4375 144.699219 C 201.433594 143.808594 200.152344 142.878906 198.617188 142.285156 C 198.203125 142.105469 197.761719 141.96875 197.3125 141.859375 C 197.597656 142.960938 197.757812 144.117188 197.757812 145.3125 C 197.757812 147.78125 197.105469 150.09375 195.976562 152.101562 C 195.976562 152.101562 195.972656 152.101562 195.96875 152.101562 C 195.972656 152.101562 195.976562 152.109375 195.976562 152.109375 C 201.09375 151.558594 204.695312 148.800781 205.347656 148.269531 C 205.339844 148.261719 205.324219 148.253906 205.320312 148.246094 L 205.3125 148.242188 " fill-opacity="1" fill-rule="nonzero"/><path fill="#d16368" d="M 240.039062 146.179688 C 240.039062 146.179688 239.980469 146.316406 239.882812 146.558594 C 239.769531 146.792969 239.675781 147.164062 239.4375 147.546875 C 239.226562 147.941406 238.976562 148.40625 238.632812 148.851562 C 238.332031 149.332031 237.90625 149.757812 237.511719 150.214844 C 237.066406 150.625 236.640625 151.058594 236.167969 151.378906 C 235.933594 151.542969 235.734375 151.726562 235.492188 151.859375 C 235.257812 151.992188 235.039062 152.121094 234.835938 152.242188 C 234.421875 152.5 234.105469 152.589844 233.871094 152.710938 C 233.636719 152.816406 233.503906 152.875 233.503906 152.875 C 233.472656 152.890625 233.4375 152.890625 233.402344 152.898438 C 233.378906 153.332031 233.363281 153.742188 233.355469 154.125 C 233.34375 154.917969 233.339844 155.589844 233.371094 156.058594 C 233.402344 156.523438 233.40625 156.800781 233.40625 156.800781 C 233.410156 156.878906 233.34375 156.949219 233.265625 156.953125 C 233.203125 156.953125 233.144531 156.914062 233.121094 156.859375 C 233.121094 156.859375 232.71875 155.824219 232.488281 154.175781 C 232.371094 153.355469 232.308594 152.382812 232.332031 151.347656 C 232.347656 150.304688 232.488281 149.195312 232.691406 148.097656 C 232.832031 147.558594 232.945312 147.007812 233.132812 146.484375 C 233.289062 145.953125 233.511719 145.449219 233.738281 144.96875 C 233.945312 144.480469 234.246094 144.050781 234.496094 143.632812 C 234.804688 143.246094 235.050781 142.851562 235.382812 142.566406 C 235.6875 142.265625 235.96875 141.996094 236.289062 141.804688 C 236.585938 141.605469 236.832031 141.421875 237.054688 141.34375 C 237.492188 141.15625 237.746094 141.058594 237.746094 141.058594 C 237.828125 141.027344 237.917969 141.066406 237.949219 141.148438 C 237.972656 141.214844 237.953125 141.285156 237.902344 141.328125 C 237.902344 141.328125 237.691406 141.503906 237.304688 141.785156 C 237.09375 141.910156 236.921875 142.125 236.710938 142.339844 C 236.488281 142.539062 236.285156 142.835938 236.050781 143.140625 C 235.800781 143.425781 235.636719 143.824219 235.394531 144.183594 C 235.207031 144.585938 234.988281 144.992188 234.824219 145.449219 C 234.636719 145.894531 234.484375 146.371094 234.34375 146.863281 C 234.179688 147.34375 234.085938 147.863281 233.964844 148.367188 C 233.753906 149.386719 233.605469 150.429688 233.511719 151.417969 C 233.507812 151.441406 233.507812 151.464844 233.503906 151.492188 C 233.734375 151.410156 234.054688 151.320312 234.347656 151.160156 C 234.527344 151.070312 234.71875 150.980469 234.925781 150.878906 C 235.136719 150.789062 235.335938 150.628906 235.558594 150.5 C 236.011719 150.246094 236.429688 149.882812 236.871094 149.539062 C 237.261719 149.152344 237.691406 148.785156 238.007812 148.367188 C 238.359375 147.976562 238.625 147.566406 238.851562 147.210938 C 239.105469 146.871094 239.21875 146.535156 239.339844 146.324219 C 239.453125 146.105469 239.519531 145.976562 239.519531 145.976562 L 239.535156 145.949219 C 239.605469 145.8125 239.769531 145.757812 239.90625 145.828125 C 240.035156 145.894531 240.089844 146.046875 240.039062 146.179688 Z M 217.804688 217.261719 C 218.289062 217.488281 218.550781 217.660156 218.550781 217.660156 C 218.617188 217.703125 218.636719 217.796875 218.59375 217.863281 C 218.5625 217.917969 218.496094 217.9375 218.433594 217.925781 C 218.433594 217.925781 217.269531 217.640625 215.507812 217.304688 C 214.632812 217.144531 213.605469 216.957031 212.511719 216.757812 C 211.957031 216.671875 211.382812 216.574219 210.796875 216.484375 C 210.226562 216.386719 209.710938 216.332031 209.144531 216.34375 C 206.90625 216.410156 204.738281 217.445312 203.226562 218.328125 C 202.457031 218.777344 201.839844 219.191406 201.421875 219.503906 C 201.003906 219.8125 200.765625 219.992188 200.765625 219.992188 C 200.699219 220.046875 200.597656 220.035156 200.542969 219.964844 C 200.507812 219.914062 200.507812 219.832031 200.546875 219.773438 C 200.546875 219.773438 201.300781 218.792969 202.753906 217.636719 C 204.195312 216.511719 206.460938 215.179688 209.101562 215.0625 C 209.742188 215.03125 210.429688 215.089844 211.023438 215.210938 C 211.605469 215.332031 212.179688 215.410156 212.738281 215.550781 C 213.863281 215.8125 214.890625 216.105469 215.753906 216.414062 C 216.621094 216.710938 217.320312 217.03125 217.804688 217.261719 Z M 219.835938 228.703125 C 219.890625 228.761719 219.890625 228.855469 219.832031 228.914062 C 219.785156 228.957031 219.710938 228.960938 219.65625 228.933594 C 219.65625 228.933594 219.421875 228.8125 218.984375 228.636719 C 218.546875 228.453125 217.894531 228.261719 217.109375 228.078125 C 216.320312 227.902344 215.390625 227.753906 214.386719 227.675781 C 213.886719 227.632812 213.363281 227.613281 212.84375 227.605469 C 212.34375 227.582031 211.746094 227.617188 211.230469 227.628906 C 209.089844 227.714844 206.976562 228.175781 205.429688 228.683594 C 203.875 229.171875 202.898438 229.683594 202.898438 229.683594 C 202.820312 229.722656 202.726562 229.691406 202.683594 229.617188 C 202.652344 229.550781 202.667969 229.472656 202.71875 229.425781 C 202.71875 229.425781 203.5625 228.636719 205.101562 227.871094 C 205.867188 227.488281 206.804688 227.121094 207.84375 226.847656 C 208.882812 226.566406 210.023438 226.386719 211.171875 226.332031 C 211.765625 226.316406 212.28125 226.304688 212.871094 226.335938 C 213.445312 226.347656 213.992188 226.425781 214.527344 226.5 C 215.589844 226.65625 216.570312 226.921875 217.371094 227.242188 C 218.175781 227.550781 218.796875 227.933594 219.214844 228.207031 C 219.628906 228.488281 219.835938 228.703125 219.835938 228.703125 Z M 151.4375 142.570312 C 151.101562 142.316406 150.730469 142.117188 150.355469 141.921875 C 149.972656 141.746094 149.589844 141.546875 149.183594 141.441406 C 148.789062 141.304688 148.378906 141.207031 147.980469 141.121094 C 147.582031 141.054688 147.1875 140.992188 146.8125 140.945312 C 146.429688 140.917969 146.066406 140.894531 145.734375 140.871094 C 145.074219 140.867188 144.488281 140.851562 144.078125 140.878906 C 143.664062 140.890625 143.425781 140.886719 143.425781 140.886719 C 143.425781 140.886719 143.640625 140.785156 144.023438 140.628906 C 144.398438 140.460938 144.953125 140.285156 145.671875 140.132812 C 146.375 139.992188 147.222656 139.914062 148.140625 139.988281 C 148.59375 140.050781 149.074219 140.085938 149.542969 140.242188 C 150.023438 140.351562 150.480469 140.5625 150.9375 140.757812 C 151.378906 140.996094 151.804688 141.257812 152.191406 141.566406 C 152.582031 141.859375 152.921875 142.207031 153.222656 142.558594 C 153.535156 142.902344 153.773438 143.28125 153.996094 143.640625 C 154.203125 144 154.378906 144.359375 154.507812 144.695312 C 154.773438 145.367188 154.894531 145.957031 154.957031 146.367188 C 155.007812 146.78125 155.023438 147.011719 155.023438 147.011719 C 155.023438 147.011719 154.910156 146.808594 154.710938 146.449219 C 154.515625 146.09375 154.222656 145.597656 153.84375 145.046875 C 153.453125 144.503906 152.988281 143.890625 152.390625 143.347656 C 152.105469 143.0625 151.769531 142.820312 151.4375 142.570312 Z M 142.929688 127.933594 C 143.753906 127.265625 145.144531 126.839844 146.003906 126.832031 C 148.238281 126.808594 150.769531 127.324219 152.855469 128.113281 C 155.628906 129.164062 160.46875 131.601562 161.058594 134.898438 C 161.773438 139.238281 157.714844 137.242188 155.828125 135.652344 C 153.3125 133.527344 150.867188 132.683594 147.738281 132.050781 C 146.257812 131.75 144.246094 131.246094 143.039062 130.308594 C 141.878906 129.40625 142.152344 128.5625 142.929688 127.933594 Z M 252.683594 117.71875 C 251.339844 124.195312 249.253906 131.132812 245.226562 136.523438 C 243.820312 135.789062 242.300781 135.332031 240.742188 135.160156 C 236.082031 134.640625 231.171875 136.554688 228.441406 140.28125 C 227.316406 139.875 226.175781 139.359375 225.03125 138.757812 C 225.644531 141.144531 225.972656 143.644531 225.972656 146.21875 C 225.972656 159.71875 216.980469 171.15625 204.675781 174.875 L 205.710938 181.800781 L 206.355469 181.71875 C 207.777344 181.53125 209.089844 182.546875 209.273438 183.96875 L 210.253906 191.539062 C 208.890625 191.433594 207.640625 191.414062 206.625 191.515625 C 204 191.691406 201.265625 192.835938 198.714844 194.433594 L 197.558594 185.484375 C 197.398438 184.253906 198.136719 183.105469 199.257812 182.703125 L 198.265625 176.058594 C 197.53125 176.109375 196.789062 176.148438 196.042969 176.148438 C 190.027344 176.148438 184.429688 174.359375 179.734375 171.296875 C 176.277344 172.640625 172.523438 173.496094 168.78125 173.496094 C 163.25 173.496094 157.75 171.65625 153.304688 166.878906 L 154.257812 165.992188 C 161.023438 173.261719 170.460938 173.261719 178.433594 170.398438 C 172.1875 165.835938 167.769531 158.925781 166.492188 150.96875 C 166.203125 151.121094 165.867188 151.21875 165.59375 151.453125 C 165.441406 151.570312 165.265625 151.667969 165.113281 151.796875 C 164.980469 151.949219 164.835938 152.085938 164.691406 152.230469 C 164.4375 152.542969 164.1875 152.882812 164.035156 153.28125 C 163.835938 153.648438 163.757812 154.085938 163.699219 154.507812 C 163.6875 154.726562 163.648438 154.941406 163.652344 155.160156 L 163.707031 155.8125 C 163.808594 156.234375 163.847656 156.675781 164.035156 157.0625 C 164.171875 157.464844 164.371094 157.832031 164.5625 158.183594 C 164.75 158.539062 165.015625 158.820312 165.210938 159.125 C 165.433594 159.402344 165.675781 159.628906 165.867188 159.859375 C 166.0625 160.09375 166.277344 160.238281 166.433594 160.390625 C 166.761719 160.691406 166.949219 160.859375 166.949219 160.859375 C 166.949219 160.859375 166.714844 160.777344 166.296875 160.609375 C 166.097656 160.511719 165.816406 160.441406 165.566406 160.253906 C 165.304688 160.082031 164.980469 159.90625 164.679688 159.65625 C 164.402344 159.378906 164.039062 159.121094 163.769531 158.746094 C 163.488281 158.382812 163.183594 157.992188 162.984375 157.515625 C 162.730469 157.070312 162.589844 156.546875 162.464844 156.019531 L 162.375 155.191406 C 162.363281 154.917969 162.394531 154.632812 162.410156 154.351562 C 162.5 153.800781 162.628906 153.234375 162.902344 152.742188 C 163.117188 152.21875 163.515625 151.804688 163.875 151.429688 C 164.078125 151.261719 164.277344 151.09375 164.480469 150.945312 C 164.691406 150.808594 164.921875 150.714844 165.132812 150.605469 C 165.539062 150.355469 165.996094 150.328125 166.378906 150.214844 C 166.382812 150.214844 166.382812 150.214844 166.386719 150.214844 C 166.214844 148.90625 166.113281 147.574219 166.113281 146.21875 C 166.113281 134.414062 172.980469 124.1875 182.929688 119.320312 C 181.0625 119.164062 179.167969 119.03125 177.234375 118.933594 C 148.523438 117.46875 140.273438 119.488281 137.933594 120.941406 C 137.9375 123.253906 138.046875 125.675781 138.308594 128.234375 C 138.664062 131.703125 138.394531 136.234375 137.8125 140.644531 C 137.378906 143.898438 136.777344 147.078125 136.125 149.726562 C 136.082031 149.898438 136.039062 150.066406 136 150.234375 C 135.855469 150.792969 135.710938 151.335938 135.566406 151.839844 C 135.328125 152.664062 135.128906 153.492188 134.953125 154.316406 C 134.925781 154.441406 134.898438 154.566406 134.871094 154.695312 C 134.714844 155.480469 134.589844 156.261719 134.488281 157.046875 C 134.46875 157.195312 134.449219 157.347656 134.433594 157.496094 C 134.34375 158.28125 134.277344 159.066406 134.242188 159.847656 C 134.238281 159.960938 134.234375 160.078125 134.234375 160.191406 C 134.207031 160.988281 134.203125 161.785156 134.234375 162.574219 C 134.234375 162.601562 134.234375 162.628906 134.234375 162.65625 C 134.265625 163.457031 134.339844 164.253906 134.429688 165.042969 C 134.445312 165.171875 134.457031 165.296875 134.472656 165.421875 C 134.570312 166.179688 134.695312 166.933594 134.84375 167.683594 C 134.875 167.820312 134.902344 167.960938 134.929688 168.097656 C 135.09375 168.851562 135.277344 169.601562 135.492188 170.34375 C 135.519531 170.4375 135.550781 170.527344 135.578125 170.621094 C 135.804688 171.382812 136.054688 172.136719 136.339844 172.882812 C 136.34375 172.90625 136.351562 172.929688 136.359375 172.949219 C 136.46875 173.230469 136.601562 173.5 136.714844 173.777344 C 136.910156 174.253906 137.101562 174.730469 137.320312 175.199219 C 137.363281 175.289062 137.402344 175.382812 137.449219 175.472656 C 137.503906 175.585938 137.566406 175.695312 137.621094 175.804688 C 137.902344 176.378906 138.195312 176.945312 138.507812 177.503906 C 138.609375 177.679688 138.710938 177.851562 138.8125 178.023438 C 138.894531 178.164062 138.984375 178.292969 139.066406 178.433594 C 141.703125 182.789062 145.347656 186.703125 149.914062 189.902344 C 150.148438 190.0625 150.40625 190.207031 150.644531 190.367188 C 162.882812 198.433594 178.570312 201.71875 193.003906 199 C 192.617188 199.382812 192.246094 199.765625 191.890625 200.148438 C 191.222656 200.867188 190.609375 201.585938 190.078125 202.273438 C 186.351562 207.238281 187.800781 211.582031 194.421875 210.964844 C 194.855469 210.925781 195.285156 210.839844 195.710938 210.722656 C 196.125 210.613281 196.53125 210.464844 196.9375 210.296875 C 196.921875 210.242188 196.914062 210.1875 196.953125 210.148438 C 196.953125 210.148438 197.191406 209.914062 197.605469 209.507812 C 198.035156 209.109375 198.636719 208.511719 199.390625 207.882812 C 199.777344 207.5625 200.171875 207.214844 200.582031 206.820312 C 201.003906 206.429688 201.414062 206.019531 201.921875 205.605469 C 202.898438 204.789062 204.078125 204.003906 205.441406 203.546875 C 206.132812 203.332031 206.832031 203.195312 207.578125 203.191406 C 208.402344 203.1875 208.910156 203.308594 209.621094 203.511719 C 210.226562 203.734375 210.824219 203.945312 211.34375 204.203125 C 211.855469 204.464844 212.34375 204.714844 212.789062 204.945312 C 213.652344 205.40625 214.347656 205.859375 214.875 206.109375 C 215.382812 206.390625 215.675781 206.554688 215.675781 206.554688 C 215.75 206.59375 215.777344 206.691406 215.738281 206.769531 C 215.699219 206.832031 215.621094 206.859375 215.554688 206.84375 C 215.554688 206.84375 214.273438 206.511719 212.417969 205.730469 C 211.960938 205.550781 211.46875 205.359375 210.945312 205.160156 C 210.421875 204.964844 209.863281 204.847656 209.300781 204.652344 C 209.125 204.566406 208.71875 204.546875 208.429688 204.492188 C 208.09375 204.417969 207.859375 204.480469 207.574219 204.464844 C 207.019531 204.472656 206.414062 204.597656 205.84375 204.785156 C 205.269531 204.96875 204.710938 205.230469 204.175781 205.535156 C 203.648438 205.851562 203.125 206.179688 202.644531 206.539062 C 201.691406 207.261719 200.757812 208.011719 199.929688 208.550781 C 199.109375 209.117188 198.40625 209.542969 197.933594 209.867188 C 197.441406 210.175781 197.160156 210.351562 197.160156 210.351562 L 197.128906 210.371094 C 197.070312 210.410156 196.988281 210.390625 196.945312 210.335938 C 196.171875 210.851562 195.589844 211.523438 195.1875 212.28125 C 194.566406 213.453125 194.386719 214.820312 194.652344 216.085938 C 194.652344 216.085938 194.65625 216.085938 194.65625 216.089844 C 195.097656 218.175781 196.730469 219.984375 199.546875 220.191406 C 199.546875 220.191406 198.5625 220.707031 198.03125 221.597656 C 196.113281 225.125 197.984375 229.089844 201.382812 229.773438 C 198.65625 231.515625 199.667969 237.234375 203.230469 237.484375 L 204.328125 237.828125 L 206.539062 238.519531 C 209.601562 239 212.894531 239.933594 216.160156 240.691406 C 216.839844 240.851562 217.519531 241 218.195312 241.136719 C 221.496094 235.941406 225.007812 228.785156 225.691406 221.105469 C 226.644531 210.34375 223.378906 199.289062 222.15625 194.289062 C 221.582031 194.03125 220.933594 193.777344 220.21875 193.535156 C 217.683594 192.683594 214.4375 191.988281 211.507812 191.65625 C 211.507812 191.65625 211.503906 191.65625 211.503906 191.65625 C 211.417969 191.648438 211.335938 191.636719 211.253906 191.632812 C 211.429688 191.519531 211.605469 191.414062 211.777344 191.304688 C 211.78125 191.300781 211.785156 191.296875 211.789062 191.296875 C 213.527344 190.171875 215.234375 189 216.859375 187.742188 C 224.28125 182.015625 228.265625 173.40625 232.488281 164.851562 C 236.554688 164.28125 240.878906 162.515625 244.417969 159.960938 C 249.472656 156.308594 252.925781 151.046875 251.734375 145.316406 C 251.574219 144.542969 251.328125 143.761719 250.988281 142.980469 C 250.808594 142.558594 250.605469 142.144531 250.375 141.71875 C 250.132812 141.285156 249.871094 140.851562 249.570312 140.414062 C 248.671875 139.066406 247.5625 138.015625 246.335938 137.191406 C 250.289062 131.808594 252.375 125.097656 253.808594 118.671875 C 253.964844 117.980469 254.089844 117.285156 254.226562 116.59375 C 253.855469 116.207031 253.492188 115.816406 253.113281 115.4375 C 252.972656 116.203125 252.839844 116.964844 252.683594 117.71875 " fill-opacity="1" fill-rule="nonzero"/><path fill="#d16368" d="M 205.515625 148.3125 C 205.453125 148.335938 205.390625 148.3125 205.347656 148.269531 C 204.695312 148.800781 201.09375 151.558594 195.976562 152.109375 C 195.976562 152.109375 195.972656 152.105469 195.96875 152.105469 C 195.1875 152.1875 194.367188 152.222656 193.519531 152.183594 C 187.214844 151.917969 182.574219 149.511719 181.726562 149.042969 C 181.683594 149.125 181.578125 149.15625 181.492188 149.113281 C 181.414062 149.066406 181.382812 148.96875 181.417969 148.886719 L 181.421875 148.875 C 181.421875 148.875 181.46875 148.769531 181.558594 148.570312 C 181.566406 148.554688 181.574219 148.535156 181.582031 148.523438 C 181.53125 148.5 181.488281 148.476562 181.453125 148.457031 C 181.410156 148.53125 181.316406 148.558594 181.242188 148.519531 C 181.171875 148.480469 181.144531 148.390625 181.175781 148.320312 L 181.179688 148.304688 C 181.179688 148.304688 181.222656 148.210938 181.300781 148.035156 C 181.386719 147.859375 181.480469 147.59375 181.671875 147.269531 C 182.027344 146.605469 182.625 145.722656 183.503906 144.785156 C 184.390625 143.863281 185.589844 142.945312 187 142.167969 C 188.078125 141.578125 189.292969 141.113281 190.578125 140.824219 C 191.492188 140.523438 192.449219 140.300781 193.425781 140.171875 C 193.644531 140.140625 193.953125 140.109375 194.175781 140.105469 C 194.414062 140.09375 194.632812 140.074219 194.882812 140.074219 C 195.398438 140.089844 195.914062 140.105469 196.398438 140.183594 C 197.371094 140.328125 198.3125 140.59375 199.167969 140.972656 C 200.894531 141.710938 202.238281 142.871094 203.199219 143.960938 C 203.679688 144.515625 204.085938 145.046875 204.398438 145.546875 C 204.695312 146.058594 204.941406 146.503906 205.113281 146.886719 C 205.3125 147.257812 205.410156 147.574219 205.492188 147.78125 C 205.570312 147.992188 205.613281 148.105469 205.613281 148.101562 C 205.644531 148.183594 205.601562 148.28125 205.515625 148.3125 Z M 178.511719 134.398438 C 178.578125 134.207031 178.667969 134.027344 178.757812 133.84375 C 178.757812 133.839844 178.757812 133.835938 178.761719 133.828125 C 179.722656 130.621094 184.804688 128.753906 187.679688 128.023438 C 187.855469 127.980469 188.0625 127.9375 188.289062 127.898438 C 189.152344 127.660156 189.964844 127.46875 190.671875 127.328125 C 193.5625 126.789062 201.832031 126.507812 203.960938 128.953125 C 206.683594 132.816406 198.4375 133.421875 196.496094 133.566406 C 192.28125 133.710938 188.910156 134.28125 185.167969 136.511719 C 182.367188 138.179688 176.640625 139.898438 178.511719 134.398438 Z M 196.042969 122.804688 C 183.132812 122.804688 172.628906 133.308594 172.628906 146.21875 C 172.628906 159.128906 183.132812 169.632812 196.042969 169.632812 C 208.953125 169.632812 219.457031 159.128906 219.457031 146.21875 C 219.457031 133.308594 208.953125 122.804688 196.042969 122.804688 " fill-opacity="1" fill-rule="nonzero"/><path fill="#d16368" d="M 165.382812 44.132812 C 169.050781 42.867188 172.835938 41.875 176.664062 41.199219 C 176.660156 41.199219 176.660156 41.199219 176.660156 41.199219 C 175.765625 41.269531 174.875 41.355469 173.984375 41.449219 C 173.953125 41.453125 173.917969 41.457031 173.882812 41.460938 C 171.199219 41.75 168.527344 42.15625 165.871094 42.671875 C 164.246094 43.21875 162.640625 43.8125 161.0625 44.460938 C 162.417969 44.34375 163.765625 44.234375 165.097656 44.152344 C 165.191406 44.144531 165.285156 44.140625 165.382812 44.132812 " fill-opacity="1" fill-rule="nonzero"/><path fill="#d16368" d="M 141.808594 57.746094 C 141.042969 57.835938 140.273438 57.929688 139.507812 58.035156 C 132.90625 64.257812 127.941406 72.023438 125.230469 80.664062 C 125.691406 80.589844 126.148438 80.527344 126.605469 80.460938 C 129.449219 71.648438 134.90625 63.925781 141.808594 57.746094 " fill-opacity="1" fill-rule="nonzero"/><path fill="#d16368" d="M 144.28125 55.632812 C 149.222656 51.652344 154.957031 48.3125 161.109375 45.757812 C 159.78125 45.890625 158.457031 46.03125 157.136719 46.203125 C 151.941406 48.683594 147.085938 51.710938 142.777344 55.179688 C 142.238281 55.613281 141.707031 56.0625 141.1875 56.515625 C 141.976562 56.414062 142.761719 56.320312 143.550781 56.238281 C 143.796875 56.039062 144.03125 55.832031 144.28125 55.632812 " fill-opacity="1" fill-rule="nonzero"/><path fill="#d16368" d="M 249.621094 66.777344 C 248.210938 63.746094 246.535156 60.878906 244.578125 58.234375 C 243.53125 57.546875 242.464844 56.886719 241.375 56.253906 C 243.746094 58.949219 245.742188 61.964844 247.410156 65.195312 C 248.148438 65.722656 248.902344 66.234375 249.621094 66.777344 " fill-opacity="1" fill-rule="nonzero"/><path fill="#d16368" d="M 254.332031 90.972656 C 254.667969 91.289062 255.015625 91.589844 255.347656 91.90625 C 255.472656 92.03125 255.589844 92.160156 255.714844 92.28125 C 255.65625 91.410156 255.601562 90.535156 255.519531 89.664062 C 254.894531 82.789062 253.371094 75.78125 250.753906 69.335938 C 250.058594 68.792969 249.351562 68.273438 248.644531 67.75 C 251.90625 75 253.667969 83.121094 254.332031 90.972656 " fill-opacity="1" fill-rule="nonzero"/><path fill="#d16368" d="M 255.824219 94.253906 C 255.378906 93.8125 254.917969 93.390625 254.464844 92.957031 C 254.898438 99.917969 254.527344 106.953125 253.394531 113.839844 C 253.78125 114.21875 254.164062 114.601562 254.542969 114.984375 C 255.753906 108.164062 256.140625 101.175781 255.824219 94.253906 " fill-opacity="1" fill-rule="nonzero"/><path fill="#d16368" d="M 184.738281 71.804688 C 186.578125 68.199219 188.617188 64.214844 191.007812 60.429688 C 190.878906 60.402344 190.753906 60.363281 190.621094 60.339844 C 190.328125 60.277344 190.03125 60.230469 189.738281 60.167969 C 187.886719 63.136719 186.234375 66.1875 184.710938 69.050781 C 182.816406 72.59375 181.269531 76.203125 180 79.871094 C 180.402344 79.933594 180.8125 80 181.214844 80.066406 C 182.203125 77.265625 183.359375 74.507812 184.738281 71.804688 " fill-opacity="1" fill-rule="nonzero"/><path fill="#d16368" d="M 202.773438 47.792969 C 202.164062 47.667969 201.554688 47.574219 200.945312 47.460938 C 196.75 50.398438 193.359375 54.558594 190.476562 59.003906 C 190.898438 59.089844 191.320312 59.1875 191.746094 59.28125 C 194.757812 54.714844 198.328125 50.53125 202.773438 47.792969 " fill-opacity="1" fill-rule="nonzero"/><path fill="#d16368" d="M 204.453125 46.851562 C 205.644531 46.246094 206.898438 45.769531 208.210938 45.386719 L 210.542969 45.625 C 211.777344 44.675781 211.609375 43.230469 210.808594 42.171875 C 210.0625 41.1875 208.757812 40.5625 207.519531 41.003906 C 207.425781 41.039062 207.328125 41.066406 207.234375 41.113281 C 205.796875 41.804688 205.394531 43.652344 206.238281 44.65625 C 204.925781 45.144531 203.675781 45.734375 202.496094 46.441406 C 203.148438 46.570312 203.800781 46.710938 204.453125 46.851562 " fill-opacity="1" fill-rule="nonzero"/><path fill="#d16368" d="M 155.578125 98.246094 C 159.566406 98.5625 163.683594 98.945312 167.84375 99.53125 C 172.003906 100.105469 176.214844 100.796875 180.386719 101.664062 C 182.46875 102.109375 184.550781 102.566406 186.601562 103.097656 C 188.59375 103.652344 190.648438 104.351562 192.648438 104.960938 C 194.644531 105.625 196.535156 106.449219 198.453125 107.167969 C 200.363281 107.902344 202.167969 108.847656 203.988281 109.660156 C 205.824219 110.449219 207.496094 111.496094 209.210938 112.359375 C 210.929688 113.21875 212.523438 114.222656 214.097656 115.160156 C 214.882812 115.628906 215.660156 116.09375 216.421875 116.554688 C 217.164062 117.042969 217.894531 117.527344 218.617188 118 C 220.042969 118.96875 221.460938 119.851562 222.75 120.796875 C 225.335938 122.683594 227.738281 124.378906 229.769531 126.007812 C 230.792969 126.800781 231.753906 127.550781 232.640625 128.238281 C 233.472656 128.992188 234.273438 129.667969 234.898438 130.347656 C 235.722656 131.167969 236.40625 131.898438 236.996094 132.507812 C 237.34375 132.863281 237.667969 133.191406 237.945312 133.441406 C 238.679688 134.132812 239.070312 134.5 239.070312 134.5 C 239.128906 134.554688 239.214844 134.554688 239.269531 134.5 C 239.328125 134.441406 239.328125 134.351562 239.269531 134.296875 L 239.261719 134.285156 C 239.261719 134.285156 238.886719 133.910156 238.179688 133.203125 C 238.09375 133.117188 237.992188 133.007812 237.894531 132.914062 C 237.210938 132.21875 236.363281 131.226562 235.21875 130.019531 C 234.59375 129.300781 233.824219 128.613281 233.003906 127.832031 C 232.128906 127.109375 231.1875 126.328125 230.175781 125.496094 C 228.1875 123.800781 225.824219 122.03125 223.25 120.101562 C 221.96875 119.125 220.558594 118.21875 219.136719 117.21875 C 218.417969 116.734375 217.691406 116.234375 216.953125 115.726562 C 216.191406 115.253906 215.417969 114.773438 214.632812 114.285156 C 213.0625 113.3125 211.472656 112.277344 209.75 111.378906 C 208.902344 110.914062 208.039062 110.441406 207.171875 109.96875 L 205.863281 109.253906 L 204.5 108.609375 C 202.660156 107.777344 200.847656 106.820312 198.90625 106.058594 C 196.964844 105.3125 195.019531 104.457031 193.019531 103.785156 C 191.527344 103.316406 190.050781 102.832031 188.542969 102.363281 C 188.121094 102.234375 187.710938 102.101562 187.28125 101.976562 C 187.160156 101.941406 187.046875 101.902344 186.921875 101.867188 C 184.847656 101.320312 182.753906 100.839844 180.652344 100.386719 C 179.449219 100.144531 178.238281 99.945312 177.035156 99.726562 C 177.636719 93.433594 178.808594 87.25 180.796875 81.261719 C 180.394531 81.199219 179.988281 81.144531 179.585938 81.085938 C 177.625 87.066406 176.421875 93.207031 175.78125 99.5 C 173.179688 99.054688 170.585938 98.644531 168.007812 98.304688 C 163.816406 97.738281 159.671875 97.371094 155.660156 97.074219 C 151.644531 96.808594 147.75 96.6875 144.0625 96.71875 C 140.371094 96.753906 136.878906 96.902344 133.671875 97.238281 C 133.664062 97.238281 133.660156 97.238281 133.652344 97.238281 C 133.207031 97.285156 132.777344 97.332031 132.339844 97.375 C 132 97.410156 131.648438 97.449219 131.316406 97.484375 C 130.546875 97.601562 129.800781 97.71875 129.070312 97.828125 C 127.6875 98.019531 126.417969 98.332031 125.210938 98.59375 C 124.425781 94.253906 124.429688 89.746094 125.320312 85.328125 C 125.566406 84.117188 125.875 82.925781 126.214844 81.746094 C 125.761719 81.8125 125.304688 81.878906 124.84375 81.949219 C 124.488281 83.207031 124.167969 84.480469 123.90625 85.769531 C 123.015625 90.171875 123.046875 94.640625 123.855469 98.953125 C 121.785156 99.542969 120.046875 100.367188 118.640625 101.121094 C 116.972656 102.011719 115.800781 102.941406 114.996094 103.5625 C 114.25 104.234375 113.851562 104.589844 113.851562 104.589844 C 113.789062 104.648438 113.78125 104.746094 113.84375 104.808594 C 113.898438 104.875 113.996094 104.886719 114.058594 104.828125 C 114.058594 104.828125 114.46875 104.480469 115.230469 103.832031 C 116.03125 103.253906 117.203125 102.375 118.867188 101.542969 C 120.519531 100.71875 122.605469 99.785156 125.125 99.300781 C 126.40625 99.066406 127.769531 98.757812 129.207031 98.605469 C 129.925781 98.511719 130.664062 98.414062 131.417969 98.3125 C 132.175781 98.246094 132.957031 98.179688 133.75 98.105469 C 136.933594 97.824219 140.398438 97.730469 144.0625 97.753906 C 147.726562 97.78125 151.589844 97.980469 155.578125 98.246094 " fill-opacity="1" fill-rule="nonzero"/></svg>