<svg xmlns="http://www.w3.org/2000/svg" xmlns:xlink="http://www.w3.org/1999/xlink" width="500" zoomAndPan="magnify" viewBox="0 0 375 374.999991" height="500" preserveAspectRatio="xMidYMid meet" version="1.0"><path fill="#1e0b18" d="M 168.132812 104.5 C 168.132812 104.5 132.578125 80.335938 101.382812 41.539062 C 91.105469 28.828125 70.113281 32.820312 59.984375 45.601562 C 59.765625 45.824219 59.617188 46.046875 59.394531 46.34375 C 54.292969 52.992188 50.597656 60.53125 48.085938 68.511719 C 41.503906 89.351562 28.050781 143.667969 54.515625 176.921875 Z M 168.132812 104.5 " fill-opacity="1" fill-rule="nonzero"/><path fill="#ffffff" d="M 133.09375 132.359375 L 85.339844 161.550781 L 70.925781 170.34375 C 52.890625 138.050781 58.285156 102.210938 61.019531 89.796875 C 61.832031 86.027344 63.3125 82.332031 65.53125 79.226562 C 66.492188 77.824219 67.527344 76.714844 68.488281 75.753906 C 72.921875 71.617188 79.945312 72.945312 82.902344 78.191406 C 83.195312 78.785156 83.566406 79.300781 83.863281 79.894531 C 100.714844 107.828125 133.09375 132.359375 133.09375 132.359375 Z M 133.09375 132.359375 " fill-opacity="1" fill-rule="nonzero"/><path fill="#c66c93" d="M 133.09375 132.359375 L 85.339844 161.550781 C 72.625 131.84375 77.355469 101.175781 79.796875 89.867188 C 80.535156 86.320312 81.867188 82.847656 83.9375 79.820312 C 100.714844 107.828125 133.09375 132.359375 133.09375 132.359375 Z M 133.09375 132.359375 " fill-opacity="1" fill-rule="nonzero"/><path fill="#1e0b18" d="M 206.941406 104.5 C 206.941406 104.5 242.496094 80.335938 273.691406 41.539062 C 283.894531 28.828125 304.960938 32.820312 315.089844 45.601562 C 315.308594 45.824219 315.457031 46.046875 315.679688 46.34375 C 320.78125 52.992188 324.476562 60.53125 326.988281 68.511719 C 333.566406 89.351562 347.023438 143.667969 320.558594 176.921875 Z M 206.941406 104.5 " fill-opacity="1" fill-rule="nonzero"/><path fill="#ffffff" d="M 241.90625 132.359375 L 289.660156 161.550781 L 304.074219 170.34375 C 322.109375 138.050781 316.714844 102.210938 313.980469 89.796875 C 313.167969 86.027344 311.6875 82.332031 309.46875 79.226562 C 308.507812 77.824219 307.472656 76.714844 306.511719 75.753906 C 302.078125 71.617188 295.054688 72.945312 292.097656 78.191406 C 291.804688 78.785156 291.433594 79.300781 291.136719 79.894531 C 274.355469 107.828125 241.90625 132.359375 241.90625 132.359375 Z M 241.90625 132.359375 " fill-opacity="1" fill-rule="nonzero"/><path fill="#c66c93" d="M 241.90625 132.359375 L 289.660156 161.550781 C 302.375 131.84375 297.644531 101.175781 295.203125 89.867188 C 294.464844 86.320312 293.132812 82.847656 291.0625 79.820312 C 274.355469 107.828125 241.90625 132.359375 241.90625 132.359375 Z M 241.90625 132.359375 " fill-opacity="1" fill-rule="nonzero"/><path fill="#1e0b18" d="M 319.449219 156.082031 C 304.8125 128.371094 280.195312 107.160156 250.554688 97.039062 C 233.554688 91.199219 212.484375 86.839844 187.425781 86.839844 C 161.109375 86.839844 139.15625 91.644531 121.785156 97.925781 C 93.175781 108.195312 69.667969 129.183594 55.476562 156.082031 C 46.605469 172.859375 37.21875 192.144531 29.605469 208.253906 C 15.78125 237.445312 24.132812 272.621094 50.15625 291.910156 C 103.15625 331.078125 187.425781 329.082031 187.425781 329.082031 C 187.425781 329.082031 271.695312 331.152344 324.699219 291.910156 C 350.71875 272.695312 359.070312 237.519531 345.246094 208.253906 C 337.707031 192.070312 328.320312 172.785156 319.449219 156.082031 Z M 319.449219 156.082031 " fill-opacity="1" fill-rule="nonzero"/><path fill="#1e0b18" d="M 343.546875 204.5625 C 343.546875 204.5625 353.230469 222.148438 365.207031 234.269531 C 373.632812 242.839844 374.816406 256.585938 367.425781 266.117188 C 362.546875 272.402344 353.824219 277.128906 338.375 276.316406 C 338.375 276.316406 338.742188 277.574219 338.964844 279.714844 C 340.296875 294.125 328.617188 306.394531 314.128906 306.46875 C 303.777344 306.542969 290.769531 302.921875 284.042969 286.589844 Z M 343.546875 204.5625 " fill-opacity="1" fill-rule="nonzero"/><path fill="#1e0b18" d="M 31.453125 204.5625 C 31.453125 204.5625 21.769531 222.148438 9.792969 234.269531 C 1.367188 242.839844 0.183594 256.585938 7.574219 266.117188 C 12.453125 272.402344 21.175781 277.128906 36.625 276.316406 C 36.625 276.316406 36.257812 277.574219 36.035156 279.714844 C 34.703125 294.125 46.382812 306.394531 60.871094 306.46875 C 71.222656 306.542969 84.230469 302.921875 90.957031 286.589844 Z M 31.453125 204.5625 " fill-opacity="1" fill-rule="nonzero"/><path fill="#1e0b18" d="M 187.5 296.859375 L 71.296875 304.84375 C 71.296875 304.84375 105.078125 343.789062 134.867188 338.910156 C 137.382812 338.464844 139.746094 337.433594 141.59375 335.730469 C 143.886719 333.664062 146.105469 330.117188 145.957031 324.277344 C 145.957031 324.277344 150.6875 333.957031 165.691406 340.238281 C 179.589844 346.078125 195.410156 346.078125 209.308594 340.238281 C 224.3125 333.957031 229.042969 324.277344 229.042969 324.277344 C 228.894531 330.117188 231.113281 333.664062 233.40625 335.730469 C 235.253906 337.433594 237.617188 338.464844 240.132812 338.910156 C 269.921875 343.789062 303.703125 304.84375 303.703125 304.84375 Z M 187.5 296.859375 " fill-opacity="1" fill-rule="nonzero"/><path fill="#f6ba4f" d="M 155.121094 233.53125 C 155.121094 233.53125 160.296875 181.800781 114.023438 171.972656 C 103.527344 169.753906 92.585938 170.417969 82.902344 174.925781 C 72.921875 179.582031 62.054688 189.117188 58.433594 208.476562 C 58.433594 208.476562 63.089844 222.667969 79.574219 234.785156 C 96.429688 247.125 118.457031 250.746094 138.34375 244.246094 C 144.996094 242.027344 151.277344 238.703125 155.121094 233.53125 Z M 155.121094 233.53125 " fill-opacity="1" fill-rule="nonzero"/><path fill="#7d5076" d="M 144.402344 221.558594 C 144.402344 230.128906 141.890625 238.109375 137.675781 244.394531 C 119.34375 250.230469 99.238281 247.421875 83.125 237.152344 C 81.203125 232.421875 80.167969 227.246094 80.167969 221.707031 C 80.09375 201.160156 94.433594 184.535156 112.175781 184.460938 C 129.914062 184.386719 144.328125 201.085938 144.402344 221.558594 Z M 144.402344 221.558594 " fill-opacity="1" fill-rule="nonzero"/><path fill="#ffffff" d="M 135.3125 214.683594 C 123.707031 214.683594 114.316406 224.144531 114.390625 235.746094 C 114.390625 224.144531 104.929688 214.757812 93.324219 214.832031 C 104.929688 214.832031 114.316406 205.375 114.242188 193.773438 C 114.242188 205.300781 123.707031 214.683594 135.3125 214.683594 Z M 135.3125 214.683594 " fill-opacity="1" fill-rule="nonzero"/><path fill="#f6ba4f" d="M 219.953125 233.53125 C 219.953125 233.53125 214.777344 181.800781 261.050781 171.972656 C 271.546875 169.753906 282.488281 170.417969 292.171875 174.925781 C 302.152344 179.582031 313.019531 189.117188 316.640625 208.476562 C 316.640625 208.476562 311.984375 222.667969 295.5 234.785156 C 278.644531 247.125 256.617188 250.746094 236.730469 244.246094 C 230.003906 242.027344 223.722656 238.703125 219.953125 233.53125 Z M 219.953125 233.53125 " fill-opacity="1" fill-rule="nonzero"/><path fill="#7d5076" d="M 230.671875 221.558594 C 230.671875 230.128906 233.183594 238.109375 237.398438 244.394531 C 255.730469 250.230469 275.835938 247.421875 291.949219 237.152344 C 293.871094 232.421875 294.90625 227.246094 294.90625 221.707031 C 294.980469 201.160156 280.640625 184.535156 262.898438 184.460938 C 245.160156 184.386719 230.671875 201.085938 230.671875 221.558594 Z M 230.671875 221.558594 " fill-opacity="1" fill-rule="nonzero"/><path fill="#ffffff" d="M 239.761719 214.683594 C 251.367188 214.683594 260.757812 224.144531 260.683594 235.746094 C 260.683594 224.144531 270.144531 214.757812 281.75 214.832031 C 270.144531 214.832031 260.757812 205.375 260.828125 193.773438 C 260.757812 205.300781 251.367188 214.683594 239.761719 214.683594 Z M 239.761719 214.683594 " fill-opacity="1" fill-rule="nonzero"/><path fill="#c66c93" d="M 206.128906 231.902344 C 205.683594 229.023438 203.761719 226.582031 201.027344 225.546875 C 198.144531 224.367188 193.636719 223.183594 187.5 223.183594 C 181.289062 223.183594 176.855469 224.367188 173.972656 225.546875 C 171.3125 226.65625 169.316406 229.023438 168.871094 231.902344 C 168.871094 232.125 168.796875 232.273438 168.796875 232.496094 C 168.429688 235.375 169.683594 238.332031 172.050781 240.03125 C 178.851562 244.984375 187.5 249.269531 187.5 249.269531 C 187.5 249.269531 195.925781 245.058594 202.726562 240.179688 C 205.316406 238.332031 206.570312 235.230469 206.128906 232.050781 C 206.128906 232.050781 206.128906 231.976562 206.128906 231.902344 Z M 206.128906 231.902344 " fill-opacity="1" fill-rule="nonzero"/><path fill="#ffffff" d="M 212.929688 263.238281 C 210.339844 264.789062 206.351562 266.710938 200.730469 268.410156 L 199.550781 259.617188 C 199.328125 257.84375 200.289062 256.144531 201.914062 255.402344 C 202.285156 255.253906 202.652344 255.109375 203.023438 255.109375 C 204.28125 254.960938 205.609375 255.402344 206.496094 256.363281 Z M 212.929688 263.238281 " fill-opacity="1" fill-rule="nonzero"/><path fill="#7d5076" d="M 215.292969 261.167969 C 212.335938 265.972656 206.054688 268.632812 200.214844 270.183594 C 191.863281 272.328125 183.066406 272.328125 174.710938 270.183594 C 168.871094 268.707031 162.664062 265.972656 159.632812 261.167969 C 159.632812 261.167969 168.28125 267.300781 187.425781 267.375 C 192.15625 267.375 196.222656 267.003906 199.695312 266.414062 C 205.019531 265.527344 208.9375 264.273438 211.449219 263.164062 C 214.113281 262.054688 215.292969 261.167969 215.292969 261.167969 Z M 215.292969 261.167969 " fill-opacity="1" fill-rule="nonzero"/><path fill="#ffffff" d="M 116.609375 159.628906 C 122.300781 161.921875 130.0625 164.359375 138.269531 165.171875 C 145.4375 165.835938 151.945312 160.367188 152.019531 153.125 C 152.019531 152.832031 152.019531 152.535156 152.019531 152.238281 C 151.871094 148.101562 149.429688 144.332031 145.882812 142.261719 C 141.300781 139.601562 133.316406 136.128906 122.003906 135.464844 C 117.644531 135.242188 113.429688 137.089844 110.917969 140.636719 C 110.84375 140.710938 110.84375 140.785156 110.769531 140.859375 C 106.1875 147.511719 109.144531 156.601562 116.609375 159.628906 Z M 116.609375 159.628906 " fill-opacity="1" fill-rule="nonzero"/><path fill="#ffffff" d="M 258.464844 159.628906 C 252.773438 161.921875 245.011719 164.359375 236.804688 165.171875 C 229.636719 165.835938 223.128906 160.367188 223.054688 153.125 C 223.054688 152.832031 223.054688 152.535156 223.054688 152.238281 C 223.203125 148.101562 225.644531 144.332031 229.191406 142.261719 C 233.773438 139.601562 241.757812 136.128906 253.066406 135.464844 C 257.429688 135.242188 261.644531 137.089844 264.15625 140.636719 C 264.230469 140.710938 264.230469 140.785156 264.304688 140.859375 C 268.8125 147.511719 265.855469 156.601562 258.464844 159.628906 Z M 258.464844 159.628906 " fill-opacity="1" fill-rule="nonzero"/></svg>