<svg xmlns="http://www.w3.org/2000/svg" xmlns:xlink="http://www.w3.org/1999/xlink" width="500" zoomAndPan="magnify" viewBox="0 0 375 374.999991" height="500" preserveAspectRatio="xMidYMid meet" version="1.0"><defs><clipPath id="a9207d4b7c"><path d="M 10.714844 36.917969 L 362.691406 36.917969 L 362.691406 338.164062 L 10.714844 338.164062 Z M 10.714844 36.917969 " clip-rule="nonzero"/></clipPath></defs><rect x="-37.5" width="450" fill="#ffffff" y="-37.499999" height="449.999989" fill-opacity="1"/><rect x="-37.5" width="450" fill="#ffffff" y="-37.499999" height="449.999989" fill-opacity="1"/><path fill="#9ba3eb" d="M 164.085938 312.058594 C 155.085938 315.664062 144.914062 314.941406 135.914062 311.339844 L 136.003906 311.066406 C 128.265625 307.824219 122.777344 299.265625 122.867188 290.613281 C 122.957031 280.074219 130.246094 270.433594 139.605469 265.566406 C 147.527344 261.601562 157.152344 260.613281 165.433594 263.855469 C 173.710938 267.011719 180.375 274.578125 181.8125 283.316406 C 183.703125 295.300781 175.332031 307.464844 164.085938 312.058594 " fill-opacity="1" fill-rule="nonzero"/><path fill="#9ba3eb" d="M 298.355469 74.644531 L 297.367188 73.742188 C 304.207031 67.074219 313.925781 63.199219 323.464844 64.101562 C 338.226562 65.542969 351.1875 78.15625 352.804688 92.933594 C 354.425781 107.710938 344.523438 122.9375 330.308594 127.351562 C 316.175781 131.765625 299.347656 124.738281 292.597656 111.492188 C 286.476562 99.601562 289.179688 84.015625 298.355469 74.644531 " fill-opacity="1" fill-rule="nonzero"/><g clip-path="url(#a9207d4b7c)"><path fill="#25309b" d="M 219.285156 245.160156 C 184.644531 240.097656 149.996094 235.117188 115.328125 230.285156 C 123.703125 197.789062 132.003906 165.277344 140.15625 132.722656 C 172.753906 138.152344 205.375 143.4375 238.03125 148.496094 C 231.246094 180.558594 225.257812 212.910156 219.285156 245.160156 Z M 358.667969 154.640625 C 323.992188 148.816406 289.25 143.378906 254.460938 138.207031 C 259.292969 111.035156 263.449219 83.835938 266.410156 56.628906 C 266.765625 53.382812 261.734375 52.921875 260.871094 55.878906 C 253.179688 82.238281 246.613281 109.082031 240.683594 136.167969 C 208.066406 131.382812 175.410156 126.828125 142.738281 122.410156 C 149.460938 95.472656 156.078125 68.511719 162.558594 41.507812 C 163.664062 36.882812 156.734375 34.949219 155.429688 39.542969 C 147.734375 66.683594 140.183594 93.859375 132.738281 121.0625 C 105 117.339844 77.246094 113.703125 49.496094 110.113281 C 45.523438 109.597656 44.566406 116.480469 48.542969 117.164062 C 75.683594 121.847656 102.84375 126.484375 130.019531 131.03125 C 121.152344 163.550781 112.429688 196.105469 103.785156 228.683594 C 74.25 224.597656 44.699219 220.617188 15.125 216.789062 C 10.125 216.144531 8.910156 224.84375 13.925781 225.671875 C 42.894531 230.453125 71.886719 235.082031 100.890625 239.605469 C 95.703125 259.203125 90.539062 278.8125 85.386719 298.421875 C 83.441406 305.828125 94.90625 308.988281 96.835938 301.582031 C 102.0625 281.523438 107.273438 261.46875 112.457031 241.40625 C 147.300781 246.804688 182.167969 252.054688 217.046875 257.214844 C 212.496094 281.726562 207.898438 306.148438 202.902344 330.3125 C 201.265625 338.214844 213.480469 341.550781 214.984375 333.644531 C 219.695312 308.882812 224.878906 284.042969 230.132812 259.144531 C 267.476562 264.648438 304.832031 270.058594 342.195312 275.453125 C 349.722656 276.542969 353.007812 265.027344 345.378906 263.886719 C 307.816406 258.257812 270.25 252.644531 232.671875 247.125 C 239.457031 215.046875 246.25 182.882812 252.207031 150.671875 C 287.148438 156.011719 322.132812 161.085938 357.160156 165.777344 C 363.429688 166.617188 364.957031 155.695312 358.667969 154.640625 " fill-opacity="1" fill-rule="nonzero"/></g><path fill="#25309b" d="M 170.082031 111.53125 C 178.320312 103.003906 186.785156 94.539062 195.984375 87.015625 C 196.105469 87.199219 196.226562 87.378906 196.34375 87.554688 C 204.054688 99.308594 211.519531 111.816406 220.980469 122.230469 C 224.78125 126.417969 231.382812 121.054688 228.671875 116.289062 C 221.640625 103.925781 212.453125 92.507812 204.269531 80.777344 C 213.230469 74.65625 222.847656 69.75 231.683594 63.46875 C 235.96875 60.421875 233.570312 52.265625 227.828125 54.304688 C 217.550781 57.949219 207.449219 63.972656 198.050781 71.257812 C 192.832031 62.769531 187.5625 53.742188 179.808594 48.042969 C 177.859375 46.609375 175.828125 48.96875 176.148438 50.859375 C 177.742188 60.261719 183.851562 69.554688 189.820312 78.105469 C 179.828125 86.996094 170.917969 97.050781 163.847656 106.71875 C 161.160156 110.398438 167.003906 114.71875 170.082031 111.53125 " fill-opacity="1" fill-rule="nonzero"/><path fill="#25309b" d="M 327.417969 188.714844 C 327.738281 188.175781 328.0625 187.636719 328.382812 187.097656 C 331.011719 182.695312 325.753906 177.382812 321.339844 180.046875 C 311.417969 186.039062 301.382812 192.707031 291.625 199.886719 C 284.96875 189.199219 278.648438 177.722656 269.570312 169.089844 C 267.765625 167.371094 264.398438 169.058594 265.222656 171.625 C 269.15625 183.910156 276.996094 194.824219 283.84375 205.769531 C 271.597656 215.289062 259.972656 225.59375 249.773438 236.367188 C 246.535156 239.785156 250.9375 246.292969 255.046875 243.207031 C 266.882812 234.339844 278.578125 225.3125 290.296875 216.3125 C 296.859375 227.042969 303.457031 237.746094 310.046875 248.453125 C 313.644531 254.308594 322.96875 248.863281 319.261719 243.0625 C 312.261719 232.113281 305.273438 221.152344 298.242188 210.222656 C 306.800781 203.679688 315.390625 197.175781 324.070312 190.773438 C 325.402344 190.625 326.683594 189.945312 327.417969 188.714844 " fill-opacity="1" fill-rule="nonzero"/><path fill="#25309b" d="M 328.800781 69.699219 C 345.414062 75.355469 352.863281 94.988281 343.921875 110.066406 C 335.441406 124.367188 317.59375 127.296875 304.753906 117.085938 C 290.441406 105.703125 293.976562 87.175781 305.671875 75.636719 C 306.761719 74.5625 307.226562 73.246094 307.230469 71.933594 C 313.300781 68.242188 320.410156 66.839844 328.800781 69.699219 Z M 294.394531 123.722656 C 310.785156 139.070312 337.84375 136.304688 350.65625 117.964844 C 363.960938 98.921875 356.292969 72.71875 335.292969 63.035156 C 319.5 55.746094 296.425781 62.246094 288.394531 78.160156 C 280.121094 92.429688 281.585938 111.722656 294.394531 123.722656 " fill-opacity="1" fill-rule="nonzero"/><path fill="#25309b" d="M 40.269531 196.675781 C 49.347656 189.5 58.601562 182.839844 68.023438 176.476562 C 74.640625 185.941406 81.472656 195.195312 87.980469 204.167969 C 91.695312 209.292969 100.242188 204.570312 96.628906 199.109375 C 90.40625 189.703125 84.042969 179.917969 77.410156 170.265625 C 88.105469 163.328125 99.015625 156.6875 110.140625 150.070312 C 116.078125 146.535156 110.882812 138.097656 104.8125 140.941406 C 93.074219 146.429688 81.71875 153.300781 70.980469 161.089844 C 63.800781 151.074219 56.28125 141.386719 48.25 132.632812 C 45.734375 129.890625 41.742188 133.378906 43.304688 136.453125 C 48.691406 147.066406 55.179688 157.5625 62.097656 167.851562 C 52.65625 175.375 43.78125 183.5625 35.660156 192.066406 C 32.6875 195.179688 37.054688 199.21875 40.269531 196.675781 " fill-opacity="1" fill-rule="nonzero"/><path fill="#25309b" d="M 168.476562 302.929688 C 157.984375 311.960938 145.296875 309.082031 133.921875 304.324219 C 125.851562 297.242188 125.992188 283.980469 134.382812 275.324219 C 143.507812 265.917969 159.925781 263.382812 169.980469 272.820312 C 179.234375 281.503906 177.675781 295.007812 168.476562 302.929688 Z M 169.355469 260.09375 C 151.503906 251.820312 128.523438 260.769531 120.519531 278.640625 C 116 288.734375 117.691406 299.621094 123.734375 307.113281 C 123.195312 309.109375 123.8125 311.378906 126.257812 312.925781 C 143.199219 323.613281 167.980469 322.390625 180.597656 305.691406 C 192.386719 290.09375 187.222656 268.367188 169.355469 260.09375 " fill-opacity="1" fill-rule="nonzero"/></svg>