<svg xmlns="http://www.w3.org/2000/svg" xmlns:xlink="http://www.w3.org/1999/xlink" width="1920" zoomAndPan="magnify" viewBox="0 0 1440 809.999993" height="1080" preserveAspectRatio="xMidYMid meet" version="1.0"><defs><g/><clipPath id="a3c0dc56f7"><path d="M 598.25 482 L 627 482 L 627 520 L 598.25 520 Z M 598.25 482 " clip-rule="nonzero"/></clipPath><clipPath id="1860a5208d"><path d="M 794.242188 515.191406 L 842 515.191406 L 842 521.070312 L 794.242188 521.070312 Z M 794.242188 515.191406 " clip-rule="nonzero"/></clipPath><clipPath id="215ef3bd27"><path d="M 793.660156 497 L 842 497 L 842 518.671875 L 793.660156 518.671875 Z M 793.660156 497 " clip-rule="nonzero"/></clipPath><clipPath id="caacf2c767"><path d="M 752 288.578125 L 782 288.578125 L 782 314 L 752 314 Z M 752 288.578125 " clip-rule="nonzero"/></clipPath></defs><rect x="-144" width="1728" fill="#ffffff" y="-80.999999" height="971.999992" fill-opacity="1"/><rect x="-144" width="1728" fill="#ffffff" y="-80.999999" height="971.999992" fill-opacity="1"/><path fill="#8c514f" d="M 784.925781 388.101562 C 782.132812 393.011719 779.339844 397.917969 776.550781 402.820312 C 774.785156 405.921875 773.023438 409.019531 771.257812 412.121094 C 767.859375 415.800781 764.457031 419.480469 761.0625 423.15625 C 752.894531 422.007812 744.71875 420.851562 736.550781 419.699219 C 736.117188 408.875 735.679688 398.058594 735.25 387.238281 C 740.886719 383.058594 746.527344 378.871094 752.171875 374.691406 C 752.574219 376.640625 752.984375 378.585938 753.386719 380.535156 C 754.429688 385.507812 755.464844 390.484375 756.503906 395.464844 C 761.203125 388.324219 765.910156 381.183594 770.609375 374.042969 C 771.679688 373.785156 775.566406 372.976562 779.28125 375.121094 C 783.46875 377.535156 785.730469 382.695312 784.925781 388.101562 " fill-opacity="1" fill-rule="nonzero"/><path fill="#703e3b" d="M 776.550781 402.820312 C 774.785156 405.921875 773.023438 409.019531 771.257812 412.121094 C 767.859375 415.800781 764.457031 419.480469 761.0625 423.15625 C 752.894531 422.007812 744.71875 420.851562 736.550781 419.699219 C 736.117188 408.875 735.679688 398.058594 735.25 387.238281 C 740.886719 383.058594 746.527344 378.871094 752.171875 374.691406 C 752.574219 376.640625 752.984375 378.585938 753.386719 380.535156 C 751.457031 381.164062 749.339844 381.332031 747.582031 383.65625 C 746.203125 385.472656 745.011719 388.660156 745.792969 391.609375 C 746.457031 394.113281 748.128906 394.859375 747.90625 397.125 C 747.707031 399.183594 746.144531 400.496094 746.605469 401.019531 C 747.140625 401.628906 749.292969 399.960938 750.1875 400.695312 C 751.117188 401.460938 749.410156 403.839844 750.1875 404.753906 C 751.339844 406.105469 756.65625 402.75 764.828125 399.882812 C 770.582031 397.871094 773.484375 396.890625 775.078125 398.097656 C 776.210938 398.964844 776.625 400.691406 776.550781 402.820312 " fill-opacity="1" fill-rule="nonzero"/><path fill="#9c7f7e" d="M 778.089844 390.84375 C 778.84375 391.078125 779.207031 392.007812 779.015625 392.757812 C 778.828125 393.492188 778.085938 394.152344 777.28125 393.992188 C 776.457031 393.828125 776.011719 392.890625 776.167969 392.121094 C 776.34375 391.265625 777.265625 390.585938 778.089844 390.84375 " fill-opacity="1" fill-rule="nonzero"/><path fill="#9c7f7e" d="M 775.835938 395.832031 C 776.589844 396.066406 776.953125 396.992188 776.757812 397.746094 C 776.570312 398.476562 775.828125 399.140625 775.023438 398.980469 C 774.199219 398.816406 773.753906 397.878906 773.914062 397.105469 C 774.085938 396.253906 775.011719 395.574219 775.835938 395.832031 " fill-opacity="1" fill-rule="nonzero"/><path fill="#9c7f7e" d="M 773.207031 400.464844 C 773.960938 400.699219 774.324219 401.625 774.132812 402.378906 C 773.945312 403.109375 773.203125 403.773438 772.398438 403.613281 C 771.574219 403.449219 771.128906 402.507812 771.285156 401.738281 C 771.460938 400.886719 772.382812 400.203125 773.207031 400.464844 " fill-opacity="1" fill-rule="nonzero"/><path fill="#464a61" d="M 601.59375 482.878906 C 601.238281 485.488281 601.003906 488.511719 601.054688 491.875 C 601.097656 494.488281 601.308594 496.882812 601.597656 499.015625 C 601.566406 501.101562 601.625 503.347656 601.816406 505.722656 C 602.195312 510.511719 603.023438 514.757812 603.980469 518.367188 C 611.28125 518.367188 618.585938 518.367188 625.886719 518.367188 C 625.820312 517.195312 625.644531 515.796875 625.238281 514.257812 C 624.984375 513.289062 624.679688 512.417969 624.371094 511.660156 C 622.996094 511.082031 621.621094 510.503906 620.25 509.925781 C 619.597656 507.570312 619.003906 505.042969 618.511719 502.355469 C 617.121094 494.738281 616.914062 487.832031 617.210938 482.015625 C 615.726562 481.433594 613.394531 480.738281 610.488281 480.71875 C 606.332031 480.6875 603.179688 482.054688 601.59375 482.878906 " fill-opacity="1" fill-rule="nonzero"/><path fill="#242633" d="M 633.890625 488.941406 C 628.683594 487.480469 623.476562 486.019531 618.269531 484.558594 C 612.039062 483.664062 610.183594 484.308594 609.808594 485.207031 C 609.359375 486.285156 611.097656 487.605469 611.925781 491.210938 C 612.234375 492.558594 612.296875 493.714844 612.300781 494.523438 C 618.535156 496.152344 624.769531 497.777344 631.003906 499.40625 C 631.964844 495.917969 632.925781 492.429688 633.890625 488.941406 " fill-opacity="1" fill-rule="nonzero"/><path fill="#5b5f78" d="M 611.597656 493.160156 C 610.820312 494.5 609.992188 496.265625 609.460938 498.429688 C 608.125 503.886719 609.480469 508.511719 610.273438 510.644531 C 612.035156 510.324219 614.144531 510.058594 616.539062 509.992188 C 617.363281 509.96875 618.152344 509.96875 618.898438 509.992188 C 618.503906 508.652344 618.039062 506.457031 618.296875 503.765625 C 618.601562 500.546875 619.789062 498.164062 620.546875 496.890625 C 619.40625 496.34375 618.210938 495.800781 616.96875 495.269531 C 615.117188 494.476562 613.324219 493.777344 611.597656 493.160156 " fill-opacity="1" fill-rule="nonzero"/><g clip-path="url(#a3c0dc56f7)"><path fill="#242633" d="M 602.898438 482.351562 C 602.636719 482.28125 602.015625 482.144531 601.273438 482.351562 C 600.597656 482.542969 600.164062 482.917969 599.972656 483.109375 C 599.402344 484.851562 598.839844 487.082031 598.5625 489.710938 C 598.277344 492.367188 598.367188 494.691406 598.5625 496.527344 C 599.105469 496.960938 599.644531 497.390625 600.1875 497.824219 C 600.136719 498.921875 600.125 500.117188 600.1875 501.394531 C 600.230469 502.3125 600.308594 503.175781 600.40625 503.992188 C 599.972656 504.964844 599.539062 505.941406 599.105469 506.914062 C 599.269531 508.160156 599.484375 509.460938 599.753906 510.808594 C 600.441406 514.207031 601.363281 517.246094 602.355469 519.894531 C 610.277344 519.894531 618.195312 519.894531 626.113281 519.894531 C 626.148438 519.140625 626.183594 518.382812 626.21875 517.625 C 623.992188 517.730469 621.714844 517.804688 619.386719 517.839844 C 614.039062 517.921875 608.933594 517.792969 604.09375 517.515625 C 603.390625 513.746094 602.8125 509.625 602.464844 505.179688 C 601.792969 496.574219 602.144531 488.863281 602.898438 482.351562 " fill-opacity="1" fill-rule="nonzero"/></g><path fill="#5b5f78" d="M 703.578125 500.625 C 703.40625 502.351562 703.152344 503.996094 702.835938 505.558594 C 701.945312 509.960938 700.570312 513.695312 699.238281 516.632812 C 689.839844 517.488281 682.386719 516.976562 677.546875 516.417969 C 663.671875 514.816406 656.679688 511.109375 640.015625 509.492188 C 634.75 508.988281 630.460938 508.871094 627.871094 508.84375 C 627.421875 506.792969 627.101562 504.308594 627.21875 501.488281 C 627.550781 493.003906 631.566406 486.8125 633.730469 483.960938 C 638.503906 484.902344 643.425781 485.773438 648.476562 486.558594 C 653.570312 487.351562 658.574219 488.027344 663.476562 488.597656 C 672.105469 489.597656 680.421875 490.265625 688.394531 490.667969 C 693.523438 491.753906 698.65625 492.835938 703.792969 493.914062 C 703.863281 495.964844 703.816406 498.210938 703.578125 500.625 " fill-opacity="1" fill-rule="nonzero"/><path fill="#464a61" d="M 703.578125 500.625 C 703.40625 502.351562 703.152344 503.996094 702.835938 505.558594 C 701.949219 505.566406 700.988281 505.535156 699.964844 505.421875 C 691.882812 504.578125 689.871094 500.242188 683.917969 500.015625 C 676.902344 499.75 671.335938 505.4375 670.902344 504.773438 C 670.5 504.175781 676.261719 501.191406 676.105469 497.855469 C 675.9375 494.285156 669.066406 491.570312 661.789062 489.628906 C 662.351562 489.285156 662.914062 488.941406 663.476562 488.597656 C 672.105469 489.597656 680.421875 490.265625 688.394531 490.667969 C 693.523438 491.753906 698.65625 492.835938 703.792969 493.914062 C 703.863281 495.964844 703.816406 498.210938 703.578125 500.625 " fill-opacity="1" fill-rule="nonzero"/><g clip-path="url(#1860a5208d)"><path fill="#242633" d="M 794.703125 515.25 C 794.5625 515.515625 794.386719 515.933594 794.3125 516.472656 C 794.222656 517.109375 794.320312 517.628906 794.402344 517.9375 C 796.027344 518.503906 798.203125 519.09375 800.8125 519.347656 C 803.386719 519.597656 805.601562 519.445312 807.285156 519.210938 C 807.902344 518.738281 808.515625 518.261719 809.128906 517.789062 C 809.839844 517.75 810.707031 517.757812 811.679688 517.894531 C 812.898438 518.066406 813.914062 518.386719 814.683594 518.691406 C 815.117188 519.273438 815.546875 519.859375 815.980469 520.441406 C 818.617188 520.839844 821.652344 521.109375 825.007812 521.066406 C 831.769531 520.988281 837.441406 519.6875 841.625 518.339844 C 841.730469 518.132812 841.9375 517.667969 841.894531 517.058594 C 841.839844 516.222656 841.363281 515.683594 841.214844 515.527344 C 825.710938 515.433594 810.207031 515.34375 794.703125 515.25 " fill-opacity="1" fill-rule="nonzero"/></g><g clip-path="url(#215ef3bd27)"><path fill="#464a61" d="M 798.511719 498.003906 C 796.457031 498.703125 794.835938 499.65625 793.664062 500.492188 C 794.109375 501.992188 794.554688 503.488281 795 504.984375 C 794.605469 505.976562 794.203125 507.300781 794.03125 508.886719 C 793.730469 511.640625 794.261719 513.894531 794.703125 515.25 C 796.3125 515.667969 798.105469 516.035156 800.0625 516.292969 C 804.214844 516.839844 807.898438 516.722656 810.867188 516.390625 C 812.652344 516.9375 814.570312 517.425781 816.621094 517.804688 C 826.304688 519.601562 834.8125 518.296875 840.863281 516.660156 C 841.101562 516.386719 841.980469 515.328125 842 513.71875 C 842.015625 512.238281 841.300781 511.222656 841.070312 510.914062 C 837.816406 510.785156 834.5625 510.65625 831.3125 510.527344 C 827.855469 509.441406 824.398438 508.359375 820.945312 507.277344 C 819.175781 506.148438 817.324219 504.863281 815.421875 503.40625 C 812.757812 501.367188 810.433594 499.320312 808.421875 497.375 C 806.476562 497 802.742188 496.5625 798.511719 498.003906 " fill-opacity="1" fill-rule="nonzero"/></g><path fill="#242633" d="M 789.980469 488.234375 C 790.914062 489.664062 791.851562 491.160156 792.777344 492.722656 C 794.585938 495.769531 796.167969 498.730469 797.554688 501.566406 C 797.792969 502.464844 798.652344 505.4375 800.082031 505.539062 C 800.929688 505.601562 801.535156 504.625 803.40625 502.28125 C 804.824219 500.507812 806.050781 499.101562 806.894531 498.164062 C 804.167969 493.21875 801.441406 488.277344 798.71875 483.332031 C 795.804688 484.964844 792.894531 486.601562 789.980469 488.234375 " fill-opacity="1" fill-rule="nonzero"/><path fill="#5b5f78" d="M 809.746094 495.5 C 809.011719 495.929688 807.957031 496.667969 806.964844 497.851562 C 806.082031 498.898438 805.558594 499.929688 805.253906 500.671875 C 805.863281 501.59375 806.574219 502.539062 807.398438 503.484375 C 811.011719 507.625 815.226562 509.890625 818.316406 511.140625 C 819.183594 511.175781 820.691406 511.125 822.378906 510.433594 C 823.597656 509.929688 824.488281 509.261719 825.054688 508.757812 C 823.085938 507.5625 821.113281 506.367188 819.144531 505.175781 C 816.011719 501.949219 812.878906 498.722656 809.746094 495.5 " fill-opacity="1" fill-rule="nonzero"/><path fill="#543130" d="M 740.015625 495 L 735.410156 490.886719 L 703.824219 486.128906 C 701.019531 451.160156 698.214844 416.191406 695.410156 381.222656 C 711.464844 377.90625 727.515625 374.585938 743.570312 371.269531 C 742.703125 377.039062 741.832031 382.808594 740.964844 388.578125 C 740.386719 400.117188 739.808594 411.660156 739.230469 423.199219 C 739.984375 442.878906 740.734375 462.554688 741.488281 482.230469 C 740.996094 486.488281 740.503906 490.742188 740.015625 495 " fill-opacity="1" fill-rule="nonzero"/><path fill="#402523" d="M 741.398438 395.9375 C 738.074219 396.511719 734.75 397.089844 731.421875 397.667969 C 732.289062 403.871094 733.15625 410.074219 734.023438 416.277344 C 736.339844 424.5 738.652344 432.722656 740.964844 440.945312 C 740.53125 444.980469 740.097656 449.019531 739.664062 453.0625 C 734.457031 454.214844 729.253906 455.367188 724.046875 456.523438 C 720.140625 466.1875 716.238281 475.851562 712.332031 485.519531 C 710.308594 454.648438 708.28125 423.777344 706.257812 392.90625 C 716.09375 385.261719 725.925781 377.613281 735.761719 369.96875 C 739.085938 370.980469 742.414062 371.988281 745.738281 373 C 744.347656 377.527344 742.957031 382.050781 741.5625 386.578125 C 741.507812 389.699219 741.453125 392.816406 741.398438 395.9375 " fill-opacity="1" fill-rule="nonzero"/><path fill="#9c7f7e" d="M 738.664062 389.945312 L 740.015625 495 L 743.078125 493.265625 L 740.320312 420.78125 L 744.140625 401.523438 L 742.960938 382.265625 L 738.664062 389.945312 " fill-opacity="1" fill-rule="nonzero"/><path fill="#5b5f78" d="M 806.398438 483.960938 C 804.628906 486.566406 800.613281 491.65625 793.597656 494.5625 C 792.746094 494.917969 791.914062 495.210938 791.109375 495.457031 C 789.226562 496.035156 787.496094 496.347656 786.011719 496.511719 C 782.882812 489.667969 779.425781 482.578125 775.597656 475.308594 C 770.027344 464.734375 764.320312 454.996094 758.679688 446.097656 C 759.109375 445.085938 759.542969 444.078125 759.980469 443.066406 C 758.894531 443.359375 757.804688 443.644531 756.726562 443.929688 C 748.339844 443.203125 739.949219 442.480469 731.5625 441.769531 C 723.824219 441.113281 716.085938 440.464844 708.347656 439.820312 C 707.597656 438.277344 706.589844 435.847656 706.003906 432.738281 C 705.71875 431.21875 705.53125 429.53125 705.53125 427.699219 C 705.515625 420.351562 708.464844 415.003906 709.871094 412.769531 C 722.585938 413.894531 735.835938 415.386719 749.566406 417.3125 C 759.34375 418.699219 768.816406 420.222656 777.980469 421.859375 C 782.398438 431.304688 786.8125 440.820312 791.21875 450.421875 C 796.371094 461.664062 801.429688 472.847656 806.398438 483.960938 " fill-opacity="1" fill-rule="nonzero"/><path fill="#464a61" d="M 777.519531 424.066406 C 777.902344 425.902344 774.167969 429.386719 772.066406 428.933594 C 771.480469 428.808594 771.140625 428.398438 770.199219 428.367188 C 769.25 428.335938 768.519531 428.710938 767.351562 429.339844 C 766.179688 429.96875 765.59375 430.28125 765.316406 430.800781 C 764.691406 431.972656 765.78125 432.824219 765.558594 434.046875 C 765.171875 436.175781 761.339844 436.457031 757.019531 438.914062 C 754.816406 440.167969 753.246094 441.558594 752.300781 442.484375 C 739.476562 441.160156 726.648438 439.835938 713.824219 438.507812 C 711.824219 430.53125 710.496094 420.945312 715.042969 417.574219 C 718.605469 414.933594 723.605469 417.703125 731.640625 420.007812 C 756.625 427.175781 776.675781 420.027344 777.519531 424.066406 " fill-opacity="1" fill-rule="nonzero"/><path fill="#464a61" d="M 791.109375 495.457031 C 789.226562 496.035156 787.496094 496.347656 786.011719 496.511719 C 782.882812 489.667969 779.425781 482.578125 775.597656 475.308594 C 770.027344 464.734375 764.320312 454.996094 758.679688 446.097656 C 759.109375 445.085938 759.542969 444.078125 759.980469 443.066406 C 758.894531 443.359375 757.804688 443.644531 756.726562 443.929688 C 748.339844 443.203125 739.949219 442.480469 731.5625 441.769531 C 723.824219 441.113281 716.085938 440.464844 708.347656 439.820312 C 707.597656 438.277344 706.589844 435.847656 706.003906 432.738281 C 708.5625 432.589844 713.351562 433.964844 723.535156 435.277344 C 738.710938 437.230469 741.992188 435.964844 747.613281 439.171875 C 749.359375 440.171875 751.121094 441.480469 753.6875 441.332031 C 757.945312 441.09375 760.980469 437.011719 763.449219 438.308594 C 764.238281 438.722656 764.523438 439.449219 765.617188 439.605469 C 766.683594 439.753906 767.417969 439.214844 768.441406 438.738281 C 770.671875 437.695312 773.542969 437.300781 773.863281 437.871094 C 774.367188 438.78125 767.921875 441.183594 766.917969 446.3125 C 766.789062 446.980469 767.269531 449.136719 768.21875 453.453125 C 769.234375 458.042969 769.789062 459.582031 771.042969 461.027344 C 772.167969 462.332031 772.964844 462.519531 774.078125 463.402344 C 777.078125 465.78125 777.484375 469.246094 778.632812 474.011719 C 780.890625 483.351562 782.191406 488.773438 786.441406 492.402344 C 788.476562 494.140625 790.253906 494.667969 791.109375 495.457031 " fill-opacity="1" fill-rule="nonzero"/><path fill="#34374a" d="M 714.5 439.644531 C 732.257812 441.558594 741.222656 441.992188 741.398438 440.945312 C 741.582031 439.875 732.6875 437.28125 714.71875 433.152344 C 714.644531 435.316406 714.574219 437.480469 714.5 439.644531 " fill-opacity="1" fill-rule="nonzero"/><path fill="#b3cfe6" d="M 741.753906 380.53125 C 740.09375 380.242188 738.429688 379.957031 736.765625 379.667969 C 728.667969 388.609375 720.570312 397.554688 712.46875 406.5 C 708.492188 397.121094 704.515625 387.746094 700.539062 378.367188 C 706.398438 370.652344 712.253906 362.933594 718.109375 355.214844 C 728.234375 357.8125 738.355469 360.410156 748.480469 363.007812 C 746.238281 368.847656 743.996094 374.691406 741.753906 380.53125 " fill-opacity="1" fill-rule="nonzero"/><path fill="#8c514f" d="M 716.375 384.75 L 714.34375 499.109375 C 712.679688 499.78125 710.511719 500.472656 707.914062 500.839844 C 703.953125 501.40625 700.613281 500.992188 698.371094 500.527344 C 689.835938 497.53125 681.304688 494.53125 672.773438 491.535156 C 665.613281 489.085938 658.457031 486.632812 651.296875 484.179688 C 652.382812 482.375 653.464844 480.574219 654.550781 478.769531 C 654.765625 475.597656 654.984375 472.421875 655.203125 469.25 C 653.171875 460.832031 651.265625 451.953125 649.5625 442.632812 C 647.386719 430.742188 645.761719 419.386719 644.570312 408.660156 C 649.816406 398.558594 657.210938 386.417969 667.566406 373.824219 C 678.929688 360.003906 690.503906 349.71875 700.105469 342.332031 L 716.375 357.378906 L 716.375 384.75 " fill-opacity="1" fill-rule="nonzero"/><path fill="#703e3b" d="M 705.605469 426.445312 C 707.566406 436.152344 709.390625 446.257812 711.03125 456.738281 C 712.183594 464.109375 713.191406 471.328125 714.066406 478.378906 C 714.210938 471.164062 714.355469 463.953125 714.5 456.738281 C 713.851562 448.011719 713.199219 439.285156 712.550781 430.558594 C 710.234375 429.1875 707.921875 427.816406 705.605469 426.445312 " fill-opacity="1" fill-rule="nonzero"/><path fill="#703e3b" d="M 712.441406 434.453125 C 704.113281 428.585938 697.972656 423.117188 693.894531 419.195312 C 686.136719 411.742188 684.3125 407.945312 678.273438 405.890625 C 669.082031 402.757812 659.851562 406.707031 659.617188 405.671875 C 659.574219 405.476562 659.824219 404.976562 667.210938 401.996094 C 672.796875 399.742188 674.480469 399.289062 675.671875 398.75 C 682.695312 395.558594 683.148438 384.40625 686.410156 370.835938 C 687.886719 364.695312 690.410156 356.085938 694.976562 345.953125 C 700.691406 347.753906 706.402344 349.558594 712.113281 351.363281 C 713.488281 357.707031 714.863281 364.054688 716.238281 370.402344 C 714.972656 391.753906 713.707031 413.101562 712.441406 434.453125 " fill-opacity="1" fill-rule="nonzero"/><path fill="#9c7f7e" d="M 718.621094 373.675781 L 714.34375 499.109375 L 711.550781 500.066406 C 712.246094 490.671875 712.941406 481.28125 713.632812 471.886719 C 712.113281 449.382812 710.597656 426.878906 709.078125 404.375 C 711.175781 394.277344 713.273438 384.179688 715.367188 374.082031 C 716.453125 373.945312 717.539062 373.8125 718.621094 373.675781 " fill-opacity="1" fill-rule="nonzero"/><path fill="#ffffff" d="M 743.273438 349.804688 C 744.140625 350.960938 745.011719 352.113281 745.878906 353.269531 C 745.660156 358.460938 745.445312 363.65625 745.226562 368.847656 C 742.914062 369.207031 740.597656 369.570312 738.285156 369.929688 C 735.03125 370.21875 731.777344 370.507812 728.523438 370.796875 C 726.425781 372.597656 724.328125 374.402344 722.230469 376.207031 C 721.523438 370.433594 721.199219 363.121094 722.230469 354.785156 C 724.007812 340.460938 729.003906 329.433594 732.863281 322.542969 C 735.828125 324.34375 738.792969 326.148438 741.753906 327.953125 C 742.261719 335.238281 742.769531 342.523438 743.273438 349.804688 " fill-opacity="1" fill-rule="nonzero"/><path fill="#402523" d="M 741.035156 324.757812 L 727.953125 338.003906 L 729.6875 321.898438 Z M 741.035156 324.757812 " fill-opacity="1" fill-rule="nonzero"/><path fill="#8c514f" d="M 731.558594 407.582031 C 731.601562 409.332031 731.496094 411.300781 731.125 413.421875 C 729.78125 421.140625 725.691406 426.566406 723.097656 429.433594 C 719.054688 428.0625 714.757812 426.359375 710.300781 424.242188 C 697.902344 418.347656 688.300781 411.148438 681.234375 404.765625 C 681.542969 398.53125 682.308594 391.539062 683.835938 383.996094 C 686.992188 368.421875 692.335938 355.75 697.285156 346.34375 C 702.492188 350.09375 707.699219 353.847656 712.90625 357.597656 C 709.507812 368.921875 706.109375 380.242188 702.707031 391.566406 C 707.71875 395.898438 714.53125 400.753906 723.316406 404.550781 C 726.183594 405.789062 728.949219 406.78125 731.558594 407.582031 " fill-opacity="1" fill-rule="nonzero"/><path fill="#703e3b" d="M 708.375 364.34375 C 704.863281 359.566406 701.65625 358.171875 699.261719 357.851562 C 697.40625 357.605469 696.140625 358.019531 695.359375 357.203125 C 693.722656 355.507812 696.128906 350.53125 698.609375 346.328125 C 699.890625 346.765625 703.761719 348.265625 706.421875 352.335938 C 709.933594 357.703125 708.617188 363.371094 708.375 364.34375 " fill-opacity="1" fill-rule="nonzero"/><path fill="#9c7f7e" d="M 744.523438 348.726562 C 744.285156 354.152344 743.828125 359.960938 743.058594 366.089844 C 741.960938 374.816406 740.40625 382.796875 738.664062 389.945312 C 741.429688 386.753906 744.195312 383.5625 746.960938 380.371094 C 751.519531 377.9375 756.074219 375.503906 760.628906 373.066406 C 759.816406 366.628906 759 360.191406 758.1875 353.753906 C 753.632812 352.078125 749.078125 350.402344 744.523438 348.726562 " fill-opacity="1" fill-rule="nonzero"/><path fill="#ed846b" d="M 746.472656 350.835938 C 741.320312 354.511719 736.167969 358.191406 731.019531 361.871094 C 729.066406 364.359375 727.113281 366.847656 725.160156 369.335938 C 725.011719 365.054688 725.070312 360.320312 725.488281 355.214844 C 726.136719 347.238281 727.511719 340.199219 729.066406 334.28125 C 732.210938 331.523438 735.355469 328.765625 738.503906 326.003906 C 741.160156 334.28125 743.816406 342.558594 746.472656 350.835938 " fill-opacity="1" fill-rule="nonzero"/><path fill="#d46e55" d="M 745.144531 351.035156 C 744.46875 351.824219 741.355469 355.347656 738.636719 354.605469 C 736.140625 353.929688 735.328125 350.0625 734.402344 345.355469 C 733.71875 341.867188 733.074219 336.71875 733.589844 330.265625 C 735.597656 328.371094 737.605469 326.476562 739.609375 324.585938 C 741.453125 333.402344 743.296875 342.21875 745.144531 351.035156 " fill-opacity="1" fill-rule="nonzero"/><path fill="#9c7f7e" d="M 734.269531 325.515625 C 733.34375 328.375 732.421875 331.242188 731.507812 334.117188 C 726.078125 351.175781 721.042969 368.0625 716.375 384.75 C 711.65625 373.988281 706.9375 363.222656 702.222656 352.457031 C 699.238281 350.402344 696.253906 348.347656 693.273438 346.289062 C 695.007812 343.316406 696.742188 340.339844 698.480469 337.363281 C 700.71875 335.375 703 333.269531 705.3125 331.035156 C 708.152344 328.289062 710.808594 325.574219 713.285156 322.921875 C 720.660156 319.675781 728.035156 316.429688 735.410156 313.183594 C 735.03125 317.292969 734.652344 321.40625 734.269531 325.515625 " fill-opacity="1" fill-rule="nonzero"/><path fill="#ed846b" d="M 770.613281 329.914062 C 770.890625 329.59375 771.433594 329.054688 772.28125 328.667969 C 773.125 328.285156 773.882812 328.226562 774.304688 328.226562 C 774.550781 328.546875 774.796875 328.863281 775.042969 329.179688 C 775.28125 330.3125 775.183594 331.164062 775.066406 331.703125 C 774.558594 334.09375 772.722656 334.957031 770.519531 338.625 C 770.207031 339.140625 769.976562 339.570312 769.839844 339.832031 C 769.753906 339.902344 769.339844 340.230469 768.742188 340.1875 C 768.046875 340.136719 767.65625 339.628906 767.601562 339.554688 C 768.605469 336.339844 769.609375 333.125 770.613281 329.914062 " fill-opacity="1" fill-rule="nonzero"/><path fill="#d46e55" d="M 770.339844 332.1875 C 771.703125 331.621094 772.515625 331.496094 772.773438 331.8125 C 773.238281 332.394531 771.882812 334.4375 768.699219 337.949219 C 769.246094 336.027344 769.792969 334.105469 770.339844 332.1875 " fill-opacity="1" fill-rule="nonzero"/><path fill="#f2997b" d="M 775.875 320.972656 C 774.070312 323.820312 771.710938 328.253906 770.273438 334.097656 C 768.835938 339.925781 768.863281 344.929688 769.140625 348.28125 C 768.613281 349.695312 767.785156 351.320312 766.453125 352.863281 C 761.402344 358.71875 753.359375 358.523438 751.902344 358.460938 C 749.242188 356.96875 745.433594 354.429688 741.796875 350.328125 C 737.804688 345.828125 735.675781 341.324219 734.546875 338.359375 C 734.867188 335.4375 735.386719 332.300781 736.183594 329 C 738.886719 317.820312 743.734375 309.113281 748 303.007812 C 757.378906 299.671875 767.136719 301.980469 772.203125 308.417969 C 775.972656 313.207031 775.988281 318.816406 775.875 320.972656 " fill-opacity="1" fill-rule="nonzero"/><path fill="#d46e55" d="M 749.746094 306.140625 C 747.855469 307.53125 745.214844 309.882812 743.175781 313.503906 C 742.394531 314.890625 741.839844 316.21875 741.4375 317.40625 C 741.839844 317.632812 742.246094 317.859375 742.648438 318.082031 C 743.167969 316.828125 743.664062 316.210938 744.125 316.234375 C 744.902344 316.269531 745.597656 318.09375 746.207031 321.710938 C 747.09375 322.851562 748.074219 324.035156 749.160156 325.238281 C 750.800781 327.054688 752.425781 328.636719 753.96875 330.011719 C 754.4375 329.941406 755.113281 329.855469 755.929688 329.816406 C 758.40625 329.699219 761.164062 329.570312 762.535156 331.191406 C 762.847656 331.5625 763.320312 332.300781 763.367188 333.652344 C 764.144531 333.890625 765.367188 334.164062 766.871094 334.0625 C 768.050781 333.984375 769.011719 333.707031 769.683594 333.453125 C 770.210938 331.6875 770.933594 329.691406 771.925781 327.558594 C 772.824219 325.621094 773.78125 323.933594 774.699219 322.492188 C 766.382812 317.039062 758.0625 311.589844 749.746094 306.140625 " fill-opacity="1" fill-rule="nonzero"/><path fill="#ed846b" d="M 742.425781 330.101562 C 743.539062 330.566406 742.738281 336.414062 741.636719 336.535156 C 740.9375 336.613281 739.53125 334.445312 740.179688 332.390625 C 740.59375 331.074219 741.835938 329.851562 742.425781 330.101562 " fill-opacity="1" fill-rule="nonzero"/><path fill="#231f20" d="M 767.867188 333.527344 C 768.222656 333.40625 768.769531 333.164062 769.3125 332.6875 C 769.96875 332.109375 770.300781 331.46875 770.457031 331.105469 C 769.9375 330.886719 769.277344 330.671875 768.492188 330.554688 C 766.808594 330.300781 765.410156 330.628906 764.601562 330.890625 C 764.441406 331.066406 764.210938 331.351562 764.046875 331.757812 C 763.835938 332.269531 763.828125 332.722656 763.839844 332.976562 C 765.183594 333.160156 766.527344 333.34375 767.867188 333.527344 " fill-opacity="1" fill-rule="nonzero"/><path fill="#a85440" d="M 757.027344 350.140625 C 757.027344 350.140625 756.789062 350.390625 756.324219 350.605469 C 756.09375 350.714844 755.804688 350.8125 755.488281 350.867188 C 755.328125 350.890625 755.160156 350.917969 754.992188 350.917969 C 754.792969 350.921875 754.671875 350.921875 754.480469 350.902344 C 753.777344 350.828125 753.136719 350.53125 752.734375 350.21875 C 752.324219 349.914062 752.144531 349.617188 752.144531 349.617188 C 752.144531 349.617188 752.460938 349.742188 752.910156 349.890625 C 753.136719 349.964844 753.394531 350.039062 753.671875 350.105469 C 753.949219 350.167969 754.25 350.230469 754.539062 350.253906 C 754.667969 350.277344 754.871094 350.289062 754.992188 350.292969 C 755.140625 350.296875 755.289062 350.304688 755.429688 350.300781 C 755.714844 350.296875 755.984375 350.273438 756.21875 350.25 C 756.6875 350.195312 757.027344 350.140625 757.027344 350.140625 " fill-opacity="1" fill-rule="nonzero"/><path fill="#4f2b2b" d="M 757.738281 326.785156 C 756.667969 325.996094 755.574219 325.136719 754.46875 324.210938 C 751.910156 322.066406 749.710938 319.90625 747.832031 317.84375 C 748.109375 317.457031 748.542969 316.949219 749.183594 316.492188 C 750.332031 315.679688 751.496094 315.5 752.078125 315.453125 C 752.863281 315.722656 754.472656 316.394531 755.867188 317.972656 C 756.976562 319.226562 757.476562 320.511719 757.710938 321.273438 C 758.039062 321.257812 758.371094 321.246094 758.703125 321.230469 C 758.847656 321.800781 759.007812 322.722656 758.859375 323.839844 C 758.675781 325.246094 758.09375 326.261719 757.738281 326.785156 " fill-opacity="1" fill-rule="nonzero"/><path fill="#4f2b2b" d="M 764.027344 330.230469 C 764.195312 329.621094 764.582031 328.546875 765.515625 327.617188 C 767.519531 325.621094 771.375 324.953125 772.789062 326.679688 C 772.9375 326.859375 773.703125 327.851562 773.164062 330.003906 C 771.25 330.15625 769.226562 330.253906 767.097656 330.265625 C 766.046875 330.273438 765.023438 330.261719 764.027344 330.230469 " fill-opacity="1" fill-rule="nonzero"/><path fill="#f2997b" d="M 741.027344 317.15625 C 741.058594 316.421875 741.019531 315.515625 740.800781 314.503906 C 740.316406 312.265625 739.199219 310.691406 738.484375 309.839844 C 737.910156 309.828125 737.339844 309.816406 736.769531 309.800781 C 736.140625 310.289062 735.445312 310.914062 734.769531 311.707031 C 733.097656 313.675781 732.351562 315.730469 732 317.066406 C 732.242188 318.3125 732.441406 319.753906 732.527344 321.355469 C 732.617188 323.027344 732.566406 324.535156 732.449219 325.835938 C 732.648438 326.132812 733.046875 326.636719 733.710938 327.03125 C 734.574219 327.539062 735.402344 327.582031 735.777344 327.578125 C 736.285156 327.488281 736.792969 327.394531 737.304688 327.304688 C 738.546875 323.921875 739.785156 320.539062 741.027344 317.15625 " fill-opacity="1" fill-rule="nonzero"/><path fill="#d46e55" d="M 738.480469 319.765625 C 738.398438 319.054688 738.171875 317.859375 737.429688 316.589844 C 736.851562 315.601562 736.171875 314.921875 735.679688 314.503906 C 735.222656 314.707031 734.484375 315.113281 733.921875 315.886719 C 732.78125 317.441406 733.121094 319.425781 733.378906 320.9375 C 733.5 321.65625 733.753906 322.726562 734.332031 323.957031 C 734.542969 323.882812 734.957031 323.761719 735.484375 323.824219 C 735.96875 323.882812 736.320312 324.074219 736.503906 324.191406 C 736.496094 323.703125 736.542969 322.988281 736.828125 322.179688 C 737.277344 320.921875 738.058594 320.136719 738.480469 319.765625 " fill-opacity="1" fill-rule="nonzero"/><path fill="#231f20" d="M 754.761719 328.863281 C 754.941406 328.675781 755.148438 328.414062 755.332031 328.074219 C 755.671875 327.445312 755.753906 326.851562 755.769531 326.488281 C 755.320312 325.863281 754.777344 325.199219 754.128906 324.539062 C 752.089844 322.464844 749.875 321.304688 748.25 320.652344 C 748.113281 320.777344 747.796875 321.109375 747.683594 321.636719 C 747.5 322.484375 747.992188 323.136719 748.070312 323.234375 C 750.300781 325.113281 752.53125 326.988281 754.761719 328.863281 " fill-opacity="1" fill-rule="nonzero"/><path fill="#ffdcd4" d="M 754.449219 329.242188 C 754.148438 328.996094 753.84375 328.746094 753.535156 328.488281 C 752.933594 328.003906 752.34375 327.503906 751.746094 326.992188 C 751.347656 326.664062 750.953125 326.328125 750.558594 325.980469 C 750.429688 325.867188 750.296875 325.761719 750.171875 325.652344 C 749.59375 325.15625 749.023438 324.660156 748.464844 324.164062 C 748.417969 324.125 748.367188 324.082031 748.324219 324.042969 C 748.222656 323.886719 748.003906 323.484375 748.003906 322.9375 C 748.007812 322.335938 748.269531 321.914062 748.375 321.761719 C 748.664062 321.855469 748.988281 321.976562 749.335938 322.121094 C 750.339844 322.53125 751.546875 323.175781 752.746094 324.175781 C 752.777344 324.199219 752.808594 324.230469 752.839844 324.257812 C 752.886719 324.292969 752.933594 324.332031 752.972656 324.375 C 753.410156 324.753906 753.789062 325.125 754.109375 325.492188 C 754.367188 325.777344 754.589844 326.054688 754.789062 326.3125 C 754.898438 326.507812 755.183594 327.082031 755.089844 327.855469 C 754.996094 328.597656 754.597656 329.085938 754.449219 329.242188 " fill-opacity="1" fill-rule="nonzero"/><path fill="#ffdcd4" d="M 768.984375 332.695312 C 768.621094 333.105469 768.253906 333.386719 767.957031 333.582031 C 767.792969 333.601562 767.613281 333.617188 767.429688 333.621094 C 767.0625 333.652344 766.664062 333.65625 766.25 333.644531 C 766.066406 333.636719 765.890625 333.625 765.722656 333.609375 C 765.183594 333.574219 764.6875 333.5 764.246094 333.40625 C 763.96875 333.351562 763.71875 333.289062 763.488281 333.226562 C 763.53125 332.964844 763.660156 332.476562 764.035156 331.976562 C 764.386719 331.503906 764.796875 331.25 765.027344 331.128906 C 765.402344 331.03125 765.804688 330.945312 766.265625 330.902344 C 766.265625 330.902344 766.265625 330.902344 766.273438 330.898438 C 766.515625 330.871094 766.753906 330.863281 766.984375 330.863281 C 767.03125 330.863281 767.070312 330.863281 767.117188 330.863281 C 768.246094 330.859375 769.191406 331.101562 769.863281 331.332031 C 769.699219 331.695312 769.429688 332.195312 768.984375 332.695312 " fill-opacity="1" fill-rule="nonzero"/><path fill="#4f2b2b" d="M 750.421875 308.707031 C 749.460938 309.234375 748.410156 309.914062 747.347656 310.785156 C 744.390625 313.210938 742.710938 315.996094 741.789062 317.929688 C 741.707031 317.9375 741.128906 317.96875 740.695312 317.519531 C 740.34375 317.15625 740.320312 316.710938 740.320312 316.605469 C 740.675781 314.886719 741.128906 313.054688 741.710938 311.132812 C 742.707031 307.851562 743.878906 304.960938 745.054688 302.476562 C 746.84375 304.550781 748.632812 306.628906 750.421875 308.707031 " fill-opacity="1" fill-rule="nonzero"/><path fill="#ed846b" d="M 757.042969 347.738281 C 757.21875 348.007812 756.96875 348.519531 756.675781 348.757812 C 755.5625 349.648438 751.859375 348.097656 751.621094 346.101562 C 751.546875 345.484375 751.789062 344.730469 752.179688 344.628906 C 752.671875 344.496094 753.128906 345.449219 754.5625 346.632812 C 755.132812 347.101562 755.636719 347.429688 755.957031 347.621094 C 756.453125 347.460938 756.894531 347.511719 757.042969 347.738281 " fill-opacity="1" fill-rule="nonzero"/><path fill="#9c7f7e" d="M 754.304688 317.179688 C 753.09375 320.164062 752.632812 321.734375 752.921875 321.886719 C 753.191406 322.027344 754.097656 320.96875 755.644531 318.710938 C 755.195312 318.199219 754.75 317.691406 754.304688 317.179688 " fill-opacity="1" fill-rule="nonzero"/><path fill="#231f20" d="M 767.429688 333.621094 C 767.0625 333.652344 766.664062 333.65625 766.25 333.644531 C 766.066406 333.636719 765.890625 333.625 765.722656 333.609375 C 765.183594 333.574219 764.6875 333.5 764.246094 333.40625 C 764.316406 332.925781 764.527344 332.234375 765.089844 331.671875 C 765.191406 331.574219 765.691406 331.097656 766.265625 330.902344 C 766.265625 330.902344 766.265625 330.902344 766.273438 330.898438 C 766.5 330.820312 766.75 330.796875 766.984375 330.863281 C 767.03125 330.875 767.078125 330.890625 767.125 330.914062 C 767.710938 331.1875 767.835938 331.960938 767.851562 332.089844 C 767.949219 332.71875 767.695312 333.257812 767.429688 333.621094 " fill-opacity="1" fill-rule="nonzero"/><path fill="#231f20" d="M 753.535156 328.488281 C 752.933594 328.003906 752.34375 327.503906 751.746094 326.992188 C 751.347656 326.664062 750.953125 326.328125 750.558594 325.980469 C 750.429688 325.867188 750.296875 325.761719 750.171875 325.652344 C 750.328125 325.242188 750.648438 324.71875 751.28125 324.421875 C 751.371094 324.378906 752.132812 324.035156 752.972656 324.375 C 753.003906 324.386719 753.039062 324.402344 753.074219 324.414062 C 753.617188 324.660156 753.933594 325.09375 754.109375 325.492188 C 754.292969 325.894531 754.339844 326.257812 754.347656 326.339844 C 754.429688 327.125 754.125 327.910156 753.535156 328.488281 " fill-opacity="1" fill-rule="nonzero"/><path fill="#ffdcd4" d="M 752.324219 325.429688 C 752.570312 325.238281 752.210938 323.855469 751.457031 323.769531 C 751.191406 323.738281 750.828125 323.863281 750.765625 324.09375 C 750.621094 324.621094 752.039062 325.648438 752.324219 325.429688 " fill-opacity="1" fill-rule="nonzero"/><path fill="#ffdcd4" d="M 768.316406 332.191406 C 768.449219 332.023438 768.328125 331.671875 768.136719 331.5 C 767.667969 331.070312 766.671875 331.550781 766.675781 331.816406 C 766.675781 332.128906 768.042969 332.542969 768.316406 332.191406 " fill-opacity="1" fill-rule="nonzero"/><path fill="#6e4342" d="M 788.578125 328.382812 C 786.375 328.199219 784.050781 327.914062 781.628906 327.492188 C 774.378906 326.238281 768.175781 324.128906 763.132812 321.925781 C 760.929688 320.5625 758.671875 319.035156 756.394531 317.316406 C 746.914062 310.15625 740.257812 302.09375 735.632812 295.128906 C 735.609375 295.007812 735.496094 294.445312 735.835938 293.878906 C 736.140625 293.375 736.609375 293.191406 736.742188 293.144531 C 744.730469 296.335938 754.167969 300.816406 764.179688 307.152344 C 774.484375 313.667969 782.753906 320.476562 789.148438 326.472656 C 789.171875 326.5 789.582031 326.980469 789.390625 327.597656 C 789.203125 328.199219 788.621094 328.371094 788.578125 328.382812 " fill-opacity="1" fill-rule="nonzero"/><path fill="#9c7f7e" d="M 777.527344 320.386719 C 777.757812 319.949219 778.035156 319.320312 778.191406 318.527344 C 778.308594 317.925781 778.324219 317.398438 778.308594 316.980469 C 778.988281 315.914062 779.667969 314.847656 780.34375 313.777344 C 779.648438 312.996094 778.925781 312.222656 778.167969 311.453125 C 770.082031 303.234375 760.792969 298.125 752.152344 294.894531 C 751.253906 296.210938 750.351562 297.527344 749.453125 298.84375 C 748.929688 299.339844 748.40625 299.832031 747.882812 300.324219 C 749.714844 302.832031 752.050781 305.566406 755.003906 308.246094 C 763.152344 315.628906 771.925781 318.875 777.527344 320.386719 " fill-opacity="1" fill-rule="nonzero"/><g clip-path="url(#caacf2c767)"><path fill="#6e4342" d="M 779.132812 313.722656 C 777.023438 313.0625 774.796875 312.222656 772.5 311.152344 C 763.1875 306.816406 756.8125 300.605469 752.796875 295.746094 C 753.542969 294.644531 754.488281 293.410156 755.675781 292.148438 C 756.550781 291.214844 757.425781 290.410156 758.261719 289.71875 C 759.355469 288.808594 760.859375 288.566406 762.199219 289.054688 C 763.148438 289.402344 764.167969 289.839844 765.222656 290.390625 C 768.316406 292.007812 770.515625 293.980469 771.9375 295.484375 C 773.296875 295.933594 774.832031 296.542969 776.464844 297.382812 C 777.847656 298.089844 779.066406 298.84375 780.128906 299.582031 C 781.25 300.363281 781.890625 301.675781 781.824219 303.042969 C 781.804688 303.40625 781.78125 303.777344 781.746094 304.152344 C 781.394531 308.089844 780.253906 311.335938 779.132812 313.722656 " fill-opacity="1" fill-rule="nonzero"/></g><path fill="#593232" d="M 776.347656 300.039062 C 776.234375 300.3125 775.585938 300.363281 774.398438 300.195312 C 773.570312 299.253906 772.324219 297.898438 770.683594 296.398438 C 766.667969 292.714844 763.316406 290.894531 763.410156 290.746094 C 763.496094 290.609375 766.539062 292.136719 769.746094 294.515625 C 771.121094 295.53125 772.207031 296.472656 772.976562 297.175781 C 775.398438 298.660156 776.519531 299.617188 776.347656 300.039062 " fill-opacity="1" fill-rule="nonzero"/><path fill="#ad9493" d="M 753.933594 298.210938 C 754.304688 297.839844 754.675781 297.46875 755.050781 297.097656 C 755.722656 297.507812 756.476562 298.03125 757.261719 298.699219 C 758.148438 299.453125 758.851562 300.207031 759.398438 300.875 C 758.972656 301.339844 758.546875 301.804688 758.121094 302.273438 C 757.4375 301.882812 756.558594 301.292969 755.679688 300.417969 C 754.878906 299.628906 754.316406 298.84375 753.933594 298.210938 " fill-opacity="1" fill-rule="nonzero"/><path fill="#ed846b" d="M 761.628906 341.234375 C 761.371094 341.472656 760.648438 342.101562 759.5 342.28125 C 758.382812 342.460938 757.511719 342.109375 757.195312 341.960938 C 756.769531 341.199219 756.183594 340.292969 755.386719 339.359375 C 754.457031 338.269531 753.511719 337.464844 752.726562 336.886719 C 754.6875 334.335938 757.3125 333.15625 758.902344 333.898438 C 760.433594 334.613281 760.96875 337.113281 761.335938 338.828125 C 761.542969 339.792969 761.609375 340.625 761.628906 341.234375 " fill-opacity="1" fill-rule="nonzero"/><path fill="#4f2b2b" d="M 761.726562 340.679688 C 762.230469 340.757812 762.859375 340.910156 763.546875 341.203125 C 764.691406 341.691406 765.488281 342.367188 765.96875 342.847656 C 766.136719 343.472656 766.296875 344.328125 766.261719 345.347656 C 766.199219 347.121094 765.582031 348.464844 765.179688 349.1875 C 763.871094 349.179688 762.488281 349.082031 761.042969 348.855469 C 752.195312 347.449219 746.125 341.933594 743.078125 338.613281 C 743.582031 338.023438 744.347656 337.296875 745.4375 336.75 C 748.585938 335.171875 751.804688 336.433594 752.433594 336.695312 C 753.027344 337.078125 753.6875 337.574219 754.355469 338.210938 C 755.789062 339.589844 756.636719 341.050781 757.132812 342.109375 C 757.503906 342.273438 758.058594 342.449219 758.742188 342.464844 C 760.3125 342.496094 761.421875 341.621094 761.75 341.339844 C 761.742188 341.121094 761.734375 340.898438 761.726562 340.679688 " fill-opacity="1" fill-rule="nonzero"/><path fill="#a85440" d="M 761.734375 336.957031 C 761.699219 337.675781 761.679688 338.386719 761.742188 339.097656 C 761.789062 339.800781 761.871094 340.503906 762.023438 341.191406 L 762.046875 341.3125 L 761.945312 341.410156 C 761.628906 341.710938 761.273438 341.980469 760.878906 342.175781 C 760.679688 342.273438 760.476562 342.359375 760.265625 342.429688 C 760.160156 342.46875 760.0625 342.496094 759.941406 342.527344 C 759.835938 342.550781 759.746094 342.578125 759.628906 342.597656 C 759.179688 342.683594 758.738281 342.6875 758.292969 342.640625 C 757.851562 342.585938 757.417969 342.484375 757.007812 342.3125 L 756.894531 342.265625 L 756.839844 342.160156 C 756.492188 341.472656 756.085938 340.816406 755.644531 340.1875 L 755.476562 339.949219 C 755.441406 339.902344 755.355469 339.808594 755.300781 339.738281 L 754.921875 339.285156 C 754.664062 338.984375 754.421875 338.675781 754.171875 338.371094 L 754.203125 338.398438 C 753.671875 337.925781 753.136719 337.460938 752.609375 336.984375 L 752.527344 336.910156 L 752.5625 336.820312 C 752.839844 336.125 753.34375 335.523438 753.984375 335.179688 C 753.425781 335.636719 753.015625 336.246094 752.851562 336.917969 L 752.800781 336.753906 C 753.375 337.171875 753.9375 337.601562 754.503906 338.027344 L 754.515625 338.035156 L 754.535156 338.054688 C 754.804688 338.34375 755.078125 338.625 755.34375 338.917969 L 755.742188 339.355469 C 755.8125 339.4375 755.863281 339.484375 755.949219 339.589844 L 756.132812 339.828125 C 756.621094 340.46875 757.042969 341.15625 757.417969 341.863281 L 757.253906 341.714844 C 757.609375 341.859375 757.988281 341.960938 758.371094 342.011719 C 758.75 342.058594 759.148438 342.046875 759.515625 341.996094 C 759.605469 341.988281 759.714844 341.960938 759.816406 341.945312 C 759.894531 341.925781 760 341.902344 760.089844 341.875 C 760.273438 341.820312 760.457031 341.75 760.632812 341.667969 C 760.984375 341.503906 761.324219 341.308594 761.628906 341.054688 L 761.550781 341.273438 C 761.457031 340.550781 761.410156 339.824219 761.441406 339.097656 C 761.480469 338.375 761.5625 337.65625 761.734375 336.957031 " fill-opacity="1" fill-rule="nonzero"/><path fill="#703e3b" d="M 690.996094 427.488281 C 691.066406 428.101562 691.101562 429.113281 690.777344 430.300781 C 690.441406 431.527344 689.859375 432.402344 689.476562 432.898438 C 687.171875 432.613281 684.523438 432.09375 681.667969 431.167969 C 675.148438 429.046875 670.382812 425.722656 667.347656 423.160156 C 667.273438 422.804688 667.039062 421.492188 667.78125 420.132812 C 668.683594 418.480469 670.324219 418.039062 670.605469 417.964844 C 672.695312 419.472656 675.148438 421.035156 677.980469 422.511719 C 682.785156 425.015625 687.28125 426.535156 690.996094 427.488281 " fill-opacity="1" fill-rule="nonzero"/><path fill="#543130" d="M 784.054688 385.183594 C 784.117188 386.503906 783.898438 387.578125 783.730469 388.214844 C 782.265625 388.21875 780.207031 387.992188 778.089844 386.914062 C 771.753906 383.695312 770.898438 375.894531 770.824219 375.121094 C 772.835938 374.371094 774.410156 374.457031 775.269531 374.582031 C 780.191406 375.300781 783.839844 380.496094 784.054688 385.183594 " fill-opacity="1" fill-rule="nonzero"/><path fill="#703e3b" d="M 666.125 400.480469 C 666.355469 401.480469 662.1875 403.179688 657.667969 405.023438 C 654.839844 406.175781 648.871094 408.609375 648.121094 407.402344 C 647.621094 406.59375 649.589844 404.367188 651.160156 403.078125 C 656.882812 398.363281 665.808594 399.09375 666.125 400.480469 " fill-opacity="1" fill-rule="nonzero"/><path fill="#464a61" d="M 632.558594 498.878906 C 646.449219 505.828125 649.132812 508.152344 648.828125 508.941406 C 648.683594 509.308594 647.855469 509.417969 639.066406 508.617188 C 635.660156 508.304688 632.816406 508.019531 630.765625 507.804688 C 630.542969 506.972656 630.335938 505.792969 630.441406 504.398438 C 630.644531 501.671875 631.910156 499.738281 632.558594 498.878906 " fill-opacity="1" fill-rule="nonzero"/><path fill="#464a61" d="M 803.550781 483.625 C 803.308594 483.726562 801.257812 479.410156 798.832031 474.210938 C 792.621094 460.882812 777.207031 427.195312 778.007812 426.824219 C 778.59375 426.550781 787.867188 444.183594 795.902344 463.339844 C 799.683594 472.355469 803.929688 483.464844 803.550781 483.625 " fill-opacity="1" fill-rule="nonzero"/><path fill="#464a61" d="M 779.144531 437.914062 C 779.429688 438.523438 776.519531 440.40625 775.023438 441.375 C 774.605469 441.644531 769.527344 444.910156 768.949219 444.191406 C 768.558594 443.695312 770.265625 441.375 772.421875 439.859375 C 775.257812 437.871094 778.859375 437.296875 779.144531 437.914062 " fill-opacity="1" fill-rule="nonzero"/><path fill="#543130" d="M 730.746094 410.699219 C 730.570312 413.894531 729.828125 418.242188 727.390625 422.675781 C 727.257812 422.921875 727.117188 423.171875 726.972656 423.417969 C 725.703125 425.566406 724.273438 427.277344 722.964844 428.609375 C 722.808594 427.324219 722.578125 424.773438 722.957031 421.753906 C 723.378906 418.410156 724.558594 414.496094 727.410156 411.082031 C 727.6875 410.746094 727.976562 410.433594 728.261719 410.128906 C 729.082031 409.277344 729.933594 408.558594 730.773438 407.949219 C 730.800781 408.707031 730.804688 409.640625 730.746094 410.699219 " fill-opacity="1" fill-rule="nonzero"/><path fill="#242633" d="M 789.914062 412.773438 C 789.335938 410.105469 788.757812 407.4375 788.179688 404.765625 C 784.636719 403.6875 781.09375 402.601562 777.546875 401.523438 C 775.164062 402.097656 772.777344 402.675781 770.390625 403.253906 C 768.222656 403.613281 766.050781 403.972656 763.882812 404.335938 C 759.90625 406.859375 755.929688 409.382812 751.953125 411.910156 C 751.660156 413.855469 751.375 415.804688 751.082031 417.75 C 758.242188 419.554688 765.402344 421.355469 772.558594 423.160156 C 775.378906 422.65625 778.199219 422.148438 781.019531 421.644531 C 782.175781 419.914062 783.332031 418.183594 784.488281 416.453125 C 786.296875 415.226562 788.105469 414 789.914062 412.773438 " fill-opacity="1" fill-rule="nonzero"/><path fill="#ed846b" d="M 777.113281 424.027344 C 776.171875 424.820312 775.234375 425.609375 774.296875 426.402344 C 772.417969 426.753906 770.3125 427.140625 768.441406 427.484375 C 765.289062 428.0625 762.140625 428.640625 759.003906 429.21875 C 751.589844 427.6875 744.179688 426.164062 736.765625 424.636719 C 733.636719 423.980469 730.511719 423.332031 727.390625 422.675781 C 725.910156 422.371094 724.433594 422.058594 722.957031 421.753906 C 723.378906 418.410156 724.558594 414.496094 727.410156 411.082031 C 727.6875 410.746094 727.976562 410.433594 728.261719 410.128906 C 729.085938 410.316406 729.914062 410.503906 730.746094 410.699219 C 733.566406 411.335938 736.382812 411.984375 739.199219 412.628906 C 740.015625 411.738281 741.269531 410.539062 743.058594 409.523438 C 745.761719 407.992188 747.160156 408.269531 750.871094 407.363281 C 757.265625 405.796875 759.335938 403.117188 761.769531 404.390625 C 762.953125 405.011719 763.558594 406.226562 763.886719 407.148438 C 762.992188 407.804688 761.585938 408.765625 759.757812 409.746094 C 756.441406 411.519531 754.394531 411.90625 753.960938 413.476562 C 753.796875 414.050781 753.792969 414.984375 754.773438 416.398438 C 758.964844 416.988281 763.15625 417.585938 767.355469 418.183594 C 769.183594 417.71875 770.691406 417.699219 771.695312 417.75 C 773.359375 417.839844 774.582031 417.910156 775.378906 418.832031 C 776.210938 419.792969 776.101562 421.128906 776.027344 421.644531 C 776.394531 422.4375 776.75 423.234375 777.113281 424.027344 " fill-opacity="1" fill-rule="nonzero"/><path fill="#9c7f7e" d="M 718.589844 422.9375 C 718.4375 423.707031 717.554688 424.167969 716.785156 424.058594 C 716.03125 423.953125 715.292969 423.289062 715.363281 422.472656 C 715.441406 421.636719 716.328125 421.09375 717.113281 421.167969 C 717.980469 421.25 718.761719 422.089844 718.589844 422.9375 " fill-opacity="1" fill-rule="nonzero"/><path fill="#9c7f7e" d="M 713.378906 421.238281 C 713.222656 422.011719 712.339844 422.472656 711.570312 422.363281 C 710.820312 422.253906 710.078125 421.589844 710.152344 420.773438 C 710.226562 419.941406 711.113281 419.398438 711.898438 419.46875 C 712.765625 419.550781 713.546875 420.394531 713.378906 421.238281 " fill-opacity="1" fill-rule="nonzero"/><path fill="#9c7f7e" d="M 708.476562 419.132812 C 708.324219 419.90625 707.4375 420.367188 706.667969 420.257812 C 705.917969 420.148438 705.179688 419.484375 705.25 418.671875 C 705.324219 417.835938 706.214844 417.292969 707 417.367188 C 707.867188 417.445312 708.644531 418.289062 708.476562 419.132812 " fill-opacity="1" fill-rule="nonzero"/><path fill="#703e3b" d="M 701.378906 392.582031 C 701.394531 392.878906 699.144531 392.632812 695.847656 394.042969 C 691.378906 395.949219 689.394531 399.003906 688.851562 398.585938 C 688.390625 398.234375 689.175781 395.601562 691.128906 393.878906 C 694.890625 390.558594 701.351562 392.082031 701.378906 392.582031 " fill-opacity="1" fill-rule="nonzero"/><path fill="#703e3b" d="M 705.117188 395.339844 C 705.328125 394.582031 704.082031 393.625 703.328125 393.230469 C 700.097656 391.539062 695.441406 394.757812 695.683594 395.828125 C 695.988281 397.183594 704.625 397.15625 705.117188 395.339844 " fill-opacity="1" fill-rule="nonzero"/><path fill="#703e3b" d="M 687.820312 491.144531 C 687.960938 490.78125 685.78125 490.300781 684.347656 488.113281 C 682 484.523438 683.800781 479.578125 683.265625 479.460938 C 682.726562 479.339844 682.300781 484.558594 678.925781 486.382812 C 676.167969 487.875 672.933594 486.296875 672.851562 486.601562 C 672.675781 487.238281 687.445312 492.105469 687.820312 491.144531 " fill-opacity="1" fill-rule="nonzero"/><path fill="#703e3b" d="M 666.777344 484.871094 C 666.664062 485.234375 663.582031 484.832031 660.921875 483.570312 C 659.144531 482.726562 657.074219 481.273438 657.234375 480.972656 C 657.546875 480.367188 666.984375 484.203125 666.777344 484.871094 " fill-opacity="1" fill-rule="nonzero"/><path fill="#703e3b" d="M 755.390625 396.640625 C 755.066406 396.246094 752.929688 397.421875 751.652344 398.425781 C 748.730469 400.71875 747.386719 404.382812 747.90625 404.753906 C 748.785156 405.375 756.074219 397.472656 755.390625 396.640625 " fill-opacity="1" fill-rule="nonzero"/><path fill="#5b5f78" d="M 791.269531 378.476562 C 790.859375 379.484375 790.257812 380.644531 789.085938 381.050781 C 788.242188 381.34375 787.410156 381.136719 786.902344 380.953125 C 786.503906 381.355469 785.84375 381.894531 784.921875 382.140625 C 782.433594 382.792969 779.625 380.875 778.273438 378.773438 C 777.144531 377.023438 777.84375 376.40625 776.488281 373.628906 C 775.496094 371.605469 774.808594 371.285156 773.90625 369.671875 C 773.117188 368.253906 772.265625 366.019531 772.320312 362.644531 C 775.296875 362.050781 778.273438 361.457031 781.25 360.863281 C 782.738281 359.015625 784.226562 357.167969 785.710938 355.324219 C 787.191406 356.039062 791.101562 358.191406 793.152344 362.742188 C 795.53125 368.011719 793.664062 372.597656 791.269531 378.476562 " fill-opacity="1" fill-rule="nonzero"/><path fill="#464a61" d="M 788.691406 357.417969 C 790.644531 357.488281 791.96875 360.847656 792.921875 363.261719 C 794.648438 367.644531 795.589844 373.875 793.355469 375.164062 C 792.308594 375.765625 791.058594 375 789.339844 376.136719 C 788.527344 376.675781 788.304688 377.179688 787.605469 377.21875 C 786.636719 377.273438 786.417969 376.332031 785.109375 375.8125 C 783.4375 375.148438 782.476562 376.171875 781.640625 375.488281 C 780.789062 374.789062 781.671875 373.644531 780.988281 371.808594 C 780.511719 370.519531 779.847656 370.476562 777.734375 368.132812 C 775.988281 366.1875 775.113281 365.214844 775.351562 364.5625 C 775.792969 363.328125 779.023438 364.726562 782.398438 363.15625 C 786.308594 361.335938 786.542969 357.347656 788.691406 357.417969 " fill-opacity="1" fill-rule="nonzero"/><path fill="#5b5f78" d="M 774.503906 367.691406 C 774.003906 367.457031 773.253906 367.199219 772.617188 367.492188 C 770.125 368.648438 769.972656 377.941406 774.898438 382.632812 C 775.277344 382.996094 779 386.539062 781.941406 385.109375 C 783.8125 384.199219 784.308594 381.792969 784.425781 381.148438 C 781.117188 376.664062 777.808594 372.175781 774.503906 367.691406 " fill-opacity="1" fill-rule="nonzero"/><path fill="#242633" d="M 772.867188 328.566406 C 771.394531 328.566406 769.976562 328.878906 768.652344 329.503906 C 763.332031 332 761.230469 338.746094 763.964844 344.539062 C 765.945312 348.738281 770.023438 351.453125 774.351562 351.453125 C 775.824219 351.453125 777.242188 351.136719 778.566406 350.515625 C 783.886719 348.015625 785.988281 341.273438 783.253906 335.480469 C 781.273438 331.28125 777.195312 328.566406 772.867188 328.566406 Z M 774.351562 352.75 C 769.519531 352.75 764.980469 349.742188 762.785156 345.089844 C 759.746094 338.648438 762.128906 331.128906 768.097656 328.328125 C 769.597656 327.625 771.199219 327.265625 772.867188 327.265625 C 777.695312 327.265625 782.238281 330.273438 784.433594 334.925781 C 787.472656 341.367188 785.089844 348.886719 779.121094 351.6875 C 777.621094 352.394531 776.015625 352.75 774.351562 352.75 " fill-opacity="1" fill-rule="nonzero"/><path fill="#242633" d="M 782.050781 351.4375 C 782.574219 352.546875 781.878906 353.96875 780.5 354.617188 C 779.121094 355.261719 777.582031 354.890625 777.058594 353.78125 C 776.535156 352.675781 777.230469 351.253906 778.609375 350.605469 C 779.988281 349.957031 781.527344 350.332031 782.050781 351.4375 " fill-opacity="1" fill-rule="nonzero"/><path fill="#242633" d="M 791.382812 370.6875 C 792.179688 372.375 793.597656 378.503906 792.105469 379.203125 C 790.613281 379.90625 786.777344 374.910156 785.984375 373.222656 C 785.1875 371.535156 777.832031 352.824219 779.324219 352.121094 C 780.816406 351.421875 790.585938 369 791.382812 370.6875 " fill-opacity="1" fill-rule="nonzero"/><path fill="#34374a" d="M 767.757812 426.988281 C 767.722656 427.828125 763.636719 427.328125 760.433594 430.71875 C 758.777344 432.472656 758.210938 434.367188 757.019531 434.289062 C 755.984375 434.222656 755.898438 432.769531 754.414062 431.367188 C 752.722656 429.765625 751.621094 430.515625 747.257812 429.097656 C 743.085938 427.742188 742.496094 426.539062 740.097656 426.824219 C 738.75 426.984375 738.136719 427.460938 737.007812 427.148438 C 735.234375 426.65625 733.632812 424.609375 733.917969 423.578125 C 735.039062 419.472656 767.855469 424.597656 767.757812 426.988281 " fill-opacity="1" fill-rule="nonzero"/><path fill="#5b5f78" d="M 778.007812 423.902344 C 776.867188 424.988281 775.730469 426.066406 774.589844 427.148438 C 772.046875 427.492188 769.382812 427.921875 766.617188 428.449219 C 764 428.945312 761.503906 429.492188 759.132812 430.070312 C 757.164062 429.582031 755.164062 429.101562 753.132812 428.636719 C 750.003906 427.914062 746.796875 427.234375 743.515625 426.582031 C 743.371094 426.558594 743.230469 426.527344 743.085938 426.5 C 741.035156 426.097656 739.007812 425.714844 737.007812 425.363281 C 736.414062 425.644531 735.523438 426.039062 734.402344 426.414062 C 733.089844 426.871094 732.433594 427.089844 732.128906 426.988281 C 730.414062 426.394531 730.726562 420.613281 731.800781 416.277344 C 732.542969 413.269531 733.835938 410.210938 735.054688 410.269531 C 735.457031 410.289062 735.621094 410.640625 736.683594 411.160156 C 737.515625 411.578125 738.265625 411.785156 738.796875 411.894531 C 739.921875 410.894531 741.765625 409.445312 744.328125 408.324219 C 747.894531 406.757812 748.957031 407.523438 753.4375 406.050781 C 758.023438 404.550781 759.363281 402.957031 761.410156 403.695312 C 763.105469 404.3125 764.007812 406.066406 764.503906 407.351562 C 761.300781 409.296875 758.105469 411.246094 754.902344 413.191406 C 754.957031 414.054688 755.015625 414.925781 755.066406 415.789062 C 757.519531 416.125 759.988281 416.476562 762.472656 416.847656 C 764.105469 417.082031 765.734375 417.328125 767.355469 417.574219 C 768.277344 417.390625 769.65625 417.195312 771.335938 417.25 C 773.296875 417.308594 774.414062 417.347656 775.320312 418.144531 C 776.640625 419.300781 776.582031 421.269531 776.542969 421.871094 C 777.03125 422.554688 777.519531 423.226562 778.007812 423.902344 " fill-opacity="1" fill-rule="nonzero"/><path fill="#464a61" d="M 774.671875 422.035156 C 774.679688 422.105469 774.476562 422.214844 770.605469 423.253906 C 769.613281 423.519531 768.78125 423.742188 768.164062 423.902344 C 767.167969 423.710938 765.554688 423.503906 763.609375 423.742188 C 760.734375 424.09375 759.035156 425.191406 758.402344 424.472656 C 757.992188 424.003906 758.132812 422.886719 758.808594 422.441406 C 759.382812 422.0625 760.210938 422.523438 760.84375 422.765625 C 762.679688 423.480469 763.75 422.804688 767.675781 422.28125 C 771.179688 421.808594 774.632812 421.769531 774.671875 422.035156 " fill-opacity="1" fill-rule="nonzero"/><path fill="#464a61" d="M 761.492188 428.121094 C 761.527344 428.402344 760.597656 429.023438 759.785156 428.691406 C 759.378906 428.523438 758.957031 428.101562 759.050781 427.878906 C 759.238281 427.4375 761.441406 427.710938 761.492188 428.121094 " fill-opacity="1" fill-rule="nonzero"/><path fill="#464a61" d="M 753.65625 413.355469 C 754.363281 413.992188 754.460938 415.386719 753.875 415.953125 C 752.875 416.910156 749.839844 415.511719 749.859375 414.542969 C 749.878906 413.660156 752.46875 412.285156 753.65625 413.355469 " fill-opacity="1" fill-rule="nonzero"/><path fill="#ed846b" d="M 753.519531 423.707031 C 753.394531 424.390625 753.289062 425.125 753.226562 425.902344 C 753.132812 426.882812 753.113281 427.796875 753.132812 428.636719 C 750.003906 427.914062 746.796875 427.234375 743.515625 426.582031 C 743.371094 426.558594 743.230469 426.527344 743.085938 426.5 C 743.117188 425.453125 743.261719 424.261719 743.566406 422.980469 C 743.691406 422.488281 743.828125 422.027344 743.972656 421.59375 C 744.398438 420.308594 745.625 419.480469 746.976562 419.488281 C 747.777344 419.496094 748.675781 419.566406 749.644531 419.734375 C 750.285156 419.851562 750.875 420 751.421875 420.164062 C 752.925781 420.625 753.796875 422.164062 753.519531 423.707031 " fill-opacity="1" fill-rule="nonzero"/><path fill="#34374a" d="M 786.628906 405.402344 C 783.699219 406.160156 780.773438 406.917969 777.84375 407.675781 C 777.300781 408.648438 776.757812 409.621094 776.21875 410.597656 C 775.1875 409.511719 774.15625 408.433594 773.125 407.351562 C 770.847656 407.296875 768.570312 407.242188 766.292969 407.1875 C 765.859375 406.484375 765.425781 405.78125 764.992188 405.078125 C 769.222656 404.210938 773.453125 403.347656 777.679688 402.480469 C 780.664062 403.457031 783.648438 404.429688 786.628906 405.402344 " fill-opacity="1" fill-rule="nonzero"/><path fill="#34374a" d="M 787.117188 405.890625 C 784.730469 406.648438 782.34375 407.402344 779.960938 408.160156 C 782.671875 408.484375 785.382812 408.808594 788.09375 409.136719 C 787.769531 408.054688 787.445312 406.972656 787.117188 405.890625 " fill-opacity="1" fill-rule="nonzero"/><path fill="#d4eafc" d="M 730.175781 372.296875 C 731.300781 372.09375 732.351562 372.375 734.402344 372.945312 C 737.390625 373.777344 738.886719 374.191406 738.960938 374.894531 C 739.070312 375.957031 736.367188 376.148438 733.753906 378.625 C 730.3125 381.886719 730.1875 386.167969 728.167969 386.199219 C 727.15625 386.214844 726.59375 385.148438 725.945312 385.441406 C 725.144531 385.800781 725.246094 387.75 725.457031 389.335938 C 720.972656 396.367188 719.578125 397.03125 719.058594 396.800781 C 718.320312 396.472656 719.066406 394.226562 719.707031 386.199219 C 720 382.542969 719.917969 382.070312 720.414062 380.898438 C 721.296875 378.804688 723.210938 377.507812 726.59375 374.40625 C 727.675781 373.414062 728.675781 372.566406 730.175781 372.296875 " fill-opacity="1" fill-rule="nonzero"/><path fill="#ad9493" d="M 713.199219 336.214844 C 713.921875 349.484375 714.644531 362.757812 715.367188 376.027344 C 711.789062 367.15625 708.210938 358.285156 704.628906 349.414062 C 701.773438 348.042969 698.917969 346.671875 696.0625 345.304688 C 697.4375 342.996094 698.8125 340.6875 700.183594 338.378906 C 704.523438 337.65625 708.863281 336.933594 713.199219 336.214844 " fill-opacity="1" fill-rule="nonzero"/><path fill="#ad9493" d="M 757.019531 372.457031 C 753.65625 374.296875 750.292969 376.136719 746.929688 377.976562 C 747.691406 375.488281 748.449219 373 749.210938 370.511719 C 751.8125 371.160156 754.414062 371.808594 757.019531 372.457031 " fill-opacity="1" fill-rule="nonzero"/><path fill="#ffdcd4" d="M 768.164062 338.539062 C 768.167969 338.792969 767.0625 338.703125 766.128906 339.351562 C 764.550781 340.449219 764.71875 342.773438 764.257812 342.761719 C 763.898438 342.75 763.59375 341.324219 763.527344 340.082031 C 763.410156 337.957031 763.949219 335.714844 764.503906 335.703125 C 764.886719 335.691406 764.816406 336.75 765.804688 337.566406 C 766.847656 338.429688 768.160156 338.265625 768.164062 338.539062 " fill-opacity="1" fill-rule="nonzero"/><path fill="#ffdcd4" d="M 767.675781 347.628906 C 767.46875 347.828125 766.523438 347.234375 765.96875 346.65625 C 764.875 345.511719 764.679688 343.796875 764.992188 343.652344 C 765.511719 343.410156 768.097656 347.21875 767.675781 347.628906 " fill-opacity="1" fill-rule="nonzero"/><path fill="#d4eafc" d="M 781.207031 334.589844 C 781.84375 334.433594 784.453125 338.480469 783.699219 342.8125 C 783.039062 346.632812 779.976562 349.480469 779.472656 349.199219 C 779.121094 349.003906 780.109375 347.363281 780.773438 344.21875 C 781.984375 338.46875 780.609375 334.738281 781.207031 334.589844 " fill-opacity="1" fill-rule="nonzero"/><path fill="#d4eafc" d="M 779.90625 333.402344 C 779.71875 333.800781 778.449219 333.886719 777.625 333.183594 C 776.773438 332.457031 776.707031 331.148438 777.085938 330.914062 C 777.714844 330.519531 780.21875 332.722656 779.90625 333.402344 " fill-opacity="1" fill-rule="nonzero"/><path fill="#5b5f78" d="M 783.050781 362.179688 C 783.476562 362.976562 783.253906 363.941406 783.160156 364.34375 C 782.886719 365.523438 782.15625 366.242188 781.859375 366.507812 C 780.777344 366.769531 779.109375 367.039062 777.085938 366.832031 C 775.03125 366.625 773.429688 366.011719 772.421875 365.535156 C 771.5 363.828125 771.472656 361.90625 772.417969 360.566406 C 772.917969 359.859375 773.578125 359.46875 774.046875 359.257812 C 775.933594 359.84375 777.492188 360.226562 778.570312 360.46875 C 781.222656 361.0625 782.5 361.148438 783.050781 362.179688 " fill-opacity="1" fill-rule="nonzero"/><path fill="#5b5f78" d="M 791.828125 354.761719 C 791.769531 354.542969 791.375 353.058594 790.070312 352.480469 C 788.675781 351.867188 787.207031 352.710938 786.992188 352.832031 C 784.617188 354.191406 783.890625 357.910156 784.96875 360.550781 C 785.292969 361.351562 785.636719 362.191406 786.375 362.394531 C 788.460938 362.972656 792.753906 358.234375 791.828125 354.761719 " fill-opacity="1" fill-rule="nonzero"/><path fill="#5b5f78" d="M 791.742188 357.304688 C 792.679688 356.882812 793.808594 357.109375 794.554688 357.570312 C 796.34375 358.667969 796.546875 361.449219 796.050781 363.273438 C 795.183594 366.460938 791.558594 368.96875 789.542969 368.097656 C 788.679688 367.722656 788.308594 366.820312 788.222656 366.605469 C 787.785156 365.535156 788.171875 364.738281 789.628906 361.078125 C 790.742188 358.285156 790.949219 357.664062 791.742188 357.304688 " fill-opacity="1" fill-rule="nonzero"/><path fill="#5b5f78" d="M 795.960938 363.535156 C 796.917969 363.5625 797.550781 365.246094 797.632812 365.464844 C 798.15625 366.859375 798.066406 368.707031 797.019531 370.203125 C 795.738281 372.03125 793.738281 372.324219 793.234375 372.394531 C 792.542969 372.5 790.960938 372.730469 790.332031 371.871094 C 789.632812 370.910156 790.585938 369.203125 790.863281 368.710938 C 791.644531 367.308594 792.273438 367.464844 793.941406 365.550781 C 795.101562 364.21875 795.339844 363.519531 795.960938 363.535156 " fill-opacity="1" fill-rule="nonzero"/><path fill="#5b5f78" d="M 795.609375 371.78125 C 796.261719 372.203125 796.355469 373.167969 796.402344 373.625 C 796.539062 375.007812 795.847656 376.515625 794.554688 377.222656 C 792.464844 378.367188 789.6875 376.9375 789.453125 375.640625 C 789.113281 373.753906 793.90625 370.675781 795.609375 371.78125 " fill-opacity="1" fill-rule="nonzero"/><path fill="#464a61" d="M 782.398438 382.113281 C 782.265625 382.511719 780.21875 382.578125 778.738281 381.546875 C 776.542969 380.011719 776.378906 376.597656 776.785156 376.433594 C 777.089844 376.3125 777.554688 378.023438 779.632812 379.921875 C 781.242188 381.394531 782.511719 381.785156 782.398438 382.113281 " fill-opacity="1" fill-rule="nonzero"/><path fill="#d46e55" d="M 730.878906 358.609375 C 730.980469 358.972656 730.203125 359.484375 728.710938 360.449219 C 727.582031 361.175781 727.015625 361.539062 726.757812 361.421875 C 726.015625 361.089844 726.324219 358.921875 726.757812 355.90625 C 726.789062 355.679688 727.214844 352.746094 727.515625 352.769531 C 727.875 352.796875 727.160156 356.972656 729.035156 358.070312 C 729.84375 358.542969 730.773438 358.226562 730.878906 358.609375 " fill-opacity="1" fill-rule="nonzero"/><path fill="#d46e55" d="M 735.324219 344.546875 C 734.960938 344.761719 734.328125 343.550781 733.265625 343.570312 C 731.664062 343.601562 730.785156 346.398438 730.445312 346.277344 C 729.792969 346.046875 732.519531 335.484375 733.589844 335.675781 C 733.953125 335.738281 733.695312 336.953125 734.351562 339.894531 C 734.941406 342.539062 735.757812 344.289062 735.324219 344.546875 " fill-opacity="1" fill-rule="nonzero"/><g fill="#963d41" fill-opacity="1"><g transform="translate(342.454266, 441.749998)"><g><path d="M 30.796875 1 C 27.398438 1 24.347656 0.5 21.640625 -0.5 C 18.941406 -1.5 16.644531 -2.929688 14.75 -4.796875 C 12.851562 -6.660156 11.382812 -8.925781 10.34375 -11.59375 C 9.3125 -14.257812 8.796875 -17.226562 8.796875 -20.5 L 8.796875 -34.5 C 8.796875 -37.769531 9.3125 -40.738281 10.34375 -43.40625 C 11.382812 -46.070312 12.851562 -48.335938 14.75 -50.203125 C 16.644531 -52.066406 18.941406 -53.5 21.640625 -54.5 C 24.347656 -55.5 27.398438 -56 30.796875 -56 C 36.867188 -56 41.851562 -54.347656 45.75 -51.046875 C 49.644531 -47.742188 51.992188 -43.226562 52.796875 -37.5 L 43.796875 -37.5 C 43.328125 -40.695312 41.910156 -43.242188 39.546875 -45.140625 C 37.179688 -47.046875 34.265625 -48 30.796875 -48 C 26.796875 -48 23.628906 -46.796875 21.296875 -44.390625 C 18.960938 -41.992188 17.796875 -38.695312 17.796875 -34.5 L 17.796875 -20.5 C 17.796875 -16.300781 18.945312 -13 21.25 -10.59375 C 23.550781 -8.195312 26.734375 -7 30.796875 -7 C 34.265625 -7 37.179688 -7.945312 39.546875 -9.84375 C 41.910156 -11.75 43.328125 -14.300781 43.796875 -17.5 L 52.796875 -17.5 C 51.929688 -11.695312 49.546875 -7.160156 45.640625 -3.890625 C 41.742188 -0.628906 36.796875 1 30.796875 1 Z M 30.796875 1 "/></g></g></g><g fill="#963d41" fill-opacity="1"><g transform="translate(402.451951, 441.749998)"><g><path d="M 17 -20.5 C 17 -16.300781 18.148438 -13 20.453125 -10.59375 C 22.753906 -8.195312 25.9375 -7 30 -7 C 34 -7 37.164062 -8.195312 39.5 -10.59375 C 41.832031 -13 43 -16.300781 43 -20.5 L 43 -34.5 C 43 -38.695312 41.832031 -41.992188 39.5 -44.390625 C 37.164062 -46.796875 34 -48 30 -48 C 26 -48 22.832031 -46.796875 20.5 -44.390625 C 18.164062 -41.992188 17 -38.695312 17 -34.5 Z M 8 -34.5 C 8 -37.832031 8.515625 -40.816406 9.546875 -43.453125 C 10.578125 -46.085938 12.039062 -48.335938 13.9375 -50.203125 C 15.84375 -52.066406 18.144531 -53.5 20.84375 -54.5 C 23.550781 -55.5 26.601562 -56 30 -56 C 36.800781 -56 42.164062 -54.097656 46.09375 -50.296875 C 50.03125 -46.492188 52 -41.257812 52 -34.59375 L 52 -20.5 C 52 -17.164062 51.5 -14.164062 50.5 -11.5 C 49.5 -8.832031 48.046875 -6.582031 46.140625 -4.75 C 44.242188 -2.914062 41.925781 -1.5 39.1875 -0.5 C 36.457031 0.5 33.394531 1 30 1 C 26.601562 1 23.550781 0.5 20.84375 -0.5 C 18.144531 -1.5 15.84375 -2.929688 13.9375 -4.796875 C 12.039062 -6.660156 10.578125 -8.925781 9.546875 -11.59375 C 8.515625 -14.257812 8 -17.226562 8 -20.5 Z M 8 -34.5 "/></g></g></g><g fill="#963d41" fill-opacity="1"><g transform="translate(462.449637, 441.749998)"><g><path d="M 8 -34.5 C 8 -37.832031 8.445312 -40.832031 9.34375 -43.5 C 10.25 -46.164062 11.5 -48.414062 13.09375 -50.25 C 14.695312 -52.082031 16.628906 -53.5 18.890625 -54.5 C 21.160156 -55.5 23.695312 -56 26.5 -56 C 30.5625 -56 33.925781 -55.082031 36.59375 -53.25 C 39.257812 -51.414062 41.03125 -48.832031 41.90625 -45.5 L 42.703125 -45.5 C 42.628906 -46.632812 42.5625 -47.769531 42.5 -48.90625 C 42.363281 -49.90625 42.28125 -50.953125 42.25 -52.046875 C 42.21875 -53.148438 42.203125 -54.132812 42.203125 -55 L 42.203125 -73 L 51.203125 -73 L 51.203125 0 L 42.703125 0 L 42.703125 -9.5 L 41.90625 -9.5 C 41.03125 -6.164062 39.257812 -3.582031 36.59375 -1.75 C 33.925781 0.0820312 30.5625 1 26.5 1 C 23.695312 1 21.160156 0.5 18.890625 -0.5 C 16.628906 -1.5 14.695312 -2.914062 13.09375 -4.75 C 11.5 -6.582031 10.25 -8.832031 9.34375 -11.5 C 8.445312 -14.164062 8 -17.164062 8 -20.5 Z M 29.90625 -6.796875 C 33.632812 -6.796875 36.613281 -8.03125 38.84375 -10.5 C 41.082031 -12.96875 42.203125 -16.300781 42.203125 -20.5 L 42.203125 -34.5 C 42.203125 -38.695312 41.082031 -42.03125 38.84375 -44.5 C 36.613281 -46.96875 33.632812 -48.203125 29.90625 -48.203125 C 25.832031 -48.203125 22.660156 -47 20.390625 -44.59375 C 18.128906 -42.195312 17 -38.832031 17 -34.5 L 17 -20.5 C 17 -16.300781 18.148438 -12.96875 20.453125 -10.5 C 22.753906 -8.03125 25.90625 -6.796875 29.90625 -6.796875 Z M 29.90625 -6.796875 "/></g></g></g><g fill="#963d41" fill-opacity="1"><g transform="translate(522.447322, 441.749998)"><g><path d="M 30 1 C 23.132812 1 17.75 -0.863281 13.84375 -4.59375 C 9.945312 -8.332031 8 -13.46875 8 -20 L 8 -35 C 8 -41.53125 9.945312 -46.660156 13.84375 -50.390625 C 17.75 -54.128906 23.132812 -56 30 -56 C 36.863281 -56 42.242188 -54.128906 46.140625 -50.390625 C 50.046875 -46.660156 52 -41.53125 52 -35 L 52 -24.90625 L 17 -24.90625 L 17 -20.5 C 17 -16.300781 18.148438 -13 20.453125 -10.59375 C 22.753906 -8.195312 25.9375 -7 30 -7 C 33 -7 35.597656 -7.460938 37.796875 -8.390625 C 39.992188 -9.328125 41.628906 -10.695312 42.703125 -12.5 L 51.703125 -12.5 C 50.566406 -8.300781 48.046875 -5 44.140625 -2.59375 C 40.242188 -0.195312 35.53125 1 30 1 Z M 43 -32.40625 L 43 -35 C 43 -39.132812 41.863281 -42.332031 39.59375 -44.59375 C 37.332031 -46.863281 34.132812 -48 30 -48 C 25.863281 -48 22.660156 -46.863281 20.390625 -44.59375 C 18.128906 -42.332031 17 -39.132812 17 -35 L 17 -32.40625 Z M 43 -32.40625 "/></g></g></g><g fill="#963d41" fill-opacity="1"><g transform="translate(857.499347, 441.749998)"><g><path d="M 3 -55 L 10.5 -55 L 15.296875 -17.296875 C 15.429688 -16.296875 15.566406 -15.09375 15.703125 -13.6875 C 15.835938 -12.289062 15.96875 -10.925781 16.09375 -9.59375 C 16.300781 -8 16.46875 -6.398438 16.59375 -4.796875 L 17.59375 -4.796875 C 17.800781 -6.460938 18.003906 -8.0625 18.203125 -9.59375 C 18.398438 -10.925781 18.597656 -12.3125 18.796875 -13.75 C 18.992188 -15.1875 19.160156 -16.367188 19.296875 -17.296875 L 25 -55 L 34.90625 -55 L 40.5 -17.296875 C 40.632812 -16.296875 40.800781 -15.078125 41 -13.640625 C 41.195312 -12.210938 41.394531 -10.832031 41.59375 -9.5 C 41.800781 -7.96875 42.003906 -6.398438 42.203125 -4.796875 L 43.296875 -4.796875 C 43.492188 -6.398438 43.695312 -8 43.90625 -9.59375 C 44.03125 -10.925781 44.175781 -12.289062 44.34375 -13.6875 C 44.507812 -15.09375 44.660156 -16.296875 44.796875 -17.296875 L 49.703125 -55 L 57 -55 L 49.203125 0 L 37 0 L 31.203125 -38.90625 C 31.066406 -40.03125 30.945312 -41.207031 30.84375 -42.4375 C 30.75 -43.675781 30.664062 -44.832031 30.59375 -45.90625 C 30.53125 -47.101562 30.5 -48.300781 30.5 -49.5 L 29.5 -49.5 C 29.4375 -48.300781 29.367188 -47.101562 29.296875 -45.90625 C 29.234375 -44.832031 29.148438 -43.675781 29.046875 -42.4375 C 28.953125 -41.207031 28.800781 -40.03125 28.59375 -38.90625 L 22.59375 0 L 10.703125 0 Z M 3 -55 "/></g></g></g><g fill="#963d41" fill-opacity="1"><g transform="translate(917.497033, 441.749998)"><g><path d="M 17 -20.5 C 17 -16.300781 18.148438 -13 20.453125 -10.59375 C 22.753906 -8.195312 25.9375 -7 30 -7 C 34 -7 37.164062 -8.195312 39.5 -10.59375 C 41.832031 -13 43 -16.300781 43 -20.5 L 43 -34.5 C 43 -38.695312 41.832031 -41.992188 39.5 -44.390625 C 37.164062 -46.796875 34 -48 30 -48 C 26 -48 22.832031 -46.796875 20.5 -44.390625 C 18.164062 -41.992188 17 -38.695312 17 -34.5 Z M 8 -34.5 C 8 -37.832031 8.515625 -40.816406 9.546875 -43.453125 C 10.578125 -46.085938 12.039062 -48.335938 13.9375 -50.203125 C 15.84375 -52.066406 18.144531 -53.5 20.84375 -54.5 C 23.550781 -55.5 26.601562 -56 30 -56 C 36.800781 -56 42.164062 -54.097656 46.09375 -50.296875 C 50.03125 -46.492188 52 -41.257812 52 -34.59375 L 52 -20.5 C 52 -17.164062 51.5 -14.164062 50.5 -11.5 C 49.5 -8.832031 48.046875 -6.582031 46.140625 -4.75 C 44.242188 -2.914062 41.925781 -1.5 39.1875 -0.5 C 36.457031 0.5 33.394531 1 30 1 C 26.601562 1 23.550781 0.5 20.84375 -0.5 C 18.144531 -1.5 15.84375 -2.929688 13.9375 -4.796875 C 12.039062 -6.660156 10.578125 -8.925781 9.546875 -11.59375 C 8.515625 -14.257812 8 -17.226562 8 -20.5 Z M 8 -34.5 "/></g></g></g><g fill="#963d41" fill-opacity="1"><g transform="translate(977.494718, 441.749998)"><g><path d="M 11.203125 -55 L 19.703125 -55 L 19.703125 -45.5 L 20.5 -45.5 C 21.363281 -48.769531 23.160156 -51.335938 25.890625 -53.203125 C 28.628906 -55.066406 32 -56 36 -56 C 41.800781 -56 46.347656 -54.179688 49.640625 -50.546875 C 52.941406 -46.910156 54.59375 -41.925781 54.59375 -35.59375 L 54.59375 -32.5 L 45.59375 -32.5 L 45.59375 -34.5 C 45.59375 -38.832031 44.507812 -42.179688 42.34375 -44.546875 C 40.175781 -46.910156 37.09375 -48.09375 33.09375 -48.09375 C 29.164062 -48.09375 26.035156 -46.875 23.703125 -44.4375 C 21.367188 -42.007812 20.203125 -38.695312 20.203125 -34.5 L 20.203125 0 L 11.203125 0 Z M 11.203125 -55 "/></g></g></g><g fill="#963d41" fill-opacity="1"><g transform="translate(1037.492404, 441.749998)"><g><path d="M 8 -34.5 C 8 -37.832031 8.445312 -40.832031 9.34375 -43.5 C 10.25 -46.164062 11.5 -48.414062 13.09375 -50.25 C 14.695312 -52.082031 16.628906 -53.5 18.890625 -54.5 C 21.160156 -55.5 23.695312 -56 26.5 -56 C 30.5625 -56 33.925781 -55.082031 36.59375 -53.25 C 39.257812 -51.414062 41.03125 -48.832031 41.90625 -45.5 L 42.703125 -45.5 C 42.628906 -46.632812 42.5625 -47.769531 42.5 -48.90625 C 42.363281 -49.90625 42.28125 -50.953125 42.25 -52.046875 C 42.21875 -53.148438 42.203125 -54.132812 42.203125 -55 L 42.203125 -73 L 51.203125 -73 L 51.203125 0 L 42.703125 0 L 42.703125 -9.5 L 41.90625 -9.5 C 41.03125 -6.164062 39.257812 -3.582031 36.59375 -1.75 C 33.925781 0.0820312 30.5625 1 26.5 1 C 23.695312 1 21.160156 0.5 18.890625 -0.5 C 16.628906 -1.5 14.695312 -2.914062 13.09375 -4.75 C 11.5 -6.582031 10.25 -8.832031 9.34375 -11.5 C 8.445312 -14.164062 8 -17.164062 8 -20.5 Z M 29.90625 -6.796875 C 33.632812 -6.796875 36.613281 -8.03125 38.84375 -10.5 C 41.082031 -12.96875 42.203125 -16.300781 42.203125 -20.5 L 42.203125 -34.5 C 42.203125 -38.695312 41.082031 -42.03125 38.84375 -44.5 C 36.613281 -46.96875 33.632812 -48.203125 29.90625 -48.203125 C 25.832031 -48.203125 22.660156 -47 20.390625 -44.59375 C 18.128906 -42.195312 17 -38.832031 17 -34.5 L 17 -20.5 C 17 -16.300781 18.148438 -12.96875 20.453125 -10.5 C 22.753906 -8.03125 25.90625 -6.796875 29.90625 -6.796875 Z M 29.90625 -6.796875 "/></g></g></g><g fill="#963d41" fill-opacity="1"><g transform="translate(1097.490089, 441.749998)"><g><path d="M 28.5 1 C 22.695312 1 17.910156 -0.316406 14.140625 -2.953125 C 10.378906 -5.585938 8.234375 -9.101562 7.703125 -13.5 L 17.203125 -13.5 C 17.597656 -11.5625 18.828125 -9.992188 20.890625 -8.796875 C 22.960938 -7.597656 25.5 -7 28.5 -7 L 31.296875 -7 C 34.898438 -7 37.703125 -7.75 39.703125 -9.25 C 41.703125 -10.75 42.703125 -12.765625 42.703125 -15.296875 C 42.703125 -19.628906 39.632812 -22.265625 33.5 -23.203125 L 25.203125 -24.40625 C 19.796875 -25.195312 15.757812 -26.894531 13.09375 -29.5 C 10.425781 -32.101562 9.09375 -35.738281 9.09375 -40.40625 C 9.09375 -45.332031 10.84375 -49.160156 14.34375 -51.890625 C 17.84375 -54.628906 22.726562 -56 29 -56 L 31.796875 -56 C 34.460938 -56 36.925781 -55.664062 39.1875 -55 C 41.457031 -54.332031 43.457031 -53.378906 45.1875 -52.140625 C 46.925781 -50.910156 48.34375 -49.445312 49.4375 -47.75 C 50.539062 -46.050781 51.257812 -44.164062 51.59375 -42.09375 L 42.09375 -42.09375 C 41.695312 -43.832031 40.566406 -45.25 38.703125 -46.34375 C 36.835938 -47.445312 34.535156 -48 31.796875 -48 L 29 -48 C 25.601562 -48 22.953125 -47.332031 21.046875 -46 C 19.148438 -44.664062 18.203125 -42.664062 18.203125 -40 C 18.203125 -37.863281 18.847656 -36.242188 20.140625 -35.140625 C 21.441406 -34.046875 23.5625 -33.300781 26.5 -32.90625 L 34.796875 -31.703125 C 40.734375 -30.835938 45.050781 -29.101562 47.75 -26.5 C 50.445312 -23.894531 51.796875 -20.195312 51.796875 -15.40625 C 51.796875 -10.269531 50.007812 -6.25 46.4375 -3.34375 C 42.875 -0.445312 37.828125 1 31.296875 1 Z M 28.5 1 "/></g></g></g></svg>