<svg xmlns="http://www.w3.org/2000/svg" xmlns:xlink="http://www.w3.org/1999/xlink" width="1920" zoomAndPan="magnify" viewBox="0 0 1440 809.999993" height="1080" preserveAspectRatio="xMidYMid meet" version="1.0"><defs><g/><clipPath id="bd4bb2ba29"><path d="M 566.144531 522 L 710 522 L 710 536 L 566.144531 536 Z M 566.144531 522 " clip-rule="nonzero"/></clipPath><clipPath id="dfe28bfb66"><path d="M 818 534 L 827 534 L 827 536.875 L 818 536.875 Z M 818 534 " clip-rule="nonzero"/></clipPath><clipPath id="de0f170820"><path d="M 862 519 L 873.644531 519 L 873.644531 523 L 862 523 Z M 862 519 " clip-rule="nonzero"/></clipPath><clipPath id="8e48d52099"><path d="M 863 522 L 873.644531 522 L 873.644531 526 L 863 526 Z M 863 522 " clip-rule="nonzero"/></clipPath></defs><rect x="-144" width="1728" fill="#ffffff" y="-80.999999" height="971.999992" fill-opacity="1"/><rect x="-144" width="1728" fill="#ffffff" y="-80.999999" height="971.999992" fill-opacity="1"/><g clip-path="url(#bd4bb2ba29)"><path fill="#e2e2e2" d="M 709.289062 528.921875 C 709.289062 529.140625 709.175781 529.359375 708.945312 529.578125 C 708.714844 529.796875 708.371094 530.015625 707.914062 530.230469 C 707.457031 530.445312 706.886719 530.660156 706.207031 530.871094 C 705.527344 531.078125 704.738281 531.285156 703.84375 531.488281 C 702.945312 531.691406 701.945312 531.890625 700.839844 532.085938 C 699.734375 532.277344 698.53125 532.464844 697.230469 532.648438 C 695.929688 532.832031 694.535156 533.007812 693.046875 533.179688 C 691.5625 533.347656 689.988281 533.511719 688.332031 533.667969 C 686.675781 533.820312 684.941406 533.96875 683.128906 534.109375 C 681.320312 534.246094 679.4375 534.378906 677.492188 534.5 C 675.542969 534.621094 673.535156 534.734375 671.46875 534.839844 C 669.402344 534.941406 667.285156 535.035156 665.121094 535.121094 C 662.957031 535.203125 660.753906 535.277344 658.511719 535.34375 C 656.269531 535.40625 653.996094 535.460938 651.699219 535.503906 C 649.402344 535.546875 647.085938 535.578125 644.753906 535.597656 C 642.421875 535.621094 640.082031 535.632812 637.742188 535.632812 C 635.398438 535.632812 633.058594 535.621094 630.726562 535.597656 C 628.394531 535.578125 626.082031 535.546875 623.78125 535.503906 C 621.484375 535.460938 619.214844 535.40625 616.972656 535.34375 C 614.730469 535.277344 612.523438 535.203125 610.359375 535.121094 C 608.195312 535.035156 606.078125 534.941406 604.011719 534.839844 C 601.945312 534.734375 599.9375 534.621094 597.992188 534.5 C 596.042969 534.378906 594.164062 534.246094 592.351562 534.109375 C 590.539062 533.96875 588.804688 533.820312 587.148438 533.667969 C 585.492188 533.511719 583.917969 533.347656 582.433594 533.179688 C 580.945312 533.007812 579.550781 532.832031 578.25 532.648438 C 576.949219 532.464844 575.746094 532.277344 574.640625 532.085938 C 573.535156 531.890625 572.535156 531.691406 571.636719 531.488281 C 570.742188 531.285156 569.953125 531.078125 569.273438 530.871094 C 568.59375 530.660156 568.023438 530.445312 567.566406 530.230469 C 567.109375 530.015625 566.765625 529.796875 566.535156 529.578125 C 566.308594 529.359375 566.191406 529.140625 566.191406 528.921875 C 566.191406 528.703125 566.308594 528.480469 566.535156 528.261719 C 566.765625 528.042969 567.109375 527.828125 567.566406 527.613281 C 568.023438 527.398438 568.59375 527.183594 569.273438 526.972656 C 569.953125 526.761719 570.742188 526.554688 571.636719 526.351562 C 572.535156 526.148438 573.535156 525.953125 574.640625 525.757812 C 575.746094 525.5625 576.949219 525.375 578.25 525.191406 C 579.550781 525.011719 580.945312 524.835938 582.433594 524.664062 C 583.917969 524.496094 585.492188 524.332031 587.148438 524.175781 C 588.804688 524.019531 590.539062 523.875 592.351562 523.734375 C 594.164062 523.59375 596.042969 523.464844 597.992188 523.34375 C 599.9375 523.21875 601.945312 523.105469 604.011719 523.003906 C 606.078125 522.898438 608.195312 522.804688 610.359375 522.722656 C 612.523438 522.636719 614.730469 522.5625 616.972656 522.5 C 619.214844 522.4375 621.484375 522.382812 623.78125 522.339844 C 626.082031 522.296875 628.394531 522.265625 630.726562 522.242188 C 633.058594 522.222656 635.398438 522.210938 637.742188 522.210938 C 640.082031 522.210938 642.421875 522.222656 644.753906 522.242188 C 647.085938 522.265625 649.402344 522.296875 651.699219 522.339844 C 653.996094 522.382812 656.269531 522.4375 658.511719 522.5 C 660.753906 522.5625 662.957031 522.636719 665.121094 522.722656 C 667.285156 522.804688 669.402344 522.898438 671.46875 523.003906 C 673.535156 523.105469 675.542969 523.21875 677.492188 523.34375 C 679.4375 523.464844 681.320312 523.59375 683.128906 523.734375 C 684.941406 523.875 686.675781 524.019531 688.332031 524.175781 C 689.988281 524.332031 691.5625 524.496094 693.046875 524.664062 C 694.535156 524.835938 695.929688 525.011719 697.230469 525.191406 C 698.53125 525.375 699.734375 525.5625 700.839844 525.757812 C 701.945312 525.953125 702.945312 526.148438 703.84375 526.351562 C 704.738281 526.554688 705.527344 526.761719 706.207031 526.972656 C 706.886719 527.183594 707.457031 527.398438 707.914062 527.613281 C 708.371094 527.828125 708.714844 528.042969 708.945312 528.261719 C 709.175781 528.480469 709.289062 528.703125 709.289062 528.921875 Z M 709.289062 528.921875 " fill-opacity="1" fill-rule="nonzero"/></g><path fill="#ba4607" d="M 584.246094 487.144531 C 584.648438 487.609375 585.246094 488.109375 585.746094 488.453125 C 587.34375 489.554688 589.367188 490.070312 591.816406 489.796875 C 592.789062 489.691406 594.019531 489.527344 595.101562 489.175781 L 595.449219 490.179688 C 594.320312 490.542969 592.902344 490.839844 591.878906 490.953125 C 588.933594 491.28125 585.914062 490.503906 583.972656 488.492188 L 584.1875 487.472656 Z M 583.183594 492.953125 C 583.539062 493.335938 583.976562 493.632812 584.40625 493.925781 C 588.363281 495.484375 590.035156 495.59375 594.003906 494.308594 L 594.550781 495.636719 C 590.660156 497.460938 585.644531 496.816406 583.011719 494.320312 C 583.054688 493.914062 583.183594 492.953125 583.183594 492.953125 Z M 583.183594 492.953125 " fill-opacity="1" fill-rule="evenodd"/><path fill="#ba4607" d="M 667.835938 527.417969 C 667.878906 527.109375 667.882812 526.863281 667.886719 526.558594 C 667.929688 522.140625 664.957031 519.292969 661.734375 516.59375 L 663.175781 515.230469 C 664.28125 516.15625 665.300781 517.191406 666.089844 518.199219 C 668.027344 520.679688 669.210938 523.742188 669.085938 526.851562 L 668.117188 527.285156 Z M 672.914062 525.019531 L 673.28125 524.828125 L 674.226562 524.3125 C 674.253906 521.535156 673.226562 518.753906 671.210938 516.175781 C 670.421875 515.164062 669.285156 514.03125 668.179688 513.105469 L 666.996094 514.648438 C 670.503906 517.589844 672.964844 518.601562 672.910156 524.484375 C 672.90625 524.667969 672.921875 524.835938 672.914062 525.019531 Z M 672.914062 525.019531 " fill-opacity="1" fill-rule="evenodd"/><path fill="#802b16" d="M 759.644531 391.636719 C 760.324219 390.351562 761.046875 387.964844 761.722656 386.679688 C 728.699219 299.453125 704.117188 347.472656 706.65625 373.742188 C 707.976562 387.429688 722.300781 395.6875 728.375 380.453125 C 729.433594 377.804688 730.289062 374.769531 731.402344 371.855469 C 738.585938 353.023438 748.019531 370.355469 759.644531 391.636719 Z M 759.644531 391.636719 " fill-opacity="1" fill-rule="evenodd"/><path fill="#ffa100" d="M 735.5625 497.847656 C 762.992188 500.992188 790.75 492.433594 801.867188 482.804688 C 809.621094 484.191406 815.175781 476.535156 818.273438 473.324219 C 830.179688 460.972656 832.691406 453.691406 827.933594 447.851562 C 821.3125 447.183594 812.898438 438.765625 808.457031 434.132812 C 815.613281 427.195312 823.546875 413.933594 820.449219 403.640625 C 814.816406 384.914062 783.949219 367.988281 762.65625 366.96875 C 755.953125 366.648438 750.042969 368.707031 746.167969 372.664062 L 719.660156 424.460938 C 716.875 429.90625 714.417969 435.742188 711.941406 441.582031 C 708.761719 449.09375 705.636719 455.097656 702.535156 459.992188 L 722.84375 478.4375 L 735.5625 497.847656 " fill-opacity="1" fill-rule="evenodd"/><path fill="#ffffff" d="M 812.828125 414.285156 C 812.160156 416.253906 811.140625 418.136719 809.753906 419.847656 C 803.464844 427.621094 792.0625 428.824219 784.289062 422.535156 C 776.511719 416.246094 775.308594 404.84375 781.597656 397.070312 C 785.101562 392.742188 790.195312 390.453125 795.359375 390.359375 Z M 812.828125 414.285156 " fill-opacity="1" fill-rule="evenodd"/><path fill="#611200" d="M 796.515625 415.167969 C 799.683594 413.320312 803.75 414.386719 805.597656 417.554688 C 806.660156 419.371094 806.757812 421.484375 806.050781 423.304688 C 803.167969 425.320312 799.796875 426.417969 796.375 426.550781 C 795.476562 425.996094 794.699219 425.222656 794.128906 424.246094 C 792.28125 421.078125 793.347656 417.015625 796.515625 415.167969 Z M 796.515625 415.167969 " fill-opacity="1" fill-rule="evenodd"/><path fill="#ffffff" d="M 801.703125 412.015625 C 802.945312 412.90625 803.230469 414.636719 802.335938 415.878906 C 801.445312 417.121094 799.714844 417.40625 798.46875 416.511719 C 797.226562 415.621094 796.945312 413.890625 797.835938 412.648438 C 798.730469 411.40625 800.460938 411.121094 801.703125 412.015625 Z M 801.703125 412.015625 " fill-opacity="1" fill-rule="evenodd"/><path fill="#d95e00" d="M 825.203125 447.28125 C 822.289062 443.09375 812.617188 433.746094 804.777344 430.476562 C 786.050781 422.660156 780.921875 445.804688 784.019531 459.957031 C 788.839844 481.96875 811.351562 491.535156 819.027344 473.308594 C 821.085938 464.632812 823.144531 455.957031 825.203125 447.28125 " fill-opacity="1" fill-rule="evenodd"/><path fill="#611200" d="M 825.203125 447.28125 C 818.867188 450.90625 814.082031 470.667969 818.453125 473.207031 C 819.601562 473.78125 821.152344 473.910156 823.179688 473.429688 C 838.195312 469.898438 853.3125 452.433594 825.203125 447.28125 Z M 825.203125 447.28125 " fill-opacity="1" fill-rule="evenodd"/><path fill="#8f2c15" d="M 837.847656 452.023438 C 839.816406 453.640625 840.515625 456.125 839.410156 457.570312 C 838.300781 459.015625 835.8125 458.875 833.84375 457.257812 C 831.875 455.636719 831.175781 453.152344 832.28125 451.707031 C 833.390625 450.261719 835.878906 450.402344 837.847656 452.023438 Z M 837.847656 452.023438 " fill-opacity="1" fill-rule="evenodd"/><path fill="#611200" d="M 803.878906 390.761719 C 807.871094 397.296875 810.5 403.628906 814.492188 410.160156 C 815.761719 412.242188 818.019531 423.886719 811.539062 414.464844 C 805.378906 405.5 799.21875 396.539062 793.054688 387.578125 C 796.210938 388.570312 800.726562 389.769531 803.878906 390.761719 Z M 803.878906 390.761719 " fill-opacity="1" fill-rule="evenodd"/><path fill="#ceebeb" d="M 787.148438 424.433594 C 775.859375 413.453125 781.246094 396.558594 793.039062 393.480469 C 794.734375 393.039062 794.554688 391.765625 795.878906 391.070312 L 795.359375 390.359375 C 790.195312 390.453125 785.101562 392.742188 781.597656 397.070312 C 775.308594 404.84375 776.511719 416.246094 784.289062 422.535156 C 785.195312 423.269531 786.15625 423.898438 787.148438 424.433594 Z M 787.148438 424.433594 " fill-opacity="1" fill-rule="evenodd"/><path fill="#bf703b" d="M 787.8125 380.019531 C 822.410156 393.351562 843.152344 409.203125 841.722656 412.914062 C 840.289062 416.625 817.964844 404.324219 783.367188 390.992188 C 748.769531 377.664062 727.5625 371.613281 728.992188 367.90625 C 730.421875 364.195312 753.210938 366.691406 787.8125 380.019531 Z M 787.8125 380.019531 " fill-opacity="1" fill-rule="evenodd"/><path fill="#bf703b" d="M 758.050781 375.492188 C 769.722656 381.832031 789.667969 389.332031 803.921875 393.035156 C 816.84375 396.394531 815.785156 395.15625 814.007812 386.359375 C 808.460938 358.863281 807.453125 335.800781 786.726562 354.09375 C 780.355469 326.699219 769.613281 328.878906 754.082031 365.84375 C 751.925781 370.96875 750.726562 371.515625 758.050781 375.492188 Z M 758.050781 375.492188 " fill-opacity="1" fill-rule="evenodd"/><path fill="#ad5c26" d="M 758.746094 370.457031 C 761.695312 372.378906 777.542969 384.96875 774.757812 383.972656 C 742.558594 372.476562 740.933594 366.398438 753.207031 369.074219 C 754.769531 369.414062 756.78125 369.824219 758.746094 370.457031 Z M 758.746094 370.457031 " fill-opacity="1" fill-rule="evenodd"/><path fill="#db8044" d="M 813.589844 384.253906 C 807.550781 383.328125 800.9375 381.601562 794.070312 379.320312 C 792.003906 378.636719 789.914062 377.902344 787.8125 377.125 C 782.816406 375.277344 777.742188 373.1875 772.699219 370.953125 C 771.371094 370.363281 770.046875 369.761719 768.726562 369.15625 C 764.210938 367.074219 759.753906 364.898438 755.433594 362.683594 C 754.988281 363.707031 754.535156 364.761719 754.078125 365.84375 C 753.539062 367.132812 753.058594 368.132812 752.757812 368.972656 C 752 371.074219 752.390625 372.15625 755.835938 374.234375 C 756.464844 374.617188 757.199219 375.03125 758.050781 375.492188 C 765.902344 379.757812 777.5 384.546875 788.589844 388.351562 C 791.226562 389.257812 793.839844 390.109375 796.363281 390.882812 C 799 391.691406 801.539062 392.417969 803.921875 393.035156 C 805.980469 393.570312 807.6875 393.988281 809.089844 394.277344 C 813.832031 395.257812 815.128906 394.765625 815.058594 392.339844 C 815.015625 390.980469 814.546875 389.015625 814.007812 386.359375 C 813.867188 385.652344 813.726562 384.953125 813.589844 384.253906 Z M 813.589844 384.253906 " fill-opacity="1" fill-rule="evenodd"/><path fill="#ad5c26" d="M 760.847656 365.402344 C 763.523438 356.585938 772.972656 334.527344 780.550781 338.410156 C 774.414062 330.777344 766.089844 338.277344 755.433594 362.683594 C 759.324219 364.679688 756.789062 363.511719 760.847656 365.402344 Z M 760.847656 365.402344 " fill-opacity="1" fill-rule="evenodd"/><path fill="#db8044" d="M 795.488281 349.878906 C 800.203125 347.722656 803.003906 350.257812 805.007812 354.644531 C 806.171875 357.1875 807.027344 360.375 807.875 363.53125 L 807.964844 363.859375 L 804.90625 364.6875 L 804.820312 364.355469 C 804.007812 361.332031 803.183594 358.277344 802.125 355.960938 C 800.886719 353.25 799.28125 351.628906 796.804688 352.757812 Z M 795.488281 349.878906 " fill-opacity="1" fill-rule="evenodd"/><path fill="#802b16" d="M 779.261719 382.773438 C 831.890625 272.871094 740.8125 332.714844 748.269531 352.277344 C 752.996094 364.664062 761.273438 357.109375 770.292969 352.191406 C 787.511719 342.808594 781.632812 358.886719 774.167969 381.019531 C 772.246094 386.71875 776.992188 387.128906 779.261719 382.773438 Z M 779.261719 382.773438 " fill-opacity="1" fill-rule="evenodd"/><path fill="#a8472f" d="M 782.664062 320.132812 C 777.996094 320.53125 774.390625 322.984375 774.617188 325.621094 C 774.839844 328.257812 778.523438 326.765625 783.191406 326.371094 C 787.859375 325.972656 791.742188 326.824219 791.519531 324.1875 C 791.296875 321.554688 787.332031 319.738281 782.664062 320.132812 Z M 782.664062 320.132812 " fill-opacity="1" fill-rule="evenodd"/><path fill="#802b16" d="M 639.171875 365.589844 C 624.398438 382.519531 632.175781 403.3125 640.40625 413.316406 C 646.714844 418.5 634.011719 393.691406 652.539062 374.582031 C 656.429688 370.570312 663.976562 367.664062 661.121094 361.132812 C 657.402344 352.625 643.484375 360.644531 639.171875 365.589844 Z M 639.171875 365.589844 " fill-opacity="1" fill-rule="evenodd"/><path fill="#ff8000" d="M 645.335938 442.222656 C 641 450.050781 640.375 458.890625 638.671875 466.316406 C 634.503906 484.503906 631.875 497.867188 607.996094 492.472656 C 602.730469 491.726562 599.660156 495.457031 598.0625 497.117188 C 594.9375 500.367188 591.355469 501.628906 586.796875 500.496094 C 584.8125 500.003906 583.308594 498.867188 582.964844 496.996094 C 582.851562 496.390625 582.894531 495.324219 583.050781 493.976562 C 583.375 494.257812 583.722656 494.515625 584.082031 494.746094 C 585.953125 495.945312 588.261719 496.472656 590.863281 496.203125 C 591.882812 496.097656 592.945312 495.871094 594.042969 495.515625 L 593.796875 494.804688 C 592.746094 495.144531 591.730469 495.359375 590.761719 495.460938 C 588.328125 495.710938 586.179688 495.226562 584.457031 494.121094 C 583.992188 493.824219 583.5625 493.484375 583.160156 493.101562 C 583.355469 491.683594 583.652344 490.035156 584.007812 488.3125 C 584.414062 488.6875 584.847656 489.023438 585.308594 489.316406 C 587.175781 490.515625 589.484375 491.042969 592.085938 490.773438 C 593.105469 490.667969 594.167969 490.441406 595.265625 490.085938 L 595.019531 489.375 C 593.96875 489.714844 592.953125 489.929688 591.988281 490.03125 C 589.554688 490.28125 587.40625 489.796875 585.679688 488.691406 C 585.140625 488.34375 584.640625 487.9375 584.1875 487.472656 C 587.507812 469.550781 593.15625 462.644531 606.019531 471.339844 L 606.019531 471.335938 C 606.058594 471.363281 606.097656 471.386719 606.132812 471.414062 C 606.320312 471.542969 606.507812 471.675781 606.699219 471.808594 C 618.957031 479.875 621.636719 454.617188 618.265625 445.617188 C 624.269531 432.847656 624.566406 429.433594 626.675781 426.734375 Z M 645.335938 442.222656 " fill-opacity="1" fill-rule="evenodd"/><path fill="#ffa100" d="M 667.515625 503.089844 C 680.273438 506.382812 694.402344 499.882812 707.765625 499.441406 C 718.734375 499.078125 726.804688 499.503906 735.5625 497.847656 C 741.988281 496.636719 749.890625 494.5 754.023438 489.109375 C 766.5 473.015625 742.523438 478.28125 735.53125 465.492188 C 711.253906 445.011719 663.488281 393.640625 638.390625 408.53125 C 630.976562 412.933594 625.433594 418.476562 621.636719 424.726562 C 615.824219 434.292969 615.464844 443.5 615.816406 451.867188 C 616.878906 477.3125 640.632812 496.148438 667.515625 503.089844 Z M 667.515625 503.089844 " fill-opacity="1" fill-rule="evenodd"/><path fill="#ff8000" d="M 664.078125 409.597656 C 658.382812 407.132812 652.953125 405.742188 648 405.871094 C 646.109375 405.921875 644.285156 406.195312 642.546875 406.714844 C 641.886719 406.910156 641.242188 407.144531 640.609375 407.410156 C 640.40625 408.621094 640.300781 409.867188 640.300781 411.132812 C 640.300781 420.6875 646.292969 428.84375 654.722656 432.046875 C 657.699219 424.539062 660.8125 417.046875 664.078125 409.597656 Z M 664.078125 409.597656 " fill-opacity="1" fill-rule="evenodd"/><path fill="#bf703b" d="M 735.5625 497.847656 C 704.679688 516.65625 659.398438 508.132812 638.480469 496.058594 C 633.695312 493.300781 631.039062 479.25 632.40625 475.113281 C 641.277344 448.257812 651.628906 420.988281 664.015625 394.46875 L 715.132812 434.265625 C 721.308594 451.980469 729.386719 480.136719 735.5625 497.847656 Z M 735.5625 497.847656 " fill-opacity="1" fill-rule="evenodd"/><path fill="#ffa100" d="M 647.289062 465.082031 C 648.542969 470.597656 649.859375 476.164062 650.714844 479.605469 C 652.808594 488.035156 655.457031 496.414062 659.226562 504.476562 L 659.269531 504.5625 C 660.132812 506.382812 660.847656 507.734375 662.023438 508.542969 C 664.089844 509.964844 666.347656 510.179688 667.832031 510.390625 C 672.296875 511.027344 675.414062 513.195312 677.160156 517.558594 C 677.917969 519.453125 677.875 521.335938 676.558594 522.710938 C 676.132812 523.15625 675.242188 523.746094 674.058594 524.40625 C 674.09375 523.976562 674.101562 523.546875 674.078125 523.117188 C 673.960938 520.902344 673.039062 518.71875 671.300781 516.765625 C 670.617188 516 669.8125 515.269531 668.882812 514.585938 L 668.449219 515.203125 C 669.339844 515.859375 670.109375 516.554688 670.753906 517.28125 C 672.378906 519.109375 673.242188 521.136719 673.351562 523.179688 C 673.382812 523.730469 673.359375 524.277344 673.28125 524.828125 C 672.019531 525.496094 670.507812 526.21875 668.898438 526.9375 C 668.96875 526.390625 668.984375 525.84375 668.957031 525.296875 C 668.835938 523.082031 667.914062 520.902344 666.175781 518.945312 C 665.496094 518.179688 664.691406 517.449219 663.761719 516.769531 L 663.324219 517.382812 C 664.21875 518.039062 664.984375 518.734375 665.632812 519.460938 C 667.257812 521.289062 668.121094 523.316406 668.230469 525.359375 C 668.265625 526 668.226562 526.644531 668.117188 527.285156 C 659.519531 531.339844 651.742188 532.964844 649.078125 531.257812 C 647.074219 529.972656 645.359375 524.328125 643.183594 517.449219 C 638.128906 502.375 632.300781 487.558594 628.691406 471.976562 C 626.085938 460.726562 635.855469 427.945312 642.296875 438.488281 C 643.402344 440.300781 646.496094 461.609375 647.289062 465.082031 Z M 647.289062 465.082031 " fill-opacity="1" fill-rule="evenodd"/><path fill="#ff8000" d="M 740.316406 384.097656 C 764.617188 403.542969 742.714844 437.34375 716.324219 431.441406 C 717.394531 429.066406 718.5 426.730469 719.660156 424.460938 Z M 740.316406 384.097656 " fill-opacity="1" fill-rule="evenodd"/><path fill="#ad5c26" d="M 721.503906 419.492188 L 735.5625 497.847656 L 688.261719 437.390625 L 702.746094 436.25 L 691.878906 395.636719 Z M 721.503906 419.492188 " fill-opacity="1" fill-rule="evenodd"/><path fill="#ff8000" d="M 725.480469 502.867188 C 728.089844 504.542969 738.867188 506.386719 741.980469 503.675781 C 743.65625 507.726562 743.597656 509.691406 745.273438 513.742188 C 739.289062 517.441406 732.425781 516.972656 726.621094 515.460938 C 727.085938 511.871094 725.011719 506.453125 725.480469 502.867188 Z M 725.480469 502.867188 " fill-opacity="1" fill-rule="evenodd"/><path fill="#e6e6e6" d="M 733.132812 503.949219 L 738.9375 503.46875 L 739.632812 522.808594 L 733.910156 523.265625 Z M 733.132812 503.949219 " fill-opacity="1" fill-rule="evenodd"/><path fill="#ad5c26" d="M 713.703125 479.015625 C 714.402344 483.484375 716.132812 490.753906 718.226562 494.355469 C 720.429688 498.140625 731.285156 503.300781 735.816406 502.277344 L 736.769531 526.335938 C 709.597656 527.710938 693.429688 511.203125 694.746094 484.480469 C 695.429688 470.675781 711.125 462.523438 713.703125 479.015625 Z M 713.703125 479.015625 " fill-opacity="1" fill-rule="evenodd"/><path fill="#283747" d="M 793.207031 469.1875 L 776.144531 488.792969 C 775.867188 488.140625 775.441406 487.539062 774.867188 487.050781 L 774.863281 487.050781 C 774.289062 486.558594 773.625 486.230469 772.929688 486.0625 L 789.792969 466.285156 C 790.871094 467.304688 792.007812 468.273438 793.207031 469.1875 Z M 793.207031 469.1875 " fill-opacity="1" fill-rule="evenodd"/><path fill="#91380b" d="M 775.425781 486.476562 C 777.375 488.1875 777.574219 491.179688 775.867188 493.128906 L 747.476562 525.539062 C 745.769531 527.492188 742.773438 527.6875 740.824219 525.980469 C 738.871094 524.273438 738.675781 521.277344 740.382812 519.328125 L 768.769531 486.917969 C 770.480469 484.96875 773.472656 484.769531 775.425781 486.476562 Z M 775.425781 486.476562 " fill-opacity="1" fill-rule="evenodd"/><path fill="#ff8000" d="M 759.023438 496.761719 C 759.09375 496.804688 762.824219 499.335938 763.875 502.484375 C 765.511719 507.398438 759.96875 513.351562 752.625 505.164062 C 754.976562 508.355469 757.867188 511.171875 755.128906 514.699219 C 751.554688 518.972656 740.238281 513.660156 740.898438 503.917969 C 741.316406 497.742188 748.234375 489.042969 755.203125 486.96875 C 757.160156 486.386719 758.710938 486.375 760.089844 486.785156 C 763.4375 487.78125 767.207031 490.535156 768.113281 493.882812 C 769.054688 497.359375 766.929688 501.332031 759.023438 496.761719 Z M 759.023438 496.761719 " fill-opacity="1" fill-rule="evenodd"/><path fill="#34485c" d="M 839.441406 409.238281 C 842.304688 411.578125 833.371094 427.238281 819.488281 444.222656 C 805.609375 461.207031 792.035156 473.074219 789.171875 470.738281 C 786.3125 468.402344 795.246094 452.738281 809.125 435.753906 C 823.007812 418.773438 836.582031 406.902344 839.441406 409.238281 M 837.632812 414.015625 C 836.40625 413.144531 826.3125 423.671875 815.09375 437.53125 C 803.875 451.386719 795.777344 463.332031 797.003906 464.203125 C 798.234375 465.074219 808.324219 454.546875 819.546875 440.6875 C 830.765625 426.828125 838.863281 414.886719 837.632812 414.015625 " fill-opacity="1" fill-rule="evenodd"/><path fill="#ffffff" d="M 837.453125 413.964844 C 835.632812 413.964844 826.015625 424.066406 815.320312 437.25 C 816.761719 438.4375 818.140625 439.667969 819.402344 440.867188 C 819.449219 440.808594 819.496094 440.75 819.546875 440.6875 C 822.054688 437.589844 824.40625 434.585938 826.535156 431.78125 C 833.917969 422.042969 838.589844 414.691406 837.632812 414.015625 C 837.585938 413.980469 837.523438 413.964844 837.453125 413.964844 " fill-opacity="1" fill-rule="nonzero"/><path fill="#e48b47" d="M 815.320312 437.25 C 815.246094 437.34375 815.171875 437.4375 815.09375 437.53125 C 809.613281 444.300781 804.878906 450.609375 801.613281 455.398438 C 798.1875 460.414062 796.378906 463.757812 797.003906 464.203125 C 797.054688 464.238281 797.113281 464.253906 797.1875 464.253906 C 797.484375 464.253906 797.984375 463.988281 798.660156 463.484375 C 800.324219 462.25 803.054688 459.59375 806.429688 455.953125 C 810.160156 451.921875 814.679688 446.695312 819.402344 440.867188 C 818.140625 439.667969 816.761719 438.4375 815.320312 437.25 " fill-opacity="1" fill-rule="nonzero"/><path fill="#6d7b89" d="M 806.429688 455.953125 C 803.054688 459.59375 800.324219 462.25 798.660156 463.484375 C 800.324219 462.25 803.054688 459.59375 806.429688 455.953125 M 826.535156 431.78125 C 824.40625 434.585938 822.054688 437.589844 819.546875 440.6875 C 822.054688 437.589844 824.40625 434.585938 826.535156 431.78125 M 837.453125 413.964844 C 837.523438 413.964844 837.585938 413.980469 837.632812 414.015625 C 837.585938 413.980469 837.523438 413.964844 837.453125 413.964844 M 837.453125 413.964844 C 835.621094 413.964844 825.878906 424.207031 815.09375 437.53125 C 809.613281 444.300781 804.878906 450.609375 801.613281 455.398438 C 804.878906 450.609375 809.613281 444.300781 815.09375 437.53125 C 815.171875 437.4375 815.246094 437.34375 815.320312 437.25 C 826.015625 424.066406 835.632812 413.964844 837.453125 413.964844 " fill-opacity="1" fill-rule="nonzero"/><path fill="#4d4d4d" d="M 812.183594 535.332031 C 810.765625 535.144531 810.433594 533.773438 810.777344 533.011719 C 811.789062 530.769531 810.957031 531.640625 810.816406 529.957031 C 810.601562 527.347656 815.746094 529.222656 817.230469 530.003906 C 821.859375 532.4375 814.570312 535.640625 812.183594 535.332031 Z M 812.183594 535.332031 " fill-opacity="1" fill-rule="evenodd"/><path fill="#4d4d4d" d="M 834.988281 530.058594 C 834.925781 530.914062 832.074219 531.417969 830.285156 531.558594 C 825.308594 531.945312 822.675781 530.382812 826.65625 529.367188 L 826.835938 529.324219 C 826.867188 529.320312 826.902344 529.3125 826.933594 529.308594 L 827.800781 529.164062 C 828.40625 529.0625 828.808594 529.027344 829.507812 528.984375 C 831.585938 528.859375 835.066406 529.058594 834.988281 530.058594 Z M 834.988281 530.058594 " fill-opacity="1" fill-rule="evenodd"/><path fill="#4d4d4d" d="M 834.960938 534.097656 C 833.847656 535.191406 828.777344 534.898438 826.609375 534.316406 C 825.691406 534.070312 824.382812 533.542969 824.921875 532.925781 C 825.609375 532.132812 829.019531 532.089844 831.101562 532.308594 C 832.285156 532.4375 833.265625 532.648438 833.945312 532.898438 C 833.996094 532.917969 834.101562 532.957031 834.160156 532.980469 C 834.191406 532.992188 834.285156 533.03125 834.316406 533.042969 L 834.910156 533.375 C 835.335938 533.714844 835.066406 533.996094 834.960938 534.097656 Z M 834.960938 534.097656 " fill-opacity="1" fill-rule="evenodd"/><path fill="#4d4d4d" d="M 825.417969 528.179688 C 825.140625 528.527344 824.792969 528.699219 823.953125 528.9375 C 822.085938 529.464844 818.714844 529.472656 817.925781 528.726562 C 817.84375 528.648438 817.789062 528.582031 817.765625 528.457031 C 817.519531 527.21875 823.820312 526.410156 825.378906 527.5625 C 825.511719 527.664062 825.546875 527.703125 825.5625 527.824219 C 825.566406 527.84375 825.554688 528.011719 825.550781 528.027344 C 825.5 528.15625 825.417969 528.175781 825.417969 528.179688 Z M 825.417969 528.179688 " fill-opacity="1" fill-rule="evenodd"/><g clip-path="url(#dfe28bfb66)"><path fill="#4d4d4d" d="M 825.925781 536.003906 C 825.71875 536.253906 825.738281 536.269531 825.246094 536.417969 C 823.722656 536.871094 821.03125 536.582031 819.753906 536.128906 C 818.9375 535.84375 817.8125 535.332031 818.3125 534.808594 C 818.792969 534.308594 819.945312 534.253906 821.042969 534.238281 C 822.367188 534.21875 824.210938 534.550781 825.140625 534.988281 C 826.289062 535.535156 826.050781 535.878906 826.015625 535.929688 Z M 825.925781 536.003906 " fill-opacity="1" fill-rule="evenodd"/></g><path fill="#4d4d4d" d="M 773.585938 527.597656 C 772.167969 527.410156 771.835938 526.039062 772.179688 525.277344 C 773.191406 523.035156 772.359375 523.90625 772.21875 522.222656 C 772.003906 519.613281 777.148438 521.488281 778.628906 522.269531 C 783.261719 524.703125 775.972656 527.90625 773.585938 527.597656 Z M 773.585938 527.597656 " fill-opacity="1" fill-rule="evenodd"/><path fill="#4d4d4d" d="M 796.390625 522.324219 C 796.324219 523.179688 793.472656 523.683594 791.683594 523.824219 C 786.710938 524.210938 784.078125 522.648438 788.058594 521.632812 L 788.238281 521.589844 C 788.269531 521.585938 788.304688 521.578125 788.335938 521.574219 L 789.199219 521.429688 C 789.808594 521.328125 790.210938 521.292969 790.910156 521.25 C 792.984375 521.125 796.464844 521.324219 796.390625 522.324219 Z M 796.390625 522.324219 " fill-opacity="1" fill-rule="evenodd"/><path fill="#4d4d4d" d="M 796.363281 526.363281 C 795.246094 527.457031 790.179688 527.164062 788.011719 526.582031 C 787.09375 526.335938 785.785156 525.808594 786.324219 525.1875 C 787.011719 524.398438 790.421875 524.355469 792.503906 524.574219 C 793.6875 524.703125 794.664062 524.914062 795.347656 525.164062 C 795.398438 525.183594 795.503906 525.222656 795.558594 525.246094 C 795.589844 525.257812 795.6875 525.296875 795.71875 525.308594 L 796.3125 525.640625 C 796.738281 525.980469 796.464844 526.261719 796.363281 526.363281 Z M 796.363281 526.363281 " fill-opacity="1" fill-rule="evenodd"/><path fill="#4d4d4d" d="M 786.816406 520.445312 C 786.542969 520.792969 786.195312 520.964844 785.355469 521.203125 C 783.488281 521.730469 780.113281 521.738281 779.324219 520.992188 C 779.246094 520.914062 779.191406 520.847656 779.164062 520.722656 C 778.921875 519.484375 785.222656 518.675781 786.78125 519.828125 C 786.914062 519.929688 786.945312 519.96875 786.964844 520.089844 C 786.96875 520.109375 786.957031 520.277344 786.949219 520.292969 C 786.902344 520.421875 786.820312 520.441406 786.816406 520.445312 Z M 786.816406 520.445312 " fill-opacity="1" fill-rule="evenodd"/><path fill="#4d4d4d" d="M 787.328125 528.269531 C 787.121094 528.519531 787.136719 528.535156 786.644531 528.683594 C 785.125 529.136719 782.433594 528.847656 781.15625 528.394531 C 780.339844 528.105469 779.214844 527.597656 779.714844 527.074219 C 780.195312 526.574219 781.347656 526.519531 782.441406 526.503906 C 783.765625 526.484375 785.613281 526.816406 786.539062 527.253906 C 787.691406 527.800781 787.453125 528.140625 787.417969 528.195312 Z M 787.328125 528.269531 " fill-opacity="1" fill-rule="evenodd"/><path fill="#4d4d4d" d="M 850.441406 525.957031 C 849.019531 525.773438 848.6875 524.402344 849.03125 523.636719 C 850.046875 521.394531 849.210938 522.265625 849.074219 520.582031 C 848.855469 517.972656 854.003906 519.851562 855.484375 520.628906 C 860.117188 523.0625 852.824219 526.269531 850.441406 525.957031 Z M 850.441406 525.957031 " fill-opacity="1" fill-rule="evenodd"/><g clip-path="url(#de0f170820)"><path fill="#4d4d4d" d="M 873.246094 520.683594 C 873.179688 521.539062 870.328125 522.042969 868.539062 522.183594 C 863.566406 522.570312 860.933594 521.007812 864.914062 519.992188 L 865.09375 519.953125 C 865.121094 519.945312 865.160156 519.9375 865.1875 519.933594 L 866.054688 519.789062 C 866.660156 519.6875 867.066406 519.652344 867.765625 519.609375 C 869.839844 519.484375 873.320312 519.683594 873.246094 520.683594 Z M 873.246094 520.683594 " fill-opacity="1" fill-rule="evenodd"/></g><g clip-path="url(#8e48d52099)"><path fill="#4d4d4d" d="M 873.21875 524.722656 C 872.101562 525.816406 867.03125 525.523438 864.867188 524.941406 C 863.949219 524.695312 862.640625 524.167969 863.175781 523.550781 C 863.863281 522.757812 867.277344 522.714844 869.359375 522.9375 C 870.542969 523.0625 871.519531 523.273438 872.199219 523.523438 C 872.253906 523.542969 872.355469 523.585938 872.414062 523.609375 C 872.445312 523.621094 872.542969 523.65625 872.574219 523.667969 L 873.167969 524.003906 C 873.59375 524.339844 873.320312 524.621094 873.21875 524.722656 Z M 873.21875 524.722656 " fill-opacity="1" fill-rule="evenodd"/></g><path fill="#4d4d4d" d="M 863.671875 518.804688 C 863.394531 519.152344 863.050781 519.324219 862.210938 519.5625 C 860.34375 520.089844 856.96875 520.097656 856.179688 519.351562 C 856.097656 519.277344 856.046875 519.207031 856.019531 519.082031 C 855.777344 517.847656 862.074219 517.039062 863.632812 518.191406 C 863.769531 518.289062 863.800781 518.328125 863.820312 518.449219 C 863.824219 518.46875 863.8125 518.636719 863.804688 518.65625 C 863.757812 518.78125 863.675781 518.800781 863.671875 518.804688 Z M 863.671875 518.804688 " fill-opacity="1" fill-rule="evenodd"/><path fill="#4d4d4d" d="M 864.183594 526.632812 C 863.976562 526.878906 863.992188 526.894531 863.5 527.042969 C 861.980469 527.496094 859.289062 527.207031 858.011719 526.757812 C 857.191406 526.46875 856.070312 525.957031 856.566406 525.4375 C 857.050781 524.933594 858.203125 524.878906 859.296875 524.863281 C 860.621094 524.84375 862.46875 525.175781 863.394531 525.613281 C 864.542969 526.160156 864.308594 526.503906 864.269531 526.554688 Z M 864.183594 526.632812 " fill-opacity="1" fill-rule="evenodd"/><path fill="#808080" d="M 625.398438 497.570312 C 624.078125 498.5625 622.21875 499.242188 620.191406 499.453125 C 618.328125 499.644531 616.308594 499.445312 614.414062 498.734375 L 614.964844 497.253906 C 616.621094 497.875 618.394531 498.046875 620.03125 497.878906 C 621.773438 497.699219 623.347656 497.132812 624.445312 496.304688 Z M 625.398438 497.570312 " fill-opacity="1" fill-rule="evenodd"/><path fill="#808080" d="M 626.605469 371.003906 C 626.605469 369.351562 627.183594 367.460938 628.238281 365.714844 C 629.207031 364.113281 630.585938 362.621094 632.292969 361.535156 L 633.144531 362.867188 C 631.652344 363.8125 630.445312 365.125 629.59375 366.53125 C 628.6875 368.03125 628.191406 369.628906 628.191406 371.003906 Z M 626.605469 371.003906 " fill-opacity="1" fill-rule="evenodd"/><path fill="#ad5c26" d="M 689.394531 503.242188 C 688.914062 504.992188 687.109375 506.023438 685.355469 505.546875 C 683.605469 505.066406 682.574219 503.261719 683.050781 501.511719 C 683.53125 499.761719 685.339844 498.730469 687.089844 499.207031 C 688.839844 499.683594 689.871094 501.492188 689.394531 503.242188 Z M 689.394531 503.242188 " fill-opacity="1" fill-rule="evenodd"/><path fill="#ad5c26" d="M 665.882812 499.125 C 665.402344 500.875 663.597656 501.90625 661.847656 501.425781 C 660.09375 500.949219 659.0625 499.144531 659.542969 497.394531 C 660.019531 495.640625 661.828125 494.609375 663.578125 495.089844 C 665.328125 495.566406 666.359375 497.375 665.882812 499.125 Z M 665.882812 499.125 " fill-opacity="1" fill-rule="evenodd"/><path fill="#cccccc" d="M 736.527344 520.214844 L 736.640625 523.046875 L 739.238281 522.839844 C 739.175781 522.113281 739.28125 521.371094 739.554688 520.679688 L 739.53125 519.984375 C 738.507812 520.082031 737.507812 520.15625 736.527344 520.214844 Z M 736.527344 520.214844 " fill-opacity="1" fill-rule="evenodd"/><path fill="#9c5322" d="M 736.640625 523.046875 L 736.527344 520.214844 C 735.597656 520.265625 734.683594 520.300781 733.792969 520.316406 C 718.761719 520.578125 709.515625 515.558594 703.898438 508.160156 C 702.082031 505.769531 700.640625 503.125 699.511719 500.332031 C 696.871094 493.820312 695.898438 486.484375 695.664062 479.570312 C 695.15625 481.089844 694.832031 482.738281 694.746094 484.480469 C 694.449219 490.492188 695.039062 495.992188 696.441406 500.882812 C 697.230469 503.640625 698.28125 506.207031 699.574219 508.566406 C 706.175781 520.609375 719.164062 527.226562 736.769531 526.335938 Z M 736.640625 523.046875 " fill-opacity="1" fill-rule="evenodd"/><g fill="#963d41" fill-opacity="1"><g transform="translate(326.142645, 441.749998)"><g><path d="M 30.796875 1 C 27.398438 1 24.347656 0.5 21.640625 -0.5 C 18.941406 -1.5 16.644531 -2.929688 14.75 -4.796875 C 12.851562 -6.660156 11.382812 -8.925781 10.34375 -11.59375 C 9.3125 -14.257812 8.796875 -17.226562 8.796875 -20.5 L 8.796875 -34.5 C 8.796875 -37.769531 9.3125 -40.738281 10.34375 -43.40625 C 11.382812 -46.070312 12.851562 -48.335938 14.75 -50.203125 C 16.644531 -52.066406 18.941406 -53.5 21.640625 -54.5 C 24.347656 -55.5 27.398438 -56 30.796875 -56 C 36.867188 -56 41.851562 -54.347656 45.75 -51.046875 C 49.644531 -47.742188 51.992188 -43.226562 52.796875 -37.5 L 43.796875 -37.5 C 43.328125 -40.695312 41.910156 -43.242188 39.546875 -45.140625 C 37.179688 -47.046875 34.265625 -48 30.796875 -48 C 26.796875 -48 23.628906 -46.796875 21.296875 -44.390625 C 18.960938 -41.992188 17.796875 -38.695312 17.796875 -34.5 L 17.796875 -20.5 C 17.796875 -16.300781 18.945312 -13 21.25 -10.59375 C 23.550781 -8.195312 26.734375 -7 30.796875 -7 C 34.265625 -7 37.179688 -7.945312 39.546875 -9.84375 C 41.910156 -11.75 43.328125 -14.300781 43.796875 -17.5 L 52.796875 -17.5 C 51.929688 -11.695312 49.546875 -7.160156 45.640625 -3.890625 C 41.742188 -0.628906 36.796875 1 30.796875 1 Z M 30.796875 1 "/></g></g></g><g fill="#963d41" fill-opacity="1"><g transform="translate(386.14033, 441.749998)"><g><path d="M 17 -20.5 C 17 -16.300781 18.148438 -13 20.453125 -10.59375 C 22.753906 -8.195312 25.9375 -7 30 -7 C 34 -7 37.164062 -8.195312 39.5 -10.59375 C 41.832031 -13 43 -16.300781 43 -20.5 L 43 -34.5 C 43 -38.695312 41.832031 -41.992188 39.5 -44.390625 C 37.164062 -46.796875 34 -48 30 -48 C 26 -48 22.832031 -46.796875 20.5 -44.390625 C 18.164062 -41.992188 17 -38.695312 17 -34.5 Z M 8 -34.5 C 8 -37.832031 8.515625 -40.816406 9.546875 -43.453125 C 10.578125 -46.085938 12.039062 -48.335938 13.9375 -50.203125 C 15.84375 -52.066406 18.144531 -53.5 20.84375 -54.5 C 23.550781 -55.5 26.601562 -56 30 -56 C 36.800781 -56 42.164062 -54.097656 46.09375 -50.296875 C 50.03125 -46.492188 52 -41.257812 52 -34.59375 L 52 -20.5 C 52 -17.164062 51.5 -14.164062 50.5 -11.5 C 49.5 -8.832031 48.046875 -6.582031 46.140625 -4.75 C 44.242188 -2.914062 41.925781 -1.5 39.1875 -0.5 C 36.457031 0.5 33.394531 1 30 1 C 26.601562 1 23.550781 0.5 20.84375 -0.5 C 18.144531 -1.5 15.84375 -2.929688 13.9375 -4.796875 C 12.039062 -6.660156 10.578125 -8.925781 9.546875 -11.59375 C 8.515625 -14.257812 8 -17.226562 8 -20.5 Z M 8 -34.5 "/></g></g></g><g fill="#963d41" fill-opacity="1"><g transform="translate(446.138016, 441.749998)"><g><path d="M 8 -34.5 C 8 -37.832031 8.445312 -40.832031 9.34375 -43.5 C 10.25 -46.164062 11.5 -48.414062 13.09375 -50.25 C 14.695312 -52.082031 16.628906 -53.5 18.890625 -54.5 C 21.160156 -55.5 23.695312 -56 26.5 -56 C 30.5625 -56 33.925781 -55.082031 36.59375 -53.25 C 39.257812 -51.414062 41.03125 -48.832031 41.90625 -45.5 L 42.703125 -45.5 C 42.628906 -46.632812 42.5625 -47.769531 42.5 -48.90625 C 42.363281 -49.90625 42.28125 -50.953125 42.25 -52.046875 C 42.21875 -53.148438 42.203125 -54.132812 42.203125 -55 L 42.203125 -73 L 51.203125 -73 L 51.203125 0 L 42.703125 0 L 42.703125 -9.5 L 41.90625 -9.5 C 41.03125 -6.164062 39.257812 -3.582031 36.59375 -1.75 C 33.925781 0.0820312 30.5625 1 26.5 1 C 23.695312 1 21.160156 0.5 18.890625 -0.5 C 16.628906 -1.5 14.695312 -2.914062 13.09375 -4.75 C 11.5 -6.582031 10.25 -8.832031 9.34375 -11.5 C 8.445312 -14.164062 8 -17.164062 8 -20.5 Z M 29.90625 -6.796875 C 33.632812 -6.796875 36.613281 -8.03125 38.84375 -10.5 C 41.082031 -12.96875 42.203125 -16.300781 42.203125 -20.5 L 42.203125 -34.5 C 42.203125 -38.695312 41.082031 -42.03125 38.84375 -44.5 C 36.613281 -46.96875 33.632812 -48.203125 29.90625 -48.203125 C 25.832031 -48.203125 22.660156 -47 20.390625 -44.59375 C 18.128906 -42.195312 17 -38.832031 17 -34.5 L 17 -20.5 C 17 -16.300781 18.148438 -12.96875 20.453125 -10.5 C 22.753906 -8.03125 25.90625 -6.796875 29.90625 -6.796875 Z M 29.90625 -6.796875 "/></g></g></g><g fill="#963d41" fill-opacity="1"><g transform="translate(506.135701, 441.749998)"><g><path d="M 30 1 C 23.132812 1 17.75 -0.863281 13.84375 -4.59375 C 9.945312 -8.332031 8 -13.46875 8 -20 L 8 -35 C 8 -41.53125 9.945312 -46.660156 13.84375 -50.390625 C 17.75 -54.128906 23.132812 -56 30 -56 C 36.863281 -56 42.242188 -54.128906 46.140625 -50.390625 C 50.046875 -46.660156 52 -41.53125 52 -35 L 52 -24.90625 L 17 -24.90625 L 17 -20.5 C 17 -16.300781 18.148438 -13 20.453125 -10.59375 C 22.753906 -8.195312 25.9375 -7 30 -7 C 33 -7 35.597656 -7.460938 37.796875 -8.390625 C 39.992188 -9.328125 41.628906 -10.695312 42.703125 -12.5 L 51.703125 -12.5 C 50.566406 -8.300781 48.046875 -5 44.140625 -2.59375 C 40.242188 -0.195312 35.53125 1 30 1 Z M 43 -32.40625 L 43 -35 C 43 -39.132812 41.863281 -42.332031 39.59375 -44.59375 C 37.332031 -46.863281 34.132812 -48 30 -48 C 25.863281 -48 22.660156 -46.863281 20.390625 -44.59375 C 18.128906 -42.332031 17 -39.132812 17 -35 L 17 -32.40625 Z M 43 -32.40625 "/></g></g></g><g fill="#963d41" fill-opacity="1"><g transform="translate(873.857242, 441.749998)"><g><path d="M 3 -55 L 10.5 -55 L 15.296875 -17.296875 C 15.429688 -16.296875 15.566406 -15.09375 15.703125 -13.6875 C 15.835938 -12.289062 15.96875 -10.925781 16.09375 -9.59375 C 16.300781 -8 16.46875 -6.398438 16.59375 -4.796875 L 17.59375 -4.796875 C 17.800781 -6.460938 18.003906 -8.0625 18.203125 -9.59375 C 18.398438 -10.925781 18.597656 -12.3125 18.796875 -13.75 C 18.992188 -15.1875 19.160156 -16.367188 19.296875 -17.296875 L 25 -55 L 34.90625 -55 L 40.5 -17.296875 C 40.632812 -16.296875 40.800781 -15.078125 41 -13.640625 C 41.195312 -12.210938 41.394531 -10.832031 41.59375 -9.5 C 41.800781 -7.96875 42.003906 -6.398438 42.203125 -4.796875 L 43.296875 -4.796875 C 43.492188 -6.398438 43.695312 -8 43.90625 -9.59375 C 44.03125 -10.925781 44.175781 -12.289062 44.34375 -13.6875 C 44.507812 -15.09375 44.660156 -16.296875 44.796875 -17.296875 L 49.703125 -55 L 57 -55 L 49.203125 0 L 37 0 L 31.203125 -38.90625 C 31.066406 -40.03125 30.945312 -41.207031 30.84375 -42.4375 C 30.75 -43.675781 30.664062 -44.832031 30.59375 -45.90625 C 30.53125 -47.101562 30.5 -48.300781 30.5 -49.5 L 29.5 -49.5 C 29.4375 -48.300781 29.367188 -47.101562 29.296875 -45.90625 C 29.234375 -44.832031 29.148438 -43.675781 29.046875 -42.4375 C 28.953125 -41.207031 28.800781 -40.03125 28.59375 -38.90625 L 22.59375 0 L 10.703125 0 Z M 3 -55 "/></g></g></g><g fill="#963d41" fill-opacity="1"><g transform="translate(933.854928, 441.749998)"><g><path d="M 17 -20.5 C 17 -16.300781 18.148438 -13 20.453125 -10.59375 C 22.753906 -8.195312 25.9375 -7 30 -7 C 34 -7 37.164062 -8.195312 39.5 -10.59375 C 41.832031 -13 43 -16.300781 43 -20.5 L 43 -34.5 C 43 -38.695312 41.832031 -41.992188 39.5 -44.390625 C 37.164062 -46.796875 34 -48 30 -48 C 26 -48 22.832031 -46.796875 20.5 -44.390625 C 18.164062 -41.992188 17 -38.695312 17 -34.5 Z M 8 -34.5 C 8 -37.832031 8.515625 -40.816406 9.546875 -43.453125 C 10.578125 -46.085938 12.039062 -48.335938 13.9375 -50.203125 C 15.84375 -52.066406 18.144531 -53.5 20.84375 -54.5 C 23.550781 -55.5 26.601562 -56 30 -56 C 36.800781 -56 42.164062 -54.097656 46.09375 -50.296875 C 50.03125 -46.492188 52 -41.257812 52 -34.59375 L 52 -20.5 C 52 -17.164062 51.5 -14.164062 50.5 -11.5 C 49.5 -8.832031 48.046875 -6.582031 46.140625 -4.75 C 44.242188 -2.914062 41.925781 -1.5 39.1875 -0.5 C 36.457031 0.5 33.394531 1 30 1 C 26.601562 1 23.550781 0.5 20.84375 -0.5 C 18.144531 -1.5 15.84375 -2.929688 13.9375 -4.796875 C 12.039062 -6.660156 10.578125 -8.925781 9.546875 -11.59375 C 8.515625 -14.257812 8 -17.226562 8 -20.5 Z M 8 -34.5 "/></g></g></g><g fill="#963d41" fill-opacity="1"><g transform="translate(993.852613, 441.749998)"><g><path d="M 11.203125 -55 L 19.703125 -55 L 19.703125 -45.5 L 20.5 -45.5 C 21.363281 -48.769531 23.160156 -51.335938 25.890625 -53.203125 C 28.628906 -55.066406 32 -56 36 -56 C 41.800781 -56 46.347656 -54.179688 49.640625 -50.546875 C 52.941406 -46.910156 54.59375 -41.925781 54.59375 -35.59375 L 54.59375 -32.5 L 45.59375 -32.5 L 45.59375 -34.5 C 45.59375 -38.832031 44.507812 -42.179688 42.34375 -44.546875 C 40.175781 -46.910156 37.09375 -48.09375 33.09375 -48.09375 C 29.164062 -48.09375 26.035156 -46.875 23.703125 -44.4375 C 21.367188 -42.007812 20.203125 -38.695312 20.203125 -34.5 L 20.203125 0 L 11.203125 0 Z M 11.203125 -55 "/></g></g></g><g fill="#963d41" fill-opacity="1"><g transform="translate(1053.850299, 441.749998)"><g><path d="M 8 -34.5 C 8 -37.832031 8.445312 -40.832031 9.34375 -43.5 C 10.25 -46.164062 11.5 -48.414062 13.09375 -50.25 C 14.695312 -52.082031 16.628906 -53.5 18.890625 -54.5 C 21.160156 -55.5 23.695312 -56 26.5 -56 C 30.5625 -56 33.925781 -55.082031 36.59375 -53.25 C 39.257812 -51.414062 41.03125 -48.832031 41.90625 -45.5 L 42.703125 -45.5 C 42.628906 -46.632812 42.5625 -47.769531 42.5 -48.90625 C 42.363281 -49.90625 42.28125 -50.953125 42.25 -52.046875 C 42.21875 -53.148438 42.203125 -54.132812 42.203125 -55 L 42.203125 -73 L 51.203125 -73 L 51.203125 0 L 42.703125 0 L 42.703125 -9.5 L 41.90625 -9.5 C 41.03125 -6.164062 39.257812 -3.582031 36.59375 -1.75 C 33.925781 0.0820312 30.5625 1 26.5 1 C 23.695312 1 21.160156 0.5 18.890625 -0.5 C 16.628906 -1.5 14.695312 -2.914062 13.09375 -4.75 C 11.5 -6.582031 10.25 -8.832031 9.34375 -11.5 C 8.445312 -14.164062 8 -17.164062 8 -20.5 Z M 29.90625 -6.796875 C 33.632812 -6.796875 36.613281 -8.03125 38.84375 -10.5 C 41.082031 -12.96875 42.203125 -16.300781 42.203125 -20.5 L 42.203125 -34.5 C 42.203125 -38.695312 41.082031 -42.03125 38.84375 -44.5 C 36.613281 -46.96875 33.632812 -48.203125 29.90625 -48.203125 C 25.832031 -48.203125 22.660156 -47 20.390625 -44.59375 C 18.128906 -42.195312 17 -38.832031 17 -34.5 L 17 -20.5 C 17 -16.300781 18.148438 -12.96875 20.453125 -10.5 C 22.753906 -8.03125 25.90625 -6.796875 29.90625 -6.796875 Z M 29.90625 -6.796875 "/></g></g></g><g fill="#963d41" fill-opacity="1"><g transform="translate(1113.847984, 441.749998)"><g><path d="M 28.5 1 C 22.695312 1 17.910156 -0.316406 14.140625 -2.953125 C 10.378906 -5.585938 8.234375 -9.101562 7.703125 -13.5 L 17.203125 -13.5 C 17.597656 -11.5625 18.828125 -9.992188 20.890625 -8.796875 C 22.960938 -7.597656 25.5 -7 28.5 -7 L 31.296875 -7 C 34.898438 -7 37.703125 -7.75 39.703125 -9.25 C 41.703125 -10.75 42.703125 -12.765625 42.703125 -15.296875 C 42.703125 -19.628906 39.632812 -22.265625 33.5 -23.203125 L 25.203125 -24.40625 C 19.796875 -25.195312 15.757812 -26.894531 13.09375 -29.5 C 10.425781 -32.101562 9.09375 -35.738281 9.09375 -40.40625 C 9.09375 -45.332031 10.84375 -49.160156 14.34375 -51.890625 C 17.84375 -54.628906 22.726562 -56 29 -56 L 31.796875 -56 C 34.460938 -56 36.925781 -55.664062 39.1875 -55 C 41.457031 -54.332031 43.457031 -53.378906 45.1875 -52.140625 C 46.925781 -50.910156 48.34375 -49.445312 49.4375 -47.75 C 50.539062 -46.050781 51.257812 -44.164062 51.59375 -42.09375 L 42.09375 -42.09375 C 41.695312 -43.832031 40.566406 -45.25 38.703125 -46.34375 C 36.835938 -47.445312 34.535156 -48 31.796875 -48 L 29 -48 C 25.601562 -48 22.953125 -47.332031 21.046875 -46 C 19.148438 -44.664062 18.203125 -42.664062 18.203125 -40 C 18.203125 -37.863281 18.847656 -36.242188 20.140625 -35.140625 C 21.441406 -34.046875 23.5625 -33.300781 26.5 -32.90625 L 34.796875 -31.703125 C 40.734375 -30.835938 45.050781 -29.101562 47.75 -26.5 C 50.445312 -23.894531 51.796875 -20.195312 51.796875 -15.40625 C 51.796875 -10.269531 50.007812 -6.25 46.4375 -3.34375 C 42.875 -0.445312 37.828125 1 31.296875 1 Z M 28.5 1 "/></g></g></g></svg>