<svg xmlns="http://www.w3.org/2000/svg" xmlns:xlink="http://www.w3.org/1999/xlink" width="1920" zoomAndPan="magnify" viewBox="0 0 1440 809.999993" height="1080" preserveAspectRatio="xMidYMid meet" version="1.0"><defs><g/><clipPath id="b7d8a2a97c"><path d="M 618.910156 303.910156 L 821.410156 303.910156 L 821.410156 506.410156 L 618.910156 506.410156 Z M 618.910156 303.910156 " clip-rule="nonzero"/></clipPath></defs><g clip-path="url(#b7d8a2a97c)"><path fill="#33d9b2" d="M 821.410156 405.160156 C 821.410156 406.816406 821.367188 408.472656 821.289062 410.128906 C 821.207031 411.78125 821.085938 413.433594 820.921875 415.082031 C 820.757812 416.734375 820.558594 418.378906 820.3125 420.015625 C 820.070312 421.65625 819.789062 423.289062 819.464844 424.914062 C 819.140625 426.539062 818.777344 428.152344 818.375 429.761719 C 817.972656 431.367188 817.53125 432.964844 817.050781 434.550781 C 816.570312 436.136719 816.050781 437.710938 815.492188 439.269531 C 814.933594 440.828125 814.335938 442.375 813.703125 443.90625 C 813.066406 445.4375 812.398438 446.953125 811.6875 448.449219 C 810.980469 449.949219 810.234375 451.425781 809.453125 452.886719 C 808.671875 454.351562 807.855469 455.792969 807.003906 457.210938 C 806.152344 458.632812 805.265625 460.035156 804.347656 461.410156 C 803.425781 462.789062 802.472656 464.144531 801.484375 465.472656 C 800.496094 466.804688 799.476562 468.109375 798.425781 469.390625 C 797.375 470.671875 796.292969 471.925781 795.179688 473.15625 C 794.066406 474.382812 792.925781 475.582031 791.753906 476.753906 C 790.582031 477.925781 789.382812 479.066406 788.15625 480.179688 C 786.925781 481.292969 785.671875 482.375 784.390625 483.425781 C 783.109375 484.476562 781.804688 485.496094 780.472656 486.484375 C 779.144531 487.472656 777.789062 488.425781 776.410156 489.347656 C 775.035156 490.265625 773.632812 491.152344 772.210938 492.003906 C 770.792969 492.855469 769.351562 493.671875 767.886719 494.453125 C 766.425781 495.234375 764.949219 495.980469 763.449219 496.6875 C 761.953125 497.398438 760.4375 498.066406 758.90625 498.703125 C 757.375 499.335938 755.828125 499.933594 754.269531 500.492188 C 752.710938 501.050781 751.136719 501.570312 749.550781 502.050781 C 747.964844 502.53125 746.367188 502.972656 744.761719 503.375 C 743.152344 503.777344 741.539062 504.140625 739.914062 504.464844 C 738.289062 504.789062 736.65625 505.070312 735.015625 505.3125 C 733.375 505.558594 731.734375 505.757812 730.082031 505.921875 C 728.433594 506.085938 726.78125 506.207031 725.128906 506.289062 C 723.472656 506.367188 721.816406 506.410156 720.160156 506.410156 C 718.503906 506.410156 716.847656 506.367188 715.191406 506.289062 C 713.535156 506.207031 711.882812 506.085938 710.234375 505.921875 C 708.585938 505.757812 706.941406 505.558594 705.304688 505.3125 C 703.664062 505.070312 702.03125 504.789062 700.40625 504.464844 C 698.78125 504.140625 697.164062 503.777344 695.558594 503.375 C 693.949219 502.972656 692.355469 502.53125 690.769531 502.050781 C 689.183594 501.570312 687.609375 501.050781 686.050781 500.492188 C 684.488281 499.933594 682.945312 499.335938 681.414062 498.703125 C 679.882812 498.066406 678.367188 497.398438 676.871094 496.6875 C 675.371094 495.980469 673.890625 495.234375 672.429688 494.453125 C 670.96875 493.671875 669.527344 492.855469 668.105469 492.003906 C 666.683594 491.152344 665.285156 490.265625 663.90625 489.347656 C 662.53125 488.425781 661.175781 487.472656 659.84375 486.484375 C 658.515625 485.496094 657.207031 484.476562 655.925781 483.425781 C 654.644531 482.375 653.390625 481.292969 652.164062 480.179688 C 650.9375 479.066406 649.738281 477.925781 648.566406 476.753906 C 647.394531 475.582031 646.25 474.382812 645.136719 473.15625 C 644.027344 471.925781 642.945312 470.671875 641.890625 469.390625 C 640.839844 468.109375 639.820312 466.804688 638.835938 465.472656 C 637.847656 464.144531 636.894531 462.789062 635.972656 461.410156 C 635.050781 460.035156 634.167969 458.632812 633.316406 457.210938 C 632.460938 455.792969 631.644531 454.351562 630.863281 452.886719 C 630.082031 451.425781 629.339844 449.949219 628.628906 448.449219 C 627.921875 446.953125 627.25 445.4375 626.617188 443.90625 C 625.984375 442.375 625.386719 440.828125 624.828125 439.269531 C 624.269531 437.710938 623.75 436.136719 623.269531 434.550781 C 622.789062 432.964844 622.347656 431.367188 621.945312 429.761719 C 621.542969 428.152344 621.179688 426.539062 620.855469 424.914062 C 620.53125 423.289062 620.25 421.65625 620.003906 420.015625 C 619.761719 418.378906 619.558594 416.734375 619.398438 415.082031 C 619.234375 413.433594 619.113281 411.78125 619.03125 410.128906 C 618.949219 408.472656 618.910156 406.816406 618.910156 405.160156 C 618.910156 403.503906 618.949219 401.847656 619.03125 400.191406 C 619.113281 398.535156 619.234375 396.882812 619.398438 395.234375 C 619.558594 393.585938 619.761719 391.941406 620.003906 390.304688 C 620.25 388.664062 620.53125 387.03125 620.855469 385.40625 C 621.179688 383.78125 621.542969 382.164062 621.945312 380.558594 C 622.347656 378.949219 622.789062 377.355469 623.269531 375.769531 C 623.75 374.183594 624.269531 372.609375 624.828125 371.050781 C 625.386719 369.488281 625.984375 367.945312 626.617188 366.414062 C 627.25 364.882812 627.921875 363.367188 628.628906 361.871094 C 629.339844 360.371094 630.082031 358.890625 630.863281 357.429688 C 631.644531 355.96875 632.460938 354.527344 633.316406 353.105469 C 634.167969 351.683594 635.050781 350.285156 635.972656 348.90625 C 636.894531 347.53125 637.847656 346.175781 638.835938 344.84375 C 639.820312 343.515625 640.839844 342.207031 641.890625 340.925781 C 642.945312 339.644531 644.027344 338.390625 645.136719 337.164062 C 646.25 335.9375 647.394531 334.738281 648.566406 333.566406 C 649.738281 332.394531 650.9375 331.25 652.164062 330.136719 C 653.390625 329.027344 654.644531 327.945312 655.925781 326.890625 C 657.207031 325.839844 658.515625 324.820312 659.84375 323.835938 C 661.175781 322.847656 662.53125 321.894531 663.90625 320.972656 C 665.285156 320.050781 666.683594 319.167969 668.105469 318.316406 C 669.527344 317.460938 670.96875 316.644531 672.429688 315.863281 C 673.890625 315.082031 675.371094 314.339844 676.871094 313.628906 C 678.367188 312.921875 679.882812 312.25 681.414062 311.617188 C 682.945312 310.984375 684.488281 310.386719 686.050781 309.828125 C 687.609375 309.269531 689.183594 308.75 690.769531 308.269531 C 692.355469 307.789062 693.949219 307.347656 695.558594 306.945312 C 697.164062 306.542969 698.78125 306.179688 700.40625 305.855469 C 702.03125 305.53125 703.664062 305.25 705.304688 305.003906 C 706.941406 304.761719 708.585938 304.558594 710.234375 304.398438 C 711.882812 304.234375 713.535156 304.113281 715.191406 304.03125 C 716.847656 303.949219 718.503906 303.910156 720.160156 303.910156 C 721.816406 303.910156 723.472656 303.949219 725.128906 304.03125 C 726.78125 304.113281 728.433594 304.234375 730.082031 304.398438 C 731.734375 304.558594 733.375 304.761719 735.015625 305.003906 C 736.65625 305.25 738.289062 305.53125 739.914062 305.855469 C 741.539062 306.179688 743.152344 306.542969 744.761719 306.945312 C 746.367188 307.347656 747.964844 307.789062 749.550781 308.269531 C 751.136719 308.75 752.710938 309.269531 754.269531 309.828125 C 755.828125 310.386719 757.375 310.984375 758.90625 311.617188 C 760.4375 312.25 761.953125 312.921875 763.449219 313.628906 C 764.949219 314.339844 766.425781 315.082031 767.886719 315.863281 C 769.351562 316.644531 770.792969 317.460938 772.210938 318.316406 C 773.632812 319.167969 775.035156 320.050781 776.410156 320.972656 C 777.789062 321.894531 779.144531 322.847656 780.472656 323.835938 C 781.804688 324.820312 783.109375 325.839844 784.390625 326.890625 C 785.671875 327.945312 786.925781 329.027344 788.15625 330.136719 C 789.382812 331.25 790.582031 332.394531 791.753906 333.566406 C 792.925781 334.738281 794.066406 335.9375 795.179688 337.164062 C 796.292969 338.390625 797.375 339.644531 798.425781 340.925781 C 799.476562 342.207031 800.496094 343.515625 801.484375 344.84375 C 802.472656 346.175781 803.425781 347.53125 804.347656 348.90625 C 805.265625 350.285156 806.152344 351.683594 807.003906 353.105469 C 807.855469 354.527344 808.671875 355.96875 809.453125 357.429688 C 810.234375 358.890625 810.980469 360.371094 811.6875 361.871094 C 812.398438 363.367188 813.066406 364.882812 813.703125 366.414062 C 814.335938 367.945312 814.933594 369.488281 815.492188 371.050781 C 816.050781 372.609375 816.570312 374.183594 817.050781 375.769531 C 817.53125 377.355469 817.972656 378.949219 818.375 380.558594 C 818.777344 382.164062 819.140625 383.78125 819.464844 385.40625 C 819.789062 387.03125 820.070312 388.664062 820.3125 390.304688 C 820.558594 391.941406 820.757812 393.585938 820.921875 395.234375 C 821.085938 396.882812 821.207031 398.535156 821.289062 400.191406 C 821.367188 401.847656 821.410156 403.503906 821.410156 405.160156 Z M 821.410156 405.160156 " fill-opacity="1" fill-rule="nonzero"/></g><path fill="#ffffff" d="M 762.28125 415.855469 C 762.28125 415.488281 762.207031 415.128906 762.066406 414.789062 C 761.925781 414.445312 761.722656 414.144531 761.460938 413.882812 C 761.199219 413.621094 760.898438 413.417969 760.554688 413.277344 C 760.214844 413.136719 759.855469 413.0625 759.488281 413.0625 L 750.882812 413.0625 L 750.882812 398.601562 C 750.882812 398.230469 750.8125 397.875 750.671875 397.535156 C 750.53125 397.191406 750.328125 396.890625 750.066406 396.628906 C 749.804688 396.367188 749.5 396.164062 749.160156 396.023438 C 748.816406 395.878906 748.460938 395.808594 748.089844 395.808594 L 725.375 395.808594 C 725.003906 395.808594 724.648438 395.878906 724.308594 396.023438 C 723.964844 396.164062 723.664062 396.367188 723.402344 396.628906 C 723.140625 396.890625 722.9375 397.191406 722.796875 397.535156 C 722.652344 397.875 722.582031 398.230469 722.582031 398.601562 L 722.582031 413.0625 L 711.976562 413.0625 L 739.375 358.457031 C 739.484375 358.246094 739.5625 358.023438 739.609375 357.789062 C 739.660156 357.558594 739.679688 357.320312 739.667969 357.082031 C 739.65625 356.847656 739.617188 356.613281 739.546875 356.386719 C 739.476562 356.15625 739.378906 355.941406 739.253906 355.738281 C 739.128906 355.539062 738.980469 355.355469 738.808594 355.191406 C 738.636719 355.023438 738.445312 354.882812 738.238281 354.769531 C 738.027344 354.652344 737.808594 354.566406 737.578125 354.503906 C 737.347656 354.445312 737.113281 354.414062 736.875 354.414062 L 712.535156 354.414062 C 712.011719 354.417969 711.523438 354.554688 711.078125 354.828125 C 710.628906 355.101562 710.285156 355.472656 710.046875 355.9375 L 678.347656 418.132812 C 678.140625 418.53125 678.039062 418.957031 678.039062 419.40625 L 678.039062 435.882812 C 678.039062 436.253906 678.109375 436.609375 678.253906 436.953125 C 678.394531 437.292969 678.597656 437.597656 678.859375 437.859375 C 679.121094 438.121094 679.421875 438.324219 679.765625 438.464844 C 680.105469 438.605469 680.460938 438.675781 680.832031 438.675781 L 722.582031 438.675781 L 722.582031 453.136719 C 722.582031 453.507812 722.652344 453.863281 722.796875 454.207031 C 722.9375 454.550781 723.140625 454.851562 723.402344 455.113281 C 723.664062 455.375 723.964844 455.578125 724.308594 455.71875 C 724.648438 455.859375 725.003906 455.929688 725.375 455.929688 L 748.089844 455.929688 C 748.460938 455.929688 748.816406 455.859375 749.160156 455.71875 C 749.5 455.578125 749.804688 455.375 750.066406 455.113281 C 750.328125 454.851562 750.53125 454.550781 750.671875 454.207031 C 750.8125 453.863281 750.882812 453.507812 750.882812 453.136719 L 750.882812 438.675781 L 759.464844 438.675781 C 759.835938 438.675781 760.191406 438.605469 760.535156 438.464844 C 760.875 438.324219 761.179688 438.121094 761.441406 437.859375 C 761.703125 437.597656 761.902344 437.292969 762.046875 436.953125 C 762.1875 436.609375 762.257812 436.253906 762.257812 435.882812 Z M 762.28125 415.855469 " fill-opacity="1" fill-rule="nonzero"/><g fill="#33d9b2" fill-opacity="1"><g transform="translate(352.934168, 441.749998)"><g><path d="M 31.203125 -73 L 31.203125 -16 C 31.203125 -13.53125 31.867188 -11.613281 33.203125 -10.25 C 34.535156 -8.882812 36.367188 -8.203125 38.703125 -8.203125 L 55 -8.203125 L 55 0 L 38.703125 0 C 33.566406 0 29.53125 -1.414062 26.59375 -4.25 C 23.664062 -7.082031 22.203125 -11 22.203125 -16 L 22.203125 -64.796875 L 4 -64.796875 L 4 -73 Z M 31.203125 -73 "/></g></g></g><g fill="#33d9b2" fill-opacity="1"><g transform="translate(412.931853, 441.749998)"><g><path d="M 9.5 0 L 9.5 -8.203125 L 29.5 -8.203125 L 29.5 -46.796875 L 12 -46.796875 L 12 -55 L 38.5 -55 L 38.5 -8.203125 L 55 -8.203125 L 55 0 Z M 31.5 -76.5 L 33.5 -76.5 C 35.4375 -76.5 37.003906 -75.929688 38.203125 -74.796875 C 39.398438 -73.660156 40 -72.195312 40 -70.40625 C 40 -68.601562 39.398438 -67.164062 38.203125 -66.09375 C 37.003906 -65.03125 35.4375 -64.5 33.5 -64.5 L 31.5 -64.5 C 29.5625 -64.5 27.992188 -65.015625 26.796875 -66.046875 C 25.597656 -67.078125 25 -68.53125 25 -70.40625 C 25 -72.195312 25.597656 -73.660156 26.796875 -74.796875 C 27.992188 -75.929688 29.5625 -76.5 31.5 -76.5 Z M 31.5 -76.5 "/></g></g></g><g fill="#33d9b2" fill-opacity="1"><g transform="translate(472.929539, 441.749998)"><g><path d="M 8.796875 0 L 8.796875 -55 L 17.296875 -55 L 17.296875 -45.5 L 18.09375 -45.5 C 18.96875 -48.832031 20.71875 -51.414062 23.34375 -53.25 C 25.976562 -55.082031 29.265625 -56 33.203125 -56 C 35.929688 -56 38.410156 -55.53125 40.640625 -54.59375 C 42.878906 -53.664062 44.78125 -52.347656 46.34375 -50.640625 C 47.914062 -48.941406 49.132812 -46.910156 50 -44.546875 C 50.863281 -42.179688 51.296875 -39.53125 51.296875 -36.59375 L 51.296875 0 L 42.296875 0 L 42.296875 -35.09375 C 42.296875 -39.300781 41.226562 -42.570312 39.09375 -44.90625 C 36.96875 -47.238281 34.003906 -48.40625 30.203125 -48.40625 C 26.398438 -48.40625 23.378906 -47.15625 21.140625 -44.65625 C 18.910156 -42.15625 17.796875 -38.769531 17.796875 -34.5 L 17.796875 0 Z M 8.796875 0 "/></g></g></g><g fill="#33d9b2" fill-opacity="1"><g transform="translate(532.927224, 441.749998)"><g><path d="M 30 1 C 23.132812 1 17.75 -0.863281 13.84375 -4.59375 C 9.945312 -8.332031 8 -13.46875 8 -20 L 8 -35 C 8 -41.53125 9.945312 -46.660156 13.84375 -50.390625 C 17.75 -54.128906 23.132812 -56 30 -56 C 36.863281 -56 42.242188 -54.128906 46.140625 -50.390625 C 50.046875 -46.660156 52 -41.53125 52 -35 L 52 -24.90625 L 17 -24.90625 L 17 -20.5 C 17 -16.300781 18.148438 -13 20.453125 -10.59375 C 22.753906 -8.195312 25.9375 -7 30 -7 C 33 -7 35.597656 -7.460938 37.796875 -8.390625 C 39.992188 -9.328125 41.628906 -10.695312 42.703125 -12.5 L 51.703125 -12.5 C 50.566406 -8.300781 48.046875 -5 44.140625 -2.59375 C 40.242188 -0.195312 35.53125 1 30 1 Z M 43 -32.40625 L 43 -35 C 43 -39.132812 41.863281 -42.332031 39.59375 -44.59375 C 37.332031 -46.863281 34.132812 -48 30 -48 C 25.863281 -48 22.660156 -46.863281 20.390625 -44.59375 C 18.128906 -42.332031 17 -39.132812 17 -35 L 17 -32.40625 Z M 43 -32.40625 "/></g></g></g><g fill="#33d9b2" fill-opacity="1"><g transform="translate(847.340412, 441.749998)"><g><path d="M 6 -41.296875 L 6 -49.5 L 22 -49.5 L 22 -59 C 22 -63.394531 23.363281 -66.828125 26.09375 -69.296875 C 28.832031 -71.765625 32.601562 -73 37.40625 -73 L 53.5 -73 L 53.5 -64.796875 L 37.40625 -64.796875 C 33.132812 -64.796875 31 -62.863281 31 -59 L 31 -49.5 L 53.5 -49.5 L 53.5 -41.296875 L 31 -41.296875 L 31 0 L 22 0 L 22 -41.296875 Z M 6 -41.296875 "/></g></g></g><g fill="#33d9b2" fill-opacity="1"><g transform="translate(907.338097, 441.749998)"><g><path d="M 17 -20.5 C 17 -16.300781 18.148438 -13 20.453125 -10.59375 C 22.753906 -8.195312 25.9375 -7 30 -7 C 34 -7 37.164062 -8.195312 39.5 -10.59375 C 41.832031 -13 43 -16.300781 43 -20.5 L 43 -34.5 C 43 -38.695312 41.832031 -41.992188 39.5 -44.390625 C 37.164062 -46.796875 34 -48 30 -48 C 26 -48 22.832031 -46.796875 20.5 -44.390625 C 18.164062 -41.992188 17 -38.695312 17 -34.5 Z M 8 -34.5 C 8 -37.832031 8.515625 -40.816406 9.546875 -43.453125 C 10.578125 -46.085938 12.039062 -48.335938 13.9375 -50.203125 C 15.84375 -52.066406 18.144531 -53.5 20.84375 -54.5 C 23.550781 -55.5 26.601562 -56 30 -56 C 36.800781 -56 42.164062 -54.097656 46.09375 -50.296875 C 50.03125 -46.492188 52 -41.257812 52 -34.59375 L 52 -20.5 C 52 -17.164062 51.5 -14.164062 50.5 -11.5 C 49.5 -8.832031 48.046875 -6.582031 46.140625 -4.75 C 44.242188 -2.914062 41.925781 -1.5 39.1875 -0.5 C 36.457031 0.5 33.394531 1 30 1 C 26.601562 1 23.550781 0.5 20.84375 -0.5 C 18.144531 -1.5 15.84375 -2.929688 13.9375 -4.796875 C 12.039062 -6.660156 10.578125 -8.925781 9.546875 -11.59375 C 8.515625 -14.257812 8 -17.226562 8 -20.5 Z M 8 -34.5 "/></g></g></g><g fill="#33d9b2" fill-opacity="1"><g transform="translate(967.335783, 441.749998)"><g><path d="M 9 -55 L 18 -55 L 18 -19.40625 C 18 -11.070312 21.96875 -6.90625 29.90625 -6.90625 C 37.96875 -6.90625 42 -11.070312 42 -19.40625 L 42 -55 L 51 -55 L 51 -19.40625 C 51 -12.863281 49.179688 -7.828125 45.546875 -4.296875 C 41.910156 -0.765625 36.695312 1 29.90625 1 C 23.238281 1 18.085938 -0.78125 14.453125 -4.34375 C 10.816406 -7.914062 9 -12.9375 9 -19.40625 Z M 9 -55 "/></g></g></g><g fill="#33d9b2" fill-opacity="1"><g transform="translate(1027.333468, 441.749998)"><g><path d="M 11.203125 -55 L 19.703125 -55 L 19.703125 -45.5 L 20.5 -45.5 C 21.363281 -48.769531 23.160156 -51.335938 25.890625 -53.203125 C 28.628906 -55.066406 32 -56 36 -56 C 41.800781 -56 46.347656 -54.179688 49.640625 -50.546875 C 52.941406 -46.910156 54.59375 -41.925781 54.59375 -35.59375 L 54.59375 -32.5 L 45.59375 -32.5 L 45.59375 -34.5 C 45.59375 -38.832031 44.507812 -42.179688 42.34375 -44.546875 C 40.175781 -46.910156 37.09375 -48.09375 33.09375 -48.09375 C 29.164062 -48.09375 26.035156 -46.875 23.703125 -44.4375 C 21.367188 -42.007812 20.203125 -38.695312 20.203125 -34.5 L 20.203125 0 L 11.203125 0 Z M 11.203125 -55 "/></g></g></g></svg>