<svg xmlns="http://www.w3.org/2000/svg" xmlns:xlink="http://www.w3.org/1999/xlink" width="1920" zoomAndPan="magnify" viewBox="0 0 1440 809.999993" height="1080" preserveAspectRatio="xMidYMid meet" version="1.0"><defs><g/><clipPath id="992fb8c125"><path d="M 619.214844 417 L 677 417 L 677 476 L 619.214844 476 Z M 619.214844 417 " clip-rule="nonzero"/></clipPath><clipPath id="a749aac8ec"><path d="M 619.214844 436 L 642 436 L 642 459 L 619.214844 459 Z M 619.214844 436 " clip-rule="nonzero"/></clipPath><clipPath id="291cf801f5"><path d="M 730 311.019531 L 820.964844 311.019531 L 820.964844 402 L 730 402 Z M 730 311.019531 " clip-rule="nonzero"/></clipPath></defs><rect x="-144" width="1728" fill="#ffffff" y="-80.999999" height="971.999992" fill-opacity="1"/><rect x="-144" width="1728" fill="#ffffff" y="-80.999999" height="971.999992" fill-opacity="1"/><g clip-path="url(#992fb8c125)"><path fill="#c98d09" d="M 676.46875 447.835938 L 646.480469 417.828125 L 641.027344 423.285156 L 649.207031 431.46875 L 646.480469 434.199219 L 643.753906 431.46875 L 638.300781 436.925781 L 646.480469 445.109375 L 641.027344 450.566406 L 627.394531 436.925781 L 624.667969 439.652344 L 630.121094 445.109375 L 627.394531 447.835938 L 621.941406 442.382812 L 619.214844 445.109375 L 649.207031 475.117188 Z M 676.46875 447.835938 " fill-opacity="1" fill-rule="nonzero"/></g><g clip-path="url(#a749aac8ec)"><path fill="#a67508" d="M 627.394531 436.925781 L 624.667969 439.652344 L 630.121094 445.109375 L 627.394531 447.835938 L 621.941406 442.382812 L 619.214844 445.109375 L 632.847656 458.75 L 641.027344 450.566406 Z M 627.394531 436.925781 " fill-opacity="1" fill-rule="nonzero"/></g><g clip-path="url(#291cf801f5)"><path fill="#ffc107" d="M 775.980469 401.460938 C 751.171875 401.460938 730.996094 381.273438 730.996094 356.449219 C 730.996094 331.621094 751.171875 311.433594 775.980469 311.433594 C 800.789062 311.433594 820.964844 331.621094 820.964844 356.449219 C 820.964844 381.273438 800.789062 401.460938 775.980469 401.460938 Z M 775.980469 327.804688 C 760.167969 327.804688 747.355469 340.625 747.355469 356.449219 C 747.355469 372.269531 760.167969 385.09375 775.980469 385.09375 C 791.792969 385.09375 804.605469 372.269531 804.605469 356.449219 C 804.605469 340.625 791.792969 327.804688 775.980469 327.804688 Z M 775.980469 327.804688 " fill-opacity="1" fill-rule="nonzero"/></g><path fill="#ffc107" d="M 644.570312 497.761719 L 634.753906 487.941406 C 633.664062 486.847656 633.664062 485.210938 634.753906 484.121094 L 732.359375 386.457031 L 745.992188 400.097656 L 648.386719 497.761719 C 647.296875 498.851562 645.660156 498.851562 644.570312 497.761719 Z M 644.570312 497.761719 " fill-opacity="1" fill-rule="nonzero"/><path fill="#c98d09" d="M 724.179688 386.183594 L 732.085938 378.273438 C 733.996094 376.363281 737.265625 376.363281 739.175781 378.273438 L 754.167969 393.277344 C 756.078125 395.1875 756.078125 398.460938 754.167969 400.371094 L 746.261719 408.28125 C 744.355469 410.191406 741.082031 410.191406 739.175781 408.28125 L 724.179688 393.277344 C 722.273438 391.367188 722.273438 388.09375 724.179688 386.183594 Z M 724.179688 386.183594 " fill-opacity="1" fill-rule="nonzero"/><g fill="#c98d09" fill-opacity="1"><g transform="translate(342.454266, 441.749998)"><g><path d="M 17.296875 -55 L 17.296875 -45.5 L 18.09375 -45.5 C 18.96875 -48.832031 20.738281 -51.414062 23.40625 -53.25 C 26.070312 -55.082031 29.4375 -56 33.5 -56 C 36.300781 -56 38.832031 -55.5 41.09375 -54.5 C 43.363281 -53.5 45.296875 -52.082031 46.890625 -50.25 C 48.492188 -48.414062 49.742188 -46.164062 50.640625 -43.5 C 51.546875 -40.832031 52 -37.832031 52 -34.5 L 52 -20.5 C 52 -17.164062 51.546875 -14.164062 50.640625 -11.5 C 49.742188 -8.832031 48.492188 -6.582031 46.890625 -4.75 C 45.296875 -2.914062 43.363281 -1.5 41.09375 -0.5 C 38.832031 0.5 36.300781 1 33.5 1 C 29.4375 1 26.070312 0.0820312 23.40625 -1.75 C 20.738281 -3.582031 18.96875 -6.164062 18.09375 -9.5 L 17.296875 -9.5 C 17.367188 -8.363281 17.46875 -7.226562 17.59375 -6.09375 C 17.664062 -5.09375 17.71875 -4.0625 17.75 -3 C 17.78125 -1.9375 17.796875 -0.9375 17.796875 0 L 17.796875 16.5 L 8.796875 16.5 L 8.796875 -55 Z M 17.796875 -20.5 C 17.796875 -16.300781 18.910156 -12.96875 21.140625 -10.5 C 23.378906 -8.03125 26.363281 -6.796875 30.09375 -6.796875 C 34.09375 -6.796875 37.242188 -8.03125 39.546875 -10.5 C 41.847656 -12.96875 43 -16.300781 43 -20.5 L 43 -34.5 C 43 -38.832031 41.863281 -42.195312 39.59375 -44.59375 C 37.332031 -47 34.164062 -48.203125 30.09375 -48.203125 C 26.363281 -48.203125 23.378906 -46.96875 21.140625 -44.5 C 18.910156 -42.03125 17.796875 -38.695312 17.796875 -34.5 Z M 17.796875 -20.5 "/></g></g></g><g fill="#c98d09" fill-opacity="1"><g transform="translate(402.451951, 441.749998)"><g><path d="M 6.296875 -16 C 6.296875 -18.601562 6.742188 -20.953125 7.640625 -23.046875 C 8.546875 -25.148438 9.847656 -26.929688 11.546875 -28.390625 C 13.242188 -29.859375 15.289062 -30.992188 17.6875 -31.796875 C 20.09375 -32.597656 22.796875 -33 25.796875 -33 L 42.203125 -33 L 42.203125 -37.5 C 42.203125 -40.894531 41.082031 -43.539062 38.84375 -45.4375 C 36.613281 -47.34375 33.398438 -48.296875 29.203125 -48.296875 C 26.128906 -48.296875 23.507812 -47.726562 21.34375 -46.59375 C 19.175781 -45.46875 17.726562 -43.90625 17 -41.90625 L 8 -41.90625 C 8.9375 -46.238281 11.320312 -49.671875 15.15625 -52.203125 C 18.988281 -54.734375 23.738281 -56 29.40625 -56 C 36.195312 -56 41.523438 -54.414062 45.390625 -51.25 C 49.265625 -48.082031 51.203125 -43.664062 51.203125 -38 L 51.203125 0 L 43 0 L 43 -10.5 L 42.203125 -10.5 C 41.335938 -6.96875 39.300781 -4.164062 36.09375 -2.09375 C 32.894531 -0.03125 29 1 24.40625 1 C 18.863281 1 14.457031 -0.53125 11.1875 -3.59375 C 7.925781 -6.664062 6.296875 -10.800781 6.296875 -16 Z M 26.40625 -6.40625 C 28.664062 -6.40625 30.757812 -6.703125 32.6875 -7.296875 C 34.625 -7.898438 36.289062 -8.75 37.6875 -9.84375 C 39.09375 -10.945312 40.195312 -12.234375 41 -13.703125 C 41.800781 -15.171875 42.203125 -16.769531 42.203125 -18.5 L 42.203125 -26 L 26 -26 C 22.664062 -26 20.046875 -25.128906 18.140625 -23.390625 C 16.242188 -21.660156 15.296875 -19.265625 15.296875 -16.203125 C 15.296875 -13.128906 16.257812 -10.726562 18.1875 -9 C 20.125 -7.269531 22.863281 -6.40625 26.40625 -6.40625 Z M 26.40625 -6.40625 "/></g></g></g><g fill="#c98d09" fill-opacity="1"><g transform="translate(462.449637, 441.749998)"><g><path d="M 28.5 1 C 22.695312 1 17.910156 -0.316406 14.140625 -2.953125 C 10.378906 -5.585938 8.234375 -9.101562 7.703125 -13.5 L 17.203125 -13.5 C 17.597656 -11.5625 18.828125 -9.992188 20.890625 -8.796875 C 22.960938 -7.597656 25.5 -7 28.5 -7 L 31.296875 -7 C 34.898438 -7 37.703125 -7.75 39.703125 -9.25 C 41.703125 -10.75 42.703125 -12.765625 42.703125 -15.296875 C 42.703125 -19.628906 39.632812 -22.265625 33.5 -23.203125 L 25.203125 -24.40625 C 19.796875 -25.195312 15.757812 -26.894531 13.09375 -29.5 C 10.425781 -32.101562 9.09375 -35.738281 9.09375 -40.40625 C 9.09375 -45.332031 10.84375 -49.160156 14.34375 -51.890625 C 17.84375 -54.628906 22.726562 -56 29 -56 L 31.796875 -56 C 34.460938 -56 36.925781 -55.664062 39.1875 -55 C 41.457031 -54.332031 43.457031 -53.378906 45.1875 -52.140625 C 46.925781 -50.910156 48.34375 -49.445312 49.4375 -47.75 C 50.539062 -46.050781 51.257812 -44.164062 51.59375 -42.09375 L 42.09375 -42.09375 C 41.695312 -43.832031 40.566406 -45.25 38.703125 -46.34375 C 36.835938 -47.445312 34.535156 -48 31.796875 -48 L 29 -48 C 25.601562 -48 22.953125 -47.332031 21.046875 -46 C 19.148438 -44.664062 18.203125 -42.664062 18.203125 -40 C 18.203125 -37.863281 18.847656 -36.242188 20.140625 -35.140625 C 21.441406 -34.046875 23.5625 -33.300781 26.5 -32.90625 L 34.796875 -31.703125 C 40.734375 -30.835938 45.050781 -29.101562 47.75 -26.5 C 50.445312 -23.894531 51.796875 -20.195312 51.796875 -15.40625 C 51.796875 -10.269531 50.007812 -6.25 46.4375 -3.34375 C 42.875 -0.445312 37.828125 1 31.296875 1 Z M 28.5 1 "/></g></g></g><g fill="#c98d09" fill-opacity="1"><g transform="translate(522.447322, 441.749998)"><g><path d="M 28.5 1 C 22.695312 1 17.910156 -0.316406 14.140625 -2.953125 C 10.378906 -5.585938 8.234375 -9.101562 7.703125 -13.5 L 17.203125 -13.5 C 17.597656 -11.5625 18.828125 -9.992188 20.890625 -8.796875 C 22.960938 -7.597656 25.5 -7 28.5 -7 L 31.296875 -7 C 34.898438 -7 37.703125 -7.75 39.703125 -9.25 C 41.703125 -10.75 42.703125 -12.765625 42.703125 -15.296875 C 42.703125 -19.628906 39.632812 -22.265625 33.5 -23.203125 L 25.203125 -24.40625 C 19.796875 -25.195312 15.757812 -26.894531 13.09375 -29.5 C 10.425781 -32.101562 9.09375 -35.738281 9.09375 -40.40625 C 9.09375 -45.332031 10.84375 -49.160156 14.34375 -51.890625 C 17.84375 -54.628906 22.726562 -56 29 -56 L 31.796875 -56 C 34.460938 -56 36.925781 -55.664062 39.1875 -55 C 41.457031 -54.332031 43.457031 -53.378906 45.1875 -52.140625 C 46.925781 -50.910156 48.34375 -49.445312 49.4375 -47.75 C 50.539062 -46.050781 51.257812 -44.164062 51.59375 -42.09375 L 42.09375 -42.09375 C 41.695312 -43.832031 40.566406 -45.25 38.703125 -46.34375 C 36.835938 -47.445312 34.535156 -48 31.796875 -48 L 29 -48 C 25.601562 -48 22.953125 -47.332031 21.046875 -46 C 19.148438 -44.664062 18.203125 -42.664062 18.203125 -40 C 18.203125 -37.863281 18.847656 -36.242188 20.140625 -35.140625 C 21.441406 -34.046875 23.5625 -33.300781 26.5 -32.90625 L 34.796875 -31.703125 C 40.734375 -30.835938 45.050781 -29.101562 47.75 -26.5 C 50.445312 -23.894531 51.796875 -20.195312 51.796875 -15.40625 C 51.796875 -10.269531 50.007812 -6.25 46.4375 -3.34375 C 42.875 -0.445312 37.828125 1 31.296875 1 Z M 28.5 1 "/></g></g></g><g fill="#c98d09" fill-opacity="1"><g transform="translate(857.534483, 441.749998)"><g><path d="M 3 -55 L 10.5 -55 L 15.296875 -17.296875 C 15.429688 -16.296875 15.566406 -15.09375 15.703125 -13.6875 C 15.835938 -12.289062 15.96875 -10.925781 16.09375 -9.59375 C 16.300781 -8 16.46875 -6.398438 16.59375 -4.796875 L 17.59375 -4.796875 C 17.800781 -6.460938 18.003906 -8.0625 18.203125 -9.59375 C 18.398438 -10.925781 18.597656 -12.3125 18.796875 -13.75 C 18.992188 -15.1875 19.160156 -16.367188 19.296875 -17.296875 L 25 -55 L 34.90625 -55 L 40.5 -17.296875 C 40.632812 -16.296875 40.800781 -15.078125 41 -13.640625 C 41.195312 -12.210938 41.394531 -10.832031 41.59375 -9.5 C 41.800781 -7.96875 42.003906 -6.398438 42.203125 -4.796875 L 43.296875 -4.796875 C 43.492188 -6.398438 43.695312 -8 43.90625 -9.59375 C 44.03125 -10.925781 44.175781 -12.289062 44.34375 -13.6875 C 44.507812 -15.09375 44.660156 -16.296875 44.796875 -17.296875 L 49.703125 -55 L 57 -55 L 49.203125 0 L 37 0 L 31.203125 -38.90625 C 31.066406 -40.03125 30.945312 -41.207031 30.84375 -42.4375 C 30.75 -43.675781 30.664062 -44.832031 30.59375 -45.90625 C 30.53125 -47.101562 30.5 -48.300781 30.5 -49.5 L 29.5 -49.5 C 29.4375 -48.300781 29.367188 -47.101562 29.296875 -45.90625 C 29.234375 -44.832031 29.148438 -43.675781 29.046875 -42.4375 C 28.953125 -41.207031 28.800781 -40.03125 28.59375 -38.90625 L 22.59375 0 L 10.703125 0 Z M 3 -55 "/></g></g></g><g fill="#c98d09" fill-opacity="1"><g transform="translate(917.532169, 441.749998)"><g><path d="M 17 -20.5 C 17 -16.300781 18.148438 -13 20.453125 -10.59375 C 22.753906 -8.195312 25.9375 -7 30 -7 C 34 -7 37.164062 -8.195312 39.5 -10.59375 C 41.832031 -13 43 -16.300781 43 -20.5 L 43 -34.5 C 43 -38.695312 41.832031 -41.992188 39.5 -44.390625 C 37.164062 -46.796875 34 -48 30 -48 C 26 -48 22.832031 -46.796875 20.5 -44.390625 C 18.164062 -41.992188 17 -38.695312 17 -34.5 Z M 8 -34.5 C 8 -37.832031 8.515625 -40.816406 9.546875 -43.453125 C 10.578125 -46.085938 12.039062 -48.335938 13.9375 -50.203125 C 15.84375 -52.066406 18.144531 -53.5 20.84375 -54.5 C 23.550781 -55.5 26.601562 -56 30 -56 C 36.800781 -56 42.164062 -54.097656 46.09375 -50.296875 C 50.03125 -46.492188 52 -41.257812 52 -34.59375 L 52 -20.5 C 52 -17.164062 51.5 -14.164062 50.5 -11.5 C 49.5 -8.832031 48.046875 -6.582031 46.140625 -4.75 C 44.242188 -2.914062 41.925781 -1.5 39.1875 -0.5 C 36.457031 0.5 33.394531 1 30 1 C 26.601562 1 23.550781 0.5 20.84375 -0.5 C 18.144531 -1.5 15.84375 -2.929688 13.9375 -4.796875 C 12.039062 -6.660156 10.578125 -8.925781 9.546875 -11.59375 C 8.515625 -14.257812 8 -17.226562 8 -20.5 Z M 8 -34.5 "/></g></g></g><g fill="#c98d09" fill-opacity="1"><g transform="translate(977.529854, 441.749998)"><g><path d="M 11.203125 -55 L 19.703125 -55 L 19.703125 -45.5 L 20.5 -45.5 C 21.363281 -48.769531 23.160156 -51.335938 25.890625 -53.203125 C 28.628906 -55.066406 32 -56 36 -56 C 41.800781 -56 46.347656 -54.179688 49.640625 -50.546875 C 52.941406 -46.910156 54.59375 -41.925781 54.59375 -35.59375 L 54.59375 -32.5 L 45.59375 -32.5 L 45.59375 -34.5 C 45.59375 -38.832031 44.507812 -42.179688 42.34375 -44.546875 C 40.175781 -46.910156 37.09375 -48.09375 33.09375 -48.09375 C 29.164062 -48.09375 26.035156 -46.875 23.703125 -44.4375 C 21.367188 -42.007812 20.203125 -38.695312 20.203125 -34.5 L 20.203125 0 L 11.203125 0 Z M 11.203125 -55 "/></g></g></g><g fill="#c98d09" fill-opacity="1"><g transform="translate(1037.52754, 441.749998)"><g><path d="M 8 -34.5 C 8 -37.832031 8.445312 -40.832031 9.34375 -43.5 C 10.25 -46.164062 11.5 -48.414062 13.09375 -50.25 C 14.695312 -52.082031 16.628906 -53.5 18.890625 -54.5 C 21.160156 -55.5 23.695312 -56 26.5 -56 C 30.5625 -56 33.925781 -55.082031 36.59375 -53.25 C 39.257812 -51.414062 41.03125 -48.832031 41.90625 -45.5 L 42.703125 -45.5 C 42.628906 -46.632812 42.5625 -47.769531 42.5 -48.90625 C 42.363281 -49.90625 42.28125 -50.953125 42.25 -52.046875 C 42.21875 -53.148438 42.203125 -54.132812 42.203125 -55 L 42.203125 -73 L 51.203125 -73 L 51.203125 0 L 42.703125 0 L 42.703125 -9.5 L 41.90625 -9.5 C 41.03125 -6.164062 39.257812 -3.582031 36.59375 -1.75 C 33.925781 0.0820312 30.5625 1 26.5 1 C 23.695312 1 21.160156 0.5 18.890625 -0.5 C 16.628906 -1.5 14.695312 -2.914062 13.09375 -4.75 C 11.5 -6.582031 10.25 -8.832031 9.34375 -11.5 C 8.445312 -14.164062 8 -17.164062 8 -20.5 Z M 29.90625 -6.796875 C 33.632812 -6.796875 36.613281 -8.03125 38.84375 -10.5 C 41.082031 -12.96875 42.203125 -16.300781 42.203125 -20.5 L 42.203125 -34.5 C 42.203125 -38.695312 41.082031 -42.03125 38.84375 -44.5 C 36.613281 -46.96875 33.632812 -48.203125 29.90625 -48.203125 C 25.832031 -48.203125 22.660156 -47 20.390625 -44.59375 C 18.128906 -42.195312 17 -38.832031 17 -34.5 L 17 -20.5 C 17 -16.300781 18.148438 -12.96875 20.453125 -10.5 C 22.753906 -8.03125 25.90625 -6.796875 29.90625 -6.796875 Z M 29.90625 -6.796875 "/></g></g></g></svg>