<svg xmlns="http://www.w3.org/2000/svg" xmlns:xlink="http://www.w3.org/1999/xlink" width="1920" zoomAndPan="magnify" viewBox="0 0 1440 809.999993" height="1080" preserveAspectRatio="xMidYMid meet" version="1.0"><defs><g/><clipPath id="a14f415833"><path d="M 596.871094 267.214844 L 842.832031 267.214844 L 842.832031 542.464844 L 596.871094 542.464844 Z M 596.871094 267.214844 " clip-rule="nonzero"/></clipPath><clipPath id="2f5eb83fed"><path d="M 628 468 L 632 468 L 632 542.464844 L 628 542.464844 Z M 628 468 " clip-rule="nonzero"/></clipPath></defs><rect x="-144" width="1728" fill="#ffffff" y="-80.999999" height="971.999992" fill-opacity="1"/><rect x="-144" width="1728" fill="#ffffff" y="-80.999999" height="971.999992" fill-opacity="1"/><g clip-path="url(#a14f415833)"><path fill="#963d41" d="M 834.742188 456.152344 C 830.019531 444.007812 822.59375 434.558594 812.8125 426.125 C 806.5 420.683594 800.046875 415.808594 793.457031 411.128906 C 790.515625 402.039062 783.953125 395.546875 777.015625 388.695312 C 775.769531 387.464844 774.511719 386.222656 773.246094 384.933594 C 772.105469 383.730469 770.878906 382.527344 769.605469 381.363281 L 768.5625 380.402344 L 769.710938 379.574219 C 774.402344 376.183594 776.601562 371.878906 775.742188 367.761719 L 775.734375 367.722656 C 779.300781 367.320312 783.5 364.5 785.929688 362.074219 C 798.703125 349.347656 795.851562 330.164062 790.339844 314.753906 C 783.3125 295.101562 765.195312 284.914062 745.929688 279.871094 C 749.722656 279.652344 755.539062 277.625 753.925781 274.214844 C 751.425781 268.734375 742.523438 273.300781 740.308594 276.445312 L 739.839844 277.003906 L 739.679688 276.792969 C 739.351562 276.363281 738.859375 276.082031 738.421875 276.082031 C 738.300781 276.082031 738.183594 276.101562 738.070312 276.144531 L 737.898438 276.207031 C 737.625 272.808594 733.59375 268.355469 730.53125 267.425781 C 728.414062 266.816406 726.160156 267.46875 726.621094 270.042969 C 727.332031 273.429688 731.0625 275.195312 733.554688 276.925781 C 733.460938 276.902344 733.398438 276.890625 733.398438 276.890625 C 715.210938 272.617188 695.953125 275.753906 679.152344 283.566406 C 666.648438 289.378906 653.90625 299.957031 650.789062 314.035156 C 649.457031 320.046875 650.453125 326.113281 653.453125 331.46875 C 653.617188 331.761719 653.804688 332.039062 653.976562 332.324219 C 651.628906 335.003906 650.871094 338.335938 654.136719 341.847656 C 655.941406 343.804688 661.183594 345.320312 666.175781 346.199219 C 666.246094 346.21875 666.320312 346.246094 666.386719 346.253906 C 666.386719 346.253906 666.472656 346.261719 666.59375 346.269531 C 667.902344 346.492188 669.1875 346.667969 670.382812 346.800781 L 670.023438 347.3125 C 666.5625 352.210938 671.390625 358.539062 676.578125 362.464844 L 677.113281 362.871094 L 677.027344 363.535156 C 676.734375 365.730469 676.339844 367.996094 675.882812 370.089844 L 675.710938 370.875 L 674.917969 370.988281 C 669.980469 371.691406 664.339844 373.796875 658.136719 377.25 C 649.511719 381.839844 642.238281 387.421875 636.519531 393.84375 C 634.789062 395.789062 633.207031 397.800781 631.820312 399.824219 C 631.242188 400.664062 631.285156 400.785156 632.050781 402.097656 C 632.847656 403.472656 633.765625 404.894531 634.859375 406.441406 C 635.53125 407.390625 636.21875 408.324219 636.90625 409.257812 C 638.160156 410.957031 639.457031 412.714844 640.625 414.542969 L 640.652344 414.585938 C 627.671875 421.988281 616.335938 431.300781 607.269531 453.117188 C 597.699219 476.152344 595.359375 537.617188 597.730469 540.679688 C 599.816406 543.378906 625.074219 542.214844 633.863281 542.21875 C 651.589844 542.230469 669.320312 542.292969 687.042969 542.261719 C 706.375 542.222656 725.710938 542.097656 745.046875 542.023438 C 760.964844 541.964844 776.882812 541.851562 792.804688 541.742188 C 800.226562 541.691406 807.648438 541.699219 815.070312 541.601562 C 815.175781 541.601562 815.453125 541.636719 815.625 541.625 C 815.628906 541.625 815.628906 541.625 815.632812 541.625 C 816.074219 541.664062 817.414062 541.625 817.875 541.628906 C 827.890625 541.742188 836.917969 533.882812 840.207031 524.410156 C 846.390625 510.28125 840.433594 469.550781 834.742188 456.152344 " fill-opacity="1" fill-rule="nonzero"/></g><path fill="#783035" d="M 839.261719 489.074219 C 827.226562 469.808594 812.761719 451.5 794.953125 437.316406 C 790.148438 433.488281 785.378906 429.539062 780.4375 425.84375 C 784.976562 421.886719 791.328125 416.226562 795 412.234375 C 791.757812 400.382812 782.714844 392.910156 774.085938 384.140625 C 772.945312 382.941406 771.703125 381.714844 770.386719 380.511719 C 767.25 382.777344 763.417969 384.335938 759.8125 384.84375 C 756.066406 392.429688 752.535156 400.058594 745.960938 405.136719 C 744.515625 406.253906 743.003906 407.289062 741.460938 408.289062 C 741.378906 408.390625 741.296875 408.503906 741.210938 408.609375 C 743.808594 408.902344 746.691406 409.519531 748.933594 410.273438 C 749.300781 409.347656 749.671875 408.757812 750.070312 408.578125 C 750.0625 408.765625 750.128906 408.949219 750.328125 409.078125 C 756.4375 413.027344 763.246094 415.992188 769.488281 419.757812 C 778.25 425.042969 786.125 431.785156 794.132812 438.132812 C 811.902344 452.207031 826.289062 470.480469 838.261719 489.65625 C 838.65625 490.289062 839.65625 489.707031 839.261719 489.074219 " fill-opacity="1" fill-rule="nonzero"/><path fill="#783035" d="M 691.875 506.253906 C 691.832031 495.457031 691.175781 484.402344 692.5 473.660156 C 689.929688 466.332031 687.40625 458.972656 685 451.574219 C 684.617188 450.398438 684.222656 449.222656 683.84375 448.039062 C 682.871094 444.992188 681.925781 441.941406 681.007812 438.882812 C 679.710938 434.546875 678.671875 430.234375 677.898438 425.886719 C 677.648438 424.464844 677.429688 423.035156 677.238281 421.605469 C 677.160156 421.007812 677.074219 420.410156 677.007812 419.8125 C 676.558594 415.796875 676.363281 411.734375 676.480469 407.578125 C 676.519531 406.070312 676.589844 404.5625 676.667969 403.054688 C 676.683594 402.753906 676.691406 402.453125 676.707031 402.152344 C 676.796875 400.410156 676.902344 398.664062 677 396.917969 C 676.996094 396.914062 676.996094 396.910156 676.992188 396.90625 C 676.917969 396.78125 676.84375 396.648438 676.769531 396.523438 C 676.679688 396.367188 676.589844 396.214844 676.5 396.058594 C 676.21875 395.5625 675.949219 395.0625 675.703125 394.5625 C 675.699219 394.554688 675.695312 394.550781 675.695312 394.546875 C 675.648438 394.453125 675.605469 394.355469 675.5625 394.257812 C 675.519531 394.179688 675.484375 394.097656 675.449219 394.015625 C 675.257812 393.605469 675.074219 393.1875 674.898438 392.769531 C 674.796875 392.523438 674.691406 392.273438 674.597656 392.023438 C 674.589844 392.003906 674.582031 391.984375 674.578125 391.964844 C 674.324219 391.304688 674.101562 390.632812 673.902344 389.957031 C 673.878906 389.878906 673.851562 389.796875 673.824219 389.714844 C 673.632812 389.054688 673.472656 388.390625 673.328125 387.722656 C 673.304688 387.601562 673.277344 387.476562 673.25 387.355469 C 673.121094 386.691406 673.007812 386.019531 672.921875 385.347656 C 672.90625 385.238281 672.898438 385.125 672.882812 385.015625 C 672.800781 384.3125 672.738281 383.609375 672.710938 382.898438 C 672.710938 382.875 672.710938 382.847656 672.710938 382.824219 C 672.683594 382.125 672.6875 381.417969 672.710938 380.710938 C 672.710938 380.609375 672.714844 380.507812 672.71875 380.40625 C 672.75 379.714844 672.808594 379.023438 672.886719 378.324219 C 672.902344 378.191406 672.917969 378.058594 672.9375 377.925781 C 673.027344 377.230469 673.136719 376.535156 673.277344 375.839844 C 673.300781 375.726562 673.324219 375.617188 673.347656 375.503906 C 673.503906 374.773438 673.679688 374.039062 673.894531 373.308594 C 674.023438 372.859375 674.148438 372.378906 674.277344 371.882812 C 674.3125 371.738281 674.347656 371.589844 674.386719 371.4375 C 674.511719 370.925781 674.636719 370.398438 674.757812 369.84375 C 668.765625 370.699219 662.574219 373.457031 657.59375 376.226562 C 649.441406 380.566406 641.816406 386.160156 635.65625 393.074219 C 633.9375 395.007812 632.328125 397.035156 630.867188 399.167969 C 629.898438 400.578125 630.222656 401.253906 631.050781 402.675781 C 631.9375 404.203125 632.898438 405.664062 633.917969 407.105469 C 635.820312 409.800781 637.878906 412.386719 639.652344 415.164062 C 639.78125 415.367188 639.921875 415.5625 640.046875 415.769531 C 640.117188 415.882812 640.199219 416.011719 640.265625 416.125 C 644.285156 422.605469 647.265625 429.433594 650.59375 436.433594 C 651.816406 439.226562 653.214844 442.023438 654.265625 445.003906 C 654.613281 446.054688 654.785156 448.15625 655.488281 449.035156 C 657.417969 451.125 662.144531 447.625 664.765625 446.574219 C 664.765625 446.574219 657.9375 455.675781 660.214844 460.054688 C 663.148438 465.691406 667.90625 470.710938 671.5 475.929688 C 677.425781 484.53125 688.238281 512.648438 692.015625 518.632812 C 691.941406 514.507812 691.890625 510.378906 691.875 506.253906 " fill-opacity="1" fill-rule="nonzero"/><path fill="#783035" d="M 814.328125 540.476562 C 806.539062 538.433594 801.816406 531.507812 796.929688 525.613281 C 791.535156 519.105469 786.140625 512.605469 780.75 506.101562 C 767.835938 490.535156 754.921875 474.96875 742.023438 459.394531 C 741.871094 459.210938 741.6875 459.175781 741.519531 459.226562 C 741.394531 458.335938 741.171875 456.425781 741.113281 453.65625 L 737.765625 454.09375 C 736.503906 454.253906 735.339844 453.355469 735.175781 452.097656 L 734.847656 449.535156 L 733.875 449.230469 C 730.71875 449.011719 729.816406 443.941406 732.238281 442.398438 C 729.226562 441.789062 727.566406 438.277344 729.269531 435.148438 C 729.738281 434.359375 730.613281 433.898438 730.613281 433.898438 C 728.113281 433.71875 726.664062 432.113281 726.273438 430.265625 C 713.1875 448.867188 695.703125 472.378906 693.472656 475.371094 C 692.410156 485.574219 692.984375 496.03125 693.027344 506.253906 C 693.046875 510.128906 693.09375 514.003906 693.160156 517.875 C 694.113281 516.386719 695.6875 515.234375 696.75 513.863281 C 698.511719 511.589844 699.933594 509.03125 701.691406 506.734375 C 705.578125 501.679688 709.960938 497.027344 714.4375 492.496094 C 722.488281 484.351562 730.941406 476.636719 739.660156 469.21875 C 741.410156 467.730469 743.246094 466.292969 744.964844 464.742188 C 756.902344 479.152344 768.851562 493.554688 780.796875 507.960938 C 786.058594 514.304688 791.320312 520.644531 796.578125 526.988281 C 801.472656 532.890625 806.21875 539.542969 814.015625 541.589844 C 814.738281 541.777344 815.046875 540.664062 814.328125 540.476562 " fill-opacity="1" fill-rule="nonzero"/><path fill="#783035" d="M 669.078125 346.644531 C 665.09375 352.292969 670.300781 359.160156 675.882812 363.386719 C 676.398438 359.476562 676.640625 355.460938 676.324219 352.386719 C 676.089844 350.113281 675.992188 347.96875 675.992188 345.917969 C 675.007812 346.53125 675.195312 347.027344 675.195312 347.027344 C 673.777344 347.109375 671.558594 346.96875 669.078125 346.644531 " fill-opacity="1" fill-rule="nonzero"/><path fill="#783035" d="M 765.648438 357.9375 C 765.648438 357.9375 765.300781 357.613281 764.652344 357 C 764.40625 356.777344 764.121094 356.488281 763.808594 356.167969 C 760.90625 354.867188 755 352.441406 746.742188 350.085938 C 749.800781 353.304688 752.0625 357.285156 753.203125 361.714844 C 754.214844 362.246094 755.226562 362.703125 756.226562 363.0625 C 758.648438 359.757812 763 358.0625 767.132812 358.523438 L 765.863281 357.132812 C 765.863281 357.132812 765.425781 356.910156 764.609375 356.53125 C 764.691406 356.617188 764.78125 356.714844 764.859375 356.789062 C 765.484375 357.414062 765.816406 357.746094 765.816406 357.746094 L 765.828125 357.757812 C 765.875 357.804688 765.878906 357.886719 765.828125 357.9375 C 765.777344 357.988281 765.699219 357.988281 765.648438 357.9375 " fill-opacity="1" fill-rule="nonzero"/><path fill="#783035" d="M 665.605469 311.171875 C 668.46875 310.765625 671.296875 310.488281 673.988281 310.253906 C 674.417969 310.21875 674.84375 310.179688 675.265625 310.148438 C 675.390625 310.136719 675.519531 310.125 675.644531 310.113281 C 686.902344 309.171875 697.984375 308.726562 709.234375 310.082031 C 710.460938 310.230469 711.6875 310.40625 712.917969 310.585938 C 713.273438 310.640625 713.628906 310.6875 713.988281 310.742188 C 716.914062 311.199219 719.839844 311.746094 722.75 312.390625 C 723.097656 312.46875 723.441406 312.558594 723.789062 312.640625 C 742.832031 317.023438 761.253906 325.53125 775.605469 338.652344 C 776.457031 339.429688 777.285156 340.230469 778.097656 341.042969 C 778.433594 341.378906 778.753906 341.722656 779.082031 342.066406 C 781.230469 344.304688 783.226562 346.664062 785.054688 349.136719 C 785.316406 349.492188 785.585938 349.839844 785.839844 350.199219 C 787.382812 352.367188 788.785156 354.621094 790.058594 356.941406 C 790.195312 356.726562 790.320312 356.507812 790.449219 356.292969 C 790.566406 356.101562 790.683594 355.910156 790.796875 355.714844 C 789.453125 353.335938 787.96875 351.050781 786.359375 348.855469 C 786.09375 348.496094 785.824219 348.136719 785.550781 347.78125 C 783.648438 345.28125 781.582031 342.898438 779.363281 340.636719 C 779.027344 340.296875 778.6875 339.960938 778.34375 339.621094 C 764.101562 325.597656 744.246094 316.320312 724.113281 311.605469 C 723.761719 311.523438 723.410156 311.445312 723.058594 311.367188 C 720.15625 310.710938 717.253906 310.148438 714.359375 309.683594 C 714 309.625 713.636719 309.5625 713.28125 309.507812 C 707.6875 308.648438 702.148438 308.144531 696.777344 307.984375 C 689.832031 307.777344 682.75 308.148438 675.75 308.847656 C 675.320312 308.890625 674.886719 308.929688 674.453125 308.976562 C 671.816406 309.257812 669.195312 309.578125 666.601562 309.9375 C 666.386719 309.964844 666.167969 310.003906 665.949219 310.03125 C 665.542969 310.089844 665.136719 310.148438 664.730469 310.210938 C 660.0625 310.941406 655.21875 312.046875 650.808594 313.945312 C 650.804688 313.976562 650.796875 314.003906 650.789062 314.03125 C 650.699219 314.425781 650.652344 314.816406 650.585938 315.207031 C 654.847656 313.246094 659.625 312.09375 664.386719 311.351562 C 664.792969 311.289062 665.199219 311.230469 665.605469 311.171875 " fill-opacity="1" fill-rule="nonzero"/><path fill="#783035" d="M 677.386719 290.15625 C 678.066406 290.058594 678.746094 289.976562 679.425781 289.898438 C 680.742188 289.742188 682.058594 289.609375 683.367188 289.503906 C 684.957031 289.375 686.550781 289.28125 688.144531 289.214844 C 688.757812 289.1875 689.371094 289.183594 689.980469 289.171875 C 700.675781 288.878906 711.472656 289.910156 721.914062 292.046875 C 722.175781 292.097656 722.4375 292.140625 722.699219 292.195312 C 722.8125 292.222656 722.925781 292.25 723.042969 292.273438 C 725.707031 292.84375 728.355469 293.503906 730.988281 294.238281 C 731.347656 294.339844 731.707031 294.429688 732.066406 294.535156 C 749.605469 299.609375 766.144531 308.480469 779.292969 321.113281 C 779.695312 321.496094 780.105469 321.871094 780.5 322.261719 C 782.835938 324.585938 785.0625 327.019531 787.15625 329.589844 C 787.628906 330.164062 788.070312 330.757812 788.519531 331.34375 C 788.882812 331.8125 789.257812 332.277344 789.609375 332.753906 C 791.5625 335.402344 793.320312 338.15625 794.925781 340.984375 C 794.964844 340.359375 794.980469 339.726562 794.992188 339.09375 C 793.367188 336.34375 791.59375 333.667969 789.667969 331.085938 C 789.296875 330.59375 788.914062 330.117188 788.539062 329.632812 C 786.054688 326.445312 783.347656 323.398438 780.402344 320.515625 C 780.289062 320.40625 780.1875 320.289062 780.074219 320.179688 C 779.78125 319.898438 779.472656 319.632812 779.175781 319.351562 C 766.132812 307.046875 749.867188 298.546875 732.648438 293.539062 C 732.292969 293.433594 731.9375 293.328125 731.582031 293.226562 C 728.96875 292.488281 726.335938 291.835938 723.695312 291.257812 C 723.316406 291.175781 722.945312 291.089844 722.566406 291.011719 C 719.679688 290.40625 716.78125 289.886719 713.878906 289.460938 C 706.511719 288.390625 698.953125 287.832031 691.429688 287.941406 C 690.789062 287.949219 690.148438 287.980469 689.507812 287.996094 C 686.648438 288.085938 683.800781 288.265625 680.972656 288.5625 C 680.269531 288.632812 679.570312 288.71875 678.875 288.804688 C 678.410156 288.863281 677.9375 288.902344 677.472656 288.96875 C 673.851562 289.464844 670.214844 290.171875 666.660156 291.152344 C 665.882812 291.753906 665.125 292.375 664.378906 293.015625 C 664.378906 293.015625 664.378906 293.015625 664.375 293.015625 C 668.597656 291.664062 672.992188 290.753906 677.386719 290.15625 " fill-opacity="1" fill-rule="nonzero"/><path fill="#783035" d="M 689.40625 280.160156 C 690.605469 279.972656 691.808594 279.816406 693.015625 279.664062 C 694.1875 279.515625 695.359375 279.386719 696.535156 279.269531 C 698.878906 279.039062 701.230469 278.859375 703.585938 278.765625 C 704.492188 278.726562 705.402344 278.710938 706.308594 278.695312 C 713.871094 278.546875 721.449219 279.058594 728.875 280.238281 C 729.871094 280.398438 730.859375 280.59375 731.851562 280.777344 C 732.390625 280.878906 732.933594 280.964844 733.46875 281.070312 C 735.640625 281.511719 737.796875 282.035156 739.945312 282.605469 C 740.386719 282.722656 740.828125 282.839844 741.265625 282.960938 C 753.078125 286.246094 764.351562 291.507812 774.136719 298.765625 C 774.761719 299.230469 775.390625 299.691406 776.003906 300.171875 C 779.28125 302.738281 782.359375 305.554688 785.230469 308.589844 C 785.863281 309.257812 786.503906 309.917969 787.117188 310.613281 C 788.164062 311.796875 789.175781 313.011719 790.15625 314.265625 C 789.753906 313.179688 789.324219 312.121094 788.855469 311.09375 C 788.058594 310.140625 787.230469 309.210938 786.390625 308.289062 C 785.730469 307.5625 785.054688 306.851562 784.367188 306.148438 C 781.476562 303.207031 778.367188 300.441406 775.003906 297.902344 C 774.363281 297.421875 773.695312 296.96875 773.042969 296.503906 C 772.429688 296.066406 771.835938 295.617188 771.210938 295.195312 C 762.371094 289.242188 752.609375 284.933594 742.414062 282.0625 C 741.960938 281.933594 741.503906 281.804688 741.046875 281.683594 C 739.035156 281.140625 737.003906 280.667969 734.960938 280.238281 C 734.382812 280.117188 733.804688 279.988281 733.222656 279.875 C 725.238281 278.316406 717.078125 277.574219 708.957031 277.566406 C 707.980469 277.566406 707.003906 277.585938 706.027344 277.605469 C 704.121094 277.644531 702.21875 277.710938 700.324219 277.832031 C 700.238281 277.835938 700.15625 277.835938 700.070312 277.84375 C 698.894531 277.917969 697.699219 278.015625 696.492188 278.121094 C 695.152344 278.238281 693.800781 278.386719 692.445312 278.550781 C 691.300781 278.882812 690.167969 279.242188 689.042969 279.621094 C 689.039062 279.621094 689.03125 279.621094 689.023438 279.625 C 687.894531 280.003906 686.773438 280.40625 685.65625 280.828125 C 685.65625 280.828125 685.652344 280.828125 685.652344 280.828125 C 686.910156 280.585938 688.164062 280.359375 689.40625 280.160156 " fill-opacity="1" fill-rule="nonzero"/><path fill="#783035" d="M 744.199219 421.417969 C 743.730469 421.199219 743.117188 420.796875 742.351562 420.382812 C 741.953125 420.183594 741.523438 419.960938 741.066406 419.730469 C 740.605469 419.503906 740.078125 419.316406 739.539062 419.117188 C 738.910156 418.933594 738.460938 418.828125 737.730469 418.835938 C 737.070312 418.835938 736.449219 418.957031 735.835938 419.148438 C 734.625 419.554688 733.582031 420.246094 732.714844 420.972656 C 732.265625 421.339844 731.902344 421.703125 731.53125 422.050781 C 731.164062 422.402344 730.816406 422.707031 730.472656 422.992188 C 729.804688 423.550781 729.273438 424.082031 728.890625 424.433594 C 728.523438 424.792969 728.3125 425 728.3125 425 C 728.277344 425.035156 728.28125 425.082031 728.296875 425.128906 C 728.300781 425.140625 728.289062 425.148438 728.292969 425.160156 C 728.296875 425.160156 728.300781 425.160156 728.304688 425.164062 C 728.34375 425.214844 728.414062 425.230469 728.46875 425.195312 L 728.496094 425.179688 C 728.496094 425.179688 728.746094 425.023438 729.183594 424.75 C 729.601562 424.460938 730.222656 424.085938 730.953125 423.582031 C 731.683594 423.105469 732.511719 422.441406 733.359375 421.796875 C 733.785156 421.480469 734.246094 421.1875 734.714844 420.910156 C 735.1875 420.644531 735.683594 420.410156 736.195312 420.246094 C 736.699219 420.078125 737.238281 419.96875 737.726562 419.957031 C 737.976562 419.972656 738.1875 419.921875 738.488281 419.988281 C 738.742188 420.035156 739.101562 420.050781 739.257812 420.125 C 739.753906 420.300781 740.253906 420.402344 740.714844 420.574219 C 741.179688 420.753906 741.617188 420.925781 742.023438 421.082031 C 743.667969 421.777344 744.800781 422.070312 744.800781 422.070312 C 744.863281 422.082031 744.929688 422.058594 744.964844 422 C 745 421.933594 744.976562 421.847656 744.90625 421.8125 C 744.90625 421.8125 744.648438 421.671875 744.199219 421.417969 " fill-opacity="1" fill-rule="nonzero"/><path fill="#783035" d="M 746.796875 431.304688 C 746.367188 431.101562 745.746094 430.816406 744.980469 430.550781 C 744.214844 430.28125 743.300781 430.019531 742.304688 429.789062 C 741.808594 429.664062 741.300781 429.59375 740.785156 429.488281 C 740.257812 429.378906 739.648438 429.328125 739.082031 429.355469 C 736.742188 429.457031 734.730469 430.640625 733.453125 431.636719 C 732.164062 432.664062 731.5 433.535156 731.5 433.535156 C 731.464844 433.582031 731.460938 433.65625 731.496094 433.703125 C 731.546875 433.761719 731.632812 433.773438 731.691406 433.726562 C 731.691406 433.726562 731.902344 433.566406 732.273438 433.292969 C 732.644531 433.015625 733.195312 432.644531 733.871094 432.253906 C 735.214844 431.46875 737.136719 430.550781 739.117188 430.492188 C 739.621094 430.480469 740.078125 430.53125 740.585938 430.613281 C 741.105469 430.699219 741.613281 430.78125 742.105469 430.859375 C 743.078125 431.039062 743.984375 431.199219 744.761719 431.34375 C 746.320312 431.640625 747.355469 431.894531 747.355469 431.894531 C 747.410156 431.902344 747.464844 431.886719 747.496094 431.835938 C 747.535156 431.777344 747.519531 431.695312 747.460938 431.65625 C 747.457031 431.65625 747.226562 431.503906 746.796875 431.304688 " fill-opacity="1" fill-rule="nonzero"/><path fill="#783035" d="M 743.890625 439.492188 C 743.414062 439.425781 742.933594 439.359375 742.421875 439.347656 C 741.898438 439.320312 741.445312 439.328125 740.917969 439.34375 C 739.898438 439.390625 738.886719 439.550781 737.964844 439.800781 C 737.042969 440.042969 736.214844 440.367188 735.535156 440.707031 C 734.171875 441.386719 733.421875 442.085938 733.421875 442.085938 C 733.378906 442.128906 733.363281 442.195312 733.390625 442.253906 C 733.425781 442.324219 733.511719 442.347656 733.578125 442.3125 C 733.578125 442.3125 734.449219 441.859375 735.824219 441.425781 C 737.195312 440.976562 739.070312 440.570312 740.96875 440.496094 C 741.425781 440.480469 741.953125 440.453125 742.398438 440.472656 C 742.855469 440.480469 743.324219 440.5 743.765625 440.535156 C 744.65625 440.605469 745.480469 440.734375 746.179688 440.890625 C 746.875 441.054688 747.453125 441.222656 747.839844 441.386719 C 748.230469 441.539062 748.4375 441.648438 748.4375 441.648438 C 748.484375 441.675781 748.550781 441.671875 748.59375 441.632812 C 748.644531 441.582031 748.648438 441.5 748.597656 441.449219 C 748.597656 441.449219 748.414062 441.257812 748.046875 441.003906 C 747.671875 440.761719 747.121094 440.425781 746.410156 440.152344 C 745.699219 439.871094 744.832031 439.628906 743.890625 439.492188 " fill-opacity="1" fill-rule="nonzero"/><g clip-path="url(#2f5eb83fed)"><path fill="#783035" d="M 630.761719 469.238281 C 630.792969 468.496094 629.636719 468.496094 629.605469 469.238281 C 628.59375 493.3125 627.96875 517.46875 630.621094 541.464844 C 630.703125 542.195312 631.855469 542.203125 631.773438 541.464844 C 629.125 517.46875 629.75 493.3125 630.761719 469.238281 " fill-opacity="1" fill-rule="nonzero"/></g><path fill="#783035" d="M 692.761719 522.367188 C 694.046875 522.367188 695.09375 523.410156 695.09375 524.699219 C 695.09375 525.984375 694.046875 527.027344 692.761719 527.027344 C 691.472656 527.027344 690.429688 525.984375 690.429688 524.699219 C 690.429688 523.410156 691.472656 522.367188 692.761719 522.367188 " fill-opacity="1" fill-rule="nonzero"/><path fill="#783035" d="M 692.761719 535.074219 C 694.046875 535.074219 695.09375 536.117188 695.09375 537.40625 C 695.09375 538.691406 694.046875 539.734375 692.761719 539.734375 C 691.472656 539.734375 690.429688 538.691406 690.429688 537.40625 C 690.429688 536.117188 691.472656 535.074219 692.761719 535.074219 " fill-opacity="1" fill-rule="nonzero"/><path fill="#fffdef" d="M 675.695312 394.550781 C 675.695312 394.554688 675.699219 394.554688 675.699219 394.5625 C 675.703125 394.558594 675.710938 394.554688 675.714844 394.554688 C 675.664062 394.457031 675.605469 394.359375 675.558594 394.261719 C 675.605469 394.359375 675.648438 394.457031 675.695312 394.550781 " fill-opacity="1" fill-rule="nonzero"/><path fill="#fffdef" d="M 674.898438 392.769531 C 675.074219 393.191406 675.253906 393.605469 675.449219 394.015625 C 675.253906 393.601562 675.082031 393.179688 674.910156 392.757812 C 674.90625 392.761719 674.902344 392.765625 674.898438 392.769531 " fill-opacity="1" fill-rule="nonzero"/><path fill="#fffdef" d="M 703.210938 426.890625 C 701.933594 423.378906 700.699219 419.851562 699.488281 416.316406 C 696.660156 419.257812 694.019531 422.378906 691.113281 425.234375 C 691.117188 425.253906 691.125 425.269531 691.125 425.289062 C 691.097656 428.804688 690.691406 432.800781 695.183594 433.433594 C 700.007812 434.113281 701.78125 430.917969 703.203125 426.90625 C 703.203125 426.898438 703.207031 426.894531 703.210938 426.890625 " fill-opacity="1" fill-rule="nonzero"/><path fill="#fffdef" d="M 688.210938 427.894531 C 687.996094 428.074219 687.765625 428.105469 687.511719 427.984375 C 684.035156 426.34375 680.457031 424.195312 677.238281 421.605469 C 677.429688 423.035156 677.648438 424.464844 677.898438 425.886719 C 678.671875 430.230469 679.714844 434.546875 681.011719 438.878906 C 681.925781 441.941406 682.871094 444.992188 683.84375 448.039062 C 684.222656 449.222656 684.617188 450.398438 685 451.574219 C 686.707031 444.351562 688.753906 436.453125 690.632812 431.449219 C 690.03125 430.035156 689.957031 428.273438 689.960938 426.335938 C 689.394531 426.867188 688.808594 427.390625 688.210938 427.894531 " fill-opacity="1" fill-rule="nonzero"/><path fill="#fffdef" d="M 740.988281 408.582031 C 741.0625 408.59375 741.132812 408.597656 741.210938 408.605469 C 741.289062 408.503906 741.371094 408.394531 741.453125 408.292969 C 741.300781 408.390625 741.140625 408.488281 740.988281 408.582031 " fill-opacity="1" fill-rule="nonzero"/><path fill="#fffdef" d="M 722.214844 418.019531 C 722.6875 417.410156 723.230469 416.773438 723.824219 416.132812 C 717.800781 417.863281 709.722656 418.414062 700.414062 415.453125 C 701.128906 417.539062 701.847656 419.621094 702.574219 421.699219 C 703.183594 423.441406 703.796875 425.179688 704.425781 426.914062 C 704.691406 427.644531 704.957031 428.382812 705.234375 429.109375 C 705.308594 429.308594 707.570312 429.121094 707.789062 429.117188 C 714.660156 428.929688 721.082031 427.851562 727.210938 425.511719 C 726.832031 425.613281 726.453125 425.6875 726.066406 425.722656 C 720.199219 426.273438 718.914062 422.421875 722.214844 418.019531 " fill-opacity="1" fill-rule="nonzero"/><path fill="#fffdef" d="M 687.207031 426.558594 C 688.320312 427.105469 690.335938 424.449219 691.105469 423.65625 C 693.839844 420.835938 696.382812 417.835938 699.132812 415.023438 C 693.972656 413.1875 690.121094 410.425781 687.257812 407.464844 C 687.042969 407.320312 686.820312 407.195312 686.609375 407.050781 C 682.5625 404.214844 679.332031 400.746094 676.996094 396.882812 C 676.996094 396.890625 676.992188 396.898438 676.992188 396.910156 C 676.996094 396.910156 676.996094 396.914062 677 396.917969 C 676.902344 398.664062 676.796875 400.410156 676.707031 402.152344 C 676.691406 402.453125 676.683594 402.753906 676.667969 403.058594 C 676.589844 404.5625 676.519531 406.070312 676.480469 407.578125 C 676.363281 411.734375 676.558594 415.796875 677.007812 419.8125 C 679.070312 421.554688 681.285156 423.101562 683.476562 424.449219 C 684.695312 425.195312 685.925781 425.929688 687.207031 426.558594 " fill-opacity="1" fill-rule="nonzero"/><path fill="#fffdef" d="M 704.851562 430.300781 C 704.574219 430.304688 704.386719 430.121094 704.292969 429.878906 C 704.125 429.4375 703.972656 428.984375 703.808594 428.542969 C 703.386719 429.574219 702.90625 430.550781 702.34375 431.40625 L 705.808594 458.660156 C 712.097656 450.078125 719.734375 439.558594 726.273438 430.261719 C 726.035156 429.140625 726.195312 427.929688 726.746094 426.890625 C 719.824219 429.363281 712.570312 430.277344 704.851562 430.300781 " fill-opacity="1" fill-rule="nonzero"/><path fill="#fffdef" d="M 689.980469 289.167969 C 689.371094 289.183594 688.757812 289.1875 688.144531 289.214844 C 681.964844 294.800781 677.34375 301.472656 674.453125 308.976562 C 674.886719 308.933594 675.320312 308.894531 675.75 308.847656 C 678.769531 301.335938 683.601562 294.738281 689.980469 289.167969 " fill-opacity="1" fill-rule="nonzero"/><path fill="#fffdef" d="M 717.128906 274.988281 C 716.519531 274.984375 715.910156 274.988281 715.296875 274.996094 C 714.429688 275.003906 713.558594 275.023438 712.691406 275.066406 C 712.6875 275.066406 712.683594 275.066406 712.683594 275.066406 C 710.421875 275.78125 708.195312 276.628906 706.023438 277.605469 C 707.003906 277.585938 707.980469 277.566406 708.957031 277.570312 C 711.621094 276.507812 714.355469 275.625 717.128906 274.988281 " fill-opacity="1" fill-rule="nonzero"/><path fill="#fffdef" d="M 693.105469 286.601562 C 697.09375 283.558594 701.570312 280.84375 706.308594 278.695312 C 705.402344 278.710938 704.492188 278.726562 703.585938 278.765625 C 699.410156 280.855469 695.457031 283.367188 691.835938 286.128906 C 691.039062 286.734375 690.265625 287.359375 689.511719 287.996094 C 690.152344 287.980469 690.789062 287.949219 691.429688 287.941406 C 691.984375 287.488281 692.53125 287.035156 693.105469 286.601562 " fill-opacity="1" fill-rule="nonzero"/><path fill="#fffdef" d="M 673.988281 310.253906 C 672.34375 314.898438 671.339844 319.839844 671.035156 325.027344 C 671.421875 324.988281 671.800781 324.945312 672.199219 324.90625 C 672.519531 319.675781 673.5625 314.75 675.265625 310.148438 C 674.84375 310.179688 674.417969 310.21875 673.988281 310.253906 " fill-opacity="1" fill-rule="nonzero"/><path fill="#fffdef" d="M 775.667969 364.339844 C 775.875 364.714844 776.054688 365.085938 776.214844 365.457031 C 780.394531 360.871094 783.613281 355.757812 785.84375 350.199219 C 785.585938 349.84375 785.320312 349.492188 785.058594 349.140625 C 782.902344 354.675781 779.753906 359.78125 775.667969 364.339844 " fill-opacity="1" fill-rule="nonzero"/><path fill="#fffdef" d="M 785.554688 347.78125 C 785.824219 348.140625 786.09375 348.496094 786.359375 348.859375 C 788.222656 343.808594 789.3125 338.417969 789.609375 332.753906 C 789.257812 332.277344 788.882812 331.8125 788.523438 331.34375 C 788.394531 337.109375 787.394531 342.621094 785.554688 347.78125 " fill-opacity="1" fill-rule="nonzero"/><path fill="#fffdef" d="M 787.117188 310.613281 C 786.503906 309.921875 785.863281 309.257812 785.230469 308.589844 C 787.425781 315.269531 788.445312 322.398438 788.542969 329.25 C 788.546875 329.378906 788.539062 329.503906 788.539062 329.632812 C 788.914062 330.117188 789.300781 330.59375 789.667969 331.085938 C 789.675781 330.742188 789.695312 330.402344 789.699219 330.054688 C 789.761719 323.667969 788.949219 316.984375 787.117188 310.613281 " fill-opacity="1" fill-rule="nonzero"/><path fill="#fffdef" d="M 786.390625 308.289062 C 785.886719 306.769531 785.3125 305.277344 784.6875 303.808594 C 784.683594 303.808594 784.683594 303.804688 784.679688 303.804688 C 784.171875 303.078125 783.644531 302.367188 783.097656 301.671875 C 783.066406 301.636719 783.039062 301.597656 783.011719 301.5625 C 782.453125 300.863281 781.878906 300.175781 781.289062 299.507812 C 781.285156 299.507812 781.285156 299.507812 781.285156 299.507812 C 782.46875 301.636719 783.496094 303.859375 784.367188 306.152344 C 785.054688 306.851562 785.730469 307.566406 786.390625 308.289062 " fill-opacity="1" fill-rule="nonzero"/><path fill="#fffdef" d="M 741.265625 282.960938 C 740.828125 282.839844 740.386719 282.722656 739.945312 282.605469 C 736.621094 285.550781 733.914062 289.339844 731.582031 293.226562 C 731.941406 293.328125 732.296875 293.433594 732.652344 293.539062 C 735.03125 289.582031 737.832031 285.796875 741.265625 282.960938 " fill-opacity="1" fill-rule="nonzero"/><path fill="#fffdef" d="M 746.070312 279.910156 C 745.503906 279.761719 744.9375 279.613281 744.371094 279.472656 C 743.199219 280.113281 742.09375 280.851562 741.046875 281.683594 C 741.503906 281.804688 741.960938 281.933594 742.414062 282.0625 C 743.558594 281.222656 744.777344 280.503906 746.070312 279.910156 " fill-opacity="1" fill-rule="nonzero"/><path fill="#fffdef" d="M 727.878906 302.359375 C 729.148438 299.875 730.523438 297.183594 732.066406 294.535156 C 731.710938 294.429688 731.347656 294.335938 730.988281 294.238281 C 729.871094 296.15625 728.832031 298.082031 727.851562 299.917969 C 725.859375 303.65625 724.285156 307.472656 723.058594 311.367188 C 723.410156 311.449219 723.761719 311.527344 724.113281 311.605469 C 725.109375 308.464844 726.34375 305.375 727.878906 302.359375 " fill-opacity="1" fill-rule="nonzero"/><path fill="#fffdef" d="M 723.789062 312.640625 C 723.441406 312.558594 723.097656 312.46875 722.75 312.390625 C 721.136719 317.816406 720.183594 323.394531 719.738281 329.105469 C 720.117188 329.21875 720.484375 329.335938 720.855469 329.449219 C 721.265625 323.722656 722.160156 318.097656 723.789062 312.640625 " fill-opacity="1" fill-rule="nonzero"/><path fill="#fffdef" d="M 727.503906 389.082031 C 716.058594 389.082031 706.746094 379.773438 706.746094 368.324219 C 706.746094 356.882812 716.058594 347.570312 727.503906 347.570312 C 738.949219 347.570312 748.261719 356.882812 748.261719 368.324219 C 748.261719 379.773438 738.949219 389.082031 727.503906 389.082031 Z M 746.742188 350.085938 C 741.90625 344.984375 735.074219 341.792969 727.503906 341.792969 C 723.335938 341.792969 719.394531 342.761719 715.878906 344.480469 C 707.0625 348.796875 700.972656 357.863281 700.972656 368.324219 C 700.972656 369.527344 701.0625 370.707031 701.214844 371.867188 C 701.246094 372.089844 701.273438 372.316406 701.308594 372.535156 C 702.4375 379.589844 706.359375 385.71875 711.894531 389.761719 C 712.273438 390.035156 712.65625 390.300781 713.050781 390.554688 C 717.210938 393.273438 722.175781 394.855469 727.507812 394.855469 C 728.167969 394.855469 728.824219 394.824219 729.480469 394.777344 L 730.359375 400.667969 C 729.363281 401.027344 728.707031 402.042969 728.851562 403.132812 L 729.875 411.070312 C 732.136719 409.652344 734.558594 408.636719 736.890625 408.480469 C 737.789062 408.390625 738.898438 408.40625 740.105469 408.5 L 739.238281 401.789062 C 739.074219 400.53125 737.910156 399.632812 736.648438 399.792969 L 736.078125 399.867188 L 735.160156 393.726562 C 746.070312 390.433594 754.039062 380.292969 754.039062 368.324219 C 754.039062 366.042969 753.746094 363.828125 753.203125 361.714844 C 752.0625 357.285156 749.800781 353.304688 746.742188 350.085938 " fill-opacity="1" fill-rule="nonzero"/><path fill="#fffdef" d="M 734.847656 449.535156 L 735.175781 452.097656 C 735.339844 453.355469 736.503906 454.253906 737.765625 454.09375 L 741.113281 453.65625 L 743.566406 453.339844 C 744.359375 453.238281 745.007812 452.742188 745.335938 452.074219 C 742.441406 451.402344 739.523438 450.574219 736.808594 450.148438 L 734.847656 449.535156 " fill-opacity="1" fill-rule="nonzero"/><path fill="#fffdef" d="M 735.722656 370.121094 C 735.722656 370.121094 735.5 369.765625 735.09375 369.179688 C 734.894531 368.886719 734.621094 368.546875 734.304688 368.167969 C 733.976562 367.804688 733.617188 367.386719 733.175781 366.980469 C 732.28125 366.191406 731.148438 365.363281 729.789062 364.835938 C 729.421875 364.679688 729.027344 364.558594 728.628906 364.460938 C 728.882812 365.441406 729.023438 366.464844 729.023438 367.523438 C 729.023438 369.710938 728.445312 371.761719 727.445312 373.542969 C 727.445312 373.542969 727.441406 373.542969 727.441406 373.542969 C 727.441406 373.542969 727.445312 373.546875 727.445312 373.546875 C 731.980469 373.058594 735.175781 370.613281 735.753906 370.144531 C 735.746094 370.136719 735.734375 370.132812 735.726562 370.125 L 735.722656 370.121094 " fill-opacity="1" fill-rule="nonzero"/><path fill="#d16368" d="M 766.507812 368.292969 C 766.507812 368.292969 766.457031 368.414062 766.367188 368.625 C 766.269531 368.835938 766.183594 369.164062 765.976562 369.503906 C 765.789062 369.855469 765.566406 370.265625 765.261719 370.660156 C 764.992188 371.085938 764.617188 371.464844 764.265625 371.871094 C 763.871094 372.230469 763.492188 372.617188 763.074219 372.898438 C 762.867188 373.046875 762.691406 373.210938 762.476562 373.324219 C 762.269531 373.445312 762.074219 373.558594 761.894531 373.664062 C 761.527344 373.894531 761.246094 373.976562 761.039062 374.082031 C 760.832031 374.175781 760.714844 374.226562 760.714844 374.226562 C 760.683594 374.238281 760.65625 374.238281 760.625 374.246094 C 760.601562 374.628906 760.589844 374.996094 760.582031 375.332031 C 760.574219 376.039062 760.570312 376.636719 760.597656 377.050781 C 760.621094 377.460938 760.628906 377.707031 760.628906 377.707031 C 760.628906 377.777344 760.574219 377.839844 760.503906 377.839844 C 760.445312 377.84375 760.398438 377.808594 760.375 377.757812 C 760.375 377.757812 760.015625 376.839844 759.8125 375.378906 C 759.707031 374.652344 759.652344 373.792969 759.675781 372.871094 C 759.6875 371.945312 759.8125 370.964844 759.996094 369.992188 C 760.121094 369.511719 760.21875 369.023438 760.382812 368.5625 C 760.523438 368.089844 760.71875 367.644531 760.921875 367.21875 C 761.105469 366.785156 761.375 366.402344 761.59375 366.035156 C 761.867188 365.691406 762.085938 365.34375 762.378906 365.089844 C 762.648438 364.820312 762.898438 364.582031 763.183594 364.414062 C 763.445312 364.238281 763.664062 364.074219 763.863281 364.003906 C 764.25 363.839844 764.472656 363.75 764.472656 363.75 C 764.546875 363.722656 764.625 363.761719 764.65625 363.832031 C 764.675781 363.890625 764.65625 363.953125 764.613281 363.992188 C 764.613281 363.992188 764.425781 364.144531 764.085938 364.394531 C 763.898438 364.507812 763.746094 364.695312 763.554688 364.890625 C 763.359375 365.066406 763.179688 365.328125 762.972656 365.597656 C 762.75 365.851562 762.601562 366.203125 762.386719 366.523438 C 762.226562 366.878906 762.027344 367.238281 761.882812 367.644531 C 761.71875 368.039062 761.585938 368.460938 761.460938 368.898438 C 761.3125 369.324219 761.230469 369.785156 761.125 370.230469 C 760.9375 371.136719 760.804688 372.0625 760.71875 372.933594 C 760.71875 372.957031 760.71875 372.976562 760.714844 373 C 760.917969 372.925781 761.203125 372.851562 761.464844 372.707031 C 761.621094 372.628906 761.792969 372.546875 761.976562 372.457031 C 762.160156 372.378906 762.339844 372.234375 762.535156 372.121094 C 762.9375 371.898438 763.304688 371.574219 763.699219 371.269531 C 764.046875 370.925781 764.425781 370.601562 764.707031 370.230469 C 765.019531 369.886719 765.253906 369.519531 765.453125 369.207031 C 765.679688 368.902344 765.78125 368.609375 765.890625 368.421875 C 765.988281 368.226562 766.046875 368.113281 766.046875 368.113281 L 766.058594 368.085938 C 766.121094 367.964844 766.269531 367.917969 766.390625 367.980469 C 766.503906 368.039062 766.554688 368.175781 766.507812 368.292969 Z M 746.796875 431.304688 C 747.226562 431.503906 747.457031 431.65625 747.457031 431.65625 C 747.519531 431.695312 747.535156 431.777344 747.496094 431.835938 C 747.464844 431.886719 747.410156 431.902344 747.355469 431.890625 C 747.355469 431.890625 746.320312 431.640625 744.757812 431.34375 C 743.984375 431.199219 743.074219 431.035156 742.105469 430.859375 C 741.613281 430.78125 741.105469 430.695312 740.585938 430.613281 C 740.078125 430.527344 739.621094 430.480469 739.117188 430.492188 C 737.132812 430.550781 735.210938 431.46875 733.871094 432.25 C 733.191406 432.644531 732.644531 433.015625 732.273438 433.292969 C 731.902344 433.566406 731.691406 433.726562 731.691406 433.726562 C 731.632812 433.773438 731.542969 433.761719 731.496094 433.703125 C 731.460938 433.65625 731.464844 433.582031 731.496094 433.53125 C 731.496094 433.53125 732.164062 432.660156 733.453125 431.636719 C 734.730469 430.640625 736.742188 429.457031 739.082031 429.355469 C 739.648438 429.328125 740.257812 429.378906 740.785156 429.488281 C 741.300781 429.59375 741.808594 429.664062 742.304688 429.789062 C 743.300781 430.019531 744.214844 430.28125 744.980469 430.550781 C 745.746094 430.816406 746.367188 431.101562 746.796875 431.304688 Z M 748.597656 441.449219 C 748.648438 441.5 748.644531 441.582031 748.59375 441.632812 C 748.550781 441.671875 748.488281 441.675781 748.4375 441.648438 C 748.4375 441.648438 748.230469 441.542969 747.839844 441.386719 C 747.453125 441.222656 746.875 441.054688 746.179688 440.894531 C 745.480469 440.734375 744.65625 440.605469 743.769531 440.535156 C 743.324219 440.5 742.859375 440.480469 742.398438 440.472656 C 741.957031 440.453125 741.425781 440.484375 740.96875 440.496094 C 739.070312 440.570312 737.195312 440.980469 735.828125 441.429688 C 734.449219 441.859375 733.582031 442.3125 733.582031 442.3125 C 733.511719 442.351562 733.429688 442.324219 733.390625 442.257812 C 733.363281 442.199219 733.378906 442.128906 733.421875 442.089844 C 733.421875 442.089844 734.171875 441.386719 735.535156 440.707031 C 736.214844 440.367188 737.042969 440.046875 737.964844 439.800781 C 738.886719 439.550781 739.898438 439.394531 740.917969 439.34375 C 741.445312 439.328125 741.898438 439.320312 742.425781 439.347656 C 742.933594 439.359375 743.417969 439.425781 743.890625 439.492188 C 744.835938 439.628906 745.703125 439.871094 746.410156 440.152344 C 747.125 440.425781 747.675781 440.765625 748.046875 441.007812 C 748.414062 441.257812 748.597656 441.449219 748.597656 441.449219 Z M 687.960938 365.089844 C 687.664062 364.867188 687.335938 364.691406 687 364.515625 C 686.660156 364.359375 686.324219 364.1875 685.964844 364.089844 C 685.613281 363.96875 685.25 363.886719 684.898438 363.808594 C 684.542969 363.746094 684.195312 363.695312 683.863281 363.652344 C 683.523438 363.628906 683.203125 363.605469 682.90625 363.585938 C 682.320312 363.582031 681.800781 363.566406 681.4375 363.59375 C 681.070312 363.605469 680.859375 363.597656 680.859375 363.597656 C 680.859375 363.597656 681.050781 363.507812 681.390625 363.371094 C 681.71875 363.222656 682.214844 363.066406 682.847656 362.929688 C 683.476562 362.808594 684.226562 362.738281 685.039062 362.804688 C 685.441406 362.859375 685.867188 362.890625 686.285156 363.027344 C 686.707031 363.125 687.113281 363.3125 687.519531 363.484375 C 687.910156 363.699219 688.289062 363.929688 688.628906 364.203125 C 688.976562 364.460938 689.277344 364.769531 689.546875 365.082031 C 689.824219 365.386719 690.035156 365.722656 690.230469 366.039062 C 690.414062 366.359375 690.570312 366.679688 690.683594 366.976562 C 690.917969 367.574219 691.027344 368.097656 691.082031 368.457031 C 691.128906 368.824219 691.140625 369.03125 691.140625 369.03125 C 691.140625 369.03125 691.039062 368.851562 690.863281 368.53125 C 690.691406 368.214844 690.429688 367.777344 690.097656 367.289062 C 689.746094 366.808594 689.335938 366.261719 688.804688 365.78125 C 688.554688 365.527344 688.253906 365.3125 687.960938 365.089844 Z M 680.417969 352.117188 C 681.148438 351.523438 682.382812 351.144531 683.144531 351.140625 C 685.125 351.117188 687.371094 351.578125 689.21875 352.277344 C 691.679688 353.207031 695.964844 355.367188 696.492188 358.289062 C 697.125 362.136719 693.527344 360.371094 691.851562 358.957031 C 689.621094 357.074219 687.457031 356.328125 684.679688 355.765625 C 683.371094 355.5 681.585938 355.054688 680.519531 354.222656 C 679.488281 353.421875 679.730469 352.675781 680.417969 352.117188 Z M 777.714844 343.0625 C 776.523438 348.804688 774.675781 354.953125 771.105469 359.734375 C 769.859375 359.082031 768.511719 358.675781 767.128906 358.523438 C 763 358.0625 758.648438 359.761719 756.226562 363.0625 C 755.226562 362.703125 754.214844 362.246094 753.203125 361.714844 C 753.746094 363.828125 754.035156 366.042969 754.035156 368.324219 C 754.035156 380.292969 746.066406 390.433594 735.15625 393.726562 L 736.074219 399.871094 L 736.648438 399.792969 C 737.90625 399.632812 739.070312 400.53125 739.234375 401.789062 L 740.101562 408.5 C 738.894531 408.40625 737.789062 408.390625 736.886719 408.480469 C 734.558594 408.636719 732.132812 409.652344 729.875 411.070312 L 728.847656 403.132812 C 728.707031 402.042969 729.359375 401.027344 730.355469 400.667969 L 729.476562 394.777344 C 728.824219 394.824219 728.167969 394.855469 727.503906 394.855469 C 722.171875 394.855469 717.207031 393.273438 713.046875 390.554688 C 709.984375 391.75 706.65625 392.507812 703.339844 392.507812 C 698.433594 392.507812 693.558594 390.878906 689.617188 386.644531 L 690.460938 385.855469 C 696.460938 392.300781 704.828125 392.300781 711.894531 389.761719 C 706.355469 385.71875 702.4375 379.589844 701.308594 372.535156 C 701.050781 372.671875 700.753906 372.761719 700.511719 372.964844 C 700.375 373.070312 700.222656 373.15625 700.085938 373.273438 C 699.96875 373.40625 699.839844 373.527344 699.710938 373.65625 C 699.488281 373.933594 699.261719 374.234375 699.128906 374.585938 C 698.953125 374.914062 698.882812 375.300781 698.832031 375.675781 C 698.824219 375.867188 698.789062 376.058594 698.789062 376.253906 L 698.835938 376.832031 C 698.929688 377.203125 698.960938 377.597656 699.128906 377.9375 C 699.25 378.296875 699.425781 378.621094 699.597656 378.929688 C 699.765625 379.246094 700 379.496094 700.171875 379.765625 C 700.367188 380.011719 700.582031 380.214844 700.753906 380.417969 C 700.925781 380.625 701.117188 380.753906 701.257812 380.886719 C 701.546875 381.15625 701.714844 381.304688 701.714844 381.304688 C 701.714844 381.304688 701.503906 381.234375 701.136719 381.085938 C 700.957031 381 700.710938 380.933594 700.488281 380.769531 C 700.253906 380.617188 699.96875 380.460938 699.703125 380.238281 C 699.453125 379.992188 699.132812 379.765625 698.894531 379.429688 C 698.644531 379.109375 698.375 378.765625 698.195312 378.34375 C 697.972656 377.945312 697.847656 377.480469 697.738281 377.011719 L 697.65625 376.28125 C 697.648438 376.039062 697.675781 375.785156 697.6875 375.535156 C 697.769531 375.046875 697.882812 374.542969 698.125 374.109375 C 698.316406 373.644531 698.667969 373.277344 698.988281 372.945312 C 699.167969 372.796875 699.34375 372.648438 699.523438 372.515625 C 699.710938 372.398438 699.914062 372.308594 700.101562 372.214844 C 700.464844 371.996094 700.871094 371.96875 701.207031 371.867188 C 701.210938 371.867188 701.210938 371.867188 701.214844 371.867188 C 701.0625 370.707031 700.972656 369.527344 700.972656 368.324219 C 700.972656 357.863281 707.0625 348.796875 715.878906 344.480469 C 714.226562 344.34375 712.546875 344.226562 710.832031 344.136719 C 685.378906 342.839844 678.066406 344.628906 675.992188 345.917969 C 675.992188 347.96875 676.089844 350.113281 676.324219 352.386719 C 676.640625 355.460938 676.398438 359.476562 675.882812 363.382812 C 675.5 366.269531 674.964844 369.085938 674.386719 371.4375 C 674.347656 371.589844 674.3125 371.738281 674.277344 371.882812 C 674.148438 372.382812 674.023438 372.863281 673.894531 373.308594 C 673.679688 374.039062 673.503906 374.773438 673.347656 375.503906 C 673.324219 375.617188 673.300781 375.726562 673.277344 375.839844 C 673.136719 376.535156 673.027344 377.230469 672.9375 377.925781 C 672.917969 378.058594 672.902344 378.191406 672.886719 378.324219 C 672.808594 379.019531 672.75 379.714844 672.71875 380.40625 C 672.714844 380.507812 672.710938 380.609375 672.710938 380.710938 C 672.6875 381.417969 672.683594 382.125 672.710938 382.824219 C 672.710938 382.847656 672.710938 382.875 672.710938 382.898438 C 672.738281 383.609375 672.804688 384.3125 672.882812 385.015625 C 672.898438 385.125 672.90625 385.238281 672.921875 385.347656 C 673.007812 386.019531 673.121094 386.691406 673.25 387.355469 C 673.277344 387.476562 673.304688 387.601562 673.328125 387.722656 C 673.472656 388.390625 673.632812 389.054688 673.824219 389.714844 C 673.851562 389.796875 673.878906 389.878906 673.902344 389.957031 C 674.101562 390.632812 674.324219 391.304688 674.578125 391.964844 C 674.582031 391.984375 674.589844 392.003906 674.597656 392.023438 C 674.691406 392.269531 674.808594 392.511719 674.910156 392.757812 C 675.085938 393.179688 675.253906 393.601562 675.449219 394.015625 C 675.484375 394.097656 675.519531 394.179688 675.5625 394.257812 C 675.609375 394.359375 675.664062 394.457031 675.714844 394.554688 C 675.964844 395.0625 676.222656 395.566406 676.5 396.0625 C 676.589844 396.214844 676.679688 396.367188 676.769531 396.523438 C 676.839844 396.644531 676.921875 396.761719 676.996094 396.882812 C 679.332031 400.746094 682.5625 404.214844 686.609375 407.050781 C 686.820312 407.195312 687.046875 407.320312 687.257812 407.464844 C 698.109375 414.613281 712.015625 417.527344 724.8125 415.117188 C 724.46875 415.453125 724.140625 415.792969 723.824219 416.132812 C 723.230469 416.773438 722.6875 417.410156 722.214844 418.015625 C 718.914062 422.417969 720.199219 426.269531 726.066406 425.722656 C 726.453125 425.6875 726.832031 425.613281 727.210938 425.507812 C 727.578125 425.410156 727.9375 425.277344 728.296875 425.128906 C 728.285156 425.082031 728.277344 425.035156 728.3125 425 C 728.3125 425 728.523438 424.789062 728.890625 424.433594 C 729.273438 424.078125 729.804688 423.546875 730.472656 422.992188 C 730.816406 422.707031 731.167969 422.398438 731.53125 422.050781 C 731.902344 421.703125 732.269531 421.339844 732.714844 420.972656 C 733.582031 420.246094 734.625 419.550781 735.835938 419.144531 C 736.449219 418.957031 737.070312 418.835938 737.730469 418.832031 C 738.460938 418.828125 738.910156 418.933594 739.539062 419.113281 C 740.078125 419.3125 740.605469 419.5 741.070312 419.730469 C 741.523438 419.960938 741.957031 420.179688 742.351562 420.382812 C 743.117188 420.792969 743.734375 421.195312 744.199219 421.417969 C 744.648438 421.667969 744.90625 421.8125 744.90625 421.8125 C 744.976562 421.847656 745 421.933594 744.964844 422 C 744.929688 422.058594 744.863281 422.082031 744.800781 422.070312 C 744.800781 422.070312 743.667969 421.777344 742.023438 421.082031 C 741.617188 420.925781 741.179688 420.753906 740.714844 420.574219 C 740.253906 420.402344 739.757812 420.296875 739.257812 420.125 C 739.101562 420.050781 738.742188 420.035156 738.488281 419.984375 C 738.1875 419.921875 737.980469 419.972656 737.726562 419.957031 C 737.238281 419.96875 736.699219 420.078125 736.195312 420.246094 C 735.683594 420.410156 735.1875 420.640625 734.714844 420.910156 C 734.246094 421.1875 733.785156 421.480469 733.359375 421.796875 C 732.511719 422.4375 731.683594 423.105469 730.953125 423.582031 C 730.222656 424.085938 729.601562 424.460938 729.183594 424.746094 C 728.746094 425.023438 728.496094 425.179688 728.496094 425.179688 L 728.46875 425.195312 C 728.414062 425.230469 728.34375 425.214844 728.304688 425.164062 C 727.617188 425.621094 727.101562 426.21875 726.746094 426.890625 C 726.195312 427.929688 726.035156 429.140625 726.273438 430.261719 C 726.273438 430.261719 726.273438 430.261719 726.273438 430.265625 C 726.664062 432.113281 728.113281 433.71875 730.613281 433.898438 C 730.613281 433.898438 729.738281 434.359375 729.269531 435.148438 C 727.566406 438.277344 729.226562 441.789062 732.238281 442.394531 C 729.820312 443.941406 730.71875 449.007812 733.875 449.230469 L 734.847656 449.535156 L 736.808594 450.148438 C 739.523438 450.574219 742.441406 451.402344 745.339844 452.074219 C 745.941406 452.214844 746.542969 452.347656 747.140625 452.46875 C 750.070312 447.863281 753.183594 441.519531 753.785156 434.710938 C 754.632812 425.171875 751.738281 415.371094 750.65625 410.941406 C 750.144531 410.710938 749.570312 410.488281 748.933594 410.269531 C 746.691406 409.515625 743.8125 408.902344 741.214844 408.605469 C 741.214844 408.605469 741.210938 408.605469 741.210938 408.605469 C 741.136719 408.597656 741.0625 408.589844 740.988281 408.582031 C 741.144531 408.484375 741.300781 408.390625 741.453125 408.292969 C 741.457031 408.289062 741.460938 408.289062 741.460938 408.289062 C 743.003906 407.289062 744.515625 406.25 745.960938 405.136719 C 752.539062 400.058594 756.070312 392.425781 759.8125 384.84375 C 763.417969 384.335938 767.25 382.773438 770.390625 380.507812 C 774.871094 377.269531 777.929688 372.605469 776.875 367.527344 C 776.734375 366.84375 776.515625 366.148438 776.214844 365.453125 C 776.054688 365.082031 775.875 364.714844 775.667969 364.339844 C 775.457031 363.953125 775.222656 363.570312 774.957031 363.183594 C 774.160156 361.988281 773.175781 361.054688 772.089844 360.324219 C 775.59375 355.550781 777.441406 349.601562 778.714844 343.90625 C 778.851562 343.296875 778.964844 342.679688 779.085938 342.0625 C 778.757812 341.722656 778.433594 341.375 778.097656 341.039062 C 777.972656 341.71875 777.855469 342.390625 777.714844 343.0625 " fill-opacity="1" fill-rule="nonzero"/><path fill="#d16368" d="M 735.902344 370.179688 C 735.847656 370.203125 735.792969 370.179688 735.753906 370.144531 C 735.175781 370.613281 731.980469 373.0625 727.445312 373.546875 C 727.445312 373.546875 727.441406 373.542969 727.441406 373.542969 C 726.746094 373.617188 726.019531 373.648438 725.269531 373.617188 C 719.675781 373.378906 715.566406 371.246094 714.816406 370.832031 C 714.773438 370.902344 714.679688 370.933594 714.605469 370.890625 C 714.535156 370.851562 714.507812 370.765625 714.539062 370.691406 L 714.542969 370.683594 C 714.542969 370.683594 714.585938 370.589844 714.664062 370.410156 C 714.671875 370.398438 714.675781 370.382812 714.683594 370.371094 C 714.636719 370.347656 714.601562 370.328125 714.570312 370.3125 C 714.535156 370.378906 714.449219 370.402344 714.386719 370.363281 C 714.320312 370.328125 714.296875 370.253906 714.324219 370.1875 L 714.328125 370.175781 C 714.328125 370.175781 714.367188 370.09375 714.4375 369.9375 C 714.511719 369.78125 714.59375 369.546875 714.765625 369.257812 C 715.082031 368.667969 715.609375 367.886719 716.390625 367.058594 C 717.175781 366.238281 718.238281 365.425781 719.488281 364.738281 C 720.441406 364.214844 721.523438 363.800781 722.660156 363.542969 C 723.46875 363.277344 724.316406 363.078125 725.183594 362.96875 C 725.378906 362.9375 725.652344 362.910156 725.847656 362.90625 C 726.058594 362.898438 726.253906 362.878906 726.476562 362.882812 C 726.933594 362.894531 727.390625 362.910156 727.820312 362.976562 C 728.683594 363.105469 729.515625 363.339844 730.273438 363.675781 C 731.808594 364.332031 732.996094 365.359375 733.851562 366.324219 C 734.273438 366.820312 734.636719 367.289062 734.910156 367.730469 C 735.175781 368.183594 735.394531 368.578125 735.546875 368.917969 C 735.722656 369.25 735.808594 369.527344 735.878906 369.710938 C 735.953125 369.898438 735.988281 370 735.988281 369.996094 C 736.015625 370.070312 735.976562 370.152344 735.902344 370.179688 Z M 711.964844 357.847656 C 712.023438 357.675781 712.101562 357.519531 712.183594 357.355469 C 712.183594 357.351562 712.183594 357.347656 712.183594 357.34375 C 713.035156 354.5 717.542969 352.84375 720.089844 352.195312 C 720.246094 352.160156 720.433594 352.121094 720.632812 352.085938 C 721.394531 351.875 722.117188 351.707031 722.742188 351.582031 C 725.304688 351.101562 732.636719 350.855469 734.523438 353.019531 C 736.9375 356.445312 729.625 356.984375 727.90625 357.109375 C 724.167969 357.238281 721.179688 357.746094 717.863281 359.71875 C 715.378906 361.199219 710.304688 362.722656 711.964844 357.847656 Z M 727.503906 347.570312 C 716.058594 347.570312 706.746094 356.882812 706.746094 368.324219 C 706.746094 379.773438 716.058594 389.082031 727.503906 389.082031 C 738.949219 389.082031 748.261719 379.773438 748.261719 368.324219 C 748.261719 356.882812 738.949219 347.570312 727.503906 347.570312 " fill-opacity="1" fill-rule="nonzero"/><path fill="#d16368" d="M 700.324219 277.832031 C 703.578125 276.707031 706.929688 275.828125 710.324219 275.230469 C 710.324219 275.230469 710.324219 275.230469 710.320312 275.230469 C 709.527344 275.292969 708.738281 275.367188 707.949219 275.449219 C 707.921875 275.453125 707.890625 275.460938 707.859375 275.460938 C 705.480469 275.71875 703.113281 276.078125 700.757812 276.535156 C 699.316406 277.019531 697.894531 277.546875 696.492188 278.121094 C 697.695312 278.015625 698.890625 277.921875 700.070312 277.847656 C 700.15625 277.839844 700.238281 277.835938 700.324219 277.832031 " fill-opacity="1" fill-rule="nonzero"/><path fill="#d16368" d="M 679.425781 289.898438 C 678.746094 289.976562 678.066406 290.058594 677.386719 290.152344 C 671.535156 295.671875 667.132812 302.554688 664.730469 310.214844 C 665.136719 310.148438 665.542969 310.09375 665.949219 310.03125 C 668.46875 302.21875 673.304688 295.375 679.425781 289.898438 " fill-opacity="1" fill-rule="nonzero"/><path fill="#d16368" d="M 681.617188 288.023438 C 685.996094 284.496094 691.082031 281.535156 696.535156 279.269531 C 695.359375 279.386719 694.1875 279.515625 693.015625 279.664062 C 688.410156 281.863281 684.101562 284.546875 680.285156 287.625 C 679.804688 288.007812 679.335938 288.40625 678.875 288.804688 C 679.574219 288.71875 680.269531 288.632812 680.972656 288.5625 C 681.1875 288.382812 681.398438 288.199219 681.617188 288.023438 " fill-opacity="1" fill-rule="nonzero"/><path fill="#d16368" d="M 775 297.902344 C 773.753906 295.21875 772.265625 292.675781 770.53125 290.332031 C 769.601562 289.722656 768.65625 289.136719 767.695312 288.578125 C 769.792969 290.964844 771.5625 293.636719 773.042969 296.503906 C 773.695312 296.96875 774.363281 297.421875 775 297.902344 " fill-opacity="1" fill-rule="nonzero"/><path fill="#d16368" d="M 779.179688 319.351562 C 779.476562 319.632812 779.78125 319.898438 780.078125 320.179688 C 780.1875 320.289062 780.292969 320.40625 780.40625 320.515625 C 780.351562 319.738281 780.304688 318.964844 780.230469 318.191406 C 779.675781 312.097656 778.324219 305.886719 776.003906 300.171875 C 775.390625 299.691406 774.761719 299.230469 774.136719 298.765625 C 777.027344 305.191406 778.589844 312.390625 779.179688 319.351562 " fill-opacity="1" fill-rule="nonzero"/><path fill="#d16368" d="M 780.5 322.261719 C 780.109375 321.867188 779.695312 321.496094 779.292969 321.109375 C 779.679688 327.285156 779.351562 333.519531 778.347656 339.625 C 778.6875 339.960938 779.03125 340.296875 779.367188 340.640625 C 780.4375 334.59375 780.78125 328.398438 780.5 322.261719 " fill-opacity="1" fill-rule="nonzero"/><path fill="#d16368" d="M 717.484375 302.359375 C 719.117188 299.164062 720.921875 295.632812 723.042969 292.273438 C 722.929688 292.25 722.8125 292.21875 722.699219 292.195312 C 722.4375 292.140625 722.175781 292.097656 721.914062 292.046875 C 720.273438 294.675781 718.808594 297.378906 717.457031 299.917969 C 715.78125 303.058594 714.410156 306.257812 713.28125 309.511719 C 713.640625 309.566406 714.003906 309.625 714.359375 309.683594 C 715.238281 307.203125 716.261719 304.757812 717.484375 302.359375 " fill-opacity="1" fill-rule="nonzero"/><path fill="#d16368" d="M 733.46875 281.074219 C 732.933594 280.964844 732.390625 280.878906 731.851562 280.777344 C 728.128906 283.382812 725.125 287.070312 722.570312 291.011719 C 722.945312 291.089844 723.320312 291.175781 723.695312 291.257812 C 726.363281 287.210938 729.53125 283.503906 733.46875 281.074219 " fill-opacity="1" fill-rule="nonzero"/><path fill="#d16368" d="M 734.960938 280.238281 C 736.015625 279.703125 737.128906 279.28125 738.289062 278.941406 L 740.359375 279.152344 C 741.453125 278.3125 741.304688 277.027344 740.597656 276.09375 C 739.933594 275.21875 738.777344 274.664062 737.679688 275.058594 C 737.597656 275.085938 737.511719 275.109375 737.425781 275.152344 C 736.152344 275.765625 735.796875 277.40625 736.542969 278.296875 C 735.378906 278.726562 734.273438 279.25 733.222656 279.875 C 733.804688 279.988281 734.382812 280.117188 734.960938 280.238281 " fill-opacity="1" fill-rule="nonzero"/><path fill="#d16368" d="M 691.632812 325.800781 C 695.167969 326.078125 698.816406 326.421875 702.507812 326.9375 C 706.195312 327.449219 709.925781 328.0625 713.625 328.828125 C 715.472656 329.222656 717.316406 329.628906 719.136719 330.101562 C 720.902344 330.59375 722.722656 331.210938 724.496094 331.753906 C 726.265625 332.339844 727.941406 333.070312 729.640625 333.707031 C 731.335938 334.359375 732.933594 335.199219 734.546875 335.917969 C 736.175781 336.617188 737.65625 337.546875 739.179688 338.3125 C 740.703125 339.074219 742.117188 339.960938 743.511719 340.792969 C 744.207031 341.210938 744.894531 341.621094 745.570312 342.027344 C 746.226562 342.464844 746.878906 342.890625 747.515625 343.3125 C 748.78125 344.171875 750.035156 344.949219 751.179688 345.792969 C 753.472656 347.464844 755.601562 348.964844 757.402344 350.410156 C 758.3125 351.113281 759.164062 351.777344 759.949219 352.386719 C 760.6875 353.054688 761.394531 353.652344 761.949219 354.253906 C 762.679688 354.984375 763.289062 355.632812 763.808594 356.171875 C 764.121094 356.488281 764.40625 356.777344 764.652344 357 C 765.300781 357.613281 765.648438 357.9375 765.648438 357.9375 C 765.699219 357.988281 765.777344 357.988281 765.828125 357.9375 C 765.878906 357.886719 765.875 357.804688 765.828125 357.757812 L 765.816406 357.746094 C 765.816406 357.746094 765.484375 357.414062 764.859375 356.789062 C 764.78125 356.714844 764.691406 356.617188 764.609375 356.53125 C 764 355.914062 763.25 355.035156 762.234375 353.964844 C 761.679688 353.328125 760.996094 352.71875 760.273438 352.027344 C 759.496094 351.386719 758.660156 350.695312 757.761719 349.953125 C 756 348.453125 753.90625 346.882812 751.625 345.175781 C 750.488281 344.308594 749.238281 343.507812 747.976562 342.621094 C 747.34375 342.1875 746.695312 341.746094 746.039062 341.296875 C 745.367188 340.875 744.679688 340.449219 743.984375 340.019531 C 742.59375 339.15625 741.183594 338.238281 739.65625 337.441406 C 738.902344 337.027344 738.140625 336.613281 737.371094 336.191406 L 736.210938 335.558594 L 735 334.988281 C 733.371094 334.25 731.765625 333.398438 730.042969 332.722656 C 728.324219 332.0625 726.597656 331.308594 724.824219 330.710938 C 723.503906 330.296875 722.191406 329.867188 720.855469 329.449219 C 720.484375 329.335938 720.117188 329.21875 719.738281 329.105469 C 719.628906 329.078125 719.527344 329.039062 719.417969 329.011719 C 717.582031 328.523438 715.722656 328.101562 713.859375 327.699219 C 712.792969 327.480469 711.722656 327.304688 710.652344 327.113281 C 711.1875 321.535156 712.226562 316.050781 713.988281 310.746094 C 713.632812 310.6875 713.273438 310.640625 712.917969 310.585938 C 711.179688 315.886719 710.109375 321.332031 709.542969 326.910156 C 707.238281 326.515625 704.9375 326.15625 702.648438 325.851562 C 698.9375 325.351562 695.261719 325.023438 691.703125 324.761719 C 688.144531 324.523438 684.695312 324.417969 681.421875 324.445312 C 678.152344 324.476562 675.054688 324.609375 672.210938 324.90625 C 672.207031 324.90625 672.203125 324.90625 672.195312 324.90625 C 671.800781 324.949219 671.417969 324.988281 671.03125 325.027344 C 670.730469 325.058594 670.417969 325.09375 670.125 325.125 C 669.445312 325.226562 668.78125 325.332031 668.132812 325.429688 C 666.90625 325.597656 665.785156 325.875 664.710938 326.109375 C 664.015625 322.261719 664.019531 318.265625 664.808594 314.347656 C 665.027344 313.273438 665.300781 312.21875 665.601562 311.175781 C 665.199219 311.234375 664.792969 311.289062 664.386719 311.351562 C 664.070312 312.46875 663.785156 313.597656 663.554688 314.742188 C 662.765625 318.640625 662.792969 322.605469 663.511719 326.425781 C 661.675781 326.949219 660.132812 327.679688 658.886719 328.347656 C 657.410156 329.140625 656.367188 329.960938 655.65625 330.511719 C 654.996094 331.109375 654.640625 331.425781 654.640625 331.425781 C 654.585938 331.476562 654.578125 331.5625 654.632812 331.617188 C 654.683594 331.675781 654.769531 331.683594 654.828125 331.632812 C 654.828125 331.632812 655.1875 331.328125 655.867188 330.753906 C 656.574219 330.242188 657.613281 329.460938 659.085938 328.722656 C 660.550781 327.992188 662.402344 327.164062 664.636719 326.734375 C 665.769531 326.527344 666.980469 326.253906 668.253906 326.121094 C 668.890625 326.035156 669.542969 325.949219 670.214844 325.859375 C 670.886719 325.800781 671.578125 325.738281 672.28125 325.675781 C 675.101562 325.425781 678.175781 325.34375 681.425781 325.363281 C 684.671875 325.386719 688.097656 325.5625 691.632812 325.800781 " fill-opacity="1" fill-rule="nonzero"/><g fill="#783035" fill-opacity="1"><g transform="translate(388.467495, 441.749998)"><g><path d="M 28.5 1 C 22.695312 1 17.910156 -0.316406 14.140625 -2.953125 C 10.378906 -5.585938 8.234375 -9.101562 7.703125 -13.5 L 17.203125 -13.5 C 17.597656 -11.5625 18.828125 -9.992188 20.890625 -8.796875 C 22.960938 -7.597656 25.5 -7 28.5 -7 L 31.296875 -7 C 34.898438 -7 37.703125 -7.75 39.703125 -9.25 C 41.703125 -10.75 42.703125 -12.765625 42.703125 -15.296875 C 42.703125 -19.628906 39.632812 -22.265625 33.5 -23.203125 L 25.203125 -24.40625 C 19.796875 -25.195312 15.757812 -26.894531 13.09375 -29.5 C 10.425781 -32.101562 9.09375 -35.738281 9.09375 -40.40625 C 9.09375 -45.332031 10.84375 -49.160156 14.34375 -51.890625 C 17.84375 -54.628906 22.726562 -56 29 -56 L 31.796875 -56 C 34.460938 -56 36.925781 -55.664062 39.1875 -55 C 41.457031 -54.332031 43.457031 -53.378906 45.1875 -52.140625 C 46.925781 -50.910156 48.34375 -49.445312 49.4375 -47.75 C 50.539062 -46.050781 51.257812 -44.164062 51.59375 -42.09375 L 42.09375 -42.09375 C 41.695312 -43.832031 40.566406 -45.25 38.703125 -46.34375 C 36.835938 -47.445312 34.535156 -48 31.796875 -48 L 29 -48 C 25.601562 -48 22.953125 -47.332031 21.046875 -46 C 19.148438 -44.664062 18.203125 -42.664062 18.203125 -40 C 18.203125 -37.863281 18.847656 -36.242188 20.140625 -35.140625 C 21.441406 -34.046875 23.5625 -33.300781 26.5 -32.90625 L 34.796875 -31.703125 C 40.734375 -30.835938 45.050781 -29.101562 47.75 -26.5 C 50.445312 -23.894531 51.796875 -20.195312 51.796875 -15.40625 C 51.796875 -10.269531 50.007812 -6.25 46.4375 -3.34375 C 42.875 -0.445312 37.828125 1 31.296875 1 Z M 28.5 1 "/></g></g></g><g fill="#783035" fill-opacity="1"><g transform="translate(448.465181, 441.749998)"><g><path d="M 17.296875 -55 L 17.296875 -45.5 L 18.09375 -45.5 C 18.96875 -48.832031 20.738281 -51.414062 23.40625 -53.25 C 26.070312 -55.082031 29.4375 -56 33.5 -56 C 36.300781 -56 38.832031 -55.5 41.09375 -54.5 C 43.363281 -53.5 45.296875 -52.082031 46.890625 -50.25 C 48.492188 -48.414062 49.742188 -46.164062 50.640625 -43.5 C 51.546875 -40.832031 52 -37.832031 52 -34.5 L 52 -20.5 C 52 -17.164062 51.546875 -14.164062 50.640625 -11.5 C 49.742188 -8.832031 48.492188 -6.582031 46.890625 -4.75 C 45.296875 -2.914062 43.363281 -1.5 41.09375 -0.5 C 38.832031 0.5 36.300781 1 33.5 1 C 29.4375 1 26.070312 0.0820312 23.40625 -1.75 C 20.738281 -3.582031 18.96875 -6.164062 18.09375 -9.5 L 17.296875 -9.5 C 17.367188 -8.363281 17.46875 -7.226562 17.59375 -6.09375 C 17.664062 -5.09375 17.71875 -4.0625 17.75 -3 C 17.78125 -1.9375 17.796875 -0.9375 17.796875 0 L 17.796875 16.5 L 8.796875 16.5 L 8.796875 -55 Z M 17.796875 -20.5 C 17.796875 -16.300781 18.910156 -12.96875 21.140625 -10.5 C 23.378906 -8.03125 26.363281 -6.796875 30.09375 -6.796875 C 34.09375 -6.796875 37.242188 -8.03125 39.546875 -10.5 C 41.847656 -12.96875 43 -16.300781 43 -20.5 L 43 -34.5 C 43 -38.832031 41.863281 -42.195312 39.59375 -44.59375 C 37.332031 -47 34.164062 -48.203125 30.09375 -48.203125 C 26.363281 -48.203125 23.378906 -46.96875 21.140625 -44.5 C 18.910156 -42.03125 17.796875 -38.695312 17.796875 -34.5 Z M 17.796875 -20.5 "/></g></g></g><g fill="#783035" fill-opacity="1"><g transform="translate(508.462866, 441.749998)"><g><path d="M 15 -55 L 27.59375 -23.40625 C 28.195312 -21.863281 28.679688 -20.425781 29.046875 -19.09375 C 29.410156 -17.757812 29.695312 -16.59375 29.90625 -15.59375 C 30.164062 -14.332031 30.332031 -13.203125 30.40625 -12.203125 L 31.09375 -12.203125 C 31.164062 -13.203125 31.332031 -14.300781 31.59375 -15.5 C 31.800781 -16.5625 32.070312 -17.757812 32.40625 -19.09375 C 32.738281 -20.425781 33.171875 -21.863281 33.703125 -23.40625 L 45.296875 -55 L 55 -55 L 28.296875 16.5 L 18.703125 16.5 L 26.296875 -4 L 5 -55 Z M 15 -55 "/></g></g></g><g fill="#783035" fill-opacity="1"><g transform="translate(871.64581, 441.749998)"><g><path d="M 8.796875 -73 L 17.796875 -73 L 17.796875 -55 C 17.796875 -54.0625 17.78125 -53.039062 17.75 -51.9375 C 17.71875 -50.84375 17.664062 -49.832031 17.59375 -48.90625 C 17.46875 -47.769531 17.367188 -46.632812 17.296875 -45.5 L 18.09375 -45.5 C 18.96875 -48.832031 20.71875 -51.414062 23.34375 -53.25 C 25.976562 -55.082031 29.265625 -56 33.203125 -56 C 35.929688 -56 38.410156 -55.53125 40.640625 -54.59375 C 42.878906 -53.664062 44.78125 -52.347656 46.34375 -50.640625 C 47.914062 -48.941406 49.132812 -46.910156 50 -44.546875 C 50.863281 -42.179688 51.296875 -39.53125 51.296875 -36.59375 L 51.296875 0 L 42.296875 0 L 42.296875 -35.09375 C 42.296875 -39.300781 41.226562 -42.570312 39.09375 -44.90625 C 36.96875 -47.238281 34.003906 -48.40625 30.203125 -48.40625 C 26.398438 -48.40625 23.378906 -47.15625 21.140625 -44.65625 C 18.910156 -42.15625 17.796875 -38.769531 17.796875 -34.5 L 17.796875 0 L 8.796875 0 Z M 8.796875 -73 "/></g></g></g><g fill="#783035" fill-opacity="1"><g transform="translate(931.643496, 441.749998)"><g><path d="M 9 -55 L 18 -55 L 18 -19.40625 C 18 -11.070312 21.96875 -6.90625 29.90625 -6.90625 C 37.96875 -6.90625 42 -11.070312 42 -19.40625 L 42 -55 L 51 -55 L 51 -19.40625 C 51 -12.863281 49.179688 -7.828125 45.546875 -4.296875 C 41.910156 -0.765625 36.695312 1 29.90625 1 C 23.238281 1 18.085938 -0.78125 14.453125 -4.34375 C 10.816406 -7.914062 9 -12.9375 9 -19.40625 Z M 9 -55 "/></g></g></g><g fill="#783035" fill-opacity="1"><g transform="translate(991.641181, 441.749998)"><g><path d="M 8.796875 0 L 8.796875 -55 L 17.296875 -55 L 17.296875 -45.5 L 18.09375 -45.5 C 18.96875 -48.832031 20.71875 -51.414062 23.34375 -53.25 C 25.976562 -55.082031 29.265625 -56 33.203125 -56 C 35.929688 -56 38.410156 -55.53125 40.640625 -54.59375 C 42.878906 -53.664062 44.78125 -52.347656 46.34375 -50.640625 C 47.914062 -48.941406 49.132812 -46.910156 50 -44.546875 C 50.863281 -42.179688 51.296875 -39.53125 51.296875 -36.59375 L 51.296875 0 L 42.296875 0 L 42.296875 -35.09375 C 42.296875 -39.300781 41.226562 -42.570312 39.09375 -44.90625 C 36.96875 -47.238281 34.003906 -48.40625 30.203125 -48.40625 C 26.398438 -48.40625 23.378906 -47.15625 21.140625 -44.65625 C 18.910156 -42.15625 17.796875 -38.769531 17.796875 -34.5 L 17.796875 0 Z M 8.796875 0 "/></g></g></g><g fill="#783035" fill-opacity="1"><g transform="translate(1051.638867, 441.749998)"><g><path d="M 6 -55 L 22 -55 L 22 -72 L 31 -72 L 31 -55 L 52.5 -55 L 52.5 -46.796875 L 31 -46.796875 L 31 -14.203125 C 31 -12.335938 31.582031 -10.867188 32.75 -9.796875 C 33.914062 -8.734375 35.5 -8.203125 37.5 -8.203125 L 51.5 -8.203125 L 51.5 0 L 37.5 0 C 32.769531 0 29.003906 -1.296875 26.203125 -3.890625 C 23.398438 -6.492188 22 -9.929688 22 -14.203125 L 22 -46.796875 L 6 -46.796875 Z M 6 -55 "/></g></g></g></svg>