<svg xmlns="http://www.w3.org/2000/svg" xmlns:xlink="http://www.w3.org/1999/xlink" width="1920" zoomAndPan="magnify" viewBox="0 0 1440 809.999993" height="1080" preserveAspectRatio="xMidYMid meet" version="1.0"><defs><g/></defs><rect x="-144" width="1728" fill="#ffffff" y="-80.999999" height="971.999992" fill-opacity="1"/><rect x="-144" width="1728" fill="#ffffff" y="-80.999999" height="971.999992" fill-opacity="1"/><path fill="#1e0b18" d="M 709.441406 359.703125 C 709.441406 359.703125 690.027344 346.507812 672.996094 325.320312 C 667.386719 318.378906 655.925781 320.558594 650.394531 327.539062 C 650.273438 327.660156 650.191406 327.78125 650.070312 327.945312 C 647.289062 331.578125 645.269531 335.691406 643.898438 340.050781 C 640.304688 351.429688 632.960938 381.09375 647.410156 399.253906 Z M 709.441406 359.703125 " fill-opacity="1" fill-rule="nonzero"/><path fill="#ffffff" d="M 690.3125 374.917969 L 664.238281 390.859375 L 656.367188 395.664062 C 646.519531 378.027344 649.46875 358.453125 650.960938 351.671875 C 651.402344 349.617188 652.210938 347.597656 653.421875 345.902344 C 653.945312 345.136719 654.511719 344.53125 655.035156 344.007812 C 657.457031 341.746094 661.292969 342.472656 662.90625 345.335938 C 663.066406 345.660156 663.269531 345.941406 663.429688 346.265625 C 672.632812 361.519531 690.3125 374.917969 690.3125 374.917969 Z M 690.3125 374.917969 " fill-opacity="1" fill-rule="nonzero"/><path fill="#c66c93" d="M 690.3125 374.917969 L 664.238281 390.859375 C 657.296875 374.636719 659.878906 357.886719 661.210938 351.714844 C 661.617188 349.777344 662.34375 347.878906 663.472656 346.226562 C 672.632812 361.519531 690.3125 374.917969 690.3125 374.917969 Z M 690.3125 374.917969 " fill-opacity="1" fill-rule="nonzero"/><path fill="#1e0b18" d="M 730.632812 359.703125 C 730.632812 359.703125 750.046875 346.507812 767.078125 325.320312 C 772.648438 318.378906 784.148438 320.558594 789.679688 327.539062 C 789.800781 327.660156 789.882812 327.78125 790.003906 327.945312 C 792.789062 331.578125 794.804688 335.691406 796.175781 340.050781 C 799.769531 351.429688 807.117188 381.09375 792.667969 399.253906 Z M 730.632812 359.703125 " fill-opacity="1" fill-rule="nonzero"/><path fill="#ffffff" d="M 749.722656 374.917969 L 775.796875 390.859375 L 783.664062 395.664062 C 793.515625 378.027344 790.566406 358.453125 789.074219 351.671875 C 788.628906 349.617188 787.824219 347.597656 786.613281 345.902344 C 786.085938 345.136719 785.523438 344.53125 784.996094 344.007812 C 782.574219 341.746094 778.742188 342.472656 777.128906 345.335938 C 776.964844 345.660156 776.765625 345.941406 776.601562 346.265625 C 767.441406 361.519531 749.722656 374.917969 749.722656 374.917969 Z M 749.722656 374.917969 " fill-opacity="1" fill-rule="nonzero"/><path fill="#c66c93" d="M 749.722656 374.917969 L 775.796875 390.859375 C 782.738281 374.636719 780.15625 357.886719 778.824219 351.714844 C 778.417969 349.777344 777.691406 347.878906 776.5625 346.226562 C 767.441406 361.519531 749.722656 374.917969 749.722656 374.917969 Z M 749.722656 374.917969 " fill-opacity="1" fill-rule="nonzero"/><path fill="#1e0b18" d="M 792.0625 387.875 C 784.070312 372.738281 770.628906 361.15625 754.445312 355.628906 C 745.160156 352.441406 733.660156 350.058594 719.976562 350.058594 C 705.609375 350.058594 693.621094 352.683594 684.136719 356.113281 C 668.515625 361.722656 655.683594 373.183594 647.933594 387.875 C 643.089844 397.035156 637.964844 407.566406 633.808594 416.363281 C 626.257812 432.304688 630.820312 451.515625 645.027344 462.046875 C 673.964844 483.4375 719.976562 482.347656 719.976562 482.347656 C 719.976562 482.347656 765.988281 483.476562 794.925781 462.046875 C 809.132812 451.554688 813.695312 432.347656 806.148438 416.363281 C 802.03125 407.527344 796.902344 396.992188 792.0625 387.875 Z M 792.0625 387.875 " fill-opacity="1" fill-rule="nonzero"/><path fill="#1e0b18" d="M 805.21875 414.347656 C 805.21875 414.347656 810.503906 423.953125 817.042969 430.570312 C 821.644531 435.25 822.289062 442.757812 818.253906 447.964844 C 815.589844 451.394531 810.828125 453.976562 802.394531 453.535156 C 802.394531 453.535156 802.59375 454.21875 802.714844 455.390625 C 803.441406 463.257812 797.066406 469.957031 789.15625 470 C 783.503906 470.039062 776.402344 468.0625 772.726562 459.144531 Z M 805.21875 414.347656 " fill-opacity="1" fill-rule="nonzero"/><path fill="#1e0b18" d="M 634.816406 414.347656 C 634.816406 414.347656 629.527344 423.953125 622.992188 430.570312 C 618.390625 435.25 617.742188 442.757812 621.78125 447.964844 C 624.441406 451.394531 629.207031 453.976562 637.640625 453.535156 C 637.640625 453.535156 637.4375 454.21875 637.316406 455.390625 C 636.59375 463.257812 642.96875 469.957031 650.878906 470 C 656.53125 470.039062 663.632812 468.0625 667.304688 459.144531 Z M 634.816406 414.347656 " fill-opacity="1" fill-rule="nonzero"/><path fill="#1e0b18" d="M 720.015625 464.753906 L 656.570312 469.109375 C 656.570312 469.109375 675.015625 490.378906 691.28125 487.714844 C 692.652344 487.472656 693.945312 486.90625 694.953125 485.980469 C 696.203125 484.851562 697.414062 482.914062 697.335938 479.722656 C 697.335938 479.722656 699.917969 485.011719 708.109375 488.441406 C 715.699219 491.628906 724.335938 491.628906 731.921875 488.441406 C 740.117188 485.011719 742.699219 479.722656 742.699219 479.722656 C 742.617188 482.914062 743.828125 484.851562 745.082031 485.980469 C 746.089844 486.90625 747.382812 487.472656 748.753906 487.714844 C 765.019531 490.378906 783.464844 469.109375 783.464844 469.109375 Z M 720.015625 464.753906 " fill-opacity="1" fill-rule="nonzero"/><path fill="#f6ba4f" d="M 702.339844 430.167969 C 702.339844 430.167969 705.164062 401.917969 679.898438 396.550781 C 674.167969 395.339844 668.195312 395.703125 662.90625 398.164062 C 657.457031 400.707031 651.523438 405.914062 649.546875 416.484375 C 649.546875 416.484375 652.089844 424.234375 661.089844 430.851562 C 670.292969 437.59375 682.320312 439.570312 693.175781 436.019531 C 696.808594 434.808594 700.242188 432.992188 702.339844 430.167969 Z M 702.339844 430.167969 " fill-opacity="1" fill-rule="nonzero"/><path fill="#7d5076" d="M 696.488281 423.628906 C 696.488281 428.308594 695.113281 432.667969 692.8125 436.097656 C 682.804688 439.289062 671.828125 437.753906 663.027344 432.144531 C 661.980469 429.5625 661.414062 426.738281 661.414062 423.710938 C 661.375 412.492188 669.203125 403.410156 678.890625 403.371094 C 688.578125 403.328125 696.445312 412.449219 696.488281 423.628906 Z M 696.488281 423.628906 " fill-opacity="1" fill-rule="nonzero"/><path fill="#ffffff" d="M 691.523438 419.875 C 685.1875 419.875 680.058594 425.042969 680.101562 431.378906 C 680.101562 425.042969 674.933594 419.917969 668.597656 419.957031 C 674.933594 419.957031 680.058594 414.792969 680.019531 408.457031 C 680.019531 414.75 685.1875 419.875 691.523438 419.875 Z M 691.523438 419.875 " fill-opacity="1" fill-rule="nonzero"/><path fill="#f6ba4f" d="M 737.734375 430.167969 C 737.734375 430.167969 734.910156 401.917969 760.175781 396.550781 C 765.90625 395.339844 771.878906 395.703125 777.167969 398.164062 C 782.617188 400.707031 788.550781 405.914062 790.527344 416.484375 C 790.527344 416.484375 787.984375 424.234375 778.984375 430.851562 C 769.78125 437.59375 757.753906 439.570312 746.898438 436.019531 C 743.222656 434.808594 739.792969 432.992188 737.734375 430.167969 Z M 737.734375 430.167969 " fill-opacity="1" fill-rule="nonzero"/><path fill="#7d5076" d="M 743.585938 423.628906 C 743.585938 428.308594 744.960938 432.667969 747.261719 436.097656 C 757.269531 439.289062 768.25 437.753906 777.046875 432.144531 C 778.097656 429.5625 778.660156 426.738281 778.660156 423.710938 C 778.703125 412.492188 770.871094 403.410156 761.183594 403.371094 C 751.5 403.328125 743.585938 412.449219 743.585938 423.628906 Z M 743.585938 423.628906 " fill-opacity="1" fill-rule="nonzero"/><path fill="#ffffff" d="M 748.550781 419.875 C 754.890625 419.875 760.015625 425.042969 759.972656 431.378906 C 759.972656 425.042969 765.140625 419.917969 771.476562 419.957031 C 765.140625 419.957031 760.015625 414.792969 760.054688 408.457031 C 760.015625 414.75 754.890625 419.875 748.550781 419.875 Z M 748.550781 419.875 " fill-opacity="1" fill-rule="nonzero"/><path fill="#c66c93" d="M 730.1875 429.277344 C 729.945312 427.707031 728.898438 426.375 727.402344 425.808594 C 725.828125 425.164062 723.367188 424.515625 720.015625 424.515625 C 716.625 424.515625 714.207031 425.164062 712.632812 425.808594 C 711.179688 426.414062 710.089844 427.707031 709.847656 429.277344 C 709.847656 429.398438 709.804688 429.480469 709.804688 429.601562 C 709.605469 431.175781 710.289062 432.789062 711.582031 433.71875 C 715.296875 436.421875 720.015625 438.761719 720.015625 438.761719 C 720.015625 438.761719 724.617188 436.460938 728.332031 433.800781 C 729.742188 432.789062 730.429688 431.09375 730.1875 429.359375 C 730.1875 429.359375 730.1875 429.320312 730.1875 429.277344 Z M 730.1875 429.277344 " fill-opacity="1" fill-rule="nonzero"/><path fill="#ffffff" d="M 733.902344 446.390625 C 732.488281 447.238281 730.308594 448.285156 727.242188 449.214844 L 726.597656 444.414062 C 726.476562 443.445312 727 442.515625 727.886719 442.113281 C 728.089844 442.03125 728.292969 441.949219 728.492188 441.949219 C 729.179688 441.871094 729.90625 442.113281 730.390625 442.636719 Z M 733.902344 446.390625 " fill-opacity="1" fill-rule="nonzero"/><path fill="#7d5076" d="M 735.191406 445.261719 C 733.578125 447.882812 730.148438 449.335938 726.960938 450.183594 C 722.398438 451.355469 717.59375 451.355469 713.035156 450.183594 C 709.847656 449.375 706.457031 447.882812 704.800781 445.261719 C 704.800781 445.261719 709.523438 448.609375 719.976562 448.648438 C 722.558594 448.648438 724.78125 448.449219 726.675781 448.125 C 729.582031 447.640625 731.722656 446.957031 733.09375 446.351562 C 734.546875 445.746094 735.191406 445.261719 735.191406 445.261719 Z M 735.191406 445.261719 " fill-opacity="1" fill-rule="nonzero"/><path fill="#ffffff" d="M 681.3125 389.808594 C 684.417969 391.0625 688.65625 392.394531 693.136719 392.835938 C 697.050781 393.199219 700.605469 390.214844 700.644531 386.257812 C 700.644531 386.097656 700.644531 385.9375 700.644531 385.773438 C 700.5625 383.515625 699.230469 381.457031 697.292969 380.328125 C 694.792969 378.875 690.433594 376.976562 684.257812 376.613281 C 681.875 376.492188 679.574219 377.5 678.203125 379.4375 C 678.164062 379.480469 678.164062 379.519531 678.121094 379.558594 C 675.621094 383.191406 677.234375 388.15625 681.3125 389.808594 Z M 681.3125 389.808594 " fill-opacity="1" fill-rule="nonzero"/><path fill="#ffffff" d="M 758.761719 389.808594 C 755.65625 391.0625 751.417969 392.394531 746.9375 392.835938 C 743.023438 393.199219 739.472656 390.214844 739.429688 386.257812 C 739.429688 386.097656 739.429688 385.9375 739.429688 385.773438 C 739.511719 383.515625 740.84375 381.457031 742.78125 380.328125 C 745.28125 378.875 749.640625 376.976562 755.816406 376.613281 C 758.199219 376.492188 760.5 377.5 761.871094 379.4375 C 761.910156 379.480469 761.910156 379.519531 761.953125 379.558594 C 764.414062 383.191406 762.800781 388.15625 758.761719 389.808594 Z M 758.761719 389.808594 " fill-opacity="1" fill-rule="nonzero"/><g fill="#1e0b18" fill-opacity="1"><g transform="translate(302.961877, 441.749998)"><g><path d="M 3 -55 L 10.5 -55 L 15.296875 -17.296875 C 15.429688 -16.296875 15.566406 -15.09375 15.703125 -13.6875 C 15.835938 -12.289062 15.96875 -10.925781 16.09375 -9.59375 C 16.300781 -8 16.46875 -6.398438 16.59375 -4.796875 L 17.59375 -4.796875 C 17.800781 -6.460938 18.003906 -8.0625 18.203125 -9.59375 C 18.398438 -10.925781 18.597656 -12.3125 18.796875 -13.75 C 18.992188 -15.1875 19.160156 -16.367188 19.296875 -17.296875 L 25 -55 L 34.90625 -55 L 40.5 -17.296875 C 40.632812 -16.296875 40.800781 -15.078125 41 -13.640625 C 41.195312 -12.210938 41.394531 -10.832031 41.59375 -9.5 C 41.800781 -7.96875 42.003906 -6.398438 42.203125 -4.796875 L 43.296875 -4.796875 C 43.492188 -6.398438 43.695312 -8 43.90625 -9.59375 C 44.03125 -10.925781 44.175781 -12.289062 44.34375 -13.6875 C 44.507812 -15.09375 44.660156 -16.296875 44.796875 -17.296875 L 49.703125 -55 L 57 -55 L 49.203125 0 L 37 0 L 31.203125 -38.90625 C 31.066406 -40.03125 30.945312 -41.207031 30.84375 -42.4375 C 30.75 -43.675781 30.664062 -44.832031 30.59375 -45.90625 C 30.53125 -47.101562 30.5 -48.300781 30.5 -49.5 L 29.5 -49.5 C 29.4375 -48.300781 29.367188 -47.101562 29.296875 -45.90625 C 29.234375 -44.832031 29.148438 -43.675781 29.046875 -42.4375 C 28.953125 -41.207031 28.800781 -40.03125 28.59375 -38.90625 L 22.59375 0 L 10.703125 0 Z M 3 -55 "/></g></g></g><g fill="#1e0b18" fill-opacity="1"><g transform="translate(362.959562, 441.749998)"><g><path d="M 8.796875 -73 L 17.796875 -73 L 17.796875 -55 C 17.796875 -54.0625 17.78125 -53.039062 17.75 -51.9375 C 17.71875 -50.84375 17.664062 -49.832031 17.59375 -48.90625 C 17.46875 -47.769531 17.367188 -46.632812 17.296875 -45.5 L 18.09375 -45.5 C 18.96875 -48.832031 20.71875 -51.414062 23.34375 -53.25 C 25.976562 -55.082031 29.265625 -56 33.203125 -56 C 35.929688 -56 38.410156 -55.53125 40.640625 -54.59375 C 42.878906 -53.664062 44.78125 -52.347656 46.34375 -50.640625 C 47.914062 -48.941406 49.132812 -46.910156 50 -44.546875 C 50.863281 -42.179688 51.296875 -39.53125 51.296875 -36.59375 L 51.296875 0 L 42.296875 0 L 42.296875 -35.09375 C 42.296875 -39.300781 41.226562 -42.570312 39.09375 -44.90625 C 36.96875 -47.238281 34.003906 -48.40625 30.203125 -48.40625 C 26.398438 -48.40625 23.378906 -47.15625 21.140625 -44.65625 C 18.910156 -42.15625 17.796875 -38.769531 17.796875 -34.5 L 17.796875 0 L 8.796875 0 Z M 8.796875 -73 "/></g></g></g><g fill="#1e0b18" fill-opacity="1"><g transform="translate(422.957248, 441.749998)"><g><path d="M 30 1 C 23.132812 1 17.75 -0.863281 13.84375 -4.59375 C 9.945312 -8.332031 8 -13.46875 8 -20 L 8 -35 C 8 -41.53125 9.945312 -46.660156 13.84375 -50.390625 C 17.75 -54.128906 23.132812 -56 30 -56 C 36.863281 -56 42.242188 -54.128906 46.140625 -50.390625 C 50.046875 -46.660156 52 -41.53125 52 -35 L 52 -24.90625 L 17 -24.90625 L 17 -20.5 C 17 -16.300781 18.148438 -13 20.453125 -10.59375 C 22.753906 -8.195312 25.9375 -7 30 -7 C 33 -7 35.597656 -7.460938 37.796875 -8.390625 C 39.992188 -9.328125 41.628906 -10.695312 42.703125 -12.5 L 51.703125 -12.5 C 50.566406 -8.300781 48.046875 -5 44.140625 -2.59375 C 40.242188 -0.195312 35.53125 1 30 1 Z M 43 -32.40625 L 43 -35 C 43 -39.132812 41.863281 -42.332031 39.59375 -44.59375 C 37.332031 -46.863281 34.132812 -48 30 -48 C 25.863281 -48 22.660156 -46.863281 20.390625 -44.59375 C 18.128906 -42.332031 17 -39.132812 17 -35 L 17 -32.40625 Z M 43 -32.40625 "/></g></g></g><g fill="#1e0b18" fill-opacity="1"><g transform="translate(482.954933, 441.749998)"><g><path d="M 11.203125 -55 L 19.703125 -55 L 19.703125 -45.5 L 20.5 -45.5 C 21.363281 -48.769531 23.160156 -51.335938 25.890625 -53.203125 C 28.628906 -55.066406 32 -56 36 -56 C 41.800781 -56 46.347656 -54.179688 49.640625 -50.546875 C 52.941406 -46.910156 54.59375 -41.925781 54.59375 -35.59375 L 54.59375 -32.5 L 45.59375 -32.5 L 45.59375 -34.5 C 45.59375 -38.832031 44.507812 -42.179688 42.34375 -44.546875 C 40.175781 -46.910156 37.09375 -48.09375 33.09375 -48.09375 C 29.164062 -48.09375 26.035156 -46.875 23.703125 -44.4375 C 21.367188 -42.007812 20.203125 -38.695312 20.203125 -34.5 L 20.203125 0 L 11.203125 0 Z M 11.203125 -55 "/></g></g></g><g fill="#1e0b18" fill-opacity="1"><g transform="translate(542.952619, 441.749998)"><g><path d="M 30 1 C 23.132812 1 17.75 -0.863281 13.84375 -4.59375 C 9.945312 -8.332031 8 -13.46875 8 -20 L 8 -35 C 8 -41.53125 9.945312 -46.660156 13.84375 -50.390625 C 17.75 -54.128906 23.132812 -56 30 -56 C 36.863281 -56 42.242188 -54.128906 46.140625 -50.390625 C 50.046875 -46.660156 52 -41.53125 52 -35 L 52 -24.90625 L 17 -24.90625 L 17 -20.5 C 17 -16.300781 18.148438 -13 20.453125 -10.59375 C 22.753906 -8.195312 25.9375 -7 30 -7 C 33 -7 35.597656 -7.460938 37.796875 -8.390625 C 39.992188 -9.328125 41.628906 -10.695312 42.703125 -12.5 L 51.703125 -12.5 C 50.566406 -8.300781 48.046875 -5 44.140625 -2.59375 C 40.242188 -0.195312 35.53125 1 30 1 Z M 43 -32.40625 L 43 -35 C 43 -39.132812 41.863281 -42.332031 39.59375 -44.59375 C 37.332031 -46.863281 34.132812 -48 30 -48 C 25.863281 -48 22.660156 -46.863281 20.390625 -44.59375 C 18.128906 -42.332031 17 -39.132812 17 -35 L 17 -32.40625 Z M 43 -32.40625 "/></g></g></g><g fill="#1e0b18" fill-opacity="1"><g transform="translate(837.357852, 441.749998)"><g><path d="M 3 -55 L 10.5 -55 L 15.296875 -17.296875 C 15.429688 -16.296875 15.566406 -15.09375 15.703125 -13.6875 C 15.835938 -12.289062 15.96875 -10.925781 16.09375 -9.59375 C 16.300781 -8 16.46875 -6.398438 16.59375 -4.796875 L 17.59375 -4.796875 C 17.800781 -6.460938 18.003906 -8.0625 18.203125 -9.59375 C 18.398438 -10.925781 18.597656 -12.3125 18.796875 -13.75 C 18.992188 -15.1875 19.160156 -16.367188 19.296875 -17.296875 L 25 -55 L 34.90625 -55 L 40.5 -17.296875 C 40.632812 -16.296875 40.800781 -15.078125 41 -13.640625 C 41.195312 -12.210938 41.394531 -10.832031 41.59375 -9.5 C 41.800781 -7.96875 42.003906 -6.398438 42.203125 -4.796875 L 43.296875 -4.796875 C 43.492188 -6.398438 43.695312 -8 43.90625 -9.59375 C 44.03125 -10.925781 44.175781 -12.289062 44.34375 -13.6875 C 44.507812 -15.09375 44.660156 -16.296875 44.796875 -17.296875 L 49.703125 -55 L 57 -55 L 49.203125 0 L 37 0 L 31.203125 -38.90625 C 31.066406 -40.03125 30.945312 -41.207031 30.84375 -42.4375 C 30.75 -43.675781 30.664062 -44.832031 30.59375 -45.90625 C 30.53125 -47.101562 30.5 -48.300781 30.5 -49.5 L 29.5 -49.5 C 29.4375 -48.300781 29.367188 -47.101562 29.296875 -45.90625 C 29.234375 -44.832031 29.148438 -43.675781 29.046875 -42.4375 C 28.953125 -41.207031 28.800781 -40.03125 28.59375 -38.90625 L 22.59375 0 L 10.703125 0 Z M 3 -55 "/></g></g></g><g fill="#1e0b18" fill-opacity="1"><g transform="translate(897.355538, 441.749998)"><g><path d="M 17 -20.5 C 17 -16.300781 18.148438 -13 20.453125 -10.59375 C 22.753906 -8.195312 25.9375 -7 30 -7 C 34 -7 37.164062 -8.195312 39.5 -10.59375 C 41.832031 -13 43 -16.300781 43 -20.5 L 43 -34.5 C 43 -38.695312 41.832031 -41.992188 39.5 -44.390625 C 37.164062 -46.796875 34 -48 30 -48 C 26 -48 22.832031 -46.796875 20.5 -44.390625 C 18.164062 -41.992188 17 -38.695312 17 -34.5 Z M 8 -34.5 C 8 -37.832031 8.515625 -40.816406 9.546875 -43.453125 C 10.578125 -46.085938 12.039062 -48.335938 13.9375 -50.203125 C 15.84375 -52.066406 18.144531 -53.5 20.84375 -54.5 C 23.550781 -55.5 26.601562 -56 30 -56 C 36.800781 -56 42.164062 -54.097656 46.09375 -50.296875 C 50.03125 -46.492188 52 -41.257812 52 -34.59375 L 52 -20.5 C 52 -17.164062 51.5 -14.164062 50.5 -11.5 C 49.5 -8.832031 48.046875 -6.582031 46.140625 -4.75 C 44.242188 -2.914062 41.925781 -1.5 39.1875 -0.5 C 36.457031 0.5 33.394531 1 30 1 C 26.601562 1 23.550781 0.5 20.84375 -0.5 C 18.144531 -1.5 15.84375 -2.929688 13.9375 -4.796875 C 12.039062 -6.660156 10.578125 -8.925781 9.546875 -11.59375 C 8.515625 -14.257812 8 -17.226562 8 -20.5 Z M 8 -34.5 "/></g></g></g><g fill="#1e0b18" fill-opacity="1"><g transform="translate(957.353223, 441.749998)"><g><path d="M 31.203125 -73 L 31.203125 -16 C 31.203125 -13.53125 31.867188 -11.613281 33.203125 -10.25 C 34.535156 -8.882812 36.367188 -8.203125 38.703125 -8.203125 L 55 -8.203125 L 55 0 L 38.703125 0 C 33.566406 0 29.53125 -1.414062 26.59375 -4.25 C 23.664062 -7.082031 22.203125 -11 22.203125 -16 L 22.203125 -64.796875 L 4 -64.796875 L 4 -73 Z M 31.203125 -73 "/></g></g></g><g fill="#1e0b18" fill-opacity="1"><g transform="translate(1017.350909, 441.749998)"><g><path d="M 6 -41.296875 L 6 -49.5 L 22 -49.5 L 22 -59 C 22 -63.394531 23.363281 -66.828125 26.09375 -69.296875 C 28.832031 -71.765625 32.601562 -73 37.40625 -73 L 53.5 -73 L 53.5 -64.796875 L 37.40625 -64.796875 C 33.132812 -64.796875 31 -62.863281 31 -59 L 31 -49.5 L 53.5 -49.5 L 53.5 -41.296875 L 31 -41.296875 L 31 0 L 22 0 L 22 -41.296875 Z M 6 -41.296875 "/></g></g></g><g fill="#1e0b18" fill-opacity="1"><g transform="translate(1077.348594, 441.749998)"><g><path d="M 24.5 -11.5 L 26.5 -11.5 C 28.4375 -11.5 30.003906 -10.929688 31.203125 -9.796875 C 32.398438 -8.660156 33 -7.195312 33 -5.40625 C 33 -3.601562 32.398438 -2.164062 31.203125 -1.09375 C 30.003906 -0.03125 28.4375 0.5 26.5 0.5 L 24.5 0.5 C 22.5625 0.5 20.992188 -0.015625 19.796875 -1.046875 C 18.597656 -2.078125 18 -3.53125 18 -5.40625 C 18 -7.195312 18.597656 -8.660156 19.796875 -9.796875 C 20.992188 -10.929688 22.5625 -11.5 24.5 -11.5 Z M 49 -51 C 49 -48.132812 48.546875 -45.515625 47.640625 -43.140625 C 46.742188 -40.773438 45.460938 -38.707031 43.796875 -36.9375 C 42.128906 -35.175781 40.128906 -33.78125 37.796875 -32.75 C 35.460938 -31.71875 32.894531 -31.132812 30.09375 -31 L 30.09375 -20.5 L 21.09375 -20.5 L 21.09375 -38.5 L 26.09375 -38.5 C 30.425781 -38.5 33.828125 -39.597656 36.296875 -41.796875 C 38.765625 -43.992188 40 -47.0625 40 -51 C 40 -54.9375 38.765625 -58.003906 36.296875 -60.203125 C 33.828125 -62.398438 30.394531 -63.5 26 -63.5 L 13.5 -63.5 L 13.5 -72 L 26 -72 C 29.53125 -72 32.710938 -71.515625 35.546875 -70.546875 C 38.378906 -69.578125 40.796875 -68.175781 42.796875 -66.34375 C 44.796875 -64.507812 46.328125 -62.289062 47.390625 -59.6875 C 48.460938 -57.09375 49 -54.195312 49 -51 Z M 49 -51 "/></g></g></g></svg>