<svg xmlns="http://www.w3.org/2000/svg" xmlns:xlink="http://www.w3.org/1999/xlink" width="1920" zoomAndPan="magnify" viewBox="0 0 1440 809.999993" height="1080" preserveAspectRatio="xMidYMid meet" version="1.0"><defs><g/><clipPath id="e98e1511b0"><path d="M 607.011719 308.757812 L 831.945312 308.757812 L 831.945312 501.34375 L 607.011719 501.34375 Z M 607.011719 308.757812 " clip-rule="nonzero"/></clipPath></defs><path fill="#9ba3eb" d="M 705.023438 484.65625 C 699.273438 486.960938 692.773438 486.5 687.023438 484.195312 L 687.078125 484.023438 C 682.132812 481.949219 678.625 476.476562 678.683594 470.949219 C 678.742188 464.207031 683.398438 458.042969 689.382812 454.933594 C 694.441406 452.398438 700.59375 451.765625 705.886719 453.839844 C 711.179688 455.855469 715.433594 460.695312 716.355469 466.28125 C 717.5625 473.941406 712.214844 481.71875 705.023438 484.65625 " fill-opacity="1" fill-rule="nonzero"/><path fill="#9ba3eb" d="M 790.832031 332.878906 L 790.203125 332.300781 C 794.574219 328.039062 800.785156 325.5625 806.878906 326.136719 C 816.3125 327.058594 824.59375 335.121094 825.628906 344.570312 C 826.664062 354.015625 820.339844 363.75 811.25 366.574219 C 802.222656 369.394531 791.46875 364.902344 787.152344 356.433594 C 783.242188 348.832031 784.96875 338.867188 790.832031 332.878906 " fill-opacity="1" fill-rule="nonzero"/><g clip-path="url(#e98e1511b0)"><path fill="#25309b" d="M 740.300781 441.890625 C 718.164062 438.652344 696.023438 435.46875 673.863281 432.378906 C 679.21875 411.605469 684.523438 390.820312 689.734375 370.007812 C 710.5625 373.476562 731.414062 376.855469 752.28125 380.089844 C 747.945312 400.589844 744.117188 421.273438 740.300781 441.890625 Z M 829.375 384.019531 C 807.21875 380.296875 785.011719 376.820312 762.78125 373.511719 C 765.867188 356.140625 768.523438 338.753906 770.417969 321.359375 C 770.644531 319.285156 767.429688 318.988281 766.878906 320.882812 C 761.964844 337.730469 757.765625 354.894531 753.976562 372.210938 C 733.132812 369.152344 712.261719 366.238281 691.382812 363.414062 C 695.679688 346.195312 699.910156 328.957031 704.046875 311.695312 C 704.757812 308.738281 700.328125 307.5 699.492188 310.4375 C 694.578125 327.789062 689.75 345.164062 684.992188 362.554688 C 667.265625 360.171875 649.53125 357.847656 631.796875 355.550781 C 629.257812 355.222656 628.644531 359.621094 631.1875 360.058594 C 648.53125 363.054688 665.886719 366.019531 683.253906 368.925781 C 677.589844 389.714844 672.011719 410.527344 666.488281 431.355469 C 647.617188 428.742188 628.730469 426.199219 609.832031 423.75 C 606.632812 423.335938 605.855469 428.898438 609.0625 429.429688 C 627.574219 432.484375 646.101562 435.445312 664.640625 438.339844 C 661.324219 450.867188 658.023438 463.402344 654.730469 475.9375 C 653.488281 480.671875 660.816406 482.695312 662.050781 477.957031 C 665.386719 465.136719 668.71875 452.3125 672.03125 439.488281 C 694.296875 442.941406 716.582031 446.296875 738.871094 449.59375 C 735.960938 465.265625 733.023438 480.878906 729.832031 496.324219 C 728.785156 501.378906 736.589844 503.511719 737.554688 498.457031 C 740.5625 482.625 743.875 466.746094 747.234375 450.828125 C 771.097656 454.347656 794.972656 457.804688 818.847656 461.253906 C 823.660156 461.953125 825.761719 454.589844 820.882812 453.859375 C 796.878906 450.261719 772.871094 446.675781 748.855469 443.144531 C 753.191406 422.636719 757.53125 402.074219 761.339844 381.484375 C 783.671875 384.898438 806.027344 388.140625 828.414062 391.140625 C 832.421875 391.675781 833.394531 384.695312 829.375 384.019531 " fill-opacity="1" fill-rule="nonzero"/></g><path fill="#25309b" d="M 708.859375 356.460938 C 714.121094 351.007812 719.53125 345.597656 725.410156 340.789062 C 725.488281 340.902344 725.566406 341.019531 725.640625 341.132812 C 730.570312 348.644531 735.339844 356.640625 741.386719 363.300781 C 743.8125 365.976562 748.035156 362.550781 746.300781 359.5 C 741.808594 351.597656 735.9375 344.296875 730.707031 336.800781 C 736.429688 332.886719 742.578125 329.75 748.226562 325.730469 C 750.964844 323.785156 749.429688 318.570312 745.761719 319.875 C 739.195312 322.203125 732.738281 326.054688 726.730469 330.714844 C 723.394531 325.285156 720.027344 319.515625 715.074219 315.871094 C 713.828125 314.957031 712.527344 316.464844 712.734375 317.671875 C 713.75 323.683594 717.65625 329.625 721.472656 335.089844 C 715.085938 340.773438 709.390625 347.203125 704.875 353.382812 C 703.15625 355.734375 706.890625 358.496094 708.859375 356.460938 " fill-opacity="1" fill-rule="nonzero"/><path fill="#25309b" d="M 809.40625 405.804688 C 809.609375 405.457031 809.816406 405.113281 810.023438 404.769531 C 811.703125 401.953125 808.339844 398.558594 805.523438 400.261719 C 799.179688 404.09375 792.769531 408.355469 786.53125 412.945312 C 782.277344 406.113281 778.238281 398.777344 772.4375 393.257812 C 771.28125 392.15625 769.132812 393.234375 769.660156 394.878906 C 772.171875 402.730469 777.183594 409.707031 781.558594 416.707031 C 773.734375 422.792969 766.304688 429.378906 759.785156 436.265625 C 757.71875 438.453125 760.527344 442.613281 763.15625 440.640625 C 770.71875 434.972656 778.195312 429.199219 785.683594 423.445312 C 789.875 430.304688 794.09375 437.148438 798.304688 443.996094 C 800.605469 447.734375 806.5625 444.257812 804.191406 440.546875 C 799.71875 433.546875 795.253906 426.542969 790.761719 419.554688 C 796.230469 415.371094 801.71875 411.210938 807.265625 407.121094 C 808.117188 407.023438 808.9375 406.589844 809.40625 405.804688 " fill-opacity="1" fill-rule="nonzero"/><path fill="#25309b" d="M 810.289062 329.714844 C 820.90625 333.332031 825.667969 345.882812 819.953125 355.523438 C 814.53125 364.664062 803.128906 366.539062 794.921875 360.011719 C 785.777344 352.734375 788.035156 340.890625 795.507812 333.511719 C 796.207031 332.824219 796.503906 331.984375 796.503906 331.144531 C 800.382812 328.785156 804.925781 327.886719 810.289062 329.714844 Z M 788.300781 364.253906 C 798.777344 374.066406 816.066406 372.296875 824.257812 360.574219 C 832.757812 348.398438 827.859375 331.648438 814.4375 325.453125 C 804.34375 320.796875 789.597656 324.949219 784.46875 335.125 C 779.179688 344.25 780.113281 356.582031 788.300781 364.253906 " fill-opacity="1" fill-rule="nonzero"/><path fill="#25309b" d="M 625.898438 410.890625 C 631.699219 406.304688 637.613281 402.046875 643.632812 397.980469 C 647.863281 404.027344 652.230469 409.945312 656.386719 415.683594 C 658.761719 418.957031 664.226562 415.941406 661.914062 412.445312 C 657.9375 406.433594 653.871094 400.179688 649.632812 394.007812 C 656.46875 389.574219 663.441406 385.328125 670.550781 381.097656 C 674.347656 378.839844 671.023438 373.445312 667.144531 375.261719 C 659.644531 378.769531 652.386719 383.164062 645.527344 388.140625 C 640.9375 381.738281 636.128906 375.546875 630.996094 369.949219 C 629.390625 368.199219 626.839844 370.425781 627.835938 372.390625 C 631.28125 379.175781 635.429688 385.886719 639.847656 392.464844 C 633.816406 397.277344 628.144531 402.507812 622.953125 407.945312 C 621.050781 409.9375 623.84375 412.515625 625.898438 410.890625 " fill-opacity="1" fill-rule="nonzero"/><path fill="#25309b" d="M 707.832031 478.820312 C 701.125 484.59375 693.019531 482.753906 685.75 479.710938 C 680.589844 475.183594 680.679688 466.707031 686.042969 461.171875 C 691.875 455.160156 702.367188 453.539062 708.792969 459.570312 C 714.707031 465.121094 713.710938 473.757812 707.832031 478.820312 Z M 708.394531 451.433594 C 696.984375 446.148438 682.300781 451.867188 677.183594 463.292969 C 674.296875 469.742188 675.375 476.703125 679.238281 481.496094 C 678.894531 482.769531 679.285156 484.222656 680.851562 485.210938 C 691.675781 492.042969 707.511719 491.261719 715.578125 480.585938 C 723.109375 470.617188 719.8125 456.726562 708.394531 451.433594 " fill-opacity="1" fill-rule="nonzero"/><g fill="#25309b" fill-opacity="1"><g transform="translate(462.261271, 441.749998)"><g><path d="M 4.796875 0 L 24.703125 -28.203125 L 6 -55 L 16.796875 -55 L 28.296875 -37.5 C 28.628906 -37.03125 28.894531 -36.578125 29.09375 -36.140625 C 29.300781 -35.710938 29.46875 -35.332031 29.59375 -35 C 29.726562 -34.664062 29.832031 -34.332031 29.90625 -34 L 30.296875 -34 C 30.367188 -34.332031 30.46875 -34.664062 30.59375 -35 C 30.726562 -35.332031 30.894531 -35.710938 31.09375 -36.140625 C 31.300781 -36.578125 31.570312 -37.03125 31.90625 -37.5 L 43.40625 -55 L 54.09375 -55 L 35.40625 -28.296875 L 55.203125 0 L 44.40625 0 L 32.09375 -18.59375 C 31.832031 -19.0625 31.582031 -19.507812 31.34375 -19.9375 C 31.113281 -20.375 30.898438 -20.796875 30.703125 -21.203125 C 30.503906 -21.671875 30.335938 -22.101562 30.203125 -22.5 L 29.796875 -22.5 C 29.660156 -22.03125 29.492188 -21.597656 29.296875 -21.203125 C 29.097656 -20.796875 28.898438 -20.359375 28.703125 -19.890625 C 28.503906 -19.429688 28.238281 -19 27.90625 -18.59375 L 15.5 0 Z M 4.796875 0 "/></g></g></g><g fill="#25309b" fill-opacity="1"><g transform="translate(522.258956, 441.749998)"><g><path d="M 28.5 1 C 22.695312 1 17.910156 -0.316406 14.140625 -2.953125 C 10.378906 -5.585938 8.234375 -9.101562 7.703125 -13.5 L 17.203125 -13.5 C 17.597656 -11.5625 18.828125 -9.992188 20.890625 -8.796875 C 22.960938 -7.597656 25.5 -7 28.5 -7 L 31.296875 -7 C 34.898438 -7 37.703125 -7.75 39.703125 -9.25 C 41.703125 -10.75 42.703125 -12.765625 42.703125 -15.296875 C 42.703125 -19.628906 39.632812 -22.265625 33.5 -23.203125 L 25.203125 -24.40625 C 19.796875 -25.195312 15.757812 -26.894531 13.09375 -29.5 C 10.425781 -32.101562 9.09375 -35.738281 9.09375 -40.40625 C 9.09375 -45.332031 10.84375 -49.160156 14.34375 -51.890625 C 17.84375 -54.628906 22.726562 -56 29 -56 L 31.796875 -56 C 34.460938 -56 36.925781 -55.664062 39.1875 -55 C 41.457031 -54.332031 43.457031 -53.378906 45.1875 -52.140625 C 46.925781 -50.910156 48.34375 -49.445312 49.4375 -47.75 C 50.539062 -46.050781 51.257812 -44.164062 51.59375 -42.09375 L 42.09375 -42.09375 C 41.695312 -43.832031 40.566406 -45.25 38.703125 -46.34375 C 36.835938 -47.445312 34.535156 -48 31.796875 -48 L 29 -48 C 25.601562 -48 22.953125 -47.332031 21.046875 -46 C 19.148438 -44.664062 18.203125 -42.664062 18.203125 -40 C 18.203125 -37.863281 18.847656 -36.242188 20.140625 -35.140625 C 21.441406 -34.046875 23.5625 -33.300781 26.5 -32.90625 L 34.796875 -31.703125 C 40.734375 -30.835938 45.050781 -29.101562 47.75 -26.5 C 50.445312 -23.894531 51.796875 -20.195312 51.796875 -15.40625 C 51.796875 -10.269531 50.007812 -6.25 46.4375 -3.34375 C 42.875 -0.445312 37.828125 1 31.296875 1 Z M 28.5 1 "/></g></g></g><g fill="#25309b" fill-opacity="1"><g transform="translate(857.738699, 441.749998)"><g><path d="M 17 -20.5 C 17 -16.300781 18.148438 -13 20.453125 -10.59375 C 22.753906 -8.195312 25.9375 -7 30 -7 C 34 -7 37.164062 -8.195312 39.5 -10.59375 C 41.832031 -13 43 -16.300781 43 -20.5 L 43 -34.5 C 43 -38.695312 41.832031 -41.992188 39.5 -44.390625 C 37.164062 -46.796875 34 -48 30 -48 C 26 -48 22.832031 -46.796875 20.5 -44.390625 C 18.164062 -41.992188 17 -38.695312 17 -34.5 Z M 8 -34.5 C 8 -37.832031 8.515625 -40.816406 9.546875 -43.453125 C 10.578125 -46.085938 12.039062 -48.335938 13.9375 -50.203125 C 15.84375 -52.066406 18.144531 -53.5 20.84375 -54.5 C 23.550781 -55.5 26.601562 -56 30 -56 C 36.800781 -56 42.164062 -54.097656 46.09375 -50.296875 C 50.03125 -46.492188 52 -41.257812 52 -34.59375 L 52 -20.5 C 52 -17.164062 51.5 -14.164062 50.5 -11.5 C 49.5 -8.832031 48.046875 -6.582031 46.140625 -4.75 C 44.242188 -2.914062 41.925781 -1.5 39.1875 -0.5 C 36.457031 0.5 33.394531 1 30 1 C 26.601562 1 23.550781 0.5 20.84375 -0.5 C 18.144531 -1.5 15.84375 -2.929688 13.9375 -4.796875 C 12.039062 -6.660156 10.578125 -8.925781 9.546875 -11.59375 C 8.515625 -14.257812 8 -17.226562 8 -20.5 Z M 8 -34.5 "/></g></g></g><g fill="#25309b" fill-opacity="1"><g transform="translate(917.736385, 441.749998)"><g><path d="M 28.5 1 C 22.695312 1 17.910156 -0.316406 14.140625 -2.953125 C 10.378906 -5.585938 8.234375 -9.101562 7.703125 -13.5 L 17.203125 -13.5 C 17.597656 -11.5625 18.828125 -9.992188 20.890625 -8.796875 C 22.960938 -7.597656 25.5 -7 28.5 -7 L 31.296875 -7 C 34.898438 -7 37.703125 -7.75 39.703125 -9.25 C 41.703125 -10.75 42.703125 -12.765625 42.703125 -15.296875 C 42.703125 -19.628906 39.632812 -22.265625 33.5 -23.203125 L 25.203125 -24.40625 C 19.796875 -25.195312 15.757812 -26.894531 13.09375 -29.5 C 10.425781 -32.101562 9.09375 -35.738281 9.09375 -40.40625 C 9.09375 -45.332031 10.84375 -49.160156 14.34375 -51.890625 C 17.84375 -54.628906 22.726562 -56 29 -56 L 31.796875 -56 C 34.460938 -56 36.925781 -55.664062 39.1875 -55 C 41.457031 -54.332031 43.457031 -53.378906 45.1875 -52.140625 C 46.925781 -50.910156 48.34375 -49.445312 49.4375 -47.75 C 50.539062 -46.050781 51.257812 -44.164062 51.59375 -42.09375 L 42.09375 -42.09375 C 41.695312 -43.832031 40.566406 -45.25 38.703125 -46.34375 C 36.835938 -47.445312 34.535156 -48 31.796875 -48 L 29 -48 C 25.601562 -48 22.953125 -47.332031 21.046875 -46 C 19.148438 -44.664062 18.203125 -42.664062 18.203125 -40 C 18.203125 -37.863281 18.847656 -36.242188 20.140625 -35.140625 C 21.441406 -34.046875 23.5625 -33.300781 26.5 -32.90625 L 34.796875 -31.703125 C 40.734375 -30.835938 45.050781 -29.101562 47.75 -26.5 C 50.445312 -23.894531 51.796875 -20.195312 51.796875 -15.40625 C 51.796875 -10.269531 50.007812 -6.25 46.4375 -3.34375 C 42.875 -0.445312 37.828125 1 31.296875 1 Z M 28.5 1 "/></g></g></g></svg>