<svg xmlns="http://www.w3.org/2000/svg" xmlns:xlink="http://www.w3.org/1999/xlink" width="500" zoomAndPan="magnify" viewBox="0 0 375 374.999991" height="500" preserveAspectRatio="xMidYMid meet" version="1.0"><defs><clipPath id="661db2a7b8"><path d="M 20.671875 20.671875 L 354.421875 20.671875 L 354.421875 354.421875 L 20.671875 354.421875 Z M 20.671875 20.671875 " clip-rule="nonzero"/></clipPath></defs><g clip-path="url(#661db2a7b8)"><path fill="#7ed957" d="M 354.316406 187.496094 C 354.316406 190.222656 354.25 192.953125 354.117188 195.679688 C 353.980469 198.40625 353.78125 201.128906 353.511719 203.84375 C 353.246094 206.5625 352.910156 209.273438 352.511719 211.972656 C 352.109375 214.671875 351.644531 217.363281 351.109375 220.039062 C 350.578125 222.71875 349.980469 225.378906 349.316406 228.027344 C 348.652344 230.675781 347.925781 233.308594 347.132812 235.921875 C 346.339844 238.53125 345.484375 241.125 344.566406 243.695312 C 343.644531 246.265625 342.664062 248.8125 341.617188 251.335938 C 340.574219 253.855469 339.46875 256.351562 338.300781 258.820312 C 337.132812 261.289062 335.90625 263.726562 334.617188 266.132812 C 333.332031 268.542969 331.984375 270.917969 330.582031 273.257812 C 329.179688 275.601562 327.71875 277.90625 326.203125 280.175781 C 324.683594 282.445312 323.113281 284.675781 321.488281 286.871094 C 319.859375 289.0625 318.179688 291.214844 316.449219 293.324219 C 314.71875 295.4375 312.933594 297.503906 311.101562 299.523438 C 309.269531 301.546875 307.386719 303.523438 305.457031 305.457031 C 303.523438 307.386719 301.546875 309.269531 299.523438 311.101562 C 297.503906 312.933594 295.4375 314.71875 293.324219 316.449219 C 291.214844 318.179688 289.0625 319.859375 286.871094 321.488281 C 284.675781 323.113281 282.445312 324.683594 280.175781 326.203125 C 277.90625 327.71875 275.601562 329.179688 273.257812 330.582031 C 270.917969 331.984375 268.542969 333.332031 266.132812 334.617188 C 263.726562 335.90625 261.289062 337.132812 258.820312 338.300781 C 256.351562 339.46875 253.855469 340.574219 251.335938 341.617188 C 248.8125 342.664062 246.265625 343.644531 243.695312 344.566406 C 241.125 345.484375 238.53125 346.339844 235.921875 347.132812 C 233.308594 347.925781 230.675781 348.652344 228.027344 349.316406 C 225.378906 349.980469 222.71875 350.578125 220.039062 351.109375 C 217.363281 351.644531 214.671875 352.109375 211.972656 352.511719 C 209.273438 352.910156 206.5625 353.246094 203.84375 353.511719 C 201.128906 353.78125 198.40625 353.980469 195.679688 354.117188 C 192.953125 354.25 190.222656 354.316406 187.496094 354.316406 C 184.765625 354.316406 182.035156 354.25 179.308594 354.117188 C 176.582031 353.980469 173.859375 353.78125 171.144531 353.511719 C 168.425781 353.246094 165.71875 352.910156 163.015625 352.511719 C 160.316406 352.109375 157.625 351.644531 154.949219 351.109375 C 152.269531 350.578125 149.609375 349.980469 146.960938 349.316406 C 144.3125 348.652344 141.679688 347.925781 139.066406 347.132812 C 136.457031 346.339844 133.863281 345.484375 131.292969 344.566406 C 128.722656 343.644531 126.175781 342.664062 123.652344 341.617188 C 121.132812 340.574219 118.636719 339.46875 116.167969 338.300781 C 113.699219 337.132812 111.261719 335.90625 108.855469 334.617188 C 106.445312 333.332031 104.070312 331.984375 101.730469 330.582031 C 99.390625 329.179688 97.082031 327.71875 94.8125 326.203125 C 92.542969 324.683594 90.3125 323.113281 88.117188 321.488281 C 85.925781 319.859375 83.773438 318.179688 81.664062 316.449219 C 79.554688 314.71875 77.484375 312.933594 75.464844 311.101562 C 73.441406 309.269531 71.464844 307.386719 69.53125 305.457031 C 67.601562 303.523438 65.71875 301.546875 63.886719 299.523438 C 62.054688 297.503906 60.269531 295.4375 58.539062 293.324219 C 56.808594 291.214844 55.128906 289.0625 53.5 286.871094 C 51.875 284.675781 50.304688 282.445312 48.785156 280.175781 C 47.269531 277.90625 45.808594 275.601562 44.40625 273.257812 C 43.003906 270.917969 41.65625 268.542969 40.371094 266.132812 C 39.082031 263.726562 37.855469 261.289062 36.6875 258.820312 C 35.519531 256.351562 34.414062 253.855469 33.371094 251.335938 C 32.324219 248.8125 31.34375 246.265625 30.421875 243.695312 C 29.503906 241.125 28.648438 238.53125 27.855469 235.921875 C 27.0625 233.308594 26.335938 230.675781 25.671875 228.027344 C 25.007812 225.378906 24.410156 222.71875 23.878906 220.039062 C 23.34375 217.363281 22.878906 214.671875 22.476562 211.972656 C 22.078125 209.273438 21.742188 206.5625 21.476562 203.84375 C 21.207031 201.128906 21.007812 198.40625 20.871094 195.679688 C 20.738281 192.953125 20.671875 190.222656 20.671875 187.496094 C 20.671875 184.765625 20.738281 182.035156 20.871094 179.308594 C 21.007812 176.582031 21.207031 173.859375 21.476562 171.144531 C 21.742188 168.425781 22.078125 165.71875 22.476562 163.015625 C 22.878906 160.316406 23.34375 157.625 23.878906 154.949219 C 24.410156 152.269531 25.007812 149.609375 25.671875 146.960938 C 26.335938 144.3125 27.0625 141.679688 27.855469 139.066406 C 28.648438 136.457031 29.503906 133.863281 30.421875 131.292969 C 31.34375 128.722656 32.324219 126.175781 33.371094 123.652344 C 34.414062 121.132812 35.519531 118.636719 36.6875 116.167969 C 37.855469 113.699219 39.082031 111.261719 40.371094 108.855469 C 41.65625 106.445312 43.003906 104.070312 44.40625 101.730469 C 45.808594 99.390625 47.269531 97.082031 48.785156 94.8125 C 50.304688 92.542969 51.875 90.3125 53.5 88.117188 C 55.128906 85.925781 56.808594 83.773438 58.539062 81.664062 C 60.269531 79.554688 62.054688 77.484375 63.886719 75.464844 C 65.71875 73.441406 67.601562 71.464844 69.53125 69.53125 C 71.464844 67.601562 73.441406 65.71875 75.464844 63.886719 C 77.484375 62.054688 79.554688 60.269531 81.664062 58.539062 C 83.773438 56.808594 85.925781 55.128906 88.117188 53.5 C 90.3125 51.875 92.542969 50.304688 94.8125 48.785156 C 97.082031 47.269531 99.390625 45.808594 101.730469 44.40625 C 104.070312 43.003906 106.445312 41.65625 108.855469 40.371094 C 111.261719 39.082031 113.699219 37.855469 116.167969 36.6875 C 118.636719 35.519531 121.132812 34.414062 123.652344 33.371094 C 126.175781 32.324219 128.722656 31.34375 131.292969 30.421875 C 133.863281 29.503906 136.457031 28.648438 139.066406 27.855469 C 141.679688 27.0625 144.3125 26.335938 146.960938 25.671875 C 149.609375 25.007812 152.269531 24.410156 154.949219 23.878906 C 157.625 23.34375 160.316406 22.878906 163.015625 22.476562 C 165.71875 22.078125 168.425781 21.742188 171.144531 21.476562 C 173.859375 21.207031 176.582031 21.007812 179.308594 20.871094 C 182.035156 20.738281 184.765625 20.671875 187.496094 20.671875 C 190.222656 20.671875 192.953125 20.738281 195.679688 20.871094 C 198.40625 21.007812 201.128906 21.207031 203.84375 21.476562 C 206.5625 21.742188 209.273438 22.078125 211.972656 22.476562 C 214.671875 22.878906 217.363281 23.34375 220.039062 23.878906 C 222.71875 24.410156 225.378906 25.007812 228.027344 25.671875 C 230.675781 26.335938 233.308594 27.0625 235.921875 27.855469 C 238.53125 28.648438 241.125 29.503906 243.695312 30.421875 C 246.265625 31.34375 248.8125 32.324219 251.335938 33.371094 C 253.855469 34.414062 256.351562 35.519531 258.820312 36.6875 C 261.289062 37.855469 263.726562 39.082031 266.132812 40.371094 C 268.542969 41.65625 270.917969 43.003906 273.257812 44.40625 C 275.601562 45.808594 277.90625 47.269531 280.175781 48.785156 C 282.445312 50.304688 284.675781 51.875 286.871094 53.5 C 289.0625 55.128906 291.214844 56.808594 293.324219 58.539062 C 295.4375 60.269531 297.503906 62.054688 299.523438 63.886719 C 301.546875 65.71875 303.523438 67.601562 305.457031 69.53125 C 307.386719 71.464844 309.269531 73.441406 311.101562 75.464844 C 312.933594 77.484375 314.71875 79.554688 316.449219 81.664062 C 318.179688 83.773438 319.859375 85.925781 321.488281 88.117188 C 323.113281 90.3125 324.683594 92.542969 326.203125 94.8125 C 327.71875 97.082031 329.179688 99.390625 330.582031 101.730469 C 331.984375 104.070312 333.332031 106.445312 334.617188 108.855469 C 335.90625 111.261719 337.132812 113.699219 338.300781 116.167969 C 339.46875 118.636719 340.574219 121.132812 341.617188 123.652344 C 342.664062 126.175781 343.644531 128.722656 344.566406 131.292969 C 345.484375 133.863281 346.339844 136.457031 347.132812 139.066406 C 347.925781 141.679688 348.652344 144.3125 349.316406 146.960938 C 349.980469 149.609375 350.578125 152.269531 351.109375 154.949219 C 351.644531 157.625 352.109375 160.316406 352.511719 163.015625 C 352.910156 165.71875 353.246094 168.425781 353.511719 171.144531 C 353.78125 173.859375 353.980469 176.582031 354.117188 179.308594 C 354.25 182.035156 354.316406 184.765625 354.316406 187.496094 Z M 354.316406 187.496094 " fill-opacity="1" fill-rule="nonzero"/></g><path fill="#c1ff72" d="M 344.644531 187.496094 C 344.644531 190.066406 344.582031 192.636719 344.457031 195.207031 C 344.332031 197.773438 344.140625 200.339844 343.890625 202.898438 C 343.636719 205.457031 343.320312 208.007812 342.945312 210.554688 C 342.566406 213.097656 342.128906 215.628906 341.625 218.152344 C 341.125 220.675781 340.5625 223.183594 339.9375 225.679688 C 339.3125 228.171875 338.625 230.652344 337.878906 233.113281 C 337.132812 235.574219 336.324219 238.015625 335.460938 240.4375 C 334.59375 242.859375 333.667969 245.257812 332.683594 247.632812 C 331.699219 250.007812 330.65625 252.359375 329.558594 254.683594 C 328.457031 257.011719 327.300781 259.308594 326.089844 261.574219 C 324.878906 263.84375 323.609375 266.082031 322.289062 268.285156 C 320.964844 270.492188 319.589844 272.664062 318.160156 274.804688 C 316.730469 276.941406 315.25 279.042969 313.71875 281.109375 C 312.1875 283.175781 310.605469 285.203125 308.972656 287.191406 C 307.34375 289.179688 305.664062 291.125 303.9375 293.03125 C 302.207031 294.9375 300.4375 296.796875 298.617188 298.617188 C 296.796875 300.4375 294.9375 302.207031 293.03125 303.9375 C 291.125 305.664062 289.179688 307.34375 287.191406 308.972656 C 285.203125 310.605469 283.175781 312.1875 281.109375 313.71875 C 279.042969 315.25 276.941406 316.730469 274.804688 318.160156 C 272.664062 319.589844 270.492188 320.964844 268.285156 322.289062 C 266.082031 323.609375 263.84375 324.878906 261.574219 326.089844 C 259.308594 327.300781 257.011719 328.457031 254.683594 329.558594 C 252.359375 330.65625 250.007812 331.699219 247.632812 332.683594 C 245.257812 333.667969 242.859375 334.59375 240.4375 335.460938 C 238.015625 336.324219 235.574219 337.132812 233.113281 337.878906 C 230.652344 338.625 228.171875 339.3125 225.679688 339.9375 C 223.183594 340.5625 220.675781 341.125 218.152344 341.625 C 215.628906 342.128906 213.097656 342.566406 210.554688 342.945312 C 208.007812 343.320312 205.457031 343.636719 202.898438 343.890625 C 200.339844 344.140625 197.773438 344.332031 195.207031 344.457031 C 192.636719 344.582031 190.066406 344.644531 187.496094 344.644531 C 184.921875 344.644531 182.351562 344.582031 179.78125 344.457031 C 177.214844 344.332031 174.648438 344.140625 172.089844 343.890625 C 169.53125 343.636719 166.980469 343.320312 164.433594 342.945312 C 161.890625 342.566406 159.359375 342.128906 156.835938 341.625 C 154.3125 341.125 151.804688 340.5625 149.308594 339.9375 C 146.816406 339.3125 144.335938 338.625 141.875 337.878906 C 139.414062 337.132812 136.972656 336.324219 134.550781 335.460938 C 132.128906 334.59375 129.730469 333.667969 127.355469 332.683594 C 124.980469 331.699219 122.628906 330.65625 120.304688 329.558594 C 117.976562 328.457031 115.683594 327.300781 113.414062 326.089844 C 111.144531 324.875 108.910156 323.609375 106.703125 322.289062 C 104.496094 320.964844 102.324219 319.589844 100.1875 318.160156 C 98.046875 316.730469 95.945312 315.25 93.878906 313.71875 C 91.8125 312.1875 89.785156 310.605469 87.796875 308.972656 C 85.808594 307.34375 83.863281 305.664062 81.957031 303.9375 C 80.050781 302.207031 78.191406 300.4375 76.371094 298.617188 C 74.554688 296.796875 72.78125 294.9375 71.050781 293.03125 C 69.324219 291.125 67.644531 289.179688 66.015625 287.191406 C 64.382812 285.203125 62.800781 283.175781 61.269531 281.109375 C 59.738281 279.042969 58.257812 276.941406 56.828125 274.804688 C 55.398438 272.664062 54.023438 270.492188 52.699219 268.285156 C 51.378906 266.082031 50.113281 263.84375 48.898438 261.574219 C 47.6875 259.308594 46.53125 257.011719 45.429688 254.683594 C 44.332031 252.359375 43.289062 250.007812 42.304688 247.632812 C 41.320312 245.257812 40.394531 242.859375 39.527344 240.4375 C 38.664062 238.015625 37.855469 235.574219 37.109375 233.113281 C 36.363281 230.652344 35.675781 228.171875 35.050781 225.679688 C 34.425781 223.183594 33.863281 220.675781 33.363281 218.152344 C 32.859375 215.628906 32.421875 213.097656 32.042969 210.554688 C 31.667969 208.007812 31.351562 205.457031 31.097656 202.898438 C 30.847656 200.339844 30.660156 197.773438 30.53125 195.207031 C 30.40625 192.636719 30.34375 190.066406 30.34375 187.496094 C 30.34375 184.921875 30.40625 182.351562 30.53125 179.78125 C 30.660156 177.214844 30.847656 174.648438 31.097656 172.089844 C 31.351562 169.53125 31.667969 166.980469 32.042969 164.433594 C 32.421875 161.890625 32.859375 159.359375 33.363281 156.835938 C 33.863281 154.3125 34.425781 151.804688 35.050781 149.308594 C 35.675781 146.816406 36.363281 144.335938 37.109375 141.875 C 37.855469 139.414062 38.664062 136.972656 39.527344 134.550781 C 40.394531 132.128906 41.320312 129.730469 42.304688 127.355469 C 43.289062 124.980469 44.332031 122.628906 45.429688 120.304688 C 46.53125 117.976562 47.6875 115.683594 48.898438 113.414062 C 50.113281 111.144531 51.378906 108.910156 52.699219 106.703125 C 54.023438 104.496094 55.398438 102.324219 56.828125 100.1875 C 58.257812 98.046875 59.738281 95.945312 61.269531 93.878906 C 62.800781 91.8125 64.382812 89.785156 66.015625 87.796875 C 67.644531 85.808594 69.324219 83.863281 71.050781 81.957031 C 72.78125 80.050781 74.554688 78.191406 76.371094 76.371094 C 78.191406 74.554688 80.050781 72.78125 81.957031 71.050781 C 83.863281 69.324219 85.808594 67.644531 87.796875 66.015625 C 89.785156 64.382812 91.8125 62.800781 93.878906 61.269531 C 95.945312 59.738281 98.046875 58.257812 100.1875 56.828125 C 102.324219 55.398438 104.496094 54.023438 106.703125 52.699219 C 108.910156 51.378906 111.144531 50.113281 113.414062 48.898438 C 115.683594 47.6875 117.976562 46.53125 120.304688 45.429688 C 122.628906 44.332031 124.980469 43.289062 127.355469 42.304688 C 129.730469 41.320312 132.128906 40.394531 134.550781 39.527344 C 136.972656 38.664062 139.414062 37.855469 141.875 37.109375 C 144.335938 36.363281 146.816406 35.675781 149.308594 35.050781 C 151.804688 34.425781 154.3125 33.863281 156.835938 33.363281 C 159.359375 32.859375 161.890625 32.421875 164.433594 32.042969 C 166.980469 31.667969 169.53125 31.351562 172.089844 31.097656 C 174.648438 30.847656 177.214844 30.660156 179.78125 30.53125 C 182.351562 30.40625 184.921875 30.34375 187.496094 30.34375 C 190.066406 30.34375 192.636719 30.40625 195.207031 30.53125 C 197.773438 30.660156 200.339844 30.847656 202.898438 31.097656 C 205.457031 31.351562 208.007812 31.667969 210.554688 32.042969 C 213.097656 32.421875 215.628906 32.859375 218.152344 33.363281 C 220.675781 33.863281 223.183594 34.425781 225.679688 35.050781 C 228.171875 35.675781 230.652344 36.363281 233.113281 37.109375 C 235.574219 37.855469 238.015625 38.664062 240.4375 39.527344 C 242.859375 40.394531 245.257812 41.320312 247.632812 42.304688 C 250.007812 43.289062 252.359375 44.332031 254.683594 45.429688 C 257.011719 46.53125 259.308594 47.6875 261.574219 48.898438 C 263.84375 50.113281 266.082031 51.378906 268.285156 52.699219 C 270.492188 54.023438 272.664062 55.398438 274.804688 56.828125 C 276.941406 58.257812 279.042969 59.738281 281.109375 61.269531 C 283.175781 62.800781 285.203125 64.382812 287.191406 66.015625 C 289.179688 67.644531 291.125 69.324219 293.03125 71.050781 C 294.9375 72.78125 296.796875 74.554688 298.617188 76.371094 C 300.4375 78.191406 302.207031 80.050781 303.9375 81.957031 C 305.664062 83.863281 307.34375 85.808594 308.972656 87.796875 C 310.605469 89.785156 312.1875 91.8125 313.71875 93.878906 C 315.25 95.945312 316.730469 98.046875 318.160156 100.1875 C 319.589844 102.324219 320.964844 104.496094 322.289062 106.703125 C 323.609375 108.910156 324.878906 111.144531 326.089844 113.414062 C 327.300781 115.683594 328.457031 117.976562 329.558594 120.304688 C 330.65625 122.628906 331.699219 124.980469 332.683594 127.355469 C 333.667969 129.730469 334.59375 132.128906 335.460938 134.550781 C 336.324219 136.972656 337.132812 139.414062 337.878906 141.875 C 338.625 144.335938 339.3125 146.816406 339.9375 149.308594 C 340.5625 151.804688 341.125 154.3125 341.625 156.835938 C 342.128906 159.359375 342.566406 161.890625 342.945312 164.433594 C 343.320312 166.980469 343.636719 169.53125 343.890625 172.089844 C 344.140625 174.648438 344.332031 177.214844 344.457031 179.78125 C 344.582031 182.351562 344.644531 184.921875 344.644531 187.496094 Z M 344.644531 187.496094 " fill-opacity="1" fill-rule="nonzero"/><path fill="#00bf63" d="M 320.46875 187.496094 C 320.46875 189.671875 320.414062 191.84375 320.308594 194.019531 C 320.203125 196.191406 320.042969 198.363281 319.828125 200.527344 C 319.613281 202.695312 319.347656 204.851562 319.027344 207.003906 C 318.710938 209.160156 318.339844 211.300781 317.914062 213.4375 C 317.488281 215.570312 317.011719 217.691406 316.484375 219.804688 C 315.953125 221.914062 315.375 224.011719 314.742188 226.09375 C 314.109375 228.175781 313.429688 230.242188 312.695312 232.292969 C 311.960938 234.339844 311.179688 236.371094 310.347656 238.382812 C 309.511719 240.390625 308.632812 242.378906 307.703125 244.347656 C 306.769531 246.316406 305.792969 248.257812 304.765625 250.179688 C 303.742188 252.097656 302.667969 253.988281 301.550781 255.855469 C 300.429688 257.722656 299.265625 259.5625 298.058594 261.371094 C 296.847656 263.179688 295.597656 264.957031 294.300781 266.707031 C 293.003906 268.453125 291.664062 270.167969 290.285156 271.851562 C 288.902344 273.535156 287.484375 275.183594 286.023438 276.792969 C 284.558594 278.40625 283.058594 279.980469 281.519531 281.519531 C 279.980469 283.058594 278.40625 284.558594 276.792969 286.023438 C 275.183594 287.484375 273.535156 288.902344 271.851562 290.285156 C 270.171875 291.664062 268.453125 293.003906 266.707031 294.300781 C 264.957031 295.597656 263.179688 296.847656 261.371094 298.058594 C 259.5625 299.265625 257.722656 300.429688 255.855469 301.550781 C 253.988281 302.667969 252.097656 303.742188 250.179688 304.765625 C 248.257812 305.792969 246.316406 306.769531 244.347656 307.703125 C 242.378906 308.632812 240.390625 309.511719 238.382812 310.347656 C 236.371094 311.179688 234.339844 311.960938 232.292969 312.695312 C 230.242188 313.429688 228.175781 314.109375 226.09375 314.742188 C 224.011719 315.375 221.914062 315.953125 219.804688 316.484375 C 217.695312 317.011719 215.570312 317.488281 213.4375 317.914062 C 211.300781 318.339844 209.160156 318.710938 207.003906 319.027344 C 204.851562 319.347656 202.695312 319.613281 200.527344 319.828125 C 198.363281 320.042969 196.191406 320.203125 194.019531 320.308594 C 191.84375 320.414062 189.671875 320.46875 187.496094 320.46875 C 185.316406 320.46875 183.144531 320.414062 180.96875 320.308594 C 178.796875 320.203125 176.625 320.042969 174.460938 319.828125 C 172.292969 319.613281 170.136719 319.347656 167.984375 319.027344 C 165.832031 318.710938 163.6875 318.339844 161.550781 317.914062 C 159.417969 317.488281 157.296875 317.011719 155.183594 316.484375 C 153.074219 315.953125 150.976562 315.375 148.894531 314.742188 C 146.8125 314.109375 144.746094 313.429688 142.695312 312.695312 C 140.648438 311.960938 138.617188 311.179688 136.605469 310.347656 C 134.597656 309.511719 132.609375 308.632812 130.640625 307.703125 C 128.671875 306.769531 126.730469 305.792969 124.8125 304.765625 C 122.890625 303.742188 121 302.667969 119.132812 301.550781 C 117.265625 300.429688 115.425781 299.265625 113.617188 298.058594 C 111.808594 296.847656 110.03125 295.597656 108.28125 294.300781 C 106.535156 293.003906 104.820312 291.664062 103.136719 290.285156 C 101.453125 288.902344 99.808594 287.484375 98.195312 286.023438 C 96.582031 284.558594 95.007812 283.058594 93.46875 281.519531 C 91.929688 279.980469 90.429688 278.40625 88.96875 276.792969 C 87.503906 275.183594 86.085938 273.535156 84.703125 271.851562 C 83.324219 270.167969 81.984375 268.453125 80.6875 266.707031 C 79.390625 264.957031 78.140625 263.179688 76.929688 261.371094 C 75.722656 259.5625 74.558594 257.722656 73.4375 255.855469 C 72.320312 253.988281 71.246094 252.097656 70.222656 250.179688 C 69.195312 248.257812 68.21875 246.316406 67.285156 244.347656 C 66.355469 242.378906 65.476562 240.390625 64.640625 238.382812 C 63.808594 236.371094 63.027344 234.339844 62.292969 232.292969 C 61.558594 230.242188 60.878906 228.175781 60.246094 226.09375 C 59.613281 224.011719 59.035156 221.914062 58.503906 219.804688 C 57.976562 217.691406 57.5 215.570312 57.074219 213.4375 C 56.652344 211.300781 56.277344 209.160156 55.960938 207.003906 C 55.640625 204.851562 55.375 202.695312 55.160156 200.527344 C 54.945312 198.363281 54.785156 196.191406 54.679688 194.019531 C 54.574219 191.84375 54.519531 189.671875 54.519531 187.496094 C 54.519531 185.316406 54.574219 183.144531 54.679688 180.96875 C 54.785156 178.796875 54.945312 176.625 55.160156 174.460938 C 55.375 172.292969 55.640625 170.136719 55.960938 167.984375 C 56.277344 165.832031 56.652344 163.6875 57.074219 161.550781 C 57.5 159.417969 57.976562 157.296875 58.503906 155.183594 C 59.035156 153.074219 59.613281 150.976562 60.246094 148.894531 C 60.878906 146.8125 61.558594 144.746094 62.292969 142.695312 C 63.027344 140.648438 63.808594 138.617188 64.640625 136.605469 C 65.476562 134.597656 66.355469 132.609375 67.285156 130.640625 C 68.21875 128.671875 69.195312 126.730469 70.222656 124.8125 C 71.246094 122.890625 72.320312 121 73.4375 119.132812 C 74.558594 117.265625 75.722656 115.425781 76.929688 113.617188 C 78.140625 111.808594 79.390625 110.03125 80.6875 108.28125 C 81.984375 106.535156 83.324219 104.820312 84.703125 103.136719 C 86.085938 101.453125 87.503906 99.808594 88.96875 98.195312 C 90.429688 96.582031 91.929688 95.007812 93.46875 93.46875 C 95.007812 91.929688 96.582031 90.429688 98.195312 88.964844 C 99.808594 87.503906 101.453125 86.085938 103.136719 84.703125 C 104.820312 83.324219 106.535156 81.984375 108.28125 80.6875 C 110.03125 79.390625 111.808594 78.140625 113.617188 76.929688 C 115.425781 75.722656 117.265625 74.558594 119.132812 73.4375 C 121 72.320312 122.890625 71.246094 124.8125 70.222656 C 126.730469 69.195312 128.671875 68.21875 130.640625 67.285156 C 132.609375 66.355469 134.597656 65.476562 136.605469 64.640625 C 138.617188 63.808594 140.648438 63.027344 142.695312 62.292969 C 144.746094 61.558594 146.8125 60.878906 148.894531 60.246094 C 150.976562 59.613281 153.074219 59.035156 155.183594 58.503906 C 157.296875 57.976562 159.417969 57.5 161.550781 57.074219 C 163.6875 56.652344 165.832031 56.277344 167.984375 55.960938 C 170.136719 55.640625 172.292969 55.375 174.460938 55.160156 C 176.625 54.945312 178.796875 54.785156 180.96875 54.679688 C 183.144531 54.574219 185.316406 54.519531 187.496094 54.519531 C 189.671875 54.519531 191.84375 54.574219 194.019531 54.679688 C 196.191406 54.785156 198.363281 54.945312 200.527344 55.160156 C 202.695312 55.375 204.851562 55.640625 207.003906 55.960938 C 209.160156 56.277344 211.300781 56.652344 213.4375 57.074219 C 215.570312 57.5 217.691406 57.976562 219.804688 58.503906 C 221.914062 59.035156 224.011719 59.613281 226.09375 60.246094 C 228.175781 60.878906 230.242188 61.558594 232.292969 62.292969 C 234.339844 63.027344 236.371094 63.808594 238.382812 64.640625 C 240.390625 65.476562 242.378906 66.355469 244.347656 67.285156 C 246.316406 68.21875 248.257812 69.195312 250.179688 70.222656 C 252.097656 71.246094 253.988281 72.320312 255.855469 73.4375 C 257.722656 74.558594 259.5625 75.722656 261.371094 76.929688 C 263.179688 78.140625 264.957031 79.390625 266.707031 80.6875 C 268.453125 81.984375 270.171875 83.324219 271.851562 84.703125 C 273.535156 86.085938 275.183594 87.503906 276.792969 88.964844 C 278.40625 90.429688 279.980469 91.929688 281.519531 93.46875 C 283.058594 95.007812 284.558594 96.582031 286.023438 98.195312 C 287.484375 99.804688 288.902344 101.453125 290.285156 103.136719 C 291.664062 104.820312 293.003906 106.535156 294.300781 108.28125 C 295.597656 110.03125 296.847656 111.808594 298.058594 113.617188 C 299.265625 115.425781 300.429688 117.265625 301.550781 119.132812 C 302.667969 121 303.742188 122.890625 304.765625 124.8125 C 305.792969 126.730469 306.769531 128.671875 307.703125 130.640625 C 308.632812 132.609375 309.511719 134.597656 310.347656 136.605469 C 311.179688 138.617188 311.960938 140.648438 312.695312 142.695312 C 313.429688 144.746094 314.109375 146.8125 314.742188 148.894531 C 315.375 150.976562 315.953125 153.074219 316.484375 155.183594 C 317.011719 157.296875 317.488281 159.417969 317.914062 161.550781 C 318.339844 163.6875 318.710938 165.832031 319.027344 167.984375 C 319.347656 170.136719 319.613281 172.292969 319.828125 174.460938 C 320.042969 176.625 320.203125 178.796875 320.308594 180.96875 C 320.414062 183.144531 320.46875 185.316406 320.46875 187.496094 Z M 320.46875 187.496094 " fill-opacity="1" fill-rule="nonzero"/></svg>