<svg xmlns="http://www.w3.org/2000/svg" xmlns:xlink="http://www.w3.org/1999/xlink" width="500" zoomAndPan="magnify" viewBox="0 0 375 374.999991" height="500" preserveAspectRatio="xMidYMid meet" version="1.0"><defs><clipPath id="fee0943aa7"><path d="M 20.671875 20.671875 L 354.421875 20.671875 L 354.421875 354.421875 L 20.671875 354.421875 Z M 20.671875 20.671875 " clip-rule="nonzero"/></clipPath></defs><g clip-path="url(#fee0943aa7)"><path fill="#ffb300" d="M 354.421875 187.546875 C 354.421875 190.277344 354.355469 193.007812 354.222656 195.734375 C 354.085938 198.460938 353.886719 201.1875 353.617188 203.902344 C 353.351562 206.621094 353.015625 209.332031 352.617188 212.03125 C 352.214844 214.734375 351.75 217.425781 351.214844 220.101562 C 350.683594 222.78125 350.085938 225.445312 349.421875 228.09375 C 348.757812 230.742188 348.027344 233.375 347.238281 235.988281 C 346.445312 238.601562 345.585938 241.195312 344.667969 243.765625 C 343.746094 246.335938 342.765625 248.882812 341.71875 251.40625 C 340.675781 253.929688 339.566406 256.425781 338.398438 258.894531 C 337.234375 261.363281 336.003906 263.800781 334.71875 266.210938 C 333.429688 268.621094 332.085938 270.996094 330.679688 273.335938 C 329.277344 275.679688 327.816406 277.988281 326.296875 280.257812 C 324.78125 282.527344 323.210938 284.761719 321.582031 286.953125 C 319.957031 289.148438 318.277344 291.300781 316.542969 293.410156 C 314.808594 295.523438 313.027344 297.589844 311.191406 299.613281 C 309.359375 301.636719 307.476562 303.613281 305.546875 305.546875 C 303.613281 307.476562 301.636719 309.359375 299.613281 311.191406 C 297.589844 313.027344 295.523438 314.808594 293.410156 316.542969 C 291.300781 318.277344 289.148438 319.957031 286.953125 321.582031 C 284.761719 323.210938 282.527344 324.78125 280.257812 326.296875 C 277.988281 327.816406 275.679688 329.277344 273.335938 330.679688 C 270.996094 332.085938 268.621094 333.429688 266.210938 334.71875 C 263.800781 336.003906 261.363281 337.234375 258.894531 338.398438 C 256.425781 339.566406 253.929688 340.675781 251.40625 341.71875 C 248.882812 342.765625 246.335938 343.746094 243.765625 344.667969 C 241.195312 345.585938 238.601562 346.445312 235.988281 347.238281 C 233.375 348.027344 230.742188 348.757812 228.09375 349.421875 C 225.445312 350.085938 222.78125 350.683594 220.101562 351.214844 C 217.425781 351.75 214.734375 352.214844 212.03125 352.617188 C 209.332031 353.015625 206.621094 353.351562 203.902344 353.617188 C 201.1875 353.886719 198.460938 354.085938 195.734375 354.222656 C 193.007812 354.355469 190.277344 354.421875 187.546875 354.421875 C 184.816406 354.421875 182.085938 354.355469 179.359375 354.222656 C 176.632812 354.085938 173.910156 353.886719 171.191406 353.617188 C 168.472656 353.351562 165.761719 353.015625 163.0625 352.617188 C 160.359375 352.214844 157.667969 351.75 154.992188 351.214844 C 152.3125 350.683594 149.648438 350.085938 147 349.421875 C 144.351562 348.757812 141.71875 348.027344 139.105469 347.238281 C 136.492188 346.445312 133.898438 345.585938 131.328125 344.667969 C 128.757812 343.746094 126.210938 342.765625 123.6875 341.71875 C 121.164062 340.675781 118.667969 339.566406 116.199219 338.398438 C 113.730469 337.234375 111.292969 336.003906 108.882812 334.71875 C 106.472656 333.429688 104.097656 332.085938 101.757812 330.679688 C 99.414062 329.277344 97.105469 327.816406 94.835938 326.296875 C 92.566406 324.78125 90.332031 323.210938 88.140625 321.582031 C 85.945312 319.957031 83.792969 318.277344 81.683594 316.542969 C 79.570312 314.808594 77.503906 313.027344 75.480469 311.191406 C 73.457031 309.359375 71.480469 307.476562 69.546875 305.546875 C 67.617188 303.613281 65.734375 301.636719 63.902344 299.613281 C 62.066406 297.589844 60.285156 295.523438 58.550781 293.410156 C 56.816406 291.300781 55.136719 289.148438 53.511719 286.953125 C 51.886719 284.761719 50.3125 282.527344 48.796875 280.257812 C 47.277344 277.988281 45.816406 275.679688 44.414062 273.335938 C 43.007812 270.996094 41.664062 268.621094 40.375 266.210938 C 39.089844 263.800781 37.863281 261.363281 36.695312 258.894531 C 35.527344 256.425781 34.417969 253.929688 33.375 251.40625 C 32.328125 248.882812 31.347656 246.335938 30.425781 243.765625 C 29.507812 241.195312 28.648438 238.601562 27.859375 235.988281 C 27.066406 233.375 26.335938 230.742188 25.671875 228.09375 C 25.007812 225.445312 24.410156 222.78125 23.878906 220.101562 C 23.34375 217.425781 22.878906 214.734375 22.476562 212.03125 C 22.078125 209.332031 21.742188 206.621094 21.476562 203.902344 C 21.207031 201.1875 21.007812 198.460938 20.871094 195.734375 C 20.738281 193.007812 20.671875 190.277344 20.671875 187.546875 C 20.671875 184.816406 20.738281 182.085938 20.871094 179.359375 C 21.007812 176.632812 21.207031 173.910156 21.476562 171.191406 C 21.742188 168.472656 22.078125 165.761719 22.476562 163.0625 C 22.878906 160.359375 23.34375 157.667969 23.878906 154.992188 C 24.410156 152.3125 25.007812 149.648438 25.671875 147 C 26.335938 144.351562 27.066406 141.71875 27.859375 139.105469 C 28.648438 136.492188 29.507812 133.898438 30.425781 131.328125 C 31.347656 128.757812 32.328125 126.210938 33.375 123.6875 C 34.417969 121.164062 35.527344 118.667969 36.695312 116.199219 C 37.863281 113.730469 39.089844 111.292969 40.375 108.882812 C 41.664062 106.472656 43.007812 104.097656 44.414062 101.757812 C 45.816406 99.414062 47.277344 97.105469 48.796875 94.835938 C 50.3125 92.566406 51.886719 90.332031 53.511719 88.140625 C 55.136719 85.945312 56.816406 83.792969 58.550781 81.683594 C 60.285156 79.570312 62.066406 77.503906 63.902344 75.480469 C 65.734375 73.457031 67.617188 71.480469 69.546875 69.546875 C 71.480469 67.617188 73.457031 65.734375 75.480469 63.902344 C 77.503906 62.066406 79.570312 60.285156 81.683594 58.550781 C 83.792969 56.816406 85.945312 55.136719 88.140625 53.511719 C 90.332031 51.886719 92.566406 50.3125 94.835938 48.796875 C 97.105469 47.277344 99.414062 45.816406 101.757812 44.414062 C 104.097656 43.007812 106.472656 41.664062 108.882812 40.375 C 111.292969 39.089844 113.730469 37.863281 116.199219 36.695312 C 118.667969 35.527344 121.164062 34.417969 123.6875 33.375 C 126.210938 32.328125 128.757812 31.347656 131.328125 30.425781 C 133.898438 29.507812 136.492188 28.648438 139.105469 27.859375 C 141.71875 27.066406 144.351562 26.335938 147 25.671875 C 149.648438 25.007812 152.3125 24.410156 154.992188 23.878906 C 157.667969 23.34375 160.359375 22.878906 163.0625 22.476562 C 165.761719 22.078125 168.472656 21.742188 171.191406 21.476562 C 173.910156 21.207031 176.632812 21.007812 179.359375 20.871094 C 182.085938 20.738281 184.816406 20.671875 187.546875 20.671875 C 190.277344 20.671875 193.007812 20.738281 195.734375 20.871094 C 198.460938 21.007812 201.1875 21.207031 203.902344 21.476562 C 206.621094 21.742188 209.332031 22.078125 212.03125 22.476562 C 214.734375 22.878906 217.425781 23.34375 220.101562 23.878906 C 222.78125 24.410156 225.445312 25.007812 228.09375 25.671875 C 230.742188 26.335938 233.375 27.066406 235.988281 27.859375 C 238.601562 28.648438 241.195312 29.507812 243.765625 30.425781 C 246.335938 31.347656 248.882812 32.328125 251.40625 33.375 C 253.929688 34.417969 256.425781 35.527344 258.894531 36.695312 C 261.363281 37.863281 263.800781 39.089844 266.210938 40.375 C 268.621094 41.664062 270.996094 43.007812 273.335938 44.414062 C 275.679688 45.816406 277.988281 47.277344 280.257812 48.796875 C 282.527344 50.3125 284.761719 51.886719 286.953125 53.511719 C 289.148438 55.136719 291.300781 56.816406 293.410156 58.550781 C 295.523438 60.285156 297.589844 62.066406 299.613281 63.902344 C 301.636719 65.734375 303.613281 67.617188 305.546875 69.546875 C 307.476562 71.480469 309.359375 73.457031 311.191406 75.480469 C 313.027344 77.503906 314.808594 79.570312 316.542969 81.683594 C 318.277344 83.792969 319.957031 85.945312 321.582031 88.140625 C 323.210938 90.332031 324.78125 92.566406 326.296875 94.835938 C 327.816406 97.105469 329.277344 99.414062 330.679688 101.757812 C 332.085938 104.097656 333.429688 106.472656 334.71875 108.882812 C 336.003906 111.292969 337.234375 113.730469 338.398438 116.199219 C 339.566406 118.667969 340.675781 121.164062 341.71875 123.6875 C 342.765625 126.210938 343.746094 128.757812 344.667969 131.328125 C 345.585938 133.898438 346.445312 136.492188 347.238281 139.105469 C 348.027344 141.71875 348.757812 144.351562 349.421875 147 C 350.085938 149.648438 350.683594 152.3125 351.214844 154.992188 C 351.75 157.667969 352.214844 160.359375 352.617188 163.0625 C 353.015625 165.761719 353.351562 168.472656 353.617188 171.191406 C 353.886719 173.910156 354.085938 176.632812 354.222656 179.359375 C 354.355469 182.085938 354.421875 184.816406 354.421875 187.546875 Z M 354.421875 187.546875 " fill-opacity="1" fill-rule="nonzero"/></g><path fill="#ffca28" d="M 344.75 187.546875 C 344.75 190.121094 344.683594 192.691406 344.558594 195.261719 C 344.433594 197.828125 344.242188 200.394531 343.992188 202.957031 C 343.738281 205.515625 343.425781 208.066406 343.046875 210.613281 C 342.667969 213.15625 342.230469 215.691406 341.726562 218.214844 C 341.226562 220.738281 340.660156 223.25 340.035156 225.742188 C 339.410156 228.238281 338.726562 230.71875 337.980469 233.179688 C 337.230469 235.640625 336.425781 238.085938 335.558594 240.507812 C 334.691406 242.929688 333.765625 245.328125 332.78125 247.707031 C 331.796875 250.082031 330.753906 252.433594 329.65625 254.757812 C 328.554688 257.085938 327.398438 259.382812 326.1875 261.652344 C 324.972656 263.921875 323.707031 266.15625 322.382812 268.363281 C 321.058594 270.570312 319.683594 272.742188 318.253906 274.882812 C 316.824219 277.023438 315.34375 279.125 313.8125 281.191406 C 312.28125 283.257812 310.695312 285.285156 309.066406 287.273438 C 307.433594 289.261719 305.753906 291.210938 304.023438 293.117188 C 302.296875 295.023438 300.523438 296.886719 298.703125 298.703125 C 296.886719 300.523438 295.023438 302.296875 293.117188 304.023438 C 291.210938 305.753906 289.261719 307.433594 287.273438 309.066406 C 285.285156 310.695312 283.257812 312.28125 281.191406 313.8125 C 279.125 315.34375 277.023438 316.824219 274.882812 318.253906 C 272.742188 319.683594 270.570312 321.058594 268.363281 322.382812 C 266.15625 323.707031 263.921875 324.972656 261.652344 326.1875 C 259.382812 327.398438 257.085938 328.554688 254.757812 329.65625 C 252.433594 330.753906 250.082031 331.796875 247.707031 332.78125 C 245.328125 333.765625 242.929688 334.691406 240.507812 335.558594 C 238.085938 336.425781 235.640625 337.230469 233.179688 337.980469 C 230.71875 338.726562 228.238281 339.410156 225.742188 340.035156 C 223.25 340.660156 220.738281 341.226562 218.214844 341.726562 C 215.691406 342.230469 213.15625 342.667969 210.613281 343.046875 C 208.066406 343.425781 205.515625 343.738281 202.957031 343.992188 C 200.394531 344.242188 197.828125 344.433594 195.261719 344.558594 C 192.691406 344.683594 190.121094 344.75 187.546875 344.75 C 184.972656 344.75 182.402344 344.683594 179.832031 344.558594 C 177.265625 344.433594 174.699219 344.242188 172.136719 343.992188 C 169.578125 343.738281 167.027344 343.425781 164.480469 343.046875 C 161.9375 342.667969 159.402344 342.230469 156.878906 341.726562 C 154.355469 341.226562 151.847656 340.660156 149.351562 340.035156 C 146.855469 339.410156 144.375 338.726562 141.914062 337.980469 C 139.453125 337.230469 137.011719 336.425781 134.585938 335.558594 C 132.164062 334.691406 129.765625 333.765625 127.390625 332.78125 C 125.011719 331.796875 122.660156 330.753906 120.335938 329.65625 C 118.007812 328.554688 115.710938 327.398438 113.441406 326.1875 C 111.175781 324.972656 108.9375 323.707031 106.730469 322.382812 C 104.523438 321.058594 102.351562 319.683594 100.210938 318.253906 C 98.070312 316.824219 95.96875 315.34375 93.902344 313.8125 C 91.835938 312.28125 89.808594 310.695312 87.820312 309.066406 C 85.832031 307.433594 83.882812 305.753906 81.976562 304.023438 C 80.070312 302.296875 78.207031 300.523438 76.390625 298.703125 C 74.570312 296.886719 72.796875 295.023438 71.070312 293.117188 C 69.339844 291.210938 67.660156 289.261719 66.027344 287.273438 C 64.398438 285.285156 62.8125 283.257812 61.28125 281.191406 C 59.75 279.125 58.269531 277.023438 56.839844 274.882812 C 55.410156 272.742188 54.035156 270.570312 52.710938 268.363281 C 51.386719 266.15625 50.121094 263.921875 48.90625 261.652344 C 47.695312 259.382812 46.539062 257.085938 45.4375 254.757812 C 44.339844 252.433594 43.296875 250.082031 42.3125 247.707031 C 41.328125 245.328125 40.402344 242.929688 39.535156 240.507812 C 38.667969 238.085938 37.863281 235.640625 37.113281 233.179688 C 36.367188 230.71875 35.683594 228.238281 35.058594 225.742188 C 34.433594 223.25 33.867188 220.738281 33.367188 218.214844 C 32.863281 215.691406 32.425781 213.15625 32.046875 210.613281 C 31.667969 208.066406 31.355469 205.515625 31.101562 202.957031 C 30.851562 200.394531 30.660156 197.828125 30.535156 195.261719 C 30.410156 192.691406 30.347656 190.121094 30.347656 187.546875 C 30.347656 184.972656 30.410156 182.402344 30.535156 179.832031 C 30.660156 177.265625 30.851562 174.699219 31.101562 172.136719 C 31.355469 169.578125 31.667969 167.027344 32.046875 164.480469 C 32.425781 161.9375 32.863281 159.402344 33.367188 156.878906 C 33.867188 154.355469 34.433594 151.847656 35.058594 149.351562 C 35.683594 146.855469 36.367188 144.375 37.113281 141.914062 C 37.863281 139.453125 38.667969 137.011719 39.535156 134.585938 C 40.402344 132.164062 41.328125 129.765625 42.3125 127.390625 C 43.296875 125.011719 44.339844 122.660156 45.4375 120.335938 C 46.539062 118.007812 47.695312 115.710938 48.90625 113.441406 C 50.121094 111.175781 51.386719 108.9375 52.710938 106.730469 C 54.035156 104.523438 55.410156 102.351562 56.839844 100.210938 C 58.269531 98.070312 59.75 95.96875 61.28125 93.902344 C 62.8125 91.835938 64.398438 89.808594 66.027344 87.820312 C 67.660156 85.832031 69.339844 83.882812 71.070312 81.976562 C 72.796875 80.070312 74.570312 78.207031 76.390625 76.390625 C 78.207031 74.570312 80.070312 72.796875 81.976562 71.070312 C 83.882812 69.339844 85.832031 67.660156 87.820312 66.027344 C 89.808594 64.398438 91.835938 62.8125 93.902344 61.28125 C 95.96875 59.75 98.070312 58.269531 100.210938 56.839844 C 102.351562 55.410156 104.523438 54.035156 106.730469 52.710938 C 108.9375 51.386719 111.175781 50.121094 113.441406 48.90625 C 115.710938 47.695312 118.007812 46.539062 120.335938 45.4375 C 122.660156 44.339844 125.011719 43.296875 127.390625 42.3125 C 129.765625 41.328125 132.164062 40.402344 134.585938 39.535156 C 137.011719 38.667969 139.453125 37.863281 141.914062 37.113281 C 144.375 36.367188 146.855469 35.683594 149.351562 35.058594 C 151.847656 34.433594 154.355469 33.867188 156.878906 33.367188 C 159.402344 32.863281 161.9375 32.425781 164.480469 32.046875 C 167.027344 31.667969 169.578125 31.355469 172.136719 31.101562 C 174.699219 30.851562 177.265625 30.660156 179.832031 30.535156 C 182.402344 30.410156 184.972656 30.347656 187.546875 30.347656 C 190.121094 30.347656 192.691406 30.410156 195.261719 30.535156 C 197.828125 30.660156 200.394531 30.851562 202.957031 31.101562 C 205.515625 31.355469 208.066406 31.667969 210.613281 32.046875 C 213.15625 32.425781 215.691406 32.863281 218.214844 33.367188 C 220.738281 33.867188 223.25 34.433594 225.742188 35.058594 C 228.238281 35.683594 230.71875 36.367188 233.179688 37.113281 C 235.640625 37.863281 238.085938 38.667969 240.507812 39.535156 C 242.929688 40.402344 245.328125 41.328125 247.707031 42.3125 C 250.082031 43.296875 252.433594 44.339844 254.757812 45.4375 C 257.085938 46.539062 259.382812 47.695312 261.652344 48.90625 C 263.921875 50.121094 266.15625 51.386719 268.363281 52.710938 C 270.570312 54.035156 272.742188 55.410156 274.882812 56.839844 C 277.023438 58.269531 279.125 59.75 281.191406 61.28125 C 283.257812 62.8125 285.285156 64.398438 287.273438 66.027344 C 289.261719 67.660156 291.210938 69.339844 293.117188 71.070312 C 295.023438 72.796875 296.886719 74.570312 298.703125 76.390625 C 300.523438 78.207031 302.296875 80.070312 304.023438 81.976562 C 305.753906 83.882812 307.433594 85.832031 309.066406 87.820312 C 310.695312 89.808594 312.28125 91.835938 313.8125 93.902344 C 315.34375 95.96875 316.824219 98.070312 318.253906 100.210938 C 319.683594 102.351562 321.058594 104.523438 322.382812 106.730469 C 323.707031 108.9375 324.972656 111.175781 326.1875 113.441406 C 327.398438 115.710938 328.554688 118.007812 329.65625 120.335938 C 330.753906 122.660156 331.796875 125.011719 332.78125 127.390625 C 333.765625 129.765625 334.691406 132.164062 335.558594 134.585938 C 336.425781 137.011719 337.230469 139.453125 337.980469 141.914062 C 338.726562 144.375 339.410156 146.855469 340.035156 149.351562 C 340.660156 151.847656 341.226562 154.355469 341.726562 156.878906 C 342.230469 159.402344 342.667969 161.9375 343.046875 164.480469 C 343.425781 167.027344 343.738281 169.578125 343.992188 172.136719 C 344.242188 174.699219 344.433594 177.265625 344.558594 179.832031 C 344.683594 182.402344 344.75 184.972656 344.75 187.546875 Z M 344.75 187.546875 " fill-opacity="1" fill-rule="nonzero"/><path fill="#ffa000" d="M 320.5625 187.546875 C 320.5625 189.722656 320.511719 191.898438 320.402344 194.074219 C 320.296875 196.25 320.136719 198.417969 319.921875 200.585938 C 319.710938 202.75 319.441406 204.910156 319.125 207.066406 C 318.804688 209.21875 318.433594 211.363281 318.007812 213.496094 C 317.582031 215.632812 317.105469 217.753906 316.578125 219.867188 C 316.046875 221.980469 315.46875 224.078125 314.835938 226.160156 C 314.203125 228.242188 313.519531 230.308594 312.789062 232.359375 C 312.054688 234.410156 311.269531 236.4375 310.4375 238.449219 C 309.605469 240.460938 308.722656 242.449219 307.792969 244.417969 C 306.863281 246.386719 305.882812 248.332031 304.855469 250.25 C 303.832031 252.171875 302.757812 254.0625 301.640625 255.929688 C 300.519531 257.796875 299.355469 259.636719 298.144531 261.445312 C 296.9375 263.257812 295.683594 265.035156 294.386719 266.785156 C 293.089844 268.53125 291.75 270.25 290.371094 271.929688 C 288.988281 273.613281 287.566406 275.261719 286.105469 276.875 C 284.644531 278.488281 283.144531 280.0625 281.605469 281.605469 C 280.0625 283.144531 278.488281 284.644531 276.875 286.105469 C 275.261719 287.566406 273.613281 288.988281 271.929688 290.371094 C 270.25 291.75 268.53125 293.089844 266.785156 294.386719 C 265.035156 295.683594 263.257812 296.9375 261.445312 298.144531 C 259.636719 299.355469 257.796875 300.519531 255.929688 301.640625 C 254.0625 302.757812 252.171875 303.832031 250.25 304.855469 C 248.332031 305.882812 246.386719 306.863281 244.417969 307.792969 C 242.449219 308.722656 240.460938 309.605469 238.449219 310.4375 C 236.4375 311.269531 234.410156 312.054688 232.359375 312.789062 C 230.308594 313.519531 228.242188 314.203125 226.160156 314.835938 C 224.078125 315.46875 221.980469 316.046875 219.867188 316.578125 C 217.753906 317.105469 215.632812 317.582031 213.496094 318.007812 C 211.363281 318.433594 209.21875 318.804688 207.066406 319.125 C 204.910156 319.441406 202.75 319.710938 200.585938 319.921875 C 198.417969 320.136719 196.25 320.296875 194.074219 320.402344 C 191.898438 320.511719 189.722656 320.5625 187.546875 320.5625 C 185.371094 320.5625 183.195312 320.511719 181.019531 320.402344 C 178.847656 320.296875 176.675781 320.136719 174.507812 319.921875 C 172.34375 319.710938 170.183594 319.441406 168.03125 319.125 C 165.875 318.804688 163.730469 318.433594 161.597656 318.007812 C 159.460938 317.582031 157.339844 317.105469 155.226562 316.578125 C 153.113281 316.046875 151.015625 315.46875 148.933594 314.835938 C 146.851562 314.203125 144.785156 313.519531 142.734375 312.789062 C 140.683594 312.054688 138.65625 311.269531 136.644531 310.4375 C 134.632812 309.605469 132.644531 308.722656 130.675781 307.792969 C 128.707031 306.863281 126.761719 305.882812 124.84375 304.855469 C 122.921875 303.832031 121.03125 302.757812 119.164062 301.640625 C 117.296875 300.519531 115.457031 299.355469 113.648438 298.144531 C 111.835938 296.9375 110.058594 295.683594 108.308594 294.386719 C 106.5625 293.089844 104.84375 291.75 103.164062 290.371094 C 101.480469 288.988281 99.832031 287.566406 98.21875 286.105469 C 96.605469 284.644531 95.03125 283.144531 93.492188 281.605469 C 91.949219 280.0625 90.449219 278.488281 88.988281 276.875 C 87.527344 275.261719 86.105469 273.613281 84.722656 271.929688 C 83.34375 270.25 82.003906 268.53125 80.707031 266.785156 C 79.410156 265.035156 78.15625 263.257812 76.949219 261.445312 C 75.738281 259.636719 74.574219 257.796875 73.457031 255.929688 C 72.335938 254.0625 71.261719 252.171875 70.238281 250.25 C 69.210938 248.332031 68.234375 246.386719 67.300781 244.417969 C 66.371094 242.449219 65.488281 240.460938 64.65625 238.449219 C 63.824219 236.4375 63.039062 234.410156 62.304688 232.359375 C 61.574219 230.308594 60.890625 228.242188 60.257812 226.160156 C 59.625 224.078125 59.046875 221.980469 58.515625 219.867188 C 57.988281 217.753906 57.511719 215.632812 57.085938 213.496094 C 56.660156 211.363281 56.289062 209.21875 55.96875 207.066406 C 55.652344 204.910156 55.382812 202.75 55.171875 200.585938 C 54.957031 198.417969 54.796875 196.25 54.691406 194.074219 C 54.585938 191.898438 54.53125 189.722656 54.53125 187.546875 C 54.53125 185.371094 54.585938 183.195312 54.691406 181.019531 C 54.796875 178.847656 54.957031 176.675781 55.171875 174.507812 C 55.382812 172.34375 55.652344 170.183594 55.96875 168.03125 C 56.289062 165.875 56.660156 163.730469 57.085938 161.597656 C 57.511719 159.460938 57.988281 157.339844 58.515625 155.226562 C 59.046875 153.113281 59.625 151.015625 60.257812 148.933594 C 60.890625 146.851562 61.574219 144.785156 62.304688 142.734375 C 63.039062 140.683594 63.824219 138.65625 64.65625 136.644531 C 65.488281 134.632812 66.371094 132.644531 67.300781 130.675781 C 68.230469 128.707031 69.210938 126.761719 70.238281 124.84375 C 71.261719 122.921875 72.335938 121.03125 73.457031 119.164062 C 74.574219 117.296875 75.738281 115.457031 76.949219 113.648438 C 78.15625 111.835938 79.410156 110.058594 80.707031 108.308594 C 82.003906 106.5625 83.34375 104.84375 84.722656 103.164062 C 86.105469 101.480469 87.527344 99.832031 88.988281 98.21875 C 90.449219 96.605469 91.949219 95.03125 93.492188 93.492188 C 95.03125 91.949219 96.605469 90.449219 98.21875 88.988281 C 99.832031 87.527344 101.480469 86.105469 103.164062 84.722656 C 104.84375 83.34375 106.5625 82.003906 108.308594 80.707031 C 110.058594 79.410156 111.835938 78.15625 113.648438 76.949219 C 115.457031 75.738281 117.296875 74.574219 119.164062 73.457031 C 121.03125 72.335938 122.921875 71.261719 124.84375 70.238281 C 126.761719 69.210938 128.707031 68.230469 130.675781 67.300781 C 132.644531 66.371094 134.632812 65.488281 136.644531 64.65625 C 138.65625 63.824219 140.683594 63.039062 142.734375 62.304688 C 144.785156 61.574219 146.851562 60.890625 148.933594 60.257812 C 151.015625 59.625 153.113281 59.046875 155.226562 58.515625 C 157.339844 57.988281 159.460938 57.511719 161.597656 57.085938 C 163.730469 56.660156 165.875 56.289062 168.03125 55.96875 C 170.183594 55.652344 172.34375 55.382812 174.507812 55.171875 C 176.675781 54.957031 178.847656 54.796875 181.019531 54.691406 C 183.195312 54.585938 185.371094 54.53125 187.546875 54.53125 C 189.722656 54.53125 191.898438 54.585938 194.074219 54.691406 C 196.25 54.796875 198.417969 54.957031 200.585938 55.171875 C 202.75 55.382812 204.910156 55.652344 207.066406 55.96875 C 209.21875 56.289062 211.363281 56.660156 213.496094 57.085938 C 215.632812 57.511719 217.753906 57.988281 219.867188 58.515625 C 221.980469 59.046875 224.078125 59.625 226.160156 60.257812 C 228.242188 60.890625 230.308594 61.574219 232.359375 62.304688 C 234.410156 63.039062 236.4375 63.824219 238.449219 64.65625 C 240.460938 65.488281 242.449219 66.371094 244.417969 67.300781 C 246.386719 68.230469 248.332031 69.210938 250.25 70.238281 C 252.171875 71.261719 254.0625 72.335938 255.929688 73.457031 C 257.796875 74.574219 259.636719 75.738281 261.445312 76.949219 C 263.257812 78.15625 265.035156 79.410156 266.785156 80.707031 C 268.53125 82.003906 270.25 83.34375 271.929688 84.722656 C 273.613281 86.105469 275.261719 87.527344 276.875 88.988281 C 278.488281 90.449219 280.0625 91.949219 281.605469 93.492188 C 283.144531 95.03125 284.644531 96.605469 286.105469 98.21875 C 287.566406 99.832031 288.988281 101.480469 290.371094 103.164062 C 291.75 104.84375 293.089844 106.5625 294.386719 108.308594 C 295.683594 110.058594 296.9375 111.835938 298.144531 113.648438 C 299.355469 115.457031 300.519531 117.296875 301.640625 119.164062 C 302.757812 121.03125 303.832031 122.921875 304.855469 124.84375 C 305.882812 126.761719 306.863281 128.707031 307.792969 130.675781 C 308.722656 132.644531 309.605469 134.632812 310.4375 136.644531 C 311.269531 138.65625 312.054688 140.683594 312.789062 142.734375 C 313.519531 144.785156 314.203125 146.851562 314.835938 148.933594 C 315.46875 151.015625 316.046875 153.113281 316.578125 155.226562 C 317.105469 157.339844 317.582031 159.460938 318.007812 161.597656 C 318.433594 163.730469 318.804688 165.875 319.125 168.03125 C 319.441406 170.183594 319.710938 172.34375 319.921875 174.507812 C 320.136719 176.675781 320.296875 178.847656 320.402344 181.019531 C 320.511719 183.195312 320.5625 185.371094 320.5625 187.546875 Z M 320.5625 187.546875 " fill-opacity="1" fill-rule="nonzero"/></svg>