<svg xmlns="http://www.w3.org/2000/svg" xmlns:xlink="http://www.w3.org/1999/xlink" width="1920" zoomAndPan="magnify" viewBox="0 0 1440 809.999993" height="1080" preserveAspectRatio="xMidYMid meet" version="1.0"><defs><g/><clipPath id="eaa4dc702b"><path d="M 436.167969 46 L 1003.917969 46 L 1003.917969 581.046875 L 436.167969 581.046875 Z M 436.167969 46 " clip-rule="nonzero"/></clipPath></defs><path fill="#cac9f9" d="M 1000.902344 236.566406 C 998.417969 229.117188 991.675781 210.667969 971.09375 223.796875 C 950.515625 236.921875 935.257812 262.109375 942.351562 290.492188 L 942.351562 296.878906 C 942.351562 296.878906 942.351562 308.230469 942.351562 322.421875 C 942.351562 322.066406 942.351562 322.066406 942.351562 321.710938 C 940.933594 313.90625 941.644531 305.039062 920.351562 296.167969 C 898.707031 287.652344 743.285156 384.507812 743.285156 384.507812 L 689.347656 438.078125 C 691.476562 431.691406 692.898438 425.660156 692.898438 419.628906 C 692.898438 400.472656 679.414062 393.019531 663.089844 402.246094 C 646.769531 411.824219 633.285156 434.882812 633.285156 454.042969 C 633.285156 461.136719 635.058594 466.8125 638.25 470.359375 C 637.898438 488.808594 637.542969 511.160156 637.542969 532.800781 C 637.542969 572.890625 631.863281 578.210938 629.734375 578.566406 C 632.574219 578.566406 635.414062 577.855469 637.898438 576.4375 C 647.476562 570.761719 663.089844 561.890625 673.734375 555.503906 C 678.347656 552.667969 682.253906 548.765625 684.734375 544.152344 C 688.285156 544.863281 692.1875 544.507812 696.800781 541.667969 C 709.929688 534.21875 921.417969 412.53125 928.160156 407.210938 C 933.480469 402.953125 939.867188 396.921875 941.996094 385.925781 C 941.289062 390.539062 939.515625 394.792969 939.515625 394.792969 C 939.515625 394.792969 945.191406 397.277344 956.191406 391.246094 C 967.191406 385.214844 982.804688 376.703125 987.417969 372.800781 C 992.03125 368.898438 1001.257812 359.316406 1001.257812 343.351562 C 1000.902344 328.097656 1003.386719 244.371094 1000.902344 236.566406 Z M 941.996094 384.859375 C 941.996094 385.214844 941.996094 385.570312 941.996094 385.925781 C 941.996094 385.570312 941.996094 385.214844 941.996094 384.859375 Z M 862.867188 285.527344 C 862.867188 285.527344 712.769531 362.15625 603.121094 382.023438 C 542.796875 393.019531 491.347656 353.640625 491.347656 352.933594 C 491.347656 350.804688 491.347656 288.363281 491.347656 288.363281 C 491.347656 244.726562 578.636719 182.996094 683.316406 122.6875 C 732.996094 93.949219 768.835938 80.113281 792.609375 73.375 C 802.191406 70.535156 811.414062 72.664062 818.867188 77.628906 C 827.027344 83.308594 832.351562 92.53125 832.351562 103.175781 L 832.351562 168.453125 Z M 862.867188 285.527344 " fill-opacity="1" fill-rule="nonzero"/><path fill="#bba6ed" d="M 629.378906 579.273438 C 626.1875 579.273438 623.347656 578.566406 620.507812 577.144531 L 457.28125 481.714844 C 445.570312 474.972656 438.476562 462.554688 438.476562 449.074219 L 438.476562 251.824219 C 438.476562 244.371094 446.636719 239.761719 453.023438 243.308594 L 471.828125 254.304688 C 483.894531 261.402344 491.347656 274.171875 491.347656 288.363281 L 491.347656 368.1875 L 632.929688 450.847656 C 632.929688 452.265625 632.574219 453.332031 632.574219 454.75 C 632.574219 461.847656 634.347656 467.523438 637.542969 471.070312 C 637.542969 473.199219 637.542969 475.328125 637.542969 477.8125 C 637.542969 478.164062 637.542969 478.519531 637.542969 478.519531 C 637.542969 480.648438 637.542969 483.132812 637.542969 485.617188 C 637.542969 485.617188 637.542969 485.96875 637.542969 485.96875 C 637.542969 488.097656 637.542969 490.226562 637.542969 492.355469 C 637.542969 492.710938 637.542969 493.421875 637.542969 493.777344 C 637.542969 496.257812 637.542969 498.386719 637.542969 500.871094 C 637.542969 500.871094 637.542969 501.226562 637.542969 501.226562 C 637.542969 503.355469 637.542969 505.835938 637.542969 507.964844 C 637.542969 508.675781 637.542969 509.03125 637.542969 509.738281 C 637.542969 512.222656 637.542969 514.707031 637.542969 517.191406 C 637.542969 517.191406 637.542969 517.191406 637.542969 517.546875 C 637.542969 520.027344 637.542969 522.15625 637.542969 524.640625 C 637.542969 525.351562 637.542969 525.703125 637.542969 526.414062 C 637.542969 528.898438 637.542969 531.382812 637.542969 533.863281 C 637.1875 573.242188 631.507812 578.566406 629.378906 579.273438 Z M 799.351562 238.695312 C 808.929688 236.210938 818.867188 237.632812 827.738281 242.597656 L 931.351562 302.910156 C 938.09375 306.8125 942.351562 314.261719 942.351562 322.066406 C 942.351562 304.683594 942.351562 290.492188 942.351562 290.492188 L 803.609375 209.605469 C 803.609375 209.605469 797.929688 211.023438 799.351562 238.695312 Z M 799.351562 238.695312 " fill-opacity="1" fill-rule="nonzero"/><path fill="#e2d7fc" d="M 480.699219 261.402344 C 476.796875 256.789062 462.25 248.628906 453.023438 243.308594 C 443.796875 237.988281 440.605469 246.5 440.605469 246.5 C 454.441406 222.375 538.894531 139.359375 639.316406 87.210938 C 665.929688 73.375 687.929688 63.085938 705.671875 55.636719 C 733.351562 43.925781 765.285156 46.054688 791.542969 61.3125 C 805.382812 69.472656 818.15625 76.921875 819.222656 77.628906 L 806.800781 71.953125 L 792.964844 73.019531 L 775.929688 78.339844 L 729.445312 97.851562 L 683.671875 122.332031 C 578.636719 183.351562 491.347656 245.082031 491.347656 288.363281 C 490.992188 268.496094 484.605469 266.367188 480.699219 261.402344 Z M 844.769531 136.167969 C 824.898438 124.460938 796.511719 154.617188 792.609375 180.160156 C 788.707031 205.347656 803.609375 209.960938 803.609375 209.960938 L 943.773438 291.910156 C 943.773438 291.910156 937.386719 266.722656 952.644531 242.242188 C 967.546875 217.765625 988.835938 219.894531 988.835938 219.894531 C 988.835938 219.894531 864.640625 147.519531 844.769531 136.167969 Z M 601.347656 352.578125 L 533.925781 312.84375 C 533.925781 312.84375 511.925781 308.941406 496.667969 332.710938 C 481.410156 356.480469 477.863281 375.28125 494.894531 388.410156 C 511.925781 401.535156 638.25 473.910156 638.25 473.910156 C 638.25 473.910156 627.605469 462.910156 636.476562 437.367188 C 645.347656 411.824219 665.929688 395.503906 680.832031 398.695312 C 695.738281 401.890625 695.382812 427.078125 687.929688 441.269531 L 688.996094 453.332031 C 688.996094 453.332031 693.605469 454.042969 720.574219 438.785156 C 741.511719 426.722656 867.835938 353.996094 920.707031 323.484375 C 930.996094 317.453125 930.996094 302.554688 920.707031 296.523438 L 833.0625 245.4375 C 833.0625 245.4375 812.480469 225.925781 767.769531 254.304688 C 723.058594 282.6875 601.347656 352.578125 601.347656 352.578125 Z M 601.347656 352.578125 " fill-opacity="1" fill-rule="nonzero"/><path fill="#fffa97" d="M 535.347656 154.96875 C 534.28125 153.550781 534.992188 148.9375 538.539062 145.746094 C 549.1875 135.101562 608.089844 96.078125 636.832031 82.242188 C 665.574219 68.40625 690.414062 70.179688 705.316406 80.113281 C 720.21875 90.046875 731.929688 102.464844 731.929688 122.6875 C 731.929688 142.90625 732.285156 158.164062 731.929688 185.480469 C 731.574219 212.796875 713.832031 233.730469 664.863281 260.335938 C 615.898438 286.945312 601.347656 265.660156 597.089844 260.335938 C 592.832031 255.015625 596.378906 188.320312 591.414062 178.738281 C 586.089844 169.515625 550.960938 150.003906 541.378906 150.003906 Z M 535.347656 154.96875 " fill-opacity="1" fill-rule="nonzero"/><g clip-path="url(#eaa4dc702b)"><path fill="#66509f" d="M 1002.675781 236.566406 C 1001.613281 229.117188 998.417969 223.085938 993.449219 220.246094 C 993.449219 220.246094 993.09375 220.246094 993.09375 219.894531 C 992.386719 219.539062 847.609375 135.101562 846.191406 134.394531 C 842.996094 131.910156 838.738281 131.199219 834.480469 131.554688 L 834.480469 103.175781 C 834.480469 92.53125 829.15625 82.242188 820.285156 76.210938 C 819.929688 75.855469 818.867188 75.148438 792.253906 59.539062 C 765.640625 43.925781 732.996094 41.796875 704.960938 53.859375 C 693.605469 58.828125 681.1875 64.503906 668.058594 70.890625 C 657.769531 71.953125 647.121094 75.148438 636.476562 80.46875 C 607.023438 94.660156 548.476562 133.683594 537.476562 144.328125 C 534.28125 147.519531 532.863281 151.421875 533.574219 154.261719 C 488.152344 189.027344 451.957031 225.925781 440.605469 243.308594 C 438.121094 245.4375 436.699219 248.628906 436.699219 251.824219 L 436.699219 449.074219 C 436.699219 462.910156 444.152344 476.035156 456.21875 483.132812 L 619.800781 578.566406 C 622.636719 580.339844 625.832031 581.046875 629.378906 581.046875 C 632.574219 581.046875 635.769531 580.339844 638.960938 578.566406 L 674.800781 557.632812 C 679.769531 554.796875 683.671875 550.539062 686.15625 545.925781 C 686.867188 545.925781 687.574219 545.925781 688.285156 545.925781 C 692.1875 545.925781 696.089844 544.863281 699.640625 542.734375 L 928.867188 409.339844 C 933.835938 406.503906 937.738281 402.246094 940.578125 397.277344 C 941.289062 397.277344 941.996094 397.277344 942.351562 397.277344 C 947.320312 397.277344 952.289062 395.859375 956.902344 393.375 L 985.289062 376.703125 C 996.289062 370.316406 1003.03125 358.253906 1003.03125 345.835938 Z M 999.128906 241.179688 C 999.128906 259.628906 986 282.332031 970.03125 291.558594 C 962.578125 295.8125 955.835938 296.523438 950.515625 293.683594 C 945.546875 290.847656 942.707031 284.460938 942.707031 275.945312 C 942.707031 257.5 955.835938 234.792969 971.804688 225.570312 C 976.0625 223.085938 980.320312 221.667969 984.222656 221.667969 C 986.707031 221.667969 989.191406 222.375 991.320312 223.441406 C 996.289062 226.277344 999.128906 232.664062 999.128906 241.179688 Z M 940.578125 331.644531 C 940.578125 335.546875 938.449219 339.449219 934.902344 341.578125 L 696.445312 480.292969 C 694.316406 481.359375 692.1875 482.066406 689.703125 482.421875 L 689.703125 456.167969 C 692.542969 455.816406 695.382812 455.105469 698.21875 453.6875 L 921.0625 323.839844 L 919.289062 320.648438 L 696.445312 450.492188 C 694.316406 451.558594 692.1875 452.265625 689.703125 452.621094 L 689.703125 441.269531 C 692.542969 434.175781 694.316406 427.078125 694.316406 420.339844 C 694.316406 410.40625 690.769531 402.953125 684.734375 399.40625 C 684.734375 399.40625 684.382812 399.40625 684.382812 399.050781 C 684.027344 398.695312 643.21875 375.28125 604.894531 352.578125 L 791.1875 244.015625 C 802.191406 237.632812 816.027344 237.632812 827.027344 244.015625 L 930.644531 304.328125 C 937.03125 307.875 940.578125 314.617188 940.578125 322.066406 Z M 494.183594 385.925781 C 486.734375 381.667969 484.25 370.671875 487.441406 356.480469 C 490.28125 344.417969 496.667969 333.417969 505.894531 324.90625 C 516.894531 314.617188 527.894531 311.421875 535.347656 316.746094 C 555.929688 328.808594 645.347656 380.957031 673.734375 397.277344 C 669.832031 397.632812 665.929688 399.050781 661.671875 401.535156 C 644.640625 411.46875 630.800781 435.238281 630.800781 454.75 C 630.800781 459.71875 631.507812 463.621094 633.285156 467.167969 C 603.476562 449.785156 508.734375 394.792969 495.605469 386.988281 Z M 634.703125 454.394531 C 634.703125 435.949219 647.832031 413.242188 663.800781 404.019531 C 668.058594 401.535156 672.316406 400.117188 676.21875 400.117188 C 678.703125 400.117188 681.1875 400.824219 683.316406 401.890625 C 688.285156 404.726562 691.125 411.113281 691.125 419.628906 C 691.125 438.078125 677.996094 460.78125 662.027344 470.003906 C 654.574219 474.261719 647.832031 474.972656 642.511719 472.132812 C 637.1875 469.296875 634.703125 463.265625 634.703125 454.394531 Z M 932.0625 301.488281 L 828.449219 241.179688 C 820.285156 236.210938 810.351562 234.792969 801.125 236.566406 C 801.125 234.4375 801.125 230.535156 801.125 223.796875 C 801.125 219.539062 802.191406 215.636719 803.609375 212.089844 C 821.707031 222.375 911.835938 275.238281 940.222656 291.558594 L 940.222656 309.648438 C 938.449219 306.457031 935.609375 303.617188 932.0625 301.488281 Z M 844.0625 137.585938 C 864.640625 149.648438 954.0625 201.800781 982.449219 218.121094 C 978.546875 218.472656 974.644531 219.894531 970.386719 222.375 C 953.351562 232.308594 939.515625 256.078125 939.515625 275.59375 C 939.515625 280.558594 940.222656 284.460938 941.996094 288.007812 C 913.964844 271.691406 827.738281 221.3125 804.320312 207.832031 L 802.542969 206.765625 C 795.09375 202.507812 792.609375 191.511719 795.800781 177.320312 C 798.640625 165.257812 805.027344 154.261719 814.253906 145.746094 C 825.253906 135.457031 836.609375 132.265625 844.0625 137.585938 Z M 830.578125 103.175781 L 830.578125 132.265625 C 824.542969 133.683594 818.15625 137.230469 811.769531 143.261719 C 802.191406 152.488281 795.449219 163.839844 792.253906 176.609375 C 788.707031 191.511719 791.1875 203.574219 798.996094 209.25 L 800.414062 210.3125 C 798.285156 214.570312 797.222656 219.183594 797.222656 224.152344 C 797.222656 227.699219 797.222656 235.503906 797.222656 237.632812 C 794.382812 238.339844 791.542969 239.761719 788.707031 241.179688 L 600.636719 350.804688 C 567.636719 331.644531 537.476562 313.90625 536.765625 313.550781 C 528.25 307.519531 515.121094 310.714844 503.054688 322.066406 C 499.152344 325.613281 495.605469 329.871094 492.765625 334.484375 L 492.765625 288.363281 C 492.765625 262.464844 525.765625 226.988281 590.347656 182.640625 C 592.121094 190.449219 592.476562 208.894531 592.832031 224.503906 C 593.1875 248.628906 593.894531 259.273438 596.023438 261.757812 L 596.378906 262.109375 C 603.121094 270.980469 612.347656 275.238281 624.058594 275.238281 C 624.414062 275.238281 624.414062 275.238281 624.769531 275.238281 L 624.769531 303.617188 C 624.769531 304.328125 625.121094 304.683594 625.832031 305.039062 C 627.25 305.746094 629.734375 305.746094 631.507812 305.039062 C 632.21875 304.683594 632.574219 303.972656 632.574219 303.617188 L 632.574219 274.527344 C 634.703125 274.171875 636.832031 273.816406 638.960938 273.109375 L 638.960938 295.105469 C 638.960938 295.8125 639.316406 296.167969 640.027344 296.523438 C 641.445312 297.234375 643.929688 297.234375 645.703125 296.523438 C 646.414062 296.167969 646.769531 295.460938 646.769531 295.105469 L 646.769531 270.625 C 648.898438 269.914062 651.027344 269.207031 653.15625 268.140625 L 653.15625 286.589844 C 653.15625 287.300781 653.511719 287.652344 654.21875 288.007812 C 655.640625 288.71875 658.121094 288.71875 659.898438 288.007812 C 660.605469 287.652344 660.960938 286.945312 660.960938 286.589844 L 660.960938 264.238281 C 662.382812 263.53125 664.15625 262.464844 665.929688 261.757812 C 666.640625 261.402344 666.992188 261.046875 667.703125 260.691406 L 667.703125 278.074219 C 667.703125 278.785156 668.058594 279.140625 668.769531 279.496094 C 670.1875 280.203125 672.671875 280.203125 674.445312 279.496094 C 675.15625 279.140625 675.511719 278.429688 675.511719 278.074219 L 675.511719 256.433594 C 677.640625 255.015625 679.769531 253.949219 681.898438 252.53125 L 681.898438 269.914062 C 681.898438 270.625 682.253906 270.980469 682.960938 271.335938 C 684.382812 272.042969 686.867188 272.042969 688.640625 271.335938 C 689.347656 270.980469 689.703125 270.269531 689.703125 269.914062 L 689.703125 247.921875 C 691.832031 246.5 693.960938 245.082031 696.089844 243.664062 L 696.089844 261.757812 C 696.089844 262.464844 696.445312 262.820312 697.15625 263.175781 C 698.574219 263.882812 701.058594 263.882812 702.832031 263.175781 C 703.542969 262.820312 703.898438 262.109375 703.898438 261.757812 L 703.898438 237.988281 C 706.382812 236.210938 708.511719 234.4375 710.285156 232.308594 L 710.285156 253.242188 C 710.285156 253.949219 710.640625 254.304688 711.347656 254.660156 C 712.769531 255.371094 715.253906 255.371094 717.027344 254.660156 C 717.738281 254.304688 718.089844 253.597656 718.089844 253.242188 L 718.089844 224.503906 C 728.738281 212.441406 733.703125 200.027344 733.703125 185.835938 C 734.058594 167.386719 734.058594 154.261719 733.703125 141.84375 C 733.703125 135.8125 733.703125 129.425781 733.703125 122.6875 C 733.703125 113.816406 731.574219 106.722656 728.382812 100.691406 C 752.511719 88.984375 774.15625 80.46875 793.320312 75.148438 C 801.835938 72.664062 810.707031 74.082031 818.15625 79.050781 C 825.964844 84.726562 830.578125 93.59375 830.578125 103.175781 Z M 706.027344 57.410156 C 732.996094 46.054688 764.574219 47.828125 790.125 62.730469 C 795.449219 65.921875 799.707031 68.40625 803.253906 70.535156 C 799.707031 70.179688 795.800781 70.535156 791.898438 71.597656 C 772.382812 76.921875 750.382812 85.789062 726.253906 97.496094 C 720.929688 89.339844 713.125 83.308594 706.027344 78.339844 C 697.867188 73.019531 687.929688 70.179688 676.574219 70.179688 C 687.574219 65.566406 697.15625 60.957031 706.027344 57.410156 Z M 539.605469 146.8125 C 550.25 136.523438 609.15625 97.496094 637.898438 83.660156 C 663.089844 71.246094 688.285156 70.535156 704.609375 81.53125 C 716.671875 89.691406 730.511719 101.398438 730.511719 122.6875 C 730.511719 129.425781 730.511719 135.457031 730.511719 141.84375 C 730.511719 154.261719 730.867188 167.386719 730.511719 185.835938 C 730.15625 213.152344 711.347656 233.730469 664.15625 259.273438 C 618.027344 284.105469 603.832031 266.367188 599.21875 260.335938 L 598.863281 259.273438 C 597.089844 257.144531 596.734375 238.695312 596.734375 224.152344 C 596.378906 199.316406 595.671875 182.996094 592.832031 178.03125 C 587.152344 168.097656 551.667969 148.585938 541.378906 148.230469 L 540.667969 148.230469 L 536.410156 151.421875 C 537.121094 150.003906 537.832031 148.230469 539.605469 146.8125 Z M 536.410156 156.035156 L 542.089844 151.777344 C 551.316406 152.839844 583.605469 170.582031 589.285156 179.09375 C 531.445312 218.828125 499.152344 251.113281 491.347656 276.65625 C 488.507812 266.722656 481.765625 258.207031 472.539062 252.886719 L 453.734375 241.890625 C 451.605469 240.46875 448.765625 240.113281 446.28125 240.46875 C 459.765625 223.441406 491.347656 191.15625 536.410156 156.035156 Z M 672.671875 554.441406 L 636.832031 575.371094 C 632.21875 578.210938 626.1875 578.210938 621.574219 575.371094 L 457.992188 480.292969 C 446.992188 473.910156 440.25 461.847656 440.25 449.074219 L 440.25 251.824219 C 440.25 250.757812 440.957031 248.628906 442.734375 246.144531 C 443.441406 245.792969 443.796875 245.4375 444.152344 245.082031 C 446.636719 243.664062 449.476562 243.664062 451.957031 245.082031 L 470.765625 256.078125 C 482.121094 262.820312 489.570312 275.238281 489.570312 288.71875 L 489.570312 340.871094 C 487.089844 345.480469 485.3125 350.804688 483.894531 356.125 C 480.347656 371.023438 482.832031 383.085938 490.636719 388.761719 L 492.054688 389.828125 C 507.3125 398.695312 640.027344 476.035156 640.027344 476.035156 C 640.027344 476.035156 640.027344 476.035156 640.378906 476.035156 C 642.863281 477.457031 646.058594 478.164062 649.25 478.164062 C 653.511719 478.164062 658.476562 476.746094 663.445312 473.910156 C 672.316406 468.585938 680.476562 459.71875 686.15625 449.074219 L 686.15625 531.382812 C 686.15625 540.605469 681.1875 549.828125 672.671875 554.441406 Z M 927.09375 406.503906 L 697.867188 539.894531 C 694.671875 541.667969 691.125 542.378906 687.574219 542.378906 C 688.996094 538.832031 689.703125 534.929688 689.703125 531.027344 L 689.703125 485.96875 C 692.542969 485.617188 695.382812 484.90625 698.21875 483.488281 L 936.675781 344.417969 C 938.09375 343.707031 939.515625 342.289062 940.578125 341.222656 L 940.578125 383.085938 C 940.578125 392.667969 935.257812 401.890625 927.09375 406.503906 Z M 999.128906 345.835938 C 999.128906 357.1875 993.09375 367.832031 983.160156 373.863281 L 954.773438 390.539062 C 950.867188 393.019531 946.257812 394.085938 941.644531 394.085938 C 943.0625 390.539062 943.773438 386.988281 943.773438 383.441406 L 943.773438 293.683594 C 946.964844 295.460938 948.738281 296.523438 948.738281 296.523438 C 948.738281 296.523438 948.738281 296.523438 949.09375 296.523438 C 951.578125 297.941406 954.773438 298.652344 957.964844 298.652344 C 962.222656 298.652344 967.191406 297.234375 972.160156 294.394531 C 983.871094 287.652344 994.160156 273.816406 999.484375 259.628906 L 999.484375 345.835938 Z M 602.058594 174.835938 L 599.929688 172 C 623.347656 156.390625 650.316406 139.714844 682.253906 121.265625 C 692.542969 115.234375 702.832031 109.558594 712.769531 104.59375 L 714.542969 107.785156 C 704.609375 112.753906 694.671875 118.429688 684.382812 124.460938 C 652.445312 142.554688 625.476562 159.226562 602.058594 174.835938 Z M 635.414062 484.195312 L 638.960938 484.195312 L 638.960938 547.34375 L 635.414062 547.34375 Z M 798.640625 293.332031 C 795.800781 290.847656 791.898438 289.429688 787.996094 289.429688 L 788.351562 285.878906 C 792.964844 286.234375 797.222656 288.007812 800.769531 290.847656 Z M 820.640625 282.332031 C 820.640625 282.332031 820.996094 282.332031 820.640625 282.332031 L 820.996094 285.878906 C 816.738281 285.878906 812.480469 287.300781 809.285156 289.78125 L 807.15625 286.945312 C 810.707031 284.105469 815.671875 282.332031 820.640625 282.332031 Z M 809.640625 294.394531 C 813.191406 295.460938 816.738281 297.234375 819.578125 299.714844 L 817.449219 302.554688 C 814.609375 300.425781 811.769531 299.007812 808.222656 297.941406 Z M 802.191406 295.8125 L 802.191406 299.363281 C 798.285156 299.363281 794.382812 301.488281 792.253906 304.683594 L 789.414062 302.554688 C 792.253906 298.652344 797.222656 295.8125 802.191406 295.8125 Z M 664.863281 366.769531 C 660.960938 363.929688 656.703125 361.800781 652.089844 360.738281 L 652.800781 357.1875 C 657.769531 358.609375 662.734375 360.738281 666.992188 363.929688 Z M 673.382812 366.058594 L 669.832031 365.347656 C 670.898438 360.738281 674.800781 357.1875 679.058594 356.480469 L 679.769531 360.027344 C 676.929688 360.738281 674.089844 363.21875 673.382812 366.058594 Z M 682.960938 383.085938 L 679.414062 383.441406 C 679.058594 379.183594 675.863281 374.925781 671.605469 373.507812 L 672.671875 370.316406 C 678.347656 372.089844 682.253906 377.054688 682.960938 383.085938 Z M 667.347656 367.832031 L 666.992188 371.378906 C 664.15625 371.023438 661.316406 373.152344 660.960938 375.992188 L 657.414062 375.636719 C 658.121094 371.023438 662.734375 367.476562 667.347656 367.832031 Z M 667.347656 367.832031 " fill-opacity="1" fill-rule="nonzero"/></g><g fill="#66509f" fill-opacity="1"><g transform="translate(345.755994, 732.336199)"><g><path d="M 48.03125 1.5625 C 42.726562 1.5625 37.96875 0.78125 33.75 -0.78125 C 29.539062 -2.34375 25.957031 -4.578125 23 -7.484375 C 20.039062 -10.390625 17.753906 -13.921875 16.140625 -18.078125 C 14.523438 -22.242188 13.71875 -26.875 13.71875 -31.96875 L 13.71875 -53.796875 C 13.71875 -58.890625 14.523438 -63.515625 16.140625 -67.671875 C 17.753906 -71.835938 20.039062 -75.375 23 -78.28125 C 25.957031 -81.1875 29.539062 -83.421875 33.75 -84.984375 C 37.96875 -86.546875 42.726562 -87.328125 48.03125 -87.328125 C 57.488281 -87.328125 65.257812 -84.753906 71.34375 -79.609375 C 77.425781 -74.460938 81.085938 -67.414062 82.328125 -58.46875 L 68.296875 -58.46875 C 67.566406 -63.46875 65.359375 -67.445312 61.671875 -70.40625 C 57.984375 -73.363281 53.4375 -74.84375 48.03125 -74.84375 C 41.789062 -74.84375 36.847656 -72.972656 33.203125 -69.234375 C 29.566406 -65.492188 27.75 -60.347656 27.75 -53.796875 L 27.75 -31.96875 C 27.75 -25.414062 29.539062 -20.269531 33.125 -16.53125 C 36.71875 -12.789062 41.6875 -10.921875 48.03125 -10.921875 C 53.4375 -10.921875 57.984375 -12.398438 61.671875 -15.359375 C 65.359375 -18.316406 67.566406 -22.289062 68.296875 -27.28125 L 82.328125 -27.28125 C 80.984375 -18.238281 77.269531 -11.171875 71.1875 -6.078125 C 65.101562 -0.984375 57.382812 1.5625 48.03125 1.5625 Z M 48.03125 1.5625 "/></g></g></g><g fill="#66509f" fill-opacity="1"><g transform="translate(439.317012, 732.336199)"><g><path d="M 26.515625 -31.96875 C 26.515625 -25.414062 28.304688 -20.269531 31.890625 -16.53125 C 35.472656 -12.789062 40.4375 -10.921875 46.78125 -10.921875 C 53.019531 -10.921875 57.957031 -12.789062 61.59375 -16.53125 C 65.226562 -20.269531 67.046875 -25.414062 67.046875 -31.96875 L 67.046875 -53.796875 C 67.046875 -60.347656 65.226562 -65.492188 61.59375 -69.234375 C 57.957031 -72.972656 53.019531 -74.84375 46.78125 -74.84375 C 40.539062 -74.84375 35.601562 -72.972656 31.96875 -69.234375 C 28.332031 -65.492188 26.515625 -60.347656 26.515625 -53.796875 Z M 12.46875 -53.796875 C 12.46875 -58.992188 13.273438 -63.644531 14.890625 -67.75 C 16.503906 -71.863281 18.789062 -75.375 21.75 -78.28125 C 24.71875 -81.1875 28.304688 -83.421875 32.515625 -84.984375 C 36.722656 -86.546875 41.476562 -87.328125 46.78125 -87.328125 C 57.382812 -87.328125 65.753906 -84.363281 71.890625 -78.4375 C 78.023438 -72.507812 81.09375 -64.347656 81.09375 -53.953125 L 81.09375 -31.96875 C 81.09375 -26.769531 80.3125 -22.085938 78.75 -17.921875 C 77.1875 -13.765625 74.921875 -10.257812 71.953125 -7.40625 C 68.992188 -4.550781 65.382812 -2.34375 61.125 -0.78125 C 56.863281 0.78125 52.082031 1.5625 46.78125 1.5625 C 41.476562 1.5625 36.722656 0.78125 32.515625 -0.78125 C 28.304688 -2.34375 24.71875 -4.578125 21.75 -7.484375 C 18.789062 -10.390625 16.503906 -13.921875 14.890625 -18.078125 C 13.273438 -22.242188 12.46875 -26.875 12.46875 -31.96875 Z M 12.46875 -53.796875 "/></g></g></g><g fill="#66509f" fill-opacity="1"><g transform="translate(532.878031, 732.336199)"><g><path d="M 14.03125 -85.765625 L 28.0625 -85.765625 L 28.0625 -30.25 C 28.0625 -17.257812 34.25 -10.765625 46.625 -10.765625 C 59.207031 -10.765625 65.5 -17.257812 65.5 -30.25 L 65.5 -85.765625 L 79.53125 -85.765625 L 79.53125 -30.25 C 79.53125 -20.0625 76.695312 -12.210938 71.03125 -6.703125 C 65.363281 -1.191406 57.226562 1.5625 46.625 1.5625 C 36.226562 1.5625 28.195312 -1.21875 22.53125 -6.78125 C 16.863281 -12.34375 14.03125 -20.164062 14.03125 -30.25 Z M 14.03125 -85.765625 "/></g></g></g><g fill="#66509f" fill-opacity="1"><g transform="translate(626.439049, 732.336199)"><g><path d="M 48.03125 1.5625 C 42.726562 1.5625 37.96875 0.78125 33.75 -0.78125 C 29.539062 -2.34375 25.957031 -4.578125 23 -7.484375 C 20.039062 -10.390625 17.753906 -13.921875 16.140625 -18.078125 C 14.523438 -22.242188 13.71875 -26.875 13.71875 -31.96875 L 13.71875 -53.796875 C 13.71875 -58.890625 14.523438 -63.515625 16.140625 -67.671875 C 17.753906 -71.835938 20.039062 -75.375 23 -78.28125 C 25.957031 -81.1875 29.539062 -83.421875 33.75 -84.984375 C 37.96875 -86.546875 42.726562 -87.328125 48.03125 -87.328125 C 57.488281 -87.328125 65.257812 -84.753906 71.34375 -79.609375 C 77.425781 -74.460938 81.085938 -67.414062 82.328125 -58.46875 L 68.296875 -58.46875 C 67.566406 -63.46875 65.359375 -67.445312 61.671875 -70.40625 C 57.984375 -73.363281 53.4375 -74.84375 48.03125 -74.84375 C 41.789062 -74.84375 36.847656 -72.972656 33.203125 -69.234375 C 29.566406 -65.492188 27.75 -60.347656 27.75 -53.796875 L 27.75 -31.96875 C 27.75 -25.414062 29.539062 -20.269531 33.125 -16.53125 C 36.71875 -12.789062 41.6875 -10.921875 48.03125 -10.921875 C 53.4375 -10.921875 57.984375 -12.398438 61.671875 -15.359375 C 65.359375 -18.316406 67.566406 -22.289062 68.296875 -27.28125 L 82.328125 -27.28125 C 80.984375 -18.238281 77.269531 -11.171875 71.1875 -6.078125 C 65.101562 -0.984375 57.382812 1.5625 48.03125 1.5625 Z M 48.03125 1.5625 "/></g></g></g><g fill="#66509f" fill-opacity="1"><g transform="translate(720.000068, 732.336199)"><g><path d="M 13.71875 -113.828125 L 27.75 -113.828125 L 27.75 -85.765625 C 27.75 -84.304688 27.722656 -82.71875 27.671875 -81 C 27.617188 -79.289062 27.539062 -77.707031 27.4375 -76.25 C 27.238281 -74.488281 27.085938 -72.722656 26.984375 -70.953125 L 28.21875 -70.953125 C 29.570312 -76.148438 32.300781 -80.175781 36.40625 -83.03125 C 40.519531 -85.894531 45.640625 -87.328125 51.765625 -87.328125 C 56.035156 -87.328125 59.910156 -86.597656 63.390625 -85.140625 C 66.867188 -83.679688 69.828125 -81.625 72.265625 -78.96875 C 74.710938 -76.320312 76.613281 -73.15625 77.96875 -69.46875 C 79.320312 -65.78125 80 -61.648438 80 -57.078125 L 80 0 L 65.96875 0 L 65.96875 -54.734375 C 65.96875 -61.285156 64.300781 -66.378906 60.96875 -70.015625 C 57.644531 -73.648438 53.019531 -75.46875 47.09375 -75.46875 C 41.164062 -75.46875 36.457031 -73.519531 32.96875 -69.625 C 29.488281 -65.726562 27.75 -60.453125 27.75 -53.796875 L 27.75 0 L 13.71875 0 Z M 13.71875 -113.828125 "/></g></g><g transform="translate(813.561062, 732.336199)"><g><path d="M 13.71875 -113.828125 L 27.75 -113.828125 L 27.75 -87.328125 C 27.75 -85.867188 27.722656 -84.175781 27.671875 -82.25 C 27.617188 -80.332031 27.539062 -78.539062 27.4375 -76.875 C 27.238281 -74.90625 27.085938 -72.929688 26.984375 -70.953125 L 28.21875 -70.953125 C 29.570312 -76.148438 32.328125 -80.175781 36.484375 -83.03125 C 40.648438 -85.894531 45.898438 -87.328125 52.234375 -87.328125 C 56.597656 -87.328125 60.546875 -86.546875 64.078125 -84.984375 C 67.617188 -83.421875 70.632812 -81.207031 73.125 -78.34375 C 75.625 -75.488281 77.578125 -71.984375 78.984375 -67.828125 C 80.390625 -63.671875 81.09375 -58.992188 81.09375 -53.796875 L 81.09375 -31.96875 C 81.09375 -26.769531 80.390625 -22.085938 78.984375 -17.921875 C 77.578125 -13.765625 75.625 -10.257812 73.125 -7.40625 C 70.632812 -4.550781 67.617188 -2.34375 64.078125 -0.78125 C 60.546875 0.78125 56.597656 1.5625 52.234375 1.5625 C 45.898438 1.5625 40.648438 0.132812 36.484375 -2.71875 C 32.328125 -5.582031 29.570312 -9.613281 28.21875 -14.8125 L 26.984375 -14.8125 L 26.984375 0 L 13.71875 0 Z M 27.75 -31.96875 C 27.75 -25.414062 29.488281 -20.21875 32.96875 -16.375 C 36.457031 -12.53125 41.113281 -10.609375 46.9375 -10.609375 C 53.175781 -10.609375 58.085938 -12.53125 61.671875 -16.375 C 65.253906 -20.21875 67.046875 -25.414062 67.046875 -31.96875 L 67.046875 -53.796875 C 67.046875 -60.554688 65.28125 -65.804688 61.75 -69.546875 C 58.21875 -73.285156 53.28125 -75.15625 46.9375 -75.15625 C 41.113281 -75.15625 36.457031 -73.234375 32.96875 -69.390625 C 29.488281 -65.546875 27.75 -60.347656 27.75 -53.796875 Z M 27.75 -31.96875 "/></g></g><g transform="translate(907.122056, 732.336199)"><g><path d="M 26.515625 -31.96875 C 26.515625 -25.414062 28.304688 -20.269531 31.890625 -16.53125 C 35.472656 -12.789062 40.4375 -10.921875 46.78125 -10.921875 C 53.019531 -10.921875 57.957031 -12.789062 61.59375 -16.53125 C 65.226562 -20.269531 67.046875 -25.414062 67.046875 -31.96875 L 67.046875 -53.796875 C 67.046875 -60.347656 65.226562 -65.492188 61.59375 -69.234375 C 57.957031 -72.972656 53.019531 -74.84375 46.78125 -74.84375 C 40.539062 -74.84375 35.601562 -72.972656 31.96875 -69.234375 C 28.332031 -65.492188 26.515625 -60.347656 26.515625 -53.796875 Z M 12.46875 -53.796875 C 12.46875 -58.992188 13.273438 -63.644531 14.890625 -67.75 C 16.503906 -71.863281 18.789062 -75.375 21.75 -78.28125 C 24.71875 -81.1875 28.304688 -83.421875 32.515625 -84.984375 C 36.722656 -86.546875 41.476562 -87.328125 46.78125 -87.328125 C 57.382812 -87.328125 65.753906 -84.363281 71.890625 -78.4375 C 78.023438 -72.507812 81.09375 -64.347656 81.09375 -53.953125 L 81.09375 -31.96875 C 81.09375 -26.769531 80.3125 -22.085938 78.75 -17.921875 C 77.1875 -13.765625 74.921875 -10.257812 71.953125 -7.40625 C 68.992188 -4.550781 65.382812 -2.34375 61.125 -0.78125 C 56.863281 0.78125 52.082031 1.5625 46.78125 1.5625 C 41.476562 1.5625 36.722656 0.78125 32.515625 -0.78125 C 28.304688 -2.34375 24.71875 -4.578125 21.75 -7.484375 C 18.789062 -10.390625 16.503906 -13.921875 14.890625 -18.078125 C 13.273438 -22.242188 12.46875 -26.875 12.46875 -31.96875 Z M 12.46875 -53.796875 "/></g></g><g transform="translate(1000.683051, 732.336199)"><g><path d="M 7.484375 0 L 38.515625 -43.96875 L 9.359375 -85.765625 L 26.203125 -85.765625 L 44.125 -58.46875 C 44.644531 -57.75 45.0625 -57.050781 45.375 -56.375 C 45.6875 -55.695312 45.945312 -55.097656 46.15625 -54.578125 C 46.363281 -54.054688 46.519531 -53.535156 46.625 -53.015625 L 47.25 -53.015625 C 47.351562 -53.535156 47.507812 -54.054688 47.71875 -54.578125 C 47.925781 -55.097656 48.1875 -55.695312 48.5 -56.375 C 48.8125 -57.050781 49.226562 -57.75 49.75 -58.46875 L 67.671875 -85.765625 L 84.359375 -85.765625 L 55.203125 -44.125 L 86.078125 0 L 69.234375 0 L 50.0625 -29 C 49.644531 -29.726562 49.253906 -30.429688 48.890625 -31.109375 C 48.523438 -31.785156 48.1875 -32.4375 47.875 -33.0625 C 47.5625 -33.789062 47.300781 -34.460938 47.09375 -35.078125 L 46.46875 -35.078125 C 46.257812 -34.359375 46 -33.6875 45.6875 -33.0625 C 45.375 -32.4375 45.0625 -31.757812 44.75 -31.03125 C 44.4375 -30.300781 44.019531 -29.625 43.5 -29 L 24.171875 0 Z M 7.484375 0 "/></g></g></g></svg>