<svg xmlns="http://www.w3.org/2000/svg" xmlns:xlink="http://www.w3.org/1999/xlink" width="500" zoomAndPan="magnify" viewBox="0 0 375 374.999991" height="500" preserveAspectRatio="xMidYMid meet" version="1.0"><defs><clipPath id="d2050c70c9"><path d="M 40.273438 33.214844 L 335 33.214844 L 335 342 L 40.273438 342 Z M 40.273438 33.214844 " clip-rule="nonzero"/></clipPath><clipPath id="01268d66b5"><path d="M 26.050781 40.324219 L 349.300781 40.324219 L 349.300781 342 L 26.050781 342 Z M 26.050781 40.324219 " clip-rule="nonzero"/></clipPath></defs><path fill="#518ad0" d="M 47.597656 234.28125 L 40.417969 234.28125 L 40.417969 241.46875 L 47.597656 241.46875 Z M 47.597656 227.105469 L 54.785156 227.105469 L 54.785156 219.929688 L 47.597656 219.929688 Z M 47.597656 298.914062 L 54.785156 298.914062 L 54.785156 291.730469 L 47.597656 291.730469 Z M 61.964844 212.742188 L 69.152344 212.742188 L 69.152344 205.5625 L 61.964844 205.5625 Z M 61.964844 306.09375 L 69.152344 306.09375 L 69.152344 298.914062 L 61.964844 298.914062 Z M 83.515625 298.914062 L 76.335938 298.914062 L 76.335938 306.09375 L 83.515625 306.09375 Z M 83.515625 327.632812 L 90.703125 327.632812 L 90.703125 320.457031 L 83.515625 320.457031 Z M 90.703125 212.742188 L 83.515625 212.742188 L 83.515625 219.929688 L 97.882812 219.929688 L 97.882812 212.742188 Z M 90.703125 320.457031 L 97.882812 320.457031 L 97.882812 313.277344 L 90.703125 313.277344 Z M 97.882812 313.277344 L 105.0625 313.277344 L 105.0625 306.09375 L 97.882812 306.09375 Z M 97.882812 334.820312 L 105.0625 334.820312 L 105.0625 320.457031 L 97.882812 320.457031 Z M 105.0625 219.929688 L 97.882812 219.929688 L 97.882812 227.105469 L 112.25 227.105469 L 112.25 219.929688 Z M 112.25 227.105469 L 112.25 234.28125 L 119.429688 234.28125 L 119.429688 227.105469 Z M 119.429688 306.09375 L 119.429688 298.914062 L 105.0625 298.914062 L 105.0625 306.09375 Z M 112.25 320.457031 L 112.25 327.632812 L 126.617188 327.632812 L 126.617188 320.457031 Z M 126.617188 140.933594 L 126.617188 133.753906 L 119.429688 133.753906 L 119.429688 155.292969 L 126.617188 155.292969 Z M 119.429688 241.46875 L 126.617188 241.46875 L 126.617188 234.28125 L 119.429688 234.28125 Z M 133.800781 126.566406 L 126.617188 126.566406 L 126.617188 133.753906 L 133.800781 133.753906 Z M 133.800781 155.292969 L 126.617188 155.292969 L 126.617188 169.660156 L 133.800781 169.660156 Z M 140.980469 119.390625 L 133.800781 119.390625 L 133.800781 126.566406 L 140.980469 126.566406 Z M 133.800781 169.660156 L 133.800781 176.835938 L 140.980469 176.835938 L 140.980469 169.660156 Z M 148.167969 112.214844 L 140.980469 112.214844 L 140.980469 119.390625 L 148.167969 119.390625 Z M 140.980469 176.835938 L 140.980469 184.023438 L 148.167969 184.023438 L 148.167969 176.835938 Z M 140.980469 298.914062 L 140.980469 306.09375 L 148.167969 306.09375 L 148.167969 298.914062 Z M 155.347656 105.027344 L 148.167969 105.027344 L 148.167969 112.214844 L 155.347656 112.214844 Z M 148.167969 133.753906 L 155.347656 133.753906 L 155.347656 126.566406 L 148.167969 126.566406 Z M 148.167969 184.023438 L 148.167969 191.203125 L 155.347656 191.203125 L 155.347656 184.023438 Z M 148.167969 313.277344 L 155.347656 313.277344 L 155.347656 306.09375 L 148.167969 306.09375 Z M 162.535156 97.847656 L 155.347656 97.847656 L 155.347656 105.027344 L 162.535156 105.027344 Z M 155.347656 191.203125 L 155.347656 198.378906 L 162.535156 198.378906 L 162.535156 191.203125 Z M 155.347656 219.929688 L 155.347656 241.46875 L 162.535156 241.46875 L 162.535156 212.742188 L 155.347656 212.742188 Z M 169.714844 90.664062 L 169.714844 83.484375 L 162.535156 83.484375 L 162.535156 97.847656 L 169.714844 97.847656 Z M 162.535156 198.378906 L 162.535156 205.5625 L 169.714844 205.5625 L 169.714844 198.378906 Z M 169.714844 126.566406 L 176.894531 126.566406 L 176.894531 119.390625 L 169.714844 119.390625 Z M 169.714844 205.5625 L 169.714844 212.742188 L 176.894531 212.742188 L 176.894531 205.5625 Z M 184.082031 76.308594 L 176.894531 76.308594 L 176.894531 83.484375 L 184.082031 83.484375 Z M 176.894531 212.742188 L 176.894531 219.929688 L 184.082031 219.929688 L 184.082031 212.742188 Z M 191.265625 69.125 L 184.082031 69.125 L 184.082031 76.308594 L 191.265625 76.308594 Z M 184.082031 227.105469 L 191.265625 227.105469 L 191.265625 219.929688 L 184.082031 219.929688 Z M 191.265625 248.648438 L 184.082031 248.648438 L 184.082031 255.832031 L 191.265625 255.832031 Z M 184.082031 270.191406 L 191.265625 270.191406 L 191.265625 263.011719 L 184.082031 263.011719 Z M 184.082031 284.550781 L 191.265625 284.550781 L 191.265625 277.371094 L 184.082031 277.371094 Z M 184.082031 298.914062 L 191.265625 298.914062 L 191.265625 291.730469 L 184.082031 291.730469 Z M 184.082031 306.09375 L 184.082031 313.277344 L 198.453125 313.277344 L 198.453125 306.09375 Z M 184.082031 334.820312 L 191.265625 334.820312 L 191.265625 327.632812 L 184.082031 327.632812 Z M 198.453125 83.484375 L 198.453125 76.308594 L 191.265625 76.308594 L 191.265625 83.484375 Z M 191.265625 219.929688 L 198.453125 219.929688 L 198.453125 212.742188 L 191.265625 212.742188 Z M 191.265625 327.632812 L 198.453125 327.632812 L 198.453125 320.457031 L 191.265625 320.457031 Z M 198.453125 126.566406 L 205.632812 126.566406 L 205.632812 119.390625 L 198.453125 119.390625 Z M 198.453125 212.742188 L 205.632812 212.742188 L 205.632812 205.5625 L 198.453125 205.5625 Z M 212.8125 83.484375 L 205.632812 83.484375 L 205.632812 97.847656 L 212.8125 97.847656 Z M 205.632812 205.5625 L 212.8125 205.5625 L 212.8125 198.378906 L 205.632812 198.378906 Z M 212.8125 97.847656 L 212.8125 105.027344 L 220 105.027344 L 220 97.847656 Z M 212.8125 198.378906 L 220 198.378906 L 220 191.203125 L 212.8125 191.203125 Z M 220 234.28125 L 220 212.742188 L 212.8125 212.742188 L 212.8125 241.46875 L 220 241.46875 Z M 220 105.027344 L 220 112.214844 L 227.179688 112.214844 L 227.179688 105.027344 Z M 227.179688 126.566406 L 220 126.566406 L 220 133.753906 L 227.179688 133.753906 Z M 220 191.203125 L 227.179688 191.203125 L 227.179688 184.023438 L 220 184.023438 Z M 220 313.277344 L 227.179688 313.277344 L 227.179688 306.09375 L 220 306.09375 Z M 227.179688 112.214844 L 227.179688 119.390625 L 234.367188 119.390625 L 234.367188 112.214844 Z M 227.179688 184.023438 L 234.367188 184.023438 L 234.367188 176.835938 L 227.179688 176.835938 Z M 227.179688 306.09375 L 234.367188 306.09375 L 234.367188 298.914062 L 227.179688 298.914062 Z M 234.367188 119.390625 L 234.367188 126.566406 L 241.546875 126.566406 L 241.546875 119.390625 Z M 234.367188 176.835938 L 241.546875 176.835938 L 241.546875 169.660156 L 234.367188 169.660156 Z M 241.546875 126.566406 L 241.546875 133.753906 L 248.730469 133.753906 L 248.730469 126.566406 Z M 248.730469 162.472656 L 248.730469 155.292969 L 241.546875 155.292969 L 241.546875 169.660156 L 248.730469 169.660156 Z M 255.917969 148.117188 L 255.917969 133.753906 L 248.730469 133.753906 L 248.730469 155.292969 L 255.917969 155.292969 Z M 248.730469 241.46875 L 255.917969 241.46875 L 255.917969 234.28125 L 248.730469 234.28125 Z M 248.730469 320.457031 L 248.730469 327.632812 L 263.097656 327.632812 L 263.097656 320.457031 Z M 255.917969 234.28125 L 263.097656 234.28125 L 263.097656 227.105469 L 255.917969 227.105469 Z M 263.097656 298.914062 L 255.917969 298.914062 L 255.917969 306.09375 L 270.285156 306.09375 L 270.285156 298.914062 Z M 277.46875 227.105469 L 277.46875 219.929688 L 263.097656 219.929688 L 263.097656 227.105469 Z M 270.285156 306.09375 L 270.285156 313.277344 L 277.46875 313.277344 L 277.46875 306.09375 Z M 270.285156 327.632812 L 270.285156 334.820312 L 277.46875 334.820312 L 277.46875 320.457031 L 270.285156 320.457031 Z M 277.46875 313.277344 L 277.46875 320.457031 L 284.648438 320.457031 L 284.648438 313.277344 Z M 291.832031 219.929688 L 291.832031 212.742188 L 277.46875 212.742188 L 277.46875 219.929688 Z M 284.648438 298.914062 L 284.648438 306.09375 L 291.832031 306.09375 L 291.832031 291.730469 L 284.648438 291.730469 Z M 284.648438 327.632812 L 291.832031 327.632812 L 291.832031 320.457031 L 284.648438 320.457031 Z M 291.832031 291.730469 L 299.011719 291.730469 L 299.011719 284.550781 L 291.832031 284.550781 Z M 313.382812 205.5625 L 306.195312 205.5625 L 306.195312 212.742188 L 313.382812 212.742188 Z M 306.195312 291.730469 L 306.195312 298.914062 L 320.5625 298.914062 L 320.5625 291.730469 Z M 327.75 219.929688 L 320.5625 219.929688 L 320.5625 227.105469 L 327.75 227.105469 Z M 320.5625 284.550781 L 327.75 284.550781 L 327.75 277.371094 L 320.5625 277.371094 Z M 334.929688 234.28125 L 334.929688 241.46875 L 327.75 241.46875 L 327.75 234.28125 L 334.929688 234.28125 " fill-opacity="1" fill-rule="nonzero"/><g clip-path="url(#d2050c70c9)"><path fill="#79d2db" d="M 40.417969 234.28125 L 47.597656 234.28125 L 47.597656 227.105469 L 40.417969 227.105469 Z M 54.785156 219.929688 L 61.964844 219.929688 L 61.964844 212.742188 L 54.785156 212.742188 Z M 69.152344 205.5625 L 76.335938 205.5625 L 76.335938 198.378906 L 69.152344 198.378906 Z M 83.515625 191.203125 L 83.515625 176.835938 L 76.335938 176.835938 L 76.335938 198.378906 L 83.515625 198.378906 Z M 90.703125 169.660156 L 83.515625 169.660156 L 83.515625 176.835938 L 90.703125 176.835938 Z M 83.515625 334.820312 L 90.703125 334.820312 L 90.703125 327.632812 L 83.515625 327.632812 Z M 97.882812 184.023438 L 105.0625 184.023438 L 105.0625 176.835938 L 90.703125 176.835938 L 90.703125 184.023438 Z M 90.703125 327.632812 L 97.882812 327.632812 L 97.882812 320.457031 L 90.703125 320.457031 Z M 105.0625 155.292969 L 105.0625 148.117188 L 97.882812 148.117188 L 97.882812 162.472656 L 105.0625 162.472656 Z M 112.25 169.660156 L 112.25 162.472656 L 105.0625 162.472656 L 105.0625 169.660156 Z M 112.25 191.203125 L 112.25 184.023438 L 105.0625 184.023438 L 105.0625 191.203125 Z M 119.429688 176.835938 L 119.429688 169.660156 L 112.25 169.660156 L 112.25 176.835938 Z M 126.617188 184.023438 L 126.617188 176.835938 L 119.429688 176.835938 L 119.429688 184.023438 Z M 119.429688 205.5625 L 126.617188 205.5625 L 126.617188 198.378906 L 119.429688 198.378906 Z M 133.800781 191.203125 L 133.800781 184.023438 L 126.617188 184.023438 L 126.617188 191.203125 Z M 140.980469 212.742188 L 133.800781 212.742188 L 133.800781 219.929688 L 140.980469 219.929688 Z M 133.800781 255.832031 L 140.980469 255.832031 L 140.980469 248.648438 L 133.800781 248.648438 Z M 140.980469 191.203125 L 140.980469 198.378906 L 148.167969 198.378906 L 148.167969 191.203125 Z M 148.167969 313.277344 L 148.167969 306.09375 L 140.980469 306.09375 L 140.980469 313.277344 Z M 140.980469 320.457031 L 133.800781 320.457031 L 133.800781 313.277344 L 126.617188 313.277344 L 126.617188 306.09375 L 140.980469 306.09375 L 140.980469 298.914062 L 119.429688 298.914062 L 119.429688 306.09375 L 105.0625 306.09375 L 105.0625 313.277344 L 97.882812 313.277344 L 97.882812 320.457031 L 105.0625 320.457031 L 105.0625 334.820312 L 112.25 334.820312 L 112.25 320.457031 L 126.617188 320.457031 L 126.617188 334.820312 L 133.800781 334.820312 L 133.800781 327.632812 L 148.167969 327.632812 L 148.167969 320.457031 Z M 148.167969 198.378906 L 148.167969 205.5625 L 155.347656 205.5625 L 155.347656 198.378906 Z M 148.167969 263.011719 L 155.347656 263.011719 L 155.347656 255.832031 L 148.167969 255.832031 Z M 148.167969 334.820312 L 155.347656 334.820312 L 155.347656 327.632812 L 148.167969 327.632812 Z M 162.535156 47.582031 L 155.347656 47.582031 L 155.347656 54.765625 L 162.535156 54.765625 Z M 155.347656 133.753906 L 155.347656 140.933594 L 162.535156 140.933594 L 162.535156 133.753906 L 176.894531 133.753906 L 176.894531 126.566406 L 169.714844 126.566406 L 169.714844 119.390625 L 148.167969 119.390625 L 148.167969 126.566406 L 155.347656 126.566406 Z M 155.347656 248.648438 L 162.535156 248.648438 L 162.535156 241.46875 L 155.347656 241.46875 Z M 162.535156 155.292969 L 162.535156 162.472656 L 169.714844 162.472656 L 169.714844 155.292969 Z M 162.535156 205.5625 L 155.347656 205.5625 L 155.347656 212.742188 L 169.714844 212.742188 L 169.714844 205.5625 Z M 176.894531 40.402344 L 169.714844 40.402344 L 169.714844 47.582031 L 176.894531 47.582031 Z M 169.714844 162.472656 L 169.714844 169.660156 L 176.894531 169.660156 L 176.894531 162.472656 Z M 169.714844 212.742188 L 169.714844 219.929688 L 176.894531 219.929688 L 176.894531 212.742188 Z M 184.082031 176.835938 L 198.453125 176.835938 L 198.453125 169.660156 L 176.894531 169.660156 L 176.894531 176.835938 Z M 176.894531 219.929688 L 176.894531 227.105469 L 184.082031 227.105469 L 184.082031 219.929688 Z M 191.265625 40.402344 L 198.453125 40.402344 L 198.453125 33.21875 L 176.894531 33.21875 L 176.894531 40.402344 Z M 191.265625 140.933594 L 184.082031 140.933594 L 184.082031 148.117188 L 191.265625 148.117188 Z M 184.082031 234.28125 L 191.265625 234.28125 L 191.265625 227.105469 L 184.082031 227.105469 Z M 191.265625 255.832031 L 184.082031 255.832031 L 184.082031 263.011719 L 191.265625 263.011719 Z M 184.082031 277.371094 L 191.265625 277.371094 L 191.265625 270.191406 L 184.082031 270.191406 Z M 184.082031 291.730469 L 191.265625 291.730469 L 191.265625 284.550781 L 184.082031 284.550781 Z M 184.082031 306.09375 L 191.265625 306.09375 L 191.265625 298.914062 L 184.082031 298.914062 Z M 184.082031 342 L 191.265625 342 L 191.265625 334.820312 L 184.082031 334.820312 Z M 191.265625 227.105469 L 198.453125 227.105469 L 198.453125 219.929688 L 191.265625 219.929688 Z M 191.265625 320.457031 L 198.453125 320.457031 L 198.453125 313.277344 L 191.265625 313.277344 Z M 191.265625 334.820312 L 198.453125 334.820312 L 198.453125 327.632812 L 191.265625 327.632812 Z M 205.632812 47.582031 L 205.632812 40.402344 L 198.453125 40.402344 L 198.453125 47.582031 Z M 205.632812 162.472656 L 198.453125 162.472656 L 198.453125 169.660156 L 205.632812 169.660156 Z M 198.453125 219.929688 L 205.632812 219.929688 L 205.632812 212.742188 L 198.453125 212.742188 Z M 205.632812 126.566406 L 198.453125 126.566406 L 198.453125 133.753906 L 212.8125 133.753906 L 212.8125 140.933594 L 220 140.933594 L 220 126.566406 L 227.179688 126.566406 L 227.179688 119.390625 L 205.632812 119.390625 Z M 212.8125 155.292969 L 205.632812 155.292969 L 205.632812 162.472656 L 212.8125 162.472656 Z M 220 47.582031 L 212.8125 47.582031 L 212.8125 54.765625 L 220 54.765625 Z M 220 212.742188 L 220 205.5625 L 205.632812 205.5625 L 205.632812 212.742188 Z M 220 241.46875 L 212.8125 241.46875 L 212.8125 248.648438 L 220 248.648438 Z M 227.179688 198.378906 L 220 198.378906 L 220 205.5625 L 227.179688 205.5625 Z M 220 263.011719 L 227.179688 263.011719 L 227.179688 255.832031 L 220 255.832031 Z M 220 334.820312 L 227.179688 334.820312 L 227.179688 327.632812 L 220 327.632812 Z M 234.367188 191.203125 L 227.179688 191.203125 L 227.179688 198.378906 L 234.367188 198.378906 Z M 227.179688 248.648438 L 234.367188 248.648438 L 234.367188 241.46875 L 227.179688 241.46875 Z M 227.179688 313.277344 L 234.367188 313.277344 L 234.367188 306.09375 L 227.179688 306.09375 Z M 234.367188 219.929688 L 241.546875 219.929688 L 241.546875 212.742188 L 234.367188 212.742188 Z M 248.730469 184.023438 L 241.546875 184.023438 L 241.546875 191.203125 L 248.730469 191.203125 Z M 241.546875 255.832031 L 248.730469 255.832031 L 248.730469 248.648438 L 241.546875 248.648438 Z M 255.917969 176.835938 L 248.730469 176.835938 L 248.730469 184.023438 L 255.917969 184.023438 Z M 248.730469 205.5625 L 255.917969 205.5625 L 255.917969 198.378906 L 248.730469 198.378906 Z M 263.097656 169.660156 L 255.917969 169.660156 L 255.917969 176.835938 L 263.097656 176.835938 Z M 270.285156 162.472656 L 263.097656 162.472656 L 263.097656 169.660156 L 270.285156 169.660156 Z M 263.097656 191.203125 L 270.285156 191.203125 L 270.285156 184.023438 L 263.097656 184.023438 Z M 277.46875 155.292969 L 277.46875 148.117188 L 270.285156 148.117188 L 270.285156 162.472656 L 277.46875 162.472656 Z M 270.285156 176.835938 L 270.285156 184.023438 L 284.648438 184.023438 L 284.648438 176.835938 Z M 270.285156 313.277344 L 270.285156 306.09375 L 255.917969 306.09375 L 255.917969 298.914062 L 234.367188 298.914062 L 234.367188 306.09375 L 248.730469 306.09375 L 248.730469 313.277344 L 241.546875 313.277344 L 241.546875 320.457031 L 227.179688 320.457031 L 227.179688 327.632812 L 241.546875 327.632812 L 241.546875 334.820312 L 248.730469 334.820312 L 248.730469 320.457031 L 263.097656 320.457031 L 263.097656 334.820312 L 270.285156 334.820312 L 270.285156 320.457031 L 277.46875 320.457031 L 277.46875 313.277344 Z M 277.46875 320.457031 L 277.46875 327.632812 L 284.648438 327.632812 L 284.648438 320.457031 Z M 284.648438 169.660156 L 284.648438 176.835938 L 291.832031 176.835938 L 291.832031 169.660156 Z M 284.648438 334.820312 L 291.832031 334.820312 L 291.832031 327.632812 L 284.648438 327.632812 Z M 299.011719 184.023438 L 299.011719 176.835938 L 291.832031 176.835938 L 291.832031 198.378906 L 299.011719 198.378906 Z M 299.011719 205.5625 L 306.195312 205.5625 L 306.195312 198.378906 L 299.011719 198.378906 Z M 313.382812 219.929688 L 320.5625 219.929688 L 320.5625 212.742188 L 313.382812 212.742188 Z M 334.929688 227.105469 L 334.929688 234.28125 L 327.75 234.28125 L 327.75 227.105469 L 334.929688 227.105469 " fill-opacity="1" fill-rule="nonzero"/></g><g clip-path="url(#01268d66b5)"><path fill="#21224e" d="M 148.167969 191.203125 L 155.347656 191.203125 L 155.347656 198.378906 L 148.167969 198.378906 Z M 155.347656 198.378906 L 162.535156 198.378906 L 162.535156 205.5625 L 155.347656 205.5625 Z M 212.8125 205.5625 L 212.8125 198.378906 L 220 198.378906 L 220 205.5625 Z M 220 198.378906 L 220 191.203125 L 227.179688 191.203125 L 227.179688 198.378906 Z M 284.648438 334.820312 L 284.648438 327.632812 L 277.46875 327.632812 L 277.46875 334.820312 L 263.097656 334.820312 L 263.097656 327.632812 L 248.730469 327.632812 L 248.730469 334.820312 L 241.546875 334.820312 L 241.546875 327.632812 L 227.179688 327.632812 L 227.179688 334.820312 L 220 334.820312 L 220 327.632812 L 227.179688 327.632812 L 227.179688 320.457031 L 241.546875 320.457031 L 241.546875 313.277344 L 248.730469 313.277344 L 248.730469 306.09375 L 234.367188 306.09375 L 234.367188 313.277344 L 220 313.277344 L 220 306.09375 L 227.179688 306.09375 L 227.179688 298.914062 L 270.285156 298.914062 L 270.285156 306.09375 L 277.46875 306.09375 L 277.46875 313.277344 L 284.648438 313.277344 L 284.648438 320.457031 L 291.832031 320.457031 L 291.832031 334.820312 Z M 148.167969 334.820312 L 148.167969 327.632812 L 133.800781 327.632812 L 133.800781 334.820312 L 126.617188 334.820312 L 126.617188 327.632812 L 112.25 327.632812 L 112.25 334.820312 L 97.882812 334.820312 L 97.882812 327.632812 L 90.703125 327.632812 L 90.703125 334.820312 L 83.515625 334.820312 L 83.515625 320.457031 L 90.703125 320.457031 L 90.703125 313.277344 L 97.882812 313.277344 L 97.882812 306.09375 L 105.0625 306.09375 L 105.0625 298.914062 L 148.167969 298.914062 L 148.167969 306.09375 L 155.347656 306.09375 L 155.347656 313.277344 L 140.980469 313.277344 L 140.980469 306.09375 L 126.617188 306.09375 L 126.617188 313.277344 L 133.800781 313.277344 L 133.800781 320.457031 L 148.167969 320.457031 L 148.167969 327.632812 L 155.347656 327.632812 L 155.347656 334.820312 Z M 126.617188 205.5625 L 119.429688 205.5625 L 119.429688 198.378906 L 126.617188 198.378906 Z M 76.335938 306.09375 L 76.335938 298.914062 L 83.515625 298.914062 L 83.515625 306.09375 Z M 140.980469 212.742188 L 140.980469 219.929688 L 133.800781 219.929688 L 133.800781 212.742188 Z M 155.347656 263.011719 L 148.167969 263.011719 L 148.167969 255.832031 L 155.347656 255.832031 Z M 140.980469 248.648438 L 140.980469 255.832031 L 133.800781 255.832031 L 133.800781 248.648438 Z M 47.597656 291.730469 L 54.785156 291.730469 L 54.785156 298.914062 L 47.597656 298.914062 Z M 69.152344 306.09375 L 61.964844 306.09375 L 61.964844 298.914062 L 69.152344 298.914062 Z M 83.515625 212.742188 L 97.882812 212.742188 L 97.882812 219.929688 L 112.25 219.929688 L 112.25 227.105469 L 119.429688 227.105469 L 119.429688 234.28125 L 126.617188 234.28125 L 126.617188 241.46875 L 119.429688 241.46875 L 119.429688 234.28125 L 112.25 234.28125 L 112.25 227.105469 L 97.882812 227.105469 L 97.882812 219.929688 L 83.515625 219.929688 Z M 140.980469 184.023438 L 140.980469 176.835938 L 133.800781 176.835938 L 133.800781 169.660156 L 126.617188 169.660156 L 126.617188 155.292969 L 119.429688 155.292969 L 119.429688 133.753906 L 126.617188 133.753906 L 126.617188 126.566406 L 133.800781 126.566406 L 133.800781 119.390625 L 140.980469 119.390625 L 140.980469 112.214844 L 148.167969 112.214844 L 148.167969 105.027344 L 155.347656 105.027344 L 155.347656 97.847656 L 162.535156 97.847656 L 162.535156 83.484375 L 169.714844 83.484375 L 169.714844 97.847656 L 162.535156 97.847656 L 162.535156 105.027344 L 155.347656 105.027344 L 155.347656 112.214844 L 148.167969 112.214844 L 148.167969 119.390625 L 176.894531 119.390625 L 176.894531 133.753906 L 162.535156 133.753906 L 162.535156 140.933594 L 155.347656 140.933594 L 155.347656 133.753906 L 148.167969 133.753906 L 148.167969 119.390625 L 140.980469 119.390625 L 140.980469 126.566406 L 133.800781 126.566406 L 133.800781 133.753906 L 126.617188 133.753906 L 126.617188 155.292969 L 133.800781 155.292969 L 133.800781 169.660156 L 140.980469 169.660156 L 140.980469 176.835938 L 148.167969 176.835938 L 148.167969 184.023438 L 155.347656 184.023438 L 155.347656 191.203125 L 162.535156 191.203125 L 162.535156 198.378906 L 169.714844 198.378906 L 169.714844 205.5625 L 176.894531 205.5625 L 176.894531 212.742188 L 184.082031 212.742188 L 184.082031 219.929688 L 191.265625 219.929688 L 191.265625 212.742188 L 198.453125 212.742188 L 198.453125 205.5625 L 205.632812 205.5625 L 205.632812 198.378906 L 212.8125 198.378906 L 212.8125 191.203125 L 220 191.203125 L 220 184.023438 L 227.179688 184.023438 L 227.179688 176.835938 L 234.367188 176.835938 L 234.367188 169.660156 L 241.546875 169.660156 L 241.546875 155.292969 L 248.730469 155.292969 L 248.730469 133.753906 L 241.546875 133.753906 L 241.546875 126.566406 L 234.367188 126.566406 L 234.367188 119.390625 L 227.179688 119.390625 L 227.179688 133.753906 L 220 133.753906 L 220 140.933594 L 212.8125 140.933594 L 212.8125 133.753906 L 198.453125 133.753906 L 198.453125 119.390625 L 227.179688 119.390625 L 227.179688 112.214844 L 220 112.214844 L 220 105.027344 L 212.8125 105.027344 L 212.8125 97.847656 L 205.632812 97.847656 L 205.632812 83.484375 L 212.8125 83.484375 L 212.8125 97.847656 L 220 97.847656 L 220 105.027344 L 227.179688 105.027344 L 227.179688 112.214844 L 234.367188 112.214844 L 234.367188 119.390625 L 241.546875 119.390625 L 241.546875 126.566406 L 248.730469 126.566406 L 248.730469 133.753906 L 255.917969 133.753906 L 255.917969 155.292969 L 248.730469 155.292969 L 248.730469 169.660156 L 241.546875 169.660156 L 241.546875 176.835938 L 234.367188 176.835938 L 234.367188 184.023438 L 227.179688 184.023438 L 227.179688 191.203125 L 234.367188 191.203125 L 234.367188 198.378906 L 227.179688 198.378906 L 227.179688 205.5625 L 220 205.5625 L 220 248.648438 L 212.8125 248.648438 L 212.8125 212.742188 L 205.632812 212.742188 L 205.632812 219.929688 L 198.453125 219.929688 L 198.453125 227.105469 L 191.265625 227.105469 L 191.265625 234.28125 L 184.082031 234.28125 L 184.082031 227.105469 L 176.894531 227.105469 L 176.894531 219.929688 L 169.714844 219.929688 L 169.714844 212.742188 L 162.535156 212.742188 L 162.535156 248.648438 L 155.347656 248.648438 L 155.347656 205.5625 L 148.167969 205.5625 L 148.167969 198.378906 L 140.980469 198.378906 L 140.980469 191.203125 L 148.167969 191.203125 L 148.167969 184.023438 Z M 212.8125 162.472656 L 205.632812 162.472656 L 205.632812 169.660156 L 198.453125 169.660156 L 198.453125 176.835938 L 176.894531 176.835938 L 176.894531 169.660156 L 169.714844 169.660156 L 169.714844 162.472656 L 162.535156 162.472656 L 162.535156 155.292969 L 169.714844 155.292969 L 169.714844 162.472656 L 176.894531 162.472656 L 176.894531 169.660156 L 198.453125 169.660156 L 198.453125 162.472656 L 205.632812 162.472656 L 205.632812 155.292969 L 212.8125 155.292969 Z M 191.265625 140.933594 L 191.265625 148.117188 L 184.082031 148.117188 L 184.082031 140.933594 Z M 198.453125 83.484375 L 191.265625 83.484375 L 191.265625 76.308594 L 184.082031 76.308594 L 184.082031 83.484375 L 176.894531 83.484375 L 176.894531 76.308594 L 184.082031 76.308594 L 184.082031 69.125 L 191.265625 69.125 L 191.265625 76.308594 L 198.453125 76.308594 Z M 255.917969 198.378906 L 255.917969 205.5625 L 248.730469 205.5625 L 248.730469 198.378906 Z M 284.648438 298.914062 L 284.648438 291.730469 L 291.832031 291.730469 L 291.832031 284.550781 L 299.011719 284.550781 L 299.011719 291.730469 L 291.832031 291.730469 L 291.832031 306.09375 L 284.648438 306.09375 Z M 227.179688 263.011719 L 220 263.011719 L 220 255.832031 L 227.179688 255.832031 Z M 241.546875 212.742188 L 241.546875 219.929688 L 234.367188 219.929688 L 234.367188 212.742188 Z M 291.832031 219.929688 L 277.46875 219.929688 L 277.46875 227.105469 L 263.097656 227.105469 L 263.097656 234.28125 L 255.917969 234.28125 L 255.917969 241.46875 L 248.730469 241.46875 L 248.730469 234.28125 L 255.917969 234.28125 L 255.917969 227.105469 L 263.097656 227.105469 L 263.097656 219.929688 L 277.46875 219.929688 L 277.46875 212.742188 L 291.832031 212.742188 Z M 241.546875 248.648438 L 248.730469 248.648438 L 248.730469 255.832031 L 241.546875 255.832031 Z M 320.5625 298.914062 L 306.195312 298.914062 L 306.195312 291.730469 L 320.5625 291.730469 Z M 327.75 284.550781 L 320.5625 284.550781 L 320.5625 277.371094 L 327.75 277.371094 Z M 227.179688 241.46875 L 234.367188 241.46875 L 234.367188 248.648438 L 227.179688 248.648438 Z M 342.113281 263.011719 L 342.113281 248.648438 L 334.929688 248.648438 L 334.929688 241.46875 L 327.75 241.46875 L 327.75 227.105469 L 320.5625 227.105469 L 320.5625 219.929688 L 313.382812 219.929688 L 313.382812 212.742188 L 306.195312 212.742188 L 306.195312 205.5625 L 299.011719 205.5625 L 299.011719 198.378906 L 291.832031 198.378906 L 291.832031 176.835938 L 284.648438 176.835938 L 284.648438 184.023438 L 270.285156 184.023438 L 270.285156 191.203125 L 263.097656 191.203125 L 263.097656 184.023438 L 270.285156 184.023438 L 270.285156 176.835938 L 284.648438 176.835938 L 284.648438 155.292969 L 277.46875 155.292969 L 277.46875 162.472656 L 270.285156 162.472656 L 270.285156 169.660156 L 263.097656 169.660156 L 263.097656 176.835938 L 255.917969 176.835938 L 255.917969 184.023438 L 248.730469 184.023438 L 248.730469 191.203125 L 241.546875 191.203125 L 241.546875 184.023438 L 248.730469 184.023438 L 248.730469 176.835938 L 255.917969 176.835938 L 255.917969 169.660156 L 263.097656 169.660156 L 263.097656 162.472656 L 270.285156 162.472656 L 270.285156 148.117188 L 263.097656 148.117188 L 263.097656 105.027344 L 255.917969 105.027344 L 255.917969 97.847656 L 248.730469 97.847656 L 248.730469 83.484375 L 241.546875 83.484375 L 241.546875 69.125 L 234.367188 69.125 L 234.367188 61.945312 L 227.179688 61.945312 L 227.179688 54.765625 L 212.8125 54.765625 L 212.8125 47.582031 L 198.453125 47.582031 L 198.453125 40.402344 L 176.894531 40.402344 L 176.894531 47.582031 L 162.535156 47.582031 L 162.535156 54.765625 L 148.167969 54.765625 L 148.167969 61.945312 L 140.980469 61.945312 L 140.980469 69.125 L 133.800781 69.125 L 133.800781 83.484375 L 126.617188 83.484375 L 126.617188 97.847656 L 119.429688 97.847656 L 119.429688 105.027344 L 112.25 105.027344 L 112.25 148.117188 L 105.0625 148.117188 L 105.0625 162.472656 L 112.25 162.472656 L 112.25 169.660156 L 119.429688 169.660156 L 119.429688 176.835938 L 126.617188 176.835938 L 126.617188 184.023438 L 133.800781 184.023438 L 133.800781 191.203125 L 126.617188 191.203125 L 126.617188 184.023438 L 119.429688 184.023438 L 119.429688 176.835938 L 112.25 176.835938 L 112.25 169.660156 L 105.0625 169.660156 L 105.0625 162.472656 L 97.882812 162.472656 L 97.882812 155.292969 L 90.703125 155.292969 L 90.703125 176.835938 L 105.0625 176.835938 L 105.0625 184.023438 L 112.25 184.023438 L 112.25 191.203125 L 105.0625 191.203125 L 105.0625 184.023438 L 90.703125 184.023438 L 90.703125 176.835938 L 83.515625 176.835938 L 83.515625 198.378906 L 76.335938 198.378906 L 76.335938 205.5625 L 69.152344 205.5625 L 69.152344 212.742188 L 61.964844 212.742188 L 61.964844 219.929688 L 54.785156 219.929688 L 54.785156 227.105469 L 47.597656 227.105469 L 47.597656 241.46875 L 40.417969 241.46875 L 40.417969 248.648438 L 33.238281 248.648438 L 33.238281 263.011719 L 26.050781 263.011719 L 26.050781 306.09375 L 33.238281 306.09375 L 33.238281 320.457031 L 40.417969 320.457031 L 40.417969 327.632812 L 47.597656 327.632812 L 47.597656 334.820312 L 54.785156 334.820312 L 54.785156 342 L 184.082031 342 L 184.082031 327.632812 L 191.265625 327.632812 L 191.265625 313.277344 L 184.082031 313.277344 L 184.082031 248.648438 L 191.265625 248.648438 L 191.265625 306.09375 L 198.453125 306.09375 L 198.453125 334.820312 L 191.265625 334.820312 L 191.265625 342 L 313.382812 342 L 313.382812 334.820312 L 320.5625 334.820312 L 320.5625 327.632812 L 327.75 327.632812 L 327.75 320.457031 L 334.929688 320.457031 L 334.929688 313.277344 L 342.113281 313.277344 L 342.113281 298.914062 L 349.300781 298.914062 L 349.300781 263.011719 L 342.113281 263.011719 " fill-opacity="1" fill-rule="nonzero"/></g></svg>