<svg xmlns="http://www.w3.org/2000/svg" xmlns:xlink="http://www.w3.org/1999/xlink" width="500" zoomAndPan="magnify" viewBox="0 0 375 374.999991" height="500" preserveAspectRatio="xMidYMid meet" version="1.0"><defs><clipPath id="6b3806738a"><path d="M 30.023438 30.023438 L 345 30.023438 L 345 345 L 30.023438 345 Z M 30.023438 30.023438 " clip-rule="nonzero"/></clipPath></defs><path fill="#9b2530" d="M 187.496094 33.542969 C 102.46875 33.542969 33.542969 102.46875 33.542969 187.496094 C 33.542969 272.519531 102.46875 341.445312 187.496094 341.445312 C 272.519531 341.445312 341.445312 272.519531 341.445312 187.496094 C 341.445312 102.46875 272.519531 33.542969 187.496094 33.542969 Z M 271.613281 271.613281 C 249.144531 294.082031 219.269531 306.460938 187.496094 306.460938 C 155.71875 306.460938 125.84375 294.082031 103.375 271.613281 C 80.90625 249.144531 68.527344 219.269531 68.527344 187.496094 C 68.527344 155.71875 80.90625 125.84375 103.375 103.375 C 125.84375 80.90625 155.71875 68.527344 187.496094 68.527344 C 219.269531 68.527344 249.144531 80.90625 271.613281 103.375 C 294.082031 125.84375 306.460938 155.71875 306.460938 187.496094 C 306.460938 219.269531 294.082031 249.144531 271.613281 271.613281 Z M 271.613281 271.613281 " fill-opacity="1" fill-rule="nonzero"/><g clip-path="url(#6b3806738a)"><path fill="#9b2530" d="M 187.496094 344.964844 C 100.664062 344.964844 30.023438 274.324219 30.023438 187.496094 C 30.023438 100.664062 100.664062 30.023438 187.496094 30.023438 C 274.324219 30.023438 344.964844 100.664062 344.964844 187.496094 C 344.964844 274.324219 274.324219 344.964844 187.496094 344.964844 Z M 187.496094 37.0625 C 104.546875 37.0625 37.0625 104.546875 37.0625 187.496094 C 37.0625 270.445312 104.546875 337.925781 187.496094 337.925781 C 270.445312 337.925781 337.925781 270.445312 337.925781 187.496094 C 337.925781 104.546875 270.445312 37.0625 187.496094 37.0625 Z M 187.496094 309.976562 C 154.777344 309.976562 124.023438 297.238281 100.886719 274.101562 C 77.75 250.964844 65.011719 220.210938 65.011719 187.496094 C 65.011719 154.777344 77.75 124.023438 100.886719 100.886719 C 124.023438 77.75 154.777344 65.011719 187.496094 65.011719 C 220.210938 65.011719 250.964844 77.75 274.101562 100.886719 C 297.238281 124.023438 309.976562 154.777344 309.976562 187.496094 C 309.976562 220.210938 297.238281 250.964844 274.101562 274.101562 C 250.964844 297.238281 220.210938 309.976562 187.496094 309.976562 Z M 187.496094 72.046875 C 156.660156 72.046875 127.664062 84.054688 105.863281 105.863281 C 84.054688 127.664062 72.046875 156.660156 72.046875 187.496094 C 72.046875 218.328125 84.054688 247.324219 105.863281 269.125 C 127.671875 290.933594 156.660156 302.933594 187.496094 302.933594 C 218.328125 302.933594 247.324219 290.921875 269.125 269.125 C 290.933594 247.316406 302.941406 218.328125 302.941406 187.496094 C 302.941406 156.660156 290.933594 127.664062 269.125 105.863281 C 247.324219 84.054688 218.328125 72.046875 187.496094 72.046875 Z M 187.496094 72.046875 " fill-opacity="1" fill-rule="nonzero"/></g></svg>