<svg xmlns="http://www.w3.org/2000/svg" xmlns:xlink="http://www.w3.org/1999/xlink" width="500" zoomAndPan="magnify" viewBox="0 0 375 374.999991" height="500" preserveAspectRatio="xMidYMid meet" version="1.0"><defs><clipPath id="5c50cdb39a"><path d="M 30 30.550781 L 344.976562 30.550781 L 344.976562 344.800781 L 30 344.800781 Z M 30 30.550781 " clip-rule="nonzero"/></clipPath></defs><path fill="#25309b" d="M 212.574219 187.671875 L 340.769531 315.867188 L 315.695312 340.945312 L 187.5 212.75 L 59.304688 340.945312 L 34.230469 315.867188 L 162.425781 187.671875 L 34.230469 59.476562 L 59.304688 34.402344 L 187.5 162.597656 L 315.695312 34.402344 L 340.769531 59.476562 Z M 212.574219 187.671875 " fill-opacity="1" fill-rule="nonzero"/><g clip-path="url(#5c50cdb39a)"><path fill="#25309b" d="M 315.695312 344.449219 C 314.800781 344.449219 313.898438 344.105469 313.214844 343.421875 L 187.5 217.707031 L 61.78125 343.421875 C 61.125 344.078125 60.234375 344.449219 59.304688 344.449219 C 58.375 344.449219 57.480469 344.078125 56.824219 343.421875 L 31.75 318.347656 C 30.382812 316.980469 30.382812 314.765625 31.75 313.390625 L 157.46875 187.671875 L 31.75 61.957031 C 30.382812 60.589844 30.382812 58.375 31.75 57 L 56.824219 31.925781 C 57.480469 31.265625 58.375 30.898438 59.304688 30.898438 C 60.234375 30.898438 61.125 31.265625 61.78125 31.925781 L 187.5 157.640625 L 313.214844 31.925781 C 314.582031 30.558594 316.800781 30.558594 318.175781 31.925781 L 343.25 57 C 344.617188 58.367188 344.617188 60.582031 343.25 61.957031 L 217.53125 187.671875 L 343.25 313.390625 C 343.90625 314.046875 344.273438 314.941406 344.273438 315.867188 C 344.273438 316.796875 343.90625 317.691406 343.25 318.347656 L 318.175781 343.421875 C 317.492188 344.105469 316.589844 344.449219 315.695312 344.449219 Z M 187.5 209.246094 C 188.394531 209.246094 189.296875 209.585938 189.976562 210.269531 L 315.695312 335.988281 L 335.8125 315.867188 L 210.097656 190.152344 C 209.4375 189.496094 209.070312 188.601562 209.070312 187.671875 C 209.070312 186.746094 209.4375 185.851562 210.097656 185.195312 L 335.8125 59.476562 L 315.695312 39.359375 L 189.976562 165.078125 C 188.613281 166.441406 186.386719 166.441406 185.019531 165.078125 L 59.304688 39.359375 L 39.1875 59.476562 L 164.902344 185.195312 C 166.269531 186.5625 166.269531 188.777344 164.902344 190.152344 L 39.1875 315.867188 L 59.304688 335.988281 L 185.019531 210.269531 C 185.703125 209.585938 186.605469 209.246094 187.5 209.246094 Z M 187.5 209.246094 " fill-opacity="1" fill-rule="nonzero"/></g></svg>